G04 (created by PCBNEW (22-Jun-2014 BZR 4027)-stable) date Sun 17 Dec 2017 02:55:52 AM CST*
%MOIN*%
G04 Gerber Fmt 3.4, Leading zero omitted, Abs format*
%FSLAX34Y34*%
G01*
G70*
G90*
G04 APERTURE LIST*
%ADD10C,0.00590551*%
%ADD11C,0.05*%
%ADD12R,0.069X0.069*%
%ADD13O,0.069X0.069*%
%ADD14C,0.059*%
%ADD15R,0.059X0.059*%
%ADD16O,0.059X0.059*%
%ADD17R,0.06X0.06*%
%ADD18C,0.06*%
%ADD19C,0.15*%
%ADD20C,0.035*%
%ADD21C,0.01*%
G04 APERTURE END LIST*
G54D10*
G54D11*
X87542Y-58542D03*
X88957Y-58542D03*
X89239Y-59250D03*
X88250Y-58260D03*
X88957Y-59957D03*
X88250Y-60239D03*
X87542Y-59957D03*
X87260Y-59250D03*
G54D12*
X87000Y-50750D03*
G54D13*
X88000Y-50750D03*
X89000Y-50750D03*
G54D14*
X73000Y-52500D03*
X73000Y-50500D03*
X73000Y-52000D03*
X73000Y-54500D03*
X73000Y-56500D03*
X73000Y-55000D03*
X73000Y-61500D03*
X73000Y-59500D03*
X73000Y-61000D03*
G54D15*
X80000Y-55250D03*
G54D16*
X81000Y-55250D03*
X82000Y-55250D03*
X83000Y-55250D03*
X83000Y-52250D03*
X82000Y-52250D03*
X80000Y-52250D03*
X81000Y-52250D03*
G54D17*
X79500Y-61250D03*
G54D18*
X80500Y-61250D03*
X81500Y-61250D03*
X82500Y-61250D03*
X83500Y-61250D03*
G54D17*
X83500Y-49250D03*
G54D18*
X82500Y-49250D03*
X81500Y-49250D03*
X80500Y-49250D03*
X79500Y-49250D03*
G54D15*
X86000Y-48000D03*
G54D16*
X90000Y-48000D03*
G54D12*
X86000Y-49000D03*
G54D13*
X90000Y-49000D03*
G54D16*
X85000Y-52250D03*
X90000Y-52250D03*
X85000Y-53250D03*
X90000Y-53250D03*
G54D14*
X90000Y-54500D03*
X85000Y-54500D03*
G54D16*
X84000Y-56250D03*
X79000Y-56250D03*
X84000Y-57250D03*
X79000Y-57250D03*
X85000Y-47500D03*
X80000Y-47500D03*
G54D14*
X77500Y-50250D03*
X77500Y-55250D03*
G54D16*
X76000Y-55250D03*
X76000Y-50250D03*
X77500Y-57250D03*
X77500Y-62250D03*
G54D14*
X76500Y-57250D03*
X76500Y-62250D03*
X75500Y-57250D03*
X75500Y-62250D03*
G54D16*
X74500Y-62250D03*
X74500Y-57250D03*
G54D14*
X74000Y-52500D03*
X74000Y-54500D03*
X74000Y-53500D03*
G54D19*
X73500Y-48250D03*
X86000Y-56750D03*
X90500Y-61750D03*
G54D20*
X83000Y-56750D03*
X75000Y-60500D03*
X86250Y-51500D03*
X89000Y-53250D03*
X83500Y-53500D03*
X81000Y-53250D03*
X78250Y-58250D03*
X85000Y-59250D03*
X86250Y-54000D03*
X86250Y-52250D03*
G54D21*
X88000Y-50750D02*
X88000Y-49750D01*
X84000Y-49250D02*
X83500Y-49250D01*
X84500Y-49750D02*
X84000Y-49250D01*
X86000Y-49750D02*
X84500Y-49750D01*
X88000Y-49750D02*
X86000Y-49750D01*
X79000Y-56250D02*
X76000Y-56250D01*
X74750Y-53250D02*
X74000Y-52500D01*
X74750Y-55000D02*
X74750Y-53250D01*
X76000Y-56250D02*
X74750Y-55000D01*
X74000Y-52500D02*
X74000Y-51500D01*
X74000Y-51500D02*
X73000Y-50500D01*
X88250Y-58260D02*
X88250Y-58250D01*
X88250Y-58250D02*
X88000Y-58000D01*
X88000Y-58000D02*
X84500Y-58000D01*
X84500Y-58000D02*
X84500Y-56750D01*
X84500Y-56750D02*
X83000Y-56750D01*
X83000Y-57250D02*
X79000Y-57250D01*
X83000Y-56750D02*
X83000Y-57250D01*
X79000Y-57250D02*
X79000Y-56250D01*
X79500Y-60500D02*
X75000Y-60500D01*
X74000Y-53500D02*
X73000Y-52500D01*
X74000Y-53500D02*
X73000Y-54500D01*
X73000Y-55000D02*
X73000Y-54500D01*
X73000Y-52000D02*
X73000Y-52500D01*
X87542Y-59957D02*
X86750Y-60750D01*
X79500Y-60500D02*
X79500Y-61250D01*
X84000Y-60500D02*
X79500Y-60500D01*
X84250Y-60750D02*
X84000Y-60500D01*
X86750Y-60750D02*
X84250Y-60750D01*
X90750Y-60500D02*
X91500Y-60500D01*
X91500Y-59500D02*
X90750Y-58750D01*
X91500Y-60500D02*
X91500Y-59500D01*
X88250Y-60250D02*
X88250Y-60239D01*
X74000Y-54500D02*
X74000Y-55500D01*
X74000Y-55500D02*
X73000Y-56500D01*
X90000Y-53250D02*
X89750Y-53250D01*
X88500Y-54500D02*
X85000Y-54500D01*
X89750Y-53250D02*
X88500Y-54500D01*
X83000Y-55250D02*
X83500Y-55250D01*
X83500Y-55250D02*
X84250Y-54500D01*
X84250Y-54500D02*
X85000Y-54500D01*
X73000Y-61500D02*
X73000Y-61000D01*
X75500Y-62250D02*
X75000Y-61750D01*
X73250Y-61500D02*
X73000Y-61500D01*
X73500Y-61750D02*
X73250Y-61500D01*
X75000Y-61750D02*
X73500Y-61750D01*
X76500Y-62250D02*
X75500Y-62250D01*
X88250Y-60239D02*
X88250Y-60250D01*
X88250Y-60250D02*
X87250Y-61250D01*
X87250Y-61250D02*
X83500Y-61250D01*
X88250Y-60239D02*
X88250Y-61250D01*
X88250Y-61250D02*
X86500Y-63000D01*
X86500Y-63000D02*
X81750Y-63000D01*
X81750Y-63000D02*
X81750Y-61500D01*
X81750Y-61500D02*
X81500Y-61250D01*
X90750Y-58500D02*
X90750Y-58500D01*
X88250Y-60250D02*
X88750Y-60500D01*
X88750Y-60500D02*
X90750Y-60500D01*
X90750Y-58500D02*
X90750Y-58750D01*
X90750Y-53250D02*
X90000Y-53250D01*
X90750Y-58500D02*
X90750Y-53250D01*
X80250Y-50000D02*
X79500Y-49250D01*
X84000Y-50000D02*
X80250Y-50000D01*
X85000Y-51000D02*
X84000Y-50000D01*
X85750Y-51000D02*
X85000Y-51000D01*
X86250Y-51500D02*
X85750Y-51000D01*
X89000Y-50750D02*
X90000Y-50750D01*
X90000Y-50750D02*
X90000Y-52250D01*
X87000Y-50750D02*
X87000Y-53250D01*
X87000Y-53250D02*
X89000Y-53250D01*
X80000Y-55250D02*
X80000Y-54000D01*
X83000Y-54000D02*
X83500Y-53500D01*
X82750Y-54000D02*
X83000Y-54000D01*
X80000Y-54000D02*
X82750Y-54000D01*
X77500Y-50250D02*
X77500Y-53250D01*
X77500Y-53250D02*
X81000Y-53250D01*
X76000Y-50250D02*
X77500Y-50250D01*
X84000Y-56250D02*
X82000Y-56250D01*
X82000Y-56250D02*
X82000Y-55250D01*
X90000Y-54500D02*
X89250Y-54500D01*
X84250Y-56250D02*
X84000Y-56250D01*
X85500Y-55000D02*
X84250Y-56250D01*
X88750Y-55000D02*
X85500Y-55000D01*
X89250Y-54500D02*
X88750Y-55000D01*
X88957Y-59957D02*
X90457Y-59957D01*
X90500Y-54500D02*
X90000Y-54500D01*
X90500Y-59914D02*
X90500Y-54500D01*
X90457Y-59957D02*
X90500Y-59914D01*
X74500Y-57250D02*
X74250Y-57250D01*
X73000Y-58500D02*
X73000Y-59500D01*
X74250Y-57250D02*
X73000Y-58500D01*
X79000Y-58250D02*
X78250Y-58250D01*
X87457Y-58542D02*
X87250Y-58750D01*
X87250Y-58750D02*
X84250Y-58750D01*
X84250Y-58750D02*
X83750Y-58250D01*
X83750Y-58250D02*
X79000Y-58250D01*
X87542Y-58542D02*
X87457Y-58542D01*
X75000Y-56750D02*
X74500Y-57250D01*
X78250Y-56750D02*
X75000Y-56750D01*
X78250Y-58250D02*
X78250Y-56750D01*
X83000Y-52250D02*
X84000Y-52250D01*
X85000Y-59250D02*
X87260Y-59250D01*
X84000Y-54000D02*
X86250Y-54000D01*
X84000Y-52250D02*
X84000Y-54000D01*
X87260Y-59250D02*
X84250Y-59250D01*
X76500Y-58750D02*
X76500Y-57250D01*
X83750Y-58750D02*
X76500Y-58750D01*
X84250Y-59250D02*
X83750Y-58750D01*
X81000Y-52250D02*
X81000Y-51750D01*
X85500Y-51500D02*
X86250Y-52250D01*
X84500Y-51500D02*
X85500Y-51500D01*
X84250Y-51750D02*
X84500Y-51500D01*
X81000Y-51750D02*
X84250Y-51750D01*
M02*
