G04 (created by PCBNEW (22-Jun-2014 BZR 4027)-stable) date Sun 17 Dec 2017 02:26:31 AM CST*
%MOIN*%
G04 Gerber Fmt 3.4, Leading zero omitted, Abs format*
%FSLAX34Y34*%
G01*
G70*
G90*
G04 APERTURE LIST*
%ADD10C,0.00590551*%
%ADD11C,0.012*%
%ADD12C,0.008*%
%ADD13C,0.01*%
%ADD14C,0.0001*%
%ADD15C,0.006*%
%ADD16C,0.005*%
G04 APERTURE END LIST*
G54D10*
G54D11*
X91592Y-48428D02*
X91992Y-48285D01*
X91592Y-48142D01*
X91992Y-47600D02*
X91992Y-47942D01*
X91992Y-47771D02*
X91392Y-47771D01*
X91478Y-47828D01*
X91535Y-47885D01*
X91564Y-47942D01*
X91392Y-55221D02*
X91392Y-55164D01*
X91421Y-55107D01*
X91450Y-55078D01*
X91507Y-55050D01*
X91621Y-55021D01*
X91764Y-55021D01*
X91878Y-55050D01*
X91935Y-55078D01*
X91964Y-55107D01*
X91992Y-55164D01*
X91992Y-55221D01*
X91964Y-55278D01*
X91935Y-55307D01*
X91878Y-55335D01*
X91764Y-55364D01*
X91621Y-55364D01*
X91507Y-55335D01*
X91450Y-55307D01*
X91421Y-55278D01*
X91392Y-55221D01*
X91392Y-54821D02*
X91392Y-54450D01*
X91621Y-54650D01*
X91621Y-54564D01*
X91650Y-54507D01*
X91678Y-54478D01*
X91735Y-54450D01*
X91878Y-54450D01*
X91935Y-54478D01*
X91964Y-54507D01*
X91992Y-54564D01*
X91992Y-54735D01*
X91964Y-54792D01*
X91935Y-54821D01*
X91592Y-53935D02*
X91992Y-53935D01*
X91364Y-54078D02*
X91792Y-54221D01*
X91792Y-53850D01*
X91392Y-53335D02*
X91392Y-53621D01*
X91678Y-53650D01*
X91650Y-53621D01*
X91621Y-53564D01*
X91621Y-53421D01*
X91650Y-53364D01*
X91678Y-53335D01*
X91735Y-53307D01*
X91878Y-53307D01*
X91935Y-53335D01*
X91964Y-53364D01*
X91992Y-53421D01*
X91992Y-53564D01*
X91964Y-53621D01*
X91935Y-53650D01*
X91650Y-52964D02*
X91621Y-53021D01*
X91592Y-53050D01*
X91535Y-53078D01*
X91507Y-53078D01*
X91450Y-53050D01*
X91421Y-53021D01*
X91392Y-52964D01*
X91392Y-52850D01*
X91421Y-52792D01*
X91450Y-52764D01*
X91507Y-52735D01*
X91535Y-52735D01*
X91592Y-52764D01*
X91621Y-52792D01*
X91650Y-52850D01*
X91650Y-52964D01*
X91678Y-53021D01*
X91707Y-53050D01*
X91764Y-53078D01*
X91878Y-53078D01*
X91935Y-53050D01*
X91964Y-53021D01*
X91992Y-52964D01*
X91992Y-52850D01*
X91964Y-52792D01*
X91935Y-52764D01*
X91878Y-52735D01*
X91764Y-52735D01*
X91707Y-52764D01*
X91678Y-52792D01*
X91650Y-52850D01*
X91764Y-52478D02*
X91764Y-52021D01*
X91392Y-51478D02*
X91392Y-51592D01*
X91421Y-51650D01*
X91450Y-51678D01*
X91535Y-51735D01*
X91650Y-51764D01*
X91878Y-51764D01*
X91935Y-51735D01*
X91964Y-51707D01*
X91992Y-51650D01*
X91992Y-51535D01*
X91964Y-51478D01*
X91935Y-51450D01*
X91878Y-51421D01*
X91735Y-51421D01*
X91678Y-51450D01*
X91650Y-51478D01*
X91621Y-51535D01*
X91621Y-51650D01*
X91650Y-51707D01*
X91678Y-51735D01*
X91735Y-51764D01*
X91392Y-50907D02*
X91392Y-51021D01*
X91421Y-51078D01*
X91450Y-51107D01*
X91535Y-51164D01*
X91650Y-51192D01*
X91878Y-51192D01*
X91935Y-51164D01*
X91964Y-51135D01*
X91992Y-51078D01*
X91992Y-50964D01*
X91964Y-50907D01*
X91935Y-50878D01*
X91878Y-50849D01*
X91735Y-50849D01*
X91678Y-50878D01*
X91650Y-50907D01*
X91621Y-50964D01*
X91621Y-51078D01*
X91650Y-51135D01*
X91678Y-51164D01*
X91735Y-51192D01*
X91392Y-50307D02*
X91392Y-50592D01*
X91678Y-50621D01*
X91650Y-50592D01*
X91621Y-50535D01*
X91621Y-50392D01*
X91650Y-50335D01*
X91678Y-50307D01*
X91735Y-50278D01*
X91878Y-50278D01*
X91935Y-50307D01*
X91964Y-50335D01*
X91992Y-50392D01*
X91992Y-50535D01*
X91964Y-50592D01*
X91935Y-50621D01*
X91392Y-49907D02*
X91392Y-49849D01*
X91421Y-49792D01*
X91450Y-49764D01*
X91507Y-49735D01*
X91621Y-49707D01*
X91764Y-49707D01*
X91878Y-49735D01*
X91935Y-49764D01*
X91964Y-49792D01*
X91992Y-49849D01*
X91992Y-49907D01*
X91964Y-49964D01*
X91935Y-49992D01*
X91878Y-50021D01*
X91764Y-50049D01*
X91621Y-50049D01*
X91507Y-50021D01*
X91450Y-49992D01*
X91421Y-49964D01*
X91392Y-49907D01*
X91992Y-49421D02*
X91992Y-49307D01*
X91964Y-49249D01*
X91935Y-49221D01*
X91850Y-49164D01*
X91735Y-49135D01*
X91507Y-49135D01*
X91450Y-49164D01*
X91421Y-49192D01*
X91392Y-49249D01*
X91392Y-49364D01*
X91421Y-49421D01*
X91450Y-49449D01*
X91507Y-49478D01*
X91650Y-49478D01*
X91707Y-49449D01*
X91735Y-49421D01*
X91764Y-49364D01*
X91764Y-49249D01*
X91735Y-49192D01*
X91707Y-49164D01*
X91650Y-49135D01*
G54D12*
X78614Y-49411D02*
X78385Y-49411D01*
X78500Y-49411D02*
X78500Y-49011D01*
X78461Y-49069D01*
X78423Y-49107D01*
X78385Y-49126D01*
X83576Y-62645D02*
X83576Y-62911D01*
X83480Y-62492D02*
X83385Y-62778D01*
X83633Y-62778D01*
X82366Y-62511D02*
X82614Y-62511D01*
X82480Y-62664D01*
X82538Y-62664D01*
X82576Y-62683D01*
X82595Y-62702D01*
X82614Y-62740D01*
X82614Y-62835D01*
X82595Y-62873D01*
X82576Y-62892D01*
X82538Y-62911D01*
X82423Y-62911D01*
X82385Y-62892D01*
X82366Y-62873D01*
X81385Y-62550D02*
X81404Y-62530D01*
X81442Y-62511D01*
X81538Y-62511D01*
X81576Y-62530D01*
X81595Y-62550D01*
X81614Y-62588D01*
X81614Y-62626D01*
X81595Y-62683D01*
X81366Y-62911D01*
X81614Y-62911D01*
X79614Y-62911D02*
X79385Y-62911D01*
X79500Y-62911D02*
X79500Y-62511D01*
X79461Y-62569D01*
X79423Y-62607D01*
X79385Y-62626D01*
G54D13*
X90100Y-59250D02*
G75*
G03X90100Y-59250I-1850J0D01*
G74*
G01*
X89558Y-60911D02*
X89381Y-60734D01*
X89911Y-60558D02*
X89734Y-60381D01*
X89911Y-60558D02*
X89558Y-60911D01*
X86000Y-50000D02*
X86000Y-49750D01*
X86000Y-49750D02*
X90000Y-49750D01*
X90000Y-49750D02*
X90000Y-50000D01*
X86000Y-51500D02*
X86000Y-50000D01*
X86000Y-50000D02*
X90000Y-50000D01*
X90000Y-50000D02*
X90000Y-51500D01*
X90000Y-51500D02*
X86000Y-51500D01*
X73800Y-49900D02*
X73800Y-52600D01*
X72200Y-52600D02*
X72200Y-49900D01*
X72200Y-52600D02*
G75*
G03X73000Y-53400I800J0D01*
G74*
G01*
X73000Y-53400D02*
G75*
G03X73800Y-52600I0J800D01*
G74*
G01*
X73000Y-49100D02*
G75*
G03X72200Y-49900I0J-800D01*
G74*
G01*
X73800Y-49900D02*
G75*
G03X73000Y-49100I-800J0D01*
G74*
G01*
X72500Y-52750D02*
X72500Y-49750D01*
X72500Y-49750D02*
X73500Y-49750D01*
X73500Y-49750D02*
X73500Y-52750D01*
X73500Y-52750D02*
X72500Y-52750D01*
X72200Y-57100D02*
X72200Y-54400D01*
X73800Y-54400D02*
X73800Y-57100D01*
X73800Y-54400D02*
G75*
G03X73000Y-53600I-800J0D01*
G74*
G01*
X73000Y-53600D02*
G75*
G03X72200Y-54400I0J-800D01*
G74*
G01*
X73000Y-57900D02*
G75*
G03X73800Y-57100I0J800D01*
G74*
G01*
X72200Y-57100D02*
G75*
G03X73000Y-57900I800J0D01*
G74*
G01*
X73500Y-54250D02*
X73500Y-57250D01*
X73500Y-57250D02*
X72500Y-57250D01*
X72500Y-57250D02*
X72500Y-54250D01*
X72500Y-54250D02*
X73500Y-54250D01*
X73800Y-58900D02*
X73800Y-61600D01*
X72200Y-61600D02*
X72200Y-58900D01*
X72200Y-61600D02*
G75*
G03X73000Y-62400I800J0D01*
G74*
G01*
X73000Y-62400D02*
G75*
G03X73800Y-61600I0J800D01*
G74*
G01*
X73000Y-58100D02*
G75*
G03X72200Y-58900I0J-800D01*
G74*
G01*
X73800Y-58900D02*
G75*
G03X73000Y-58100I-800J0D01*
G74*
G01*
X72500Y-61750D02*
X72500Y-58750D01*
X72500Y-58750D02*
X73500Y-58750D01*
X73500Y-58750D02*
X73500Y-61750D01*
X73500Y-61750D02*
X72500Y-61750D01*
X79800Y-53750D02*
G75*
G03X79500Y-53450I-300J0D01*
G74*
G01*
X79500Y-54050D02*
G75*
G03X79800Y-53750I0J300D01*
G74*
G01*
X79500Y-52750D02*
X83500Y-52750D01*
X83500Y-52750D02*
X83500Y-54750D01*
X83500Y-54750D02*
X79500Y-54750D01*
X79500Y-54750D02*
X79500Y-52750D01*
X79000Y-59250D02*
X84000Y-59250D01*
X84000Y-59250D02*
X84000Y-62250D01*
X84000Y-62250D02*
X79000Y-62250D01*
X79000Y-62250D02*
X79000Y-59250D01*
X84000Y-51250D02*
X79000Y-51250D01*
X79000Y-51250D02*
X79000Y-48250D01*
X79000Y-48250D02*
X84000Y-48250D01*
X84000Y-48250D02*
X84000Y-51250D01*
X86500Y-48000D02*
X86000Y-48000D01*
X89500Y-48000D02*
X90000Y-48000D01*
X89100Y-48000D02*
X89500Y-48000D01*
X86900Y-48000D02*
X86500Y-48000D01*
X89100Y-47600D02*
X86900Y-47600D01*
X86900Y-48400D02*
X89100Y-48400D01*
X87150Y-48400D02*
X87150Y-47600D01*
X86900Y-48000D02*
X86900Y-48400D01*
X89100Y-48400D02*
X89100Y-48000D01*
X89100Y-48000D02*
X89100Y-47600D01*
X86900Y-47600D02*
X86900Y-48000D01*
X90000Y-49000D02*
X89250Y-49000D01*
X86750Y-49000D02*
X86000Y-49000D01*
X87000Y-49400D02*
X87000Y-48600D01*
X89250Y-48600D02*
X86750Y-48600D01*
X89250Y-49400D02*
X89250Y-48600D01*
X86750Y-49400D02*
X86750Y-48600D01*
X89250Y-49400D02*
X86750Y-49400D01*
X85500Y-52250D02*
X85000Y-52250D01*
X89500Y-52250D02*
X90000Y-52250D01*
X85500Y-52250D02*
X85900Y-52250D01*
X85900Y-52250D02*
X85900Y-51850D01*
X85900Y-51850D02*
X89100Y-51850D01*
X89100Y-51850D02*
X89100Y-52650D01*
X89100Y-52650D02*
X85900Y-52650D01*
X85900Y-52650D02*
X85900Y-52250D01*
X89500Y-52250D02*
X89100Y-52250D01*
X85500Y-53250D02*
X85000Y-53250D01*
X89500Y-53250D02*
X90000Y-53250D01*
X85500Y-53250D02*
X85900Y-53250D01*
X85900Y-53250D02*
X85900Y-52850D01*
X85900Y-52850D02*
X89100Y-52850D01*
X89100Y-52850D02*
X89100Y-53650D01*
X89100Y-53650D02*
X85900Y-53650D01*
X85900Y-53650D02*
X85900Y-53250D01*
X89500Y-53250D02*
X89100Y-53250D01*
X85000Y-54500D02*
X85850Y-54500D01*
X89150Y-54500D02*
X90000Y-54500D01*
X89150Y-54900D02*
X85850Y-54900D01*
X85850Y-54900D02*
X85850Y-54100D01*
X85850Y-54100D02*
X89150Y-54100D01*
X89150Y-54100D02*
X89150Y-54900D01*
X83500Y-56250D02*
X84000Y-56250D01*
X79500Y-56250D02*
X79000Y-56250D01*
X83500Y-56250D02*
X83100Y-56250D01*
X83100Y-56250D02*
X83100Y-56650D01*
X83100Y-56650D02*
X79900Y-56650D01*
X79900Y-56650D02*
X79900Y-55850D01*
X79900Y-55850D02*
X83100Y-55850D01*
X83100Y-55850D02*
X83100Y-56250D01*
X79500Y-56250D02*
X79900Y-56250D01*
X83500Y-57250D02*
X84000Y-57250D01*
X79500Y-57250D02*
X79000Y-57250D01*
X83500Y-57250D02*
X83100Y-57250D01*
X83100Y-57250D02*
X83100Y-57650D01*
X83100Y-57650D02*
X79900Y-57650D01*
X79900Y-57650D02*
X79900Y-56850D01*
X79900Y-56850D02*
X83100Y-56850D01*
X83100Y-56850D02*
X83100Y-57250D01*
X79500Y-57250D02*
X79900Y-57250D01*
X84500Y-47500D02*
X85000Y-47500D01*
X80500Y-47500D02*
X80000Y-47500D01*
X84500Y-47500D02*
X84100Y-47500D01*
X84100Y-47500D02*
X84100Y-47900D01*
X84100Y-47900D02*
X80900Y-47900D01*
X80900Y-47900D02*
X80900Y-47100D01*
X80900Y-47100D02*
X84100Y-47100D01*
X84100Y-47100D02*
X84100Y-47500D01*
X80500Y-47500D02*
X80900Y-47500D01*
X77500Y-55250D02*
X77500Y-54400D01*
X77500Y-51100D02*
X77500Y-50250D01*
X77900Y-51100D02*
X77900Y-54400D01*
X77900Y-54400D02*
X77100Y-54400D01*
X77100Y-54400D02*
X77100Y-51100D01*
X77100Y-51100D02*
X77900Y-51100D01*
X76000Y-54750D02*
X76000Y-55250D01*
X76000Y-50750D02*
X76000Y-50250D01*
X76000Y-54750D02*
X76000Y-54350D01*
X76000Y-54350D02*
X75600Y-54350D01*
X75600Y-54350D02*
X75600Y-51150D01*
X75600Y-51150D02*
X76400Y-51150D01*
X76400Y-51150D02*
X76400Y-54350D01*
X76400Y-54350D02*
X76000Y-54350D01*
X76000Y-50750D02*
X76000Y-51150D01*
X77500Y-57750D02*
X77500Y-57250D01*
X77500Y-61750D02*
X77500Y-62250D01*
X77500Y-57750D02*
X77500Y-58150D01*
X77500Y-58150D02*
X77900Y-58150D01*
X77900Y-58150D02*
X77900Y-61350D01*
X77900Y-61350D02*
X77100Y-61350D01*
X77100Y-61350D02*
X77100Y-58150D01*
X77100Y-58150D02*
X77500Y-58150D01*
X77500Y-61750D02*
X77500Y-61350D01*
X76500Y-62250D02*
X76500Y-61400D01*
X76500Y-58100D02*
X76500Y-57250D01*
X76900Y-58100D02*
X76900Y-61400D01*
X76900Y-61400D02*
X76100Y-61400D01*
X76100Y-61400D02*
X76100Y-58100D01*
X76100Y-58100D02*
X76900Y-58100D01*
X75500Y-62250D02*
X75500Y-61400D01*
X75500Y-58100D02*
X75500Y-57250D01*
X75900Y-58100D02*
X75900Y-61400D01*
X75900Y-61400D02*
X75100Y-61400D01*
X75100Y-61400D02*
X75100Y-58100D01*
X75100Y-58100D02*
X75900Y-58100D01*
X74500Y-61750D02*
X74500Y-62250D01*
X74500Y-57750D02*
X74500Y-57250D01*
X74500Y-61750D02*
X74500Y-61350D01*
X74500Y-61350D02*
X74100Y-61350D01*
X74100Y-61350D02*
X74100Y-58150D01*
X74100Y-58150D02*
X74900Y-58150D01*
X74900Y-58150D02*
X74900Y-61350D01*
X74900Y-61350D02*
X74500Y-61350D01*
X74500Y-57750D02*
X74500Y-58150D01*
X74500Y-52000D02*
X74500Y-55000D01*
X74500Y-55000D02*
X73500Y-55000D01*
X73500Y-55000D02*
X73500Y-52000D01*
X73500Y-52000D02*
X74500Y-52000D01*
X73000Y-52250D02*
X73000Y-54750D01*
X75000Y-52250D02*
X75000Y-54750D01*
X73000Y-54750D02*
G75*
G03X74000Y-55750I1000J0D01*
G74*
G01*
X74000Y-55750D02*
G75*
G03X75000Y-54750I0J1000D01*
G74*
G01*
X75000Y-52250D02*
G75*
G03X74000Y-51250I-1000J0D01*
G74*
G01*
X74000Y-51250D02*
G75*
G03X73000Y-52250I0J-1000D01*
G74*
G01*
G54D14*
G36*
X75773Y-48957D02*
X75781Y-48953D01*
X75800Y-48941D01*
X75826Y-48924D01*
X75857Y-48903D01*
X75888Y-48882D01*
X75914Y-48865D01*
X75932Y-48853D01*
X75939Y-48849D01*
X75943Y-48850D01*
X75958Y-48858D01*
X75980Y-48869D01*
X75992Y-48875D01*
X76012Y-48884D01*
X76022Y-48886D01*
X76023Y-48883D01*
X76031Y-48868D01*
X76042Y-48842D01*
X76057Y-48808D01*
X76074Y-48768D01*
X76092Y-48725D01*
X76110Y-48681D01*
X76128Y-48639D01*
X76143Y-48601D01*
X76156Y-48571D01*
X76164Y-48549D01*
X76167Y-48540D01*
X76166Y-48538D01*
X76156Y-48529D01*
X76139Y-48516D01*
X76101Y-48485D01*
X76065Y-48439D01*
X76042Y-48387D01*
X76035Y-48329D01*
X76041Y-48276D01*
X76062Y-48225D01*
X76098Y-48178D01*
X76142Y-48144D01*
X76193Y-48122D01*
X76250Y-48115D01*
X76305Y-48121D01*
X76357Y-48142D01*
X76404Y-48177D01*
X76423Y-48200D01*
X76450Y-48247D01*
X76466Y-48297D01*
X76467Y-48309D01*
X76465Y-48365D01*
X76449Y-48418D01*
X76420Y-48465D01*
X76379Y-48504D01*
X76374Y-48508D01*
X76355Y-48522D01*
X76343Y-48531D01*
X76333Y-48539D01*
X76403Y-48709D01*
X76414Y-48736D01*
X76434Y-48782D01*
X76451Y-48822D01*
X76464Y-48854D01*
X76474Y-48875D01*
X76478Y-48884D01*
X76478Y-48884D01*
X76484Y-48885D01*
X76497Y-48880D01*
X76521Y-48869D01*
X76537Y-48861D01*
X76555Y-48852D01*
X76563Y-48849D01*
X76570Y-48853D01*
X76587Y-48864D01*
X76612Y-48881D01*
X76642Y-48901D01*
X76671Y-48921D01*
X76698Y-48939D01*
X76717Y-48951D01*
X76727Y-48956D01*
X76728Y-48956D01*
X76736Y-48951D01*
X76752Y-48939D01*
X76775Y-48917D01*
X76807Y-48885D01*
X76812Y-48880D01*
X76839Y-48852D01*
X76861Y-48829D01*
X76876Y-48813D01*
X76881Y-48806D01*
X76881Y-48806D01*
X76876Y-48796D01*
X76864Y-48777D01*
X76846Y-48750D01*
X76825Y-48719D01*
X76769Y-48637D01*
X76800Y-48560D01*
X76809Y-48537D01*
X76821Y-48508D01*
X76830Y-48488D01*
X76835Y-48479D01*
X76843Y-48476D01*
X76864Y-48471D01*
X76895Y-48464D01*
X76931Y-48458D01*
X76966Y-48451D01*
X76997Y-48445D01*
X77020Y-48441D01*
X77030Y-48439D01*
X77032Y-48437D01*
X77034Y-48432D01*
X77036Y-48422D01*
X77036Y-48403D01*
X77037Y-48373D01*
X77037Y-48329D01*
X77037Y-48325D01*
X77036Y-48283D01*
X77036Y-48250D01*
X77035Y-48229D01*
X77033Y-48221D01*
X77033Y-48221D01*
X77023Y-48218D01*
X77001Y-48214D01*
X76970Y-48207D01*
X76932Y-48200D01*
X76930Y-48200D01*
X76893Y-48193D01*
X76862Y-48186D01*
X76840Y-48181D01*
X76831Y-48178D01*
X76829Y-48176D01*
X76821Y-48161D01*
X76810Y-48138D01*
X76798Y-48110D01*
X76786Y-48081D01*
X76775Y-48054D01*
X76768Y-48035D01*
X76766Y-48026D01*
X76766Y-48026D01*
X76772Y-48017D01*
X76785Y-47997D01*
X76803Y-47971D01*
X76825Y-47939D01*
X76826Y-47936D01*
X76848Y-47905D01*
X76865Y-47878D01*
X76877Y-47859D01*
X76881Y-47851D01*
X76881Y-47850D01*
X76874Y-47841D01*
X76858Y-47823D01*
X76835Y-47799D01*
X76807Y-47771D01*
X76798Y-47763D01*
X76768Y-47733D01*
X76747Y-47713D01*
X76733Y-47703D01*
X76727Y-47700D01*
X76727Y-47701D01*
X76717Y-47706D01*
X76697Y-47719D01*
X76670Y-47738D01*
X76638Y-47759D01*
X76636Y-47761D01*
X76605Y-47782D01*
X76579Y-47800D01*
X76560Y-47812D01*
X76552Y-47817D01*
X76550Y-47817D01*
X76538Y-47813D01*
X76515Y-47806D01*
X76488Y-47795D01*
X76459Y-47783D01*
X76432Y-47772D01*
X76412Y-47763D01*
X76403Y-47758D01*
X76403Y-47757D01*
X76399Y-47746D01*
X76394Y-47722D01*
X76387Y-47690D01*
X76380Y-47651D01*
X76379Y-47645D01*
X76372Y-47608D01*
X76366Y-47577D01*
X76361Y-47555D01*
X76359Y-47546D01*
X76354Y-47545D01*
X76335Y-47544D01*
X76307Y-47543D01*
X76273Y-47543D01*
X76238Y-47543D01*
X76204Y-47544D01*
X76174Y-47545D01*
X76153Y-47546D01*
X76144Y-47548D01*
X76143Y-47549D01*
X76140Y-47560D01*
X76135Y-47584D01*
X76128Y-47616D01*
X76121Y-47655D01*
X76120Y-47662D01*
X76113Y-47699D01*
X76106Y-47730D01*
X76102Y-47751D01*
X76099Y-47759D01*
X76096Y-47761D01*
X76081Y-47768D01*
X76056Y-47778D01*
X76024Y-47791D01*
X75952Y-47820D01*
X75864Y-47759D01*
X75856Y-47754D01*
X75824Y-47732D01*
X75798Y-47715D01*
X75780Y-47703D01*
X75772Y-47699D01*
X75772Y-47699D01*
X75763Y-47707D01*
X75745Y-47723D01*
X75721Y-47747D01*
X75694Y-47774D01*
X75673Y-47795D01*
X75649Y-47820D01*
X75633Y-47836D01*
X75625Y-47847D01*
X75622Y-47854D01*
X75623Y-47858D01*
X75628Y-47867D01*
X75641Y-47886D01*
X75659Y-47913D01*
X75681Y-47944D01*
X75699Y-47971D01*
X75718Y-48000D01*
X75730Y-48021D01*
X75735Y-48032D01*
X75734Y-48036D01*
X75727Y-48053D01*
X75717Y-48080D01*
X75704Y-48111D01*
X75673Y-48181D01*
X75627Y-48189D01*
X75599Y-48195D01*
X75560Y-48202D01*
X75523Y-48209D01*
X75465Y-48221D01*
X75463Y-48433D01*
X75472Y-48437D01*
X75481Y-48440D01*
X75502Y-48444D01*
X75533Y-48450D01*
X75569Y-48457D01*
X75600Y-48463D01*
X75631Y-48469D01*
X75653Y-48473D01*
X75663Y-48475D01*
X75666Y-48479D01*
X75674Y-48494D01*
X75685Y-48518D01*
X75697Y-48547D01*
X75709Y-48576D01*
X75720Y-48604D01*
X75728Y-48625D01*
X75731Y-48636D01*
X75727Y-48644D01*
X75715Y-48662D01*
X75698Y-48688D01*
X75677Y-48719D01*
X75655Y-48750D01*
X75638Y-48777D01*
X75625Y-48796D01*
X75620Y-48804D01*
X75623Y-48810D01*
X75635Y-48825D01*
X75658Y-48849D01*
X75693Y-48884D01*
X75699Y-48889D01*
X75726Y-48916D01*
X75750Y-48937D01*
X75766Y-48952D01*
X75773Y-48957D01*
X75773Y-48957D01*
G37*
G54D15*
X88510Y-61737D02*
X88681Y-61909D01*
X88712Y-61919D01*
X88732Y-61919D01*
X88762Y-61909D01*
X88803Y-61868D01*
X88813Y-61838D01*
X88813Y-61818D01*
X88803Y-61787D01*
X88631Y-61616D01*
X88893Y-61494D02*
X89035Y-61636D01*
X88762Y-61464D02*
X88863Y-61666D01*
X88994Y-61535D01*
X88974Y-61272D02*
X88994Y-61252D01*
X89025Y-61242D01*
X89045Y-61242D01*
X89075Y-61252D01*
X89126Y-61282D01*
X89176Y-61333D01*
X89207Y-61383D01*
X89217Y-61414D01*
X89217Y-61434D01*
X89207Y-61464D01*
X89186Y-61484D01*
X89156Y-61494D01*
X89136Y-61494D01*
X89106Y-61484D01*
X89055Y-61454D01*
X89005Y-61404D01*
X88974Y-61353D01*
X88964Y-61323D01*
X88964Y-61303D01*
X88974Y-61272D01*
X89459Y-61212D02*
X89338Y-61333D01*
X89399Y-61272D02*
X89186Y-61060D01*
X89196Y-61111D01*
X89196Y-61151D01*
X89186Y-61181D01*
X86224Y-58447D02*
X86123Y-58548D01*
X85911Y-58335D01*
X86052Y-58194D02*
X86174Y-58073D01*
X86325Y-58345D02*
X86113Y-58133D01*
X86224Y-58022D02*
X86366Y-57881D01*
X86436Y-58234D01*
X86578Y-58093D01*
X86770Y-57901D02*
X86648Y-58022D01*
X86709Y-57962D02*
X86497Y-57750D01*
X86507Y-57800D01*
X86507Y-57840D01*
X86497Y-57871D01*
X86689Y-57558D02*
X86709Y-57537D01*
X86739Y-57527D01*
X86760Y-57527D01*
X86790Y-57537D01*
X86840Y-57568D01*
X86891Y-57618D01*
X86921Y-57669D01*
X86931Y-57699D01*
X86931Y-57719D01*
X86921Y-57750D01*
X86901Y-57770D01*
X86871Y-57780D01*
X86851Y-57780D01*
X86820Y-57770D01*
X86770Y-57739D01*
X86719Y-57689D01*
X86689Y-57638D01*
X86679Y-57608D01*
X86679Y-57588D01*
X86689Y-57558D01*
X86891Y-57356D02*
X86911Y-57335D01*
X86941Y-57325D01*
X86962Y-57325D01*
X86992Y-57335D01*
X87042Y-57366D01*
X87093Y-57416D01*
X87123Y-57467D01*
X87133Y-57497D01*
X87133Y-57517D01*
X87123Y-57547D01*
X87103Y-57568D01*
X87073Y-57578D01*
X87053Y-57578D01*
X87022Y-57568D01*
X86972Y-57537D01*
X86921Y-57487D01*
X86891Y-57436D01*
X86881Y-57406D01*
X86881Y-57386D01*
X86891Y-57356D01*
X87093Y-57154D02*
X87113Y-57133D01*
X87143Y-57123D01*
X87164Y-57123D01*
X87194Y-57133D01*
X87244Y-57164D01*
X87295Y-57214D01*
X87325Y-57265D01*
X87335Y-57295D01*
X87335Y-57315D01*
X87325Y-57345D01*
X87305Y-57366D01*
X87275Y-57376D01*
X87255Y-57376D01*
X87224Y-57366D01*
X87174Y-57335D01*
X87123Y-57285D01*
X87093Y-57234D01*
X87083Y-57204D01*
X87083Y-57184D01*
X87093Y-57154D01*
X87396Y-57154D02*
X87497Y-57052D01*
X87436Y-57234D02*
X87295Y-56951D01*
X87578Y-57093D01*
X90500Y-51064D02*
X90485Y-51092D01*
X90457Y-51121D01*
X90414Y-51164D01*
X90400Y-51192D01*
X90400Y-51221D01*
X90471Y-51207D02*
X90457Y-51235D01*
X90428Y-51264D01*
X90371Y-51278D01*
X90271Y-51278D01*
X90214Y-51264D01*
X90185Y-51235D01*
X90171Y-51207D01*
X90171Y-51150D01*
X90185Y-51121D01*
X90214Y-51092D01*
X90271Y-51078D01*
X90371Y-51078D01*
X90428Y-51092D01*
X90457Y-51121D01*
X90471Y-51150D01*
X90471Y-51207D01*
X90271Y-50821D02*
X90471Y-50821D01*
X90157Y-50892D02*
X90371Y-50964D01*
X90371Y-50778D01*
X90171Y-50607D02*
X90171Y-50578D01*
X90185Y-50550D01*
X90200Y-50535D01*
X90228Y-50521D01*
X90285Y-50507D01*
X90357Y-50507D01*
X90414Y-50521D01*
X90442Y-50535D01*
X90457Y-50550D01*
X90471Y-50578D01*
X90471Y-50607D01*
X90457Y-50635D01*
X90442Y-50650D01*
X90414Y-50664D01*
X90357Y-50678D01*
X90285Y-50678D01*
X90228Y-50664D01*
X90200Y-50650D01*
X90185Y-50635D01*
X90171Y-50607D01*
X90471Y-50221D02*
X90471Y-50392D01*
X90471Y-50307D02*
X90171Y-50307D01*
X90214Y-50335D01*
X90242Y-50364D01*
X90257Y-50392D01*
X85821Y-51528D02*
X85521Y-51528D01*
X85735Y-51428D01*
X85521Y-51328D01*
X85821Y-51328D01*
X85521Y-51099D02*
X85735Y-51099D01*
X85778Y-51114D01*
X85807Y-51142D01*
X85821Y-51185D01*
X85821Y-51214D01*
X85664Y-50957D02*
X85664Y-50857D01*
X85821Y-50814D02*
X85821Y-50957D01*
X85521Y-50957D01*
X85521Y-50814D01*
X85821Y-50528D02*
X85821Y-50699D01*
X85821Y-50614D02*
X85521Y-50614D01*
X85564Y-50642D01*
X85592Y-50671D01*
X85607Y-50699D01*
X85650Y-50357D02*
X85635Y-50385D01*
X85621Y-50399D01*
X85592Y-50414D01*
X85578Y-50414D01*
X85550Y-50399D01*
X85535Y-50385D01*
X85521Y-50357D01*
X85521Y-50299D01*
X85535Y-50271D01*
X85550Y-50257D01*
X85578Y-50242D01*
X85592Y-50242D01*
X85621Y-50257D01*
X85635Y-50271D01*
X85650Y-50299D01*
X85650Y-50357D01*
X85664Y-50385D01*
X85678Y-50399D01*
X85707Y-50414D01*
X85764Y-50414D01*
X85792Y-50399D01*
X85807Y-50385D01*
X85821Y-50357D01*
X85821Y-50299D01*
X85807Y-50271D01*
X85792Y-50257D01*
X85764Y-50242D01*
X85707Y-50242D01*
X85678Y-50257D01*
X85664Y-50271D01*
X85650Y-50299D01*
X85550Y-50128D02*
X85535Y-50114D01*
X85521Y-50085D01*
X85521Y-50014D01*
X85535Y-49985D01*
X85550Y-49971D01*
X85578Y-49957D01*
X85607Y-49957D01*
X85650Y-49971D01*
X85821Y-50142D01*
X85821Y-49957D01*
G54D16*
X74001Y-51090D02*
X74251Y-50923D01*
X74001Y-50923D02*
X74251Y-51090D01*
X74084Y-50721D02*
X74251Y-50721D01*
X73989Y-50780D02*
X74167Y-50840D01*
X74167Y-50685D01*
X74251Y-50459D02*
X74251Y-50602D01*
X74251Y-50530D02*
X74001Y-50530D01*
X74036Y-50554D01*
X74060Y-50578D01*
X74072Y-50602D01*
X74251Y-50221D02*
X74251Y-50364D01*
X74251Y-50292D02*
X74001Y-50292D01*
X74036Y-50316D01*
X74060Y-50340D01*
X74072Y-50364D01*
X73101Y-51398D02*
X73101Y-51541D01*
X73101Y-51470D02*
X72851Y-51470D01*
X72886Y-51494D01*
X72910Y-51517D01*
X72922Y-51541D01*
X72851Y-51172D02*
X72851Y-51291D01*
X72970Y-51303D01*
X72958Y-51291D01*
X72946Y-51267D01*
X72946Y-51208D01*
X72958Y-51184D01*
X72970Y-51172D01*
X72994Y-51160D01*
X73053Y-51160D01*
X73077Y-51172D01*
X73089Y-51184D01*
X73101Y-51208D01*
X73101Y-51267D01*
X73089Y-51291D01*
X73077Y-51303D01*
X73101Y-51053D02*
X72851Y-51053D01*
X73005Y-51029D02*
X73101Y-50958D01*
X72934Y-50958D02*
X73029Y-51053D01*
X74001Y-56840D02*
X74251Y-56673D01*
X74001Y-56673D02*
X74251Y-56840D01*
X74084Y-56471D02*
X74251Y-56471D01*
X73989Y-56530D02*
X74167Y-56590D01*
X74167Y-56435D01*
X74251Y-56209D02*
X74251Y-56352D01*
X74251Y-56280D02*
X74001Y-56280D01*
X74036Y-56304D01*
X74060Y-56328D01*
X74072Y-56352D01*
X74025Y-56114D02*
X74013Y-56102D01*
X74001Y-56078D01*
X74001Y-56019D01*
X74013Y-55995D01*
X74025Y-55983D01*
X74048Y-55971D01*
X74072Y-55971D01*
X74108Y-55983D01*
X74251Y-56126D01*
X74251Y-55971D01*
X73101Y-55779D02*
X73101Y-55922D01*
X73101Y-55851D02*
X72851Y-55851D01*
X72886Y-55875D01*
X72910Y-55898D01*
X72922Y-55922D01*
X73101Y-55672D02*
X72851Y-55672D01*
X73005Y-55648D02*
X73101Y-55577D01*
X72934Y-55577D02*
X73029Y-55672D01*
X72559Y-62601D02*
X72726Y-62851D01*
X72726Y-62601D02*
X72559Y-62851D01*
X72928Y-62684D02*
X72928Y-62851D01*
X72869Y-62589D02*
X72809Y-62767D01*
X72964Y-62767D01*
X73190Y-62851D02*
X73047Y-62851D01*
X73119Y-62851D02*
X73119Y-62601D01*
X73095Y-62636D01*
X73071Y-62660D01*
X73047Y-62672D01*
X73404Y-62684D02*
X73404Y-62851D01*
X73345Y-62589D02*
X73285Y-62767D01*
X73440Y-62767D01*
X73101Y-60416D02*
X73101Y-60559D01*
X73101Y-60488D02*
X72851Y-60488D01*
X72886Y-60511D01*
X72910Y-60535D01*
X72922Y-60559D01*
X73101Y-60178D02*
X73101Y-60321D01*
X73101Y-60250D02*
X72851Y-60250D01*
X72886Y-60273D01*
X72910Y-60297D01*
X72922Y-60321D01*
X73101Y-59940D02*
X73101Y-60083D01*
X73101Y-60011D02*
X72851Y-60011D01*
X72886Y-60035D01*
X72910Y-60059D01*
X72922Y-60083D01*
G54D15*
X80071Y-54264D02*
X80314Y-54264D01*
X80342Y-54250D01*
X80357Y-54235D01*
X80371Y-54207D01*
X80371Y-54150D01*
X80357Y-54121D01*
X80342Y-54107D01*
X80314Y-54092D01*
X80071Y-54092D01*
X80171Y-53821D02*
X80371Y-53821D01*
X80057Y-53892D02*
X80271Y-53964D01*
X80271Y-53778D01*
X80071Y-53607D02*
X80071Y-53578D01*
X80085Y-53550D01*
X80100Y-53535D01*
X80128Y-53521D01*
X80185Y-53507D01*
X80257Y-53507D01*
X80314Y-53521D01*
X80342Y-53535D01*
X80357Y-53550D01*
X80371Y-53578D01*
X80371Y-53607D01*
X80357Y-53635D01*
X80342Y-53650D01*
X80314Y-53664D01*
X80257Y-53678D01*
X80185Y-53678D01*
X80128Y-53664D01*
X80100Y-53650D01*
X80085Y-53635D01*
X80071Y-53607D01*
X80100Y-53392D02*
X80085Y-53378D01*
X80071Y-53350D01*
X80071Y-53278D01*
X80085Y-53250D01*
X80100Y-53235D01*
X80128Y-53221D01*
X80157Y-53221D01*
X80200Y-53235D01*
X80371Y-53407D01*
X80371Y-53221D01*
X81407Y-53871D02*
X81264Y-53871D01*
X81264Y-53571D01*
X81464Y-53571D02*
X81635Y-53571D01*
X81550Y-53871D02*
X81550Y-53571D01*
X81892Y-53871D02*
X81721Y-53871D01*
X81807Y-53871D02*
X81807Y-53571D01*
X81778Y-53614D01*
X81750Y-53642D01*
X81721Y-53657D01*
X82078Y-53571D02*
X82107Y-53571D01*
X82135Y-53585D01*
X82150Y-53600D01*
X82164Y-53628D01*
X82178Y-53685D01*
X82178Y-53757D01*
X82164Y-53814D01*
X82150Y-53842D01*
X82135Y-53857D01*
X82107Y-53871D01*
X82078Y-53871D01*
X82050Y-53857D01*
X82035Y-53842D01*
X82021Y-53814D01*
X82007Y-53757D01*
X82007Y-53685D01*
X82021Y-53628D01*
X82035Y-53600D01*
X82050Y-53585D01*
X82078Y-53571D01*
X82464Y-53871D02*
X82292Y-53871D01*
X82378Y-53871D02*
X82378Y-53571D01*
X82350Y-53614D01*
X82321Y-53642D01*
X82292Y-53657D01*
X82564Y-53571D02*
X82749Y-53571D01*
X82649Y-53685D01*
X82692Y-53685D01*
X82721Y-53700D01*
X82735Y-53714D01*
X82749Y-53742D01*
X82749Y-53814D01*
X82735Y-53842D01*
X82721Y-53857D01*
X82692Y-53871D01*
X82607Y-53871D01*
X82578Y-53857D01*
X82564Y-53842D01*
X84221Y-61135D02*
X84435Y-61135D01*
X84478Y-61149D01*
X84507Y-61178D01*
X84521Y-61221D01*
X84521Y-61249D01*
X84321Y-60864D02*
X84521Y-60864D01*
X84207Y-60935D02*
X84421Y-61007D01*
X84421Y-60821D01*
X84221Y-60650D02*
X84221Y-60621D01*
X84235Y-60592D01*
X84250Y-60578D01*
X84278Y-60564D01*
X84335Y-60550D01*
X84407Y-60550D01*
X84464Y-60564D01*
X84492Y-60578D01*
X84507Y-60592D01*
X84521Y-60621D01*
X84521Y-60650D01*
X84507Y-60678D01*
X84492Y-60692D01*
X84464Y-60707D01*
X84407Y-60721D01*
X84335Y-60721D01*
X84278Y-60707D01*
X84250Y-60692D01*
X84235Y-60678D01*
X84221Y-60650D01*
X84221Y-60364D02*
X84221Y-60335D01*
X84235Y-60307D01*
X84250Y-60292D01*
X84278Y-60278D01*
X84335Y-60264D01*
X84407Y-60264D01*
X84464Y-60278D01*
X84492Y-60292D01*
X84507Y-60307D01*
X84521Y-60335D01*
X84521Y-60364D01*
X84507Y-60392D01*
X84492Y-60407D01*
X84464Y-60421D01*
X84407Y-60435D01*
X84335Y-60435D01*
X84278Y-60421D01*
X84250Y-60407D01*
X84235Y-60392D01*
X84221Y-60364D01*
X80042Y-60350D02*
X80057Y-60335D01*
X80085Y-60321D01*
X80157Y-60321D01*
X80185Y-60335D01*
X80200Y-60350D01*
X80214Y-60378D01*
X80214Y-60407D01*
X80200Y-60450D01*
X80028Y-60621D01*
X80214Y-60621D01*
X80328Y-60350D02*
X80342Y-60335D01*
X80371Y-60321D01*
X80442Y-60321D01*
X80471Y-60335D01*
X80485Y-60350D01*
X80500Y-60378D01*
X80500Y-60407D01*
X80485Y-60450D01*
X80314Y-60621D01*
X80500Y-60621D01*
X80628Y-60507D02*
X80857Y-60507D01*
X81157Y-60621D02*
X80985Y-60621D01*
X81071Y-60621D02*
X81071Y-60321D01*
X81042Y-60364D01*
X81014Y-60392D01*
X80985Y-60407D01*
X81257Y-60321D02*
X81457Y-60321D01*
X81328Y-60621D01*
X81571Y-60507D02*
X81800Y-60507D01*
X81928Y-60350D02*
X81942Y-60335D01*
X81971Y-60321D01*
X82042Y-60321D01*
X82071Y-60335D01*
X82085Y-60350D01*
X82100Y-60378D01*
X82100Y-60407D01*
X82085Y-60450D01*
X81914Y-60621D01*
X82100Y-60621D01*
X82285Y-60321D02*
X82314Y-60321D01*
X82342Y-60335D01*
X82357Y-60350D01*
X82371Y-60378D01*
X82385Y-60435D01*
X82385Y-60507D01*
X82371Y-60564D01*
X82357Y-60592D01*
X82342Y-60607D01*
X82314Y-60621D01*
X82285Y-60621D01*
X82257Y-60607D01*
X82242Y-60592D01*
X82228Y-60564D01*
X82214Y-60507D01*
X82214Y-60435D01*
X82228Y-60378D01*
X82242Y-60350D01*
X82257Y-60335D01*
X82285Y-60321D01*
X82657Y-60321D02*
X82514Y-60321D01*
X82500Y-60464D01*
X82514Y-60450D01*
X82542Y-60435D01*
X82614Y-60435D01*
X82642Y-60450D01*
X82657Y-60464D01*
X82671Y-60492D01*
X82671Y-60564D01*
X82657Y-60592D01*
X82642Y-60607D01*
X82614Y-60621D01*
X82542Y-60621D01*
X82514Y-60607D01*
X82500Y-60592D01*
X82785Y-60350D02*
X82800Y-60335D01*
X82828Y-60321D01*
X82900Y-60321D01*
X82928Y-60335D01*
X82942Y-60350D01*
X82957Y-60378D01*
X82957Y-60407D01*
X82942Y-60450D01*
X82771Y-60621D01*
X82957Y-60621D01*
X84221Y-50135D02*
X84435Y-50135D01*
X84478Y-50149D01*
X84507Y-50178D01*
X84521Y-50221D01*
X84521Y-50249D01*
X84321Y-49864D02*
X84521Y-49864D01*
X84207Y-49935D02*
X84421Y-50007D01*
X84421Y-49821D01*
X84221Y-49650D02*
X84221Y-49621D01*
X84235Y-49592D01*
X84250Y-49578D01*
X84278Y-49564D01*
X84335Y-49550D01*
X84407Y-49550D01*
X84464Y-49564D01*
X84492Y-49578D01*
X84507Y-49592D01*
X84521Y-49621D01*
X84521Y-49650D01*
X84507Y-49678D01*
X84492Y-49692D01*
X84464Y-49707D01*
X84407Y-49721D01*
X84335Y-49721D01*
X84278Y-49707D01*
X84250Y-49692D01*
X84235Y-49678D01*
X84221Y-49650D01*
X84521Y-49264D02*
X84521Y-49435D01*
X84521Y-49350D02*
X84221Y-49350D01*
X84264Y-49378D01*
X84292Y-49407D01*
X84307Y-49435D01*
X80042Y-49850D02*
X80057Y-49835D01*
X80085Y-49821D01*
X80157Y-49821D01*
X80185Y-49835D01*
X80200Y-49850D01*
X80214Y-49878D01*
X80214Y-49907D01*
X80200Y-49950D01*
X80028Y-50121D01*
X80214Y-50121D01*
X80328Y-49850D02*
X80342Y-49835D01*
X80371Y-49821D01*
X80442Y-49821D01*
X80471Y-49835D01*
X80485Y-49850D01*
X80500Y-49878D01*
X80500Y-49907D01*
X80485Y-49950D01*
X80314Y-50121D01*
X80500Y-50121D01*
X80628Y-50007D02*
X80857Y-50007D01*
X81157Y-50121D02*
X80985Y-50121D01*
X81071Y-50121D02*
X81071Y-49821D01*
X81042Y-49864D01*
X81014Y-49892D01*
X80985Y-49907D01*
X81257Y-49821D02*
X81457Y-49821D01*
X81328Y-50121D01*
X81571Y-50007D02*
X81800Y-50007D01*
X81928Y-49850D02*
X81942Y-49835D01*
X81971Y-49821D01*
X82042Y-49821D01*
X82071Y-49835D01*
X82085Y-49850D01*
X82100Y-49878D01*
X82100Y-49907D01*
X82085Y-49950D01*
X81914Y-50121D01*
X82100Y-50121D01*
X82285Y-49821D02*
X82314Y-49821D01*
X82342Y-49835D01*
X82357Y-49850D01*
X82371Y-49878D01*
X82385Y-49935D01*
X82385Y-50007D01*
X82371Y-50064D01*
X82357Y-50092D01*
X82342Y-50107D01*
X82314Y-50121D01*
X82285Y-50121D01*
X82257Y-50107D01*
X82242Y-50092D01*
X82228Y-50064D01*
X82214Y-50007D01*
X82214Y-49935D01*
X82228Y-49878D01*
X82242Y-49850D01*
X82257Y-49835D01*
X82285Y-49821D01*
X82657Y-49821D02*
X82514Y-49821D01*
X82500Y-49964D01*
X82514Y-49950D01*
X82542Y-49935D01*
X82614Y-49935D01*
X82642Y-49950D01*
X82657Y-49964D01*
X82671Y-49992D01*
X82671Y-50064D01*
X82657Y-50092D01*
X82642Y-50107D01*
X82614Y-50121D01*
X82542Y-50121D01*
X82514Y-50107D01*
X82500Y-50092D01*
X82785Y-49850D02*
X82800Y-49835D01*
X82828Y-49821D01*
X82900Y-49821D01*
X82928Y-49835D01*
X82942Y-49850D01*
X82957Y-49878D01*
X82957Y-49907D01*
X82942Y-49950D01*
X82771Y-50121D01*
X82957Y-50121D01*
G54D16*
X87595Y-47327D02*
X87583Y-47339D01*
X87547Y-47351D01*
X87523Y-47351D01*
X87488Y-47339D01*
X87464Y-47315D01*
X87452Y-47291D01*
X87440Y-47244D01*
X87440Y-47208D01*
X87452Y-47160D01*
X87464Y-47136D01*
X87488Y-47113D01*
X87523Y-47101D01*
X87547Y-47101D01*
X87583Y-47113D01*
X87595Y-47125D01*
X87845Y-47351D02*
X87761Y-47232D01*
X87702Y-47351D02*
X87702Y-47101D01*
X87797Y-47101D01*
X87821Y-47113D01*
X87833Y-47125D01*
X87845Y-47148D01*
X87845Y-47184D01*
X87833Y-47208D01*
X87821Y-47220D01*
X87797Y-47232D01*
X87702Y-47232D01*
X88059Y-47184D02*
X88059Y-47351D01*
X88000Y-47089D02*
X87940Y-47267D01*
X88095Y-47267D01*
X88238Y-47101D02*
X88261Y-47101D01*
X88285Y-47113D01*
X88297Y-47125D01*
X88309Y-47148D01*
X88321Y-47196D01*
X88321Y-47255D01*
X88309Y-47303D01*
X88297Y-47327D01*
X88285Y-47339D01*
X88261Y-47351D01*
X88238Y-47351D01*
X88214Y-47339D01*
X88202Y-47327D01*
X88190Y-47303D01*
X88178Y-47255D01*
X88178Y-47196D01*
X88190Y-47148D01*
X88202Y-47125D01*
X88214Y-47113D01*
X88238Y-47101D01*
X88476Y-47101D02*
X88500Y-47101D01*
X88523Y-47113D01*
X88535Y-47125D01*
X88547Y-47148D01*
X88559Y-47196D01*
X88559Y-47255D01*
X88547Y-47303D01*
X88535Y-47327D01*
X88523Y-47339D01*
X88500Y-47351D01*
X88476Y-47351D01*
X88452Y-47339D01*
X88440Y-47327D01*
X88428Y-47303D01*
X88416Y-47255D01*
X88416Y-47196D01*
X88428Y-47148D01*
X88440Y-47125D01*
X88452Y-47113D01*
X88476Y-47101D01*
X87464Y-48101D02*
X87321Y-48101D01*
X87392Y-48101D02*
X87392Y-47851D01*
X87369Y-47886D01*
X87345Y-47910D01*
X87321Y-47922D01*
X87571Y-48101D02*
X87571Y-47851D01*
X87714Y-48101D01*
X87714Y-47851D01*
X87940Y-47934D02*
X87940Y-48101D01*
X87880Y-47839D02*
X87821Y-48017D01*
X87976Y-48017D01*
X88202Y-48101D02*
X88059Y-48101D01*
X88130Y-48101D02*
X88130Y-47851D01*
X88107Y-47886D01*
X88083Y-47910D01*
X88059Y-47922D01*
X88416Y-47934D02*
X88416Y-48101D01*
X88357Y-47839D02*
X88297Y-48017D01*
X88452Y-48017D01*
X88583Y-47958D02*
X88559Y-47946D01*
X88547Y-47934D01*
X88535Y-47910D01*
X88535Y-47898D01*
X88547Y-47875D01*
X88559Y-47863D01*
X88583Y-47851D01*
X88630Y-47851D01*
X88654Y-47863D01*
X88666Y-47875D01*
X88678Y-47898D01*
X88678Y-47910D01*
X88666Y-47934D01*
X88654Y-47946D01*
X88630Y-47958D01*
X88583Y-47958D01*
X88559Y-47970D01*
X88547Y-47982D01*
X88535Y-48005D01*
X88535Y-48053D01*
X88547Y-48077D01*
X88559Y-48089D01*
X88583Y-48101D01*
X88630Y-48101D01*
X88654Y-48089D01*
X88666Y-48077D01*
X88678Y-48053D01*
X88678Y-48005D01*
X88666Y-47982D01*
X88654Y-47970D01*
X88630Y-47958D01*
X85327Y-49404D02*
X85339Y-49416D01*
X85351Y-49452D01*
X85351Y-49476D01*
X85339Y-49511D01*
X85315Y-49535D01*
X85291Y-49547D01*
X85244Y-49559D01*
X85208Y-49559D01*
X85160Y-49547D01*
X85136Y-49535D01*
X85113Y-49511D01*
X85101Y-49476D01*
X85101Y-49452D01*
X85113Y-49416D01*
X85125Y-49404D01*
X85351Y-49154D02*
X85232Y-49238D01*
X85351Y-49297D02*
X85101Y-49297D01*
X85101Y-49202D01*
X85113Y-49178D01*
X85125Y-49166D01*
X85148Y-49154D01*
X85184Y-49154D01*
X85208Y-49166D01*
X85220Y-49178D01*
X85232Y-49202D01*
X85232Y-49297D01*
X85184Y-48940D02*
X85351Y-48940D01*
X85089Y-49000D02*
X85267Y-49059D01*
X85267Y-48904D01*
X85101Y-48761D02*
X85101Y-48738D01*
X85113Y-48714D01*
X85125Y-48702D01*
X85148Y-48690D01*
X85196Y-48678D01*
X85255Y-48678D01*
X85303Y-48690D01*
X85327Y-48702D01*
X85339Y-48714D01*
X85351Y-48738D01*
X85351Y-48761D01*
X85339Y-48785D01*
X85327Y-48797D01*
X85303Y-48809D01*
X85255Y-48821D01*
X85196Y-48821D01*
X85148Y-48809D01*
X85125Y-48797D01*
X85113Y-48785D01*
X85101Y-48761D01*
X85351Y-48440D02*
X85351Y-48583D01*
X85351Y-48511D02*
X85101Y-48511D01*
X85136Y-48535D01*
X85160Y-48559D01*
X85172Y-48583D01*
X87464Y-49101D02*
X87321Y-49101D01*
X87392Y-49101D02*
X87392Y-48851D01*
X87369Y-48886D01*
X87345Y-48910D01*
X87321Y-48922D01*
X87571Y-49101D02*
X87571Y-48851D01*
X87714Y-49101D01*
X87714Y-48851D01*
X87940Y-48934D02*
X87940Y-49101D01*
X87880Y-48839D02*
X87821Y-49017D01*
X87976Y-49017D01*
X88119Y-48851D02*
X88142Y-48851D01*
X88166Y-48863D01*
X88178Y-48875D01*
X88190Y-48898D01*
X88202Y-48946D01*
X88202Y-49005D01*
X88190Y-49053D01*
X88178Y-49077D01*
X88166Y-49089D01*
X88142Y-49101D01*
X88119Y-49101D01*
X88095Y-49089D01*
X88083Y-49077D01*
X88071Y-49053D01*
X88059Y-49005D01*
X88059Y-48946D01*
X88071Y-48898D01*
X88083Y-48875D01*
X88095Y-48863D01*
X88119Y-48851D01*
X88357Y-48851D02*
X88380Y-48851D01*
X88404Y-48863D01*
X88416Y-48875D01*
X88428Y-48898D01*
X88440Y-48946D01*
X88440Y-49005D01*
X88428Y-49053D01*
X88416Y-49077D01*
X88404Y-49089D01*
X88380Y-49101D01*
X88357Y-49101D01*
X88333Y-49089D01*
X88321Y-49077D01*
X88309Y-49053D01*
X88297Y-49005D01*
X88297Y-48946D01*
X88309Y-48898D01*
X88321Y-48875D01*
X88333Y-48863D01*
X88357Y-48851D01*
X88654Y-48934D02*
X88654Y-49101D01*
X88595Y-48839D02*
X88535Y-49017D01*
X88690Y-49017D01*
G54D15*
X86414Y-52371D02*
X86314Y-52228D01*
X86242Y-52371D02*
X86242Y-52071D01*
X86357Y-52071D01*
X86385Y-52085D01*
X86400Y-52100D01*
X86414Y-52128D01*
X86414Y-52171D01*
X86400Y-52200D01*
X86385Y-52214D01*
X86357Y-52228D01*
X86242Y-52228D01*
X86671Y-52171D02*
X86671Y-52371D01*
X86600Y-52057D02*
X86528Y-52271D01*
X86714Y-52271D01*
X86985Y-52371D02*
X86814Y-52371D01*
X86900Y-52371D02*
X86900Y-52071D01*
X86871Y-52114D01*
X86842Y-52142D01*
X86814Y-52157D01*
X87157Y-52200D02*
X87128Y-52185D01*
X87114Y-52171D01*
X87100Y-52142D01*
X87100Y-52128D01*
X87114Y-52100D01*
X87128Y-52085D01*
X87157Y-52071D01*
X87214Y-52071D01*
X87242Y-52085D01*
X87257Y-52100D01*
X87271Y-52128D01*
X87271Y-52142D01*
X87257Y-52171D01*
X87242Y-52185D01*
X87214Y-52200D01*
X87157Y-52200D01*
X87128Y-52214D01*
X87114Y-52228D01*
X87100Y-52257D01*
X87100Y-52314D01*
X87114Y-52342D01*
X87128Y-52357D01*
X87157Y-52371D01*
X87214Y-52371D01*
X87242Y-52357D01*
X87257Y-52342D01*
X87271Y-52314D01*
X87271Y-52257D01*
X87257Y-52228D01*
X87242Y-52214D01*
X87214Y-52200D01*
X87871Y-52171D02*
X87871Y-52371D01*
X87800Y-52057D02*
X87728Y-52271D01*
X87914Y-52271D01*
X88042Y-52371D02*
X88100Y-52371D01*
X88128Y-52357D01*
X88142Y-52342D01*
X88171Y-52300D01*
X88185Y-52242D01*
X88185Y-52128D01*
X88171Y-52100D01*
X88157Y-52085D01*
X88128Y-52071D01*
X88071Y-52071D01*
X88042Y-52085D01*
X88028Y-52100D01*
X88014Y-52128D01*
X88014Y-52200D01*
X88028Y-52228D01*
X88042Y-52242D01*
X88071Y-52257D01*
X88128Y-52257D01*
X88157Y-52242D01*
X88171Y-52228D01*
X88185Y-52200D01*
X88328Y-52371D02*
X88385Y-52371D01*
X88414Y-52357D01*
X88428Y-52342D01*
X88457Y-52300D01*
X88471Y-52242D01*
X88471Y-52128D01*
X88457Y-52100D01*
X88442Y-52085D01*
X88414Y-52071D01*
X88357Y-52071D01*
X88328Y-52085D01*
X88314Y-52100D01*
X88300Y-52128D01*
X88300Y-52200D01*
X88314Y-52228D01*
X88328Y-52242D01*
X88357Y-52257D01*
X88414Y-52257D01*
X88442Y-52242D01*
X88457Y-52228D01*
X88471Y-52200D01*
X88771Y-52371D02*
X88671Y-52228D01*
X88600Y-52371D02*
X88600Y-52071D01*
X88714Y-52071D01*
X88742Y-52085D01*
X88757Y-52100D01*
X88771Y-52128D01*
X88771Y-52171D01*
X88757Y-52200D01*
X88742Y-52214D01*
X88714Y-52228D01*
X88600Y-52228D01*
X86414Y-53371D02*
X86314Y-53228D01*
X86242Y-53371D02*
X86242Y-53071D01*
X86357Y-53071D01*
X86385Y-53085D01*
X86400Y-53100D01*
X86414Y-53128D01*
X86414Y-53171D01*
X86400Y-53200D01*
X86385Y-53214D01*
X86357Y-53228D01*
X86242Y-53228D01*
X86671Y-53171D02*
X86671Y-53371D01*
X86600Y-53057D02*
X86528Y-53271D01*
X86714Y-53271D01*
X86985Y-53371D02*
X86814Y-53371D01*
X86900Y-53371D02*
X86900Y-53071D01*
X86871Y-53114D01*
X86842Y-53142D01*
X86814Y-53157D01*
X87128Y-53371D02*
X87185Y-53371D01*
X87214Y-53357D01*
X87228Y-53342D01*
X87257Y-53300D01*
X87271Y-53242D01*
X87271Y-53128D01*
X87257Y-53100D01*
X87242Y-53085D01*
X87214Y-53071D01*
X87157Y-53071D01*
X87128Y-53085D01*
X87114Y-53100D01*
X87100Y-53128D01*
X87100Y-53200D01*
X87114Y-53228D01*
X87128Y-53242D01*
X87157Y-53257D01*
X87214Y-53257D01*
X87242Y-53242D01*
X87257Y-53228D01*
X87271Y-53200D01*
X87685Y-53100D02*
X87700Y-53085D01*
X87728Y-53071D01*
X87800Y-53071D01*
X87828Y-53085D01*
X87842Y-53100D01*
X87857Y-53128D01*
X87857Y-53157D01*
X87842Y-53200D01*
X87671Y-53371D01*
X87857Y-53371D01*
X87985Y-53342D02*
X88000Y-53357D01*
X87985Y-53371D01*
X87971Y-53357D01*
X87985Y-53342D01*
X87985Y-53371D01*
X88257Y-53071D02*
X88200Y-53071D01*
X88171Y-53085D01*
X88157Y-53100D01*
X88128Y-53142D01*
X88114Y-53200D01*
X88114Y-53314D01*
X88128Y-53342D01*
X88142Y-53357D01*
X88171Y-53371D01*
X88228Y-53371D01*
X88257Y-53357D01*
X88271Y-53342D01*
X88285Y-53314D01*
X88285Y-53242D01*
X88271Y-53214D01*
X88257Y-53200D01*
X88228Y-53185D01*
X88171Y-53185D01*
X88142Y-53200D01*
X88128Y-53214D01*
X88114Y-53242D01*
X88385Y-53071D02*
X88585Y-53071D01*
X88457Y-53371D01*
X88700Y-53371D02*
X88700Y-53071D01*
X88728Y-53257D02*
X88814Y-53371D01*
X88814Y-53171D02*
X88700Y-53285D01*
X86414Y-54592D02*
X86400Y-54607D01*
X86357Y-54621D01*
X86328Y-54621D01*
X86285Y-54607D01*
X86257Y-54578D01*
X86242Y-54550D01*
X86228Y-54492D01*
X86228Y-54450D01*
X86242Y-54392D01*
X86257Y-54364D01*
X86285Y-54335D01*
X86328Y-54321D01*
X86357Y-54321D01*
X86400Y-54335D01*
X86414Y-54350D01*
X86671Y-54421D02*
X86671Y-54621D01*
X86600Y-54307D02*
X86528Y-54521D01*
X86714Y-54521D01*
X86985Y-54621D02*
X86814Y-54621D01*
X86900Y-54621D02*
X86900Y-54321D01*
X86871Y-54364D01*
X86842Y-54392D01*
X86814Y-54407D01*
X87242Y-54421D02*
X87242Y-54621D01*
X87171Y-54307D02*
X87100Y-54521D01*
X87285Y-54521D01*
X87757Y-54321D02*
X87785Y-54321D01*
X87814Y-54335D01*
X87828Y-54350D01*
X87842Y-54378D01*
X87857Y-54435D01*
X87857Y-54507D01*
X87842Y-54564D01*
X87828Y-54592D01*
X87814Y-54607D01*
X87785Y-54621D01*
X87757Y-54621D01*
X87728Y-54607D01*
X87714Y-54592D01*
X87700Y-54564D01*
X87685Y-54507D01*
X87685Y-54435D01*
X87700Y-54378D01*
X87714Y-54350D01*
X87728Y-54335D01*
X87757Y-54321D01*
X87985Y-54592D02*
X88000Y-54607D01*
X87985Y-54621D01*
X87971Y-54607D01*
X87985Y-54592D01*
X87985Y-54621D01*
X88285Y-54621D02*
X88114Y-54621D01*
X88200Y-54621D02*
X88200Y-54321D01*
X88171Y-54364D01*
X88142Y-54392D01*
X88114Y-54407D01*
X88542Y-54421D02*
X88542Y-54621D01*
X88414Y-54421D02*
X88414Y-54578D01*
X88428Y-54607D01*
X88457Y-54621D01*
X88500Y-54621D01*
X88528Y-54607D01*
X88542Y-54592D01*
X88785Y-54464D02*
X88685Y-54464D01*
X88685Y-54621D02*
X88685Y-54321D01*
X88828Y-54321D01*
X80414Y-56371D02*
X80314Y-56228D01*
X80242Y-56371D02*
X80242Y-56071D01*
X80357Y-56071D01*
X80385Y-56085D01*
X80400Y-56100D01*
X80414Y-56128D01*
X80414Y-56171D01*
X80400Y-56200D01*
X80385Y-56214D01*
X80357Y-56228D01*
X80242Y-56228D01*
X80671Y-56171D02*
X80671Y-56371D01*
X80600Y-56057D02*
X80528Y-56271D01*
X80714Y-56271D01*
X80985Y-56371D02*
X80814Y-56371D01*
X80900Y-56371D02*
X80900Y-56071D01*
X80871Y-56114D01*
X80842Y-56142D01*
X80814Y-56157D01*
X81085Y-56071D02*
X81271Y-56071D01*
X81171Y-56185D01*
X81214Y-56185D01*
X81242Y-56200D01*
X81257Y-56214D01*
X81271Y-56242D01*
X81271Y-56314D01*
X81257Y-56342D01*
X81242Y-56357D01*
X81214Y-56371D01*
X81128Y-56371D01*
X81100Y-56357D01*
X81085Y-56342D01*
X81528Y-56071D02*
X81728Y-56071D01*
X81600Y-56371D01*
X81971Y-56171D02*
X81971Y-56371D01*
X81900Y-56057D02*
X81828Y-56271D01*
X82014Y-56271D01*
X82128Y-56342D02*
X82142Y-56357D01*
X82128Y-56371D01*
X82114Y-56357D01*
X82128Y-56342D01*
X82128Y-56371D01*
X82257Y-56100D02*
X82271Y-56085D01*
X82300Y-56071D01*
X82371Y-56071D01*
X82400Y-56085D01*
X82414Y-56100D01*
X82428Y-56128D01*
X82428Y-56157D01*
X82414Y-56200D01*
X82242Y-56371D01*
X82428Y-56371D01*
X82700Y-56071D02*
X82557Y-56071D01*
X82542Y-56214D01*
X82557Y-56200D01*
X82585Y-56185D01*
X82657Y-56185D01*
X82685Y-56200D01*
X82700Y-56214D01*
X82714Y-56242D01*
X82714Y-56314D01*
X82700Y-56342D01*
X82685Y-56357D01*
X82657Y-56371D01*
X82585Y-56371D01*
X82557Y-56357D01*
X82542Y-56342D01*
X82842Y-56371D02*
X82842Y-56071D01*
X82871Y-56257D02*
X82957Y-56371D01*
X82957Y-56171D02*
X82842Y-56285D01*
X80414Y-57371D02*
X80314Y-57228D01*
X80242Y-57371D02*
X80242Y-57071D01*
X80357Y-57071D01*
X80385Y-57085D01*
X80400Y-57100D01*
X80414Y-57128D01*
X80414Y-57171D01*
X80400Y-57200D01*
X80385Y-57214D01*
X80357Y-57228D01*
X80242Y-57228D01*
X80671Y-57171D02*
X80671Y-57371D01*
X80600Y-57057D02*
X80528Y-57271D01*
X80714Y-57271D01*
X80985Y-57371D02*
X80814Y-57371D01*
X80900Y-57371D02*
X80900Y-57071D01*
X80871Y-57114D01*
X80842Y-57142D01*
X80814Y-57157D01*
X81257Y-57071D02*
X81114Y-57071D01*
X81100Y-57214D01*
X81114Y-57200D01*
X81142Y-57185D01*
X81214Y-57185D01*
X81242Y-57200D01*
X81257Y-57214D01*
X81271Y-57242D01*
X81271Y-57314D01*
X81257Y-57342D01*
X81242Y-57357D01*
X81214Y-57371D01*
X81142Y-57371D01*
X81114Y-57357D01*
X81100Y-57342D01*
X81528Y-57071D02*
X81728Y-57071D01*
X81600Y-57371D01*
X81971Y-57171D02*
X81971Y-57371D01*
X81900Y-57057D02*
X81828Y-57271D01*
X82014Y-57271D01*
X82128Y-57342D02*
X82142Y-57357D01*
X82128Y-57371D01*
X82114Y-57357D01*
X82128Y-57342D01*
X82128Y-57371D01*
X82257Y-57100D02*
X82271Y-57085D01*
X82300Y-57071D01*
X82371Y-57071D01*
X82400Y-57085D01*
X82414Y-57100D01*
X82428Y-57128D01*
X82428Y-57157D01*
X82414Y-57200D01*
X82242Y-57371D01*
X82428Y-57371D01*
X82700Y-57071D02*
X82557Y-57071D01*
X82542Y-57214D01*
X82557Y-57200D01*
X82585Y-57185D01*
X82657Y-57185D01*
X82685Y-57200D01*
X82700Y-57214D01*
X82714Y-57242D01*
X82714Y-57314D01*
X82700Y-57342D01*
X82685Y-57357D01*
X82657Y-57371D01*
X82585Y-57371D01*
X82557Y-57357D01*
X82542Y-57342D01*
X82842Y-57371D02*
X82842Y-57071D01*
X82871Y-57257D02*
X82957Y-57371D01*
X82957Y-57171D02*
X82842Y-57285D01*
X81414Y-47621D02*
X81314Y-47478D01*
X81242Y-47621D02*
X81242Y-47321D01*
X81357Y-47321D01*
X81385Y-47335D01*
X81400Y-47350D01*
X81414Y-47378D01*
X81414Y-47421D01*
X81400Y-47450D01*
X81385Y-47464D01*
X81357Y-47478D01*
X81242Y-47478D01*
X81671Y-47421D02*
X81671Y-47621D01*
X81600Y-47307D02*
X81528Y-47521D01*
X81714Y-47521D01*
X81814Y-47350D02*
X81828Y-47335D01*
X81857Y-47321D01*
X81928Y-47321D01*
X81957Y-47335D01*
X81971Y-47350D01*
X81985Y-47378D01*
X81985Y-47407D01*
X81971Y-47450D01*
X81800Y-47621D01*
X81985Y-47621D01*
X82271Y-47621D02*
X82100Y-47621D01*
X82185Y-47621D02*
X82185Y-47321D01*
X82157Y-47364D01*
X82128Y-47392D01*
X82100Y-47407D01*
X82928Y-47621D02*
X82757Y-47621D01*
X82842Y-47621D02*
X82842Y-47321D01*
X82814Y-47364D01*
X82785Y-47392D01*
X82757Y-47407D01*
X83114Y-47321D02*
X83142Y-47321D01*
X83171Y-47335D01*
X83185Y-47350D01*
X83200Y-47378D01*
X83214Y-47435D01*
X83214Y-47507D01*
X83200Y-47564D01*
X83185Y-47592D01*
X83171Y-47607D01*
X83142Y-47621D01*
X83114Y-47621D01*
X83085Y-47607D01*
X83071Y-47592D01*
X83057Y-47564D01*
X83042Y-47507D01*
X83042Y-47435D01*
X83057Y-47378D01*
X83071Y-47350D01*
X83085Y-47335D01*
X83114Y-47321D01*
X83400Y-47321D02*
X83428Y-47321D01*
X83457Y-47335D01*
X83471Y-47350D01*
X83485Y-47378D01*
X83500Y-47435D01*
X83500Y-47507D01*
X83485Y-47564D01*
X83471Y-47592D01*
X83457Y-47607D01*
X83428Y-47621D01*
X83400Y-47621D01*
X83371Y-47607D01*
X83357Y-47592D01*
X83342Y-47564D01*
X83328Y-47507D01*
X83328Y-47435D01*
X83342Y-47378D01*
X83357Y-47350D01*
X83371Y-47335D01*
X83400Y-47321D01*
X83628Y-47621D02*
X83628Y-47321D01*
X83657Y-47507D02*
X83742Y-47621D01*
X83742Y-47421D02*
X83628Y-47535D01*
X77592Y-53835D02*
X77607Y-53850D01*
X77621Y-53892D01*
X77621Y-53921D01*
X77607Y-53964D01*
X77578Y-53992D01*
X77550Y-54007D01*
X77492Y-54021D01*
X77450Y-54021D01*
X77392Y-54007D01*
X77364Y-53992D01*
X77335Y-53964D01*
X77321Y-53921D01*
X77321Y-53892D01*
X77335Y-53850D01*
X77350Y-53835D01*
X77421Y-53578D02*
X77621Y-53578D01*
X77307Y-53650D02*
X77521Y-53721D01*
X77521Y-53535D01*
X77621Y-53264D02*
X77621Y-53435D01*
X77621Y-53350D02*
X77321Y-53350D01*
X77364Y-53378D01*
X77392Y-53407D01*
X77407Y-53435D01*
X77350Y-53150D02*
X77335Y-53135D01*
X77321Y-53107D01*
X77321Y-53035D01*
X77335Y-53007D01*
X77350Y-52992D01*
X77378Y-52978D01*
X77407Y-52978D01*
X77450Y-52992D01*
X77621Y-53164D01*
X77621Y-52978D01*
X77321Y-52492D02*
X77321Y-52464D01*
X77335Y-52435D01*
X77350Y-52421D01*
X77378Y-52407D01*
X77435Y-52392D01*
X77507Y-52392D01*
X77564Y-52407D01*
X77592Y-52421D01*
X77607Y-52435D01*
X77621Y-52464D01*
X77621Y-52492D01*
X77607Y-52521D01*
X77592Y-52535D01*
X77564Y-52549D01*
X77507Y-52564D01*
X77435Y-52564D01*
X77378Y-52549D01*
X77350Y-52535D01*
X77335Y-52521D01*
X77321Y-52492D01*
X77592Y-52264D02*
X77607Y-52250D01*
X77621Y-52264D01*
X77607Y-52278D01*
X77592Y-52264D01*
X77621Y-52264D01*
X77621Y-51964D02*
X77621Y-52135D01*
X77621Y-52050D02*
X77321Y-52050D01*
X77364Y-52078D01*
X77392Y-52107D01*
X77407Y-52135D01*
X77421Y-51707D02*
X77621Y-51707D01*
X77421Y-51835D02*
X77578Y-51835D01*
X77607Y-51821D01*
X77621Y-51792D01*
X77621Y-51750D01*
X77607Y-51721D01*
X77592Y-51707D01*
X77464Y-51464D02*
X77464Y-51564D01*
X77621Y-51564D02*
X77321Y-51564D01*
X77321Y-51421D01*
X76121Y-53835D02*
X75978Y-53935D01*
X76121Y-54007D02*
X75821Y-54007D01*
X75821Y-53892D01*
X75835Y-53864D01*
X75850Y-53850D01*
X75878Y-53835D01*
X75921Y-53835D01*
X75950Y-53850D01*
X75964Y-53864D01*
X75978Y-53892D01*
X75978Y-54007D01*
X75921Y-53578D02*
X76121Y-53578D01*
X75807Y-53650D02*
X76021Y-53721D01*
X76021Y-53535D01*
X76121Y-53264D02*
X76121Y-53435D01*
X76121Y-53350D02*
X75821Y-53350D01*
X75864Y-53378D01*
X75892Y-53407D01*
X75907Y-53435D01*
X75821Y-53007D02*
X75821Y-53064D01*
X75835Y-53092D01*
X75850Y-53107D01*
X75892Y-53135D01*
X75950Y-53150D01*
X76064Y-53150D01*
X76092Y-53135D01*
X76107Y-53121D01*
X76121Y-53092D01*
X76121Y-53035D01*
X76107Y-53007D01*
X76092Y-52992D01*
X76064Y-52978D01*
X75992Y-52978D01*
X75964Y-52992D01*
X75950Y-53007D01*
X75935Y-53035D01*
X75935Y-53092D01*
X75950Y-53121D01*
X75964Y-53135D01*
X75992Y-53150D01*
X76121Y-52178D02*
X76121Y-52349D01*
X76121Y-52264D02*
X75821Y-52264D01*
X75864Y-52292D01*
X75892Y-52321D01*
X75907Y-52349D01*
X75821Y-51992D02*
X75821Y-51964D01*
X75835Y-51935D01*
X75850Y-51921D01*
X75878Y-51907D01*
X75935Y-51892D01*
X76007Y-51892D01*
X76064Y-51907D01*
X76092Y-51921D01*
X76107Y-51935D01*
X76121Y-51964D01*
X76121Y-51992D01*
X76107Y-52021D01*
X76092Y-52035D01*
X76064Y-52049D01*
X76007Y-52064D01*
X75935Y-52064D01*
X75878Y-52049D01*
X75850Y-52035D01*
X75835Y-52021D01*
X75821Y-51992D01*
X76121Y-51764D02*
X75821Y-51764D01*
X76007Y-51735D02*
X76121Y-51650D01*
X75921Y-51650D02*
X76035Y-51764D01*
X77621Y-60835D02*
X77478Y-60935D01*
X77621Y-61007D02*
X77321Y-61007D01*
X77321Y-60892D01*
X77335Y-60864D01*
X77350Y-60850D01*
X77378Y-60835D01*
X77421Y-60835D01*
X77450Y-60850D01*
X77464Y-60864D01*
X77478Y-60892D01*
X77478Y-61007D01*
X77421Y-60578D02*
X77621Y-60578D01*
X77307Y-60650D02*
X77521Y-60721D01*
X77521Y-60535D01*
X77350Y-60435D02*
X77335Y-60421D01*
X77321Y-60392D01*
X77321Y-60321D01*
X77335Y-60292D01*
X77350Y-60278D01*
X77378Y-60264D01*
X77407Y-60264D01*
X77450Y-60278D01*
X77621Y-60450D01*
X77621Y-60264D01*
X77321Y-60078D02*
X77321Y-60050D01*
X77335Y-60021D01*
X77350Y-60007D01*
X77378Y-59992D01*
X77435Y-59978D01*
X77507Y-59978D01*
X77564Y-59992D01*
X77592Y-60007D01*
X77607Y-60021D01*
X77621Y-60050D01*
X77621Y-60078D01*
X77607Y-60107D01*
X77592Y-60121D01*
X77564Y-60135D01*
X77507Y-60150D01*
X77435Y-60150D01*
X77378Y-60135D01*
X77350Y-60121D01*
X77335Y-60107D01*
X77321Y-60078D01*
X77621Y-59085D02*
X77621Y-59257D01*
X77621Y-59171D02*
X77321Y-59171D01*
X77364Y-59199D01*
X77392Y-59228D01*
X77407Y-59257D01*
X77621Y-58957D02*
X77321Y-58957D01*
X77535Y-58857D01*
X77321Y-58757D01*
X77621Y-58757D01*
X76592Y-60835D02*
X76607Y-60850D01*
X76621Y-60892D01*
X76621Y-60921D01*
X76607Y-60964D01*
X76578Y-60992D01*
X76550Y-61007D01*
X76492Y-61021D01*
X76450Y-61021D01*
X76392Y-61007D01*
X76364Y-60992D01*
X76335Y-60964D01*
X76321Y-60921D01*
X76321Y-60892D01*
X76335Y-60850D01*
X76350Y-60835D01*
X76421Y-60578D02*
X76621Y-60578D01*
X76307Y-60650D02*
X76521Y-60721D01*
X76521Y-60535D01*
X76621Y-60264D02*
X76621Y-60435D01*
X76621Y-60350D02*
X76321Y-60350D01*
X76364Y-60378D01*
X76392Y-60407D01*
X76407Y-60435D01*
X76621Y-59978D02*
X76621Y-60150D01*
X76621Y-60064D02*
X76321Y-60064D01*
X76364Y-60092D01*
X76392Y-60121D01*
X76407Y-60150D01*
X76350Y-59492D02*
X76335Y-59478D01*
X76321Y-59450D01*
X76321Y-59378D01*
X76335Y-59350D01*
X76350Y-59335D01*
X76378Y-59321D01*
X76407Y-59321D01*
X76450Y-59335D01*
X76621Y-59507D01*
X76621Y-59321D01*
X76350Y-59207D02*
X76335Y-59192D01*
X76321Y-59164D01*
X76321Y-59092D01*
X76335Y-59064D01*
X76350Y-59050D01*
X76378Y-59035D01*
X76407Y-59035D01*
X76450Y-59050D01*
X76621Y-59221D01*
X76621Y-59035D01*
X76421Y-58907D02*
X76621Y-58907D01*
X76450Y-58907D02*
X76435Y-58892D01*
X76421Y-58864D01*
X76421Y-58821D01*
X76435Y-58792D01*
X76464Y-58778D01*
X76621Y-58778D01*
X76464Y-58535D02*
X76464Y-58635D01*
X76621Y-58635D02*
X76321Y-58635D01*
X76321Y-58492D01*
X75592Y-60835D02*
X75607Y-60850D01*
X75621Y-60892D01*
X75621Y-60921D01*
X75607Y-60964D01*
X75578Y-60992D01*
X75550Y-61007D01*
X75492Y-61021D01*
X75450Y-61021D01*
X75392Y-61007D01*
X75364Y-60992D01*
X75335Y-60964D01*
X75321Y-60921D01*
X75321Y-60892D01*
X75335Y-60850D01*
X75350Y-60835D01*
X75421Y-60578D02*
X75621Y-60578D01*
X75307Y-60650D02*
X75521Y-60721D01*
X75521Y-60535D01*
X75621Y-60264D02*
X75621Y-60435D01*
X75621Y-60350D02*
X75321Y-60350D01*
X75364Y-60378D01*
X75392Y-60407D01*
X75407Y-60435D01*
X75321Y-60164D02*
X75321Y-59978D01*
X75435Y-60078D01*
X75435Y-60035D01*
X75450Y-60007D01*
X75464Y-59992D01*
X75492Y-59978D01*
X75564Y-59978D01*
X75592Y-59992D01*
X75607Y-60007D01*
X75621Y-60035D01*
X75621Y-60121D01*
X75607Y-60150D01*
X75592Y-60164D01*
X75621Y-59321D02*
X75621Y-59492D01*
X75621Y-59407D02*
X75321Y-59407D01*
X75364Y-59435D01*
X75392Y-59464D01*
X75407Y-59492D01*
X75321Y-59135D02*
X75321Y-59107D01*
X75335Y-59078D01*
X75350Y-59064D01*
X75378Y-59050D01*
X75435Y-59035D01*
X75507Y-59035D01*
X75564Y-59050D01*
X75592Y-59064D01*
X75607Y-59078D01*
X75621Y-59107D01*
X75621Y-59135D01*
X75607Y-59164D01*
X75592Y-59178D01*
X75564Y-59192D01*
X75507Y-59207D01*
X75435Y-59207D01*
X75378Y-59192D01*
X75350Y-59178D01*
X75335Y-59164D01*
X75321Y-59135D01*
X75421Y-58907D02*
X75621Y-58907D01*
X75450Y-58907D02*
X75435Y-58892D01*
X75421Y-58864D01*
X75421Y-58821D01*
X75435Y-58792D01*
X75464Y-58778D01*
X75621Y-58778D01*
X75464Y-58535D02*
X75464Y-58635D01*
X75621Y-58635D02*
X75321Y-58635D01*
X75321Y-58492D01*
X74621Y-60835D02*
X74478Y-60935D01*
X74621Y-61007D02*
X74321Y-61007D01*
X74321Y-60892D01*
X74335Y-60864D01*
X74350Y-60850D01*
X74378Y-60835D01*
X74421Y-60835D01*
X74450Y-60850D01*
X74464Y-60864D01*
X74478Y-60892D01*
X74478Y-61007D01*
X74421Y-60578D02*
X74621Y-60578D01*
X74307Y-60650D02*
X74521Y-60721D01*
X74521Y-60535D01*
X74621Y-60264D02*
X74621Y-60435D01*
X74621Y-60350D02*
X74321Y-60350D01*
X74364Y-60378D01*
X74392Y-60407D01*
X74407Y-60435D01*
X74321Y-60164D02*
X74321Y-59964D01*
X74621Y-60092D01*
X74350Y-59492D02*
X74335Y-59478D01*
X74321Y-59449D01*
X74321Y-59378D01*
X74335Y-59349D01*
X74350Y-59335D01*
X74378Y-59321D01*
X74407Y-59321D01*
X74450Y-59335D01*
X74621Y-59507D01*
X74621Y-59321D01*
X74321Y-59135D02*
X74321Y-59107D01*
X74335Y-59078D01*
X74350Y-59064D01*
X74378Y-59049D01*
X74435Y-59035D01*
X74507Y-59035D01*
X74564Y-59049D01*
X74592Y-59064D01*
X74607Y-59078D01*
X74621Y-59107D01*
X74621Y-59135D01*
X74607Y-59164D01*
X74592Y-59178D01*
X74564Y-59192D01*
X74507Y-59207D01*
X74435Y-59207D01*
X74378Y-59192D01*
X74350Y-59178D01*
X74335Y-59164D01*
X74321Y-59135D01*
X74321Y-58850D02*
X74321Y-58821D01*
X74335Y-58792D01*
X74350Y-58778D01*
X74378Y-58764D01*
X74435Y-58750D01*
X74507Y-58750D01*
X74564Y-58764D01*
X74592Y-58778D01*
X74607Y-58792D01*
X74621Y-58821D01*
X74621Y-58850D01*
X74607Y-58878D01*
X74592Y-58892D01*
X74564Y-58907D01*
X74507Y-58921D01*
X74435Y-58921D01*
X74378Y-58907D01*
X74350Y-58892D01*
X74335Y-58878D01*
X74321Y-58850D01*
X74621Y-58621D02*
X74321Y-58621D01*
X74507Y-58592D02*
X74621Y-58507D01*
X74421Y-58507D02*
X74535Y-58621D01*
M02*
