G04 (created by PCBNEW (22-Jun-2014 BZR 4027)-stable) date Sun 17 Dec 2017 02:55:52 AM CST*
%MOIN*%
G04 Gerber Fmt 3.4, Leading zero omitted, Abs format*
%FSLAX34Y34*%
G01*
G70*
G90*
G04 APERTURE LIST*
%ADD10C,0.00590551*%
%ADD11C,0.007*%
G04 APERTURE END LIST*
G54D10*
G54D11*
X91158Y-48016D02*
X91441Y-48016D01*
X91475Y-48000D01*
X91491Y-47983D01*
X91508Y-47950D01*
X91508Y-47900D01*
X91491Y-47866D01*
X91375Y-48016D02*
X91391Y-47983D01*
X91391Y-47916D01*
X91375Y-47883D01*
X91358Y-47866D01*
X91325Y-47850D01*
X91225Y-47850D01*
X91191Y-47866D01*
X91175Y-47883D01*
X91158Y-47916D01*
X91158Y-47983D01*
X91175Y-48016D01*
X91391Y-48183D02*
X91158Y-48183D01*
X91041Y-48183D02*
X91058Y-48166D01*
X91075Y-48183D01*
X91058Y-48200D01*
X91041Y-48183D01*
X91075Y-48183D01*
X91158Y-48300D02*
X91158Y-48433D01*
X91041Y-48350D02*
X91341Y-48350D01*
X91375Y-48366D01*
X91391Y-48400D01*
X91391Y-48433D01*
X91391Y-48550D02*
X91041Y-48550D01*
X91391Y-48700D02*
X91208Y-48700D01*
X91175Y-48683D01*
X91158Y-48650D01*
X91158Y-48600D01*
X91175Y-48566D01*
X91191Y-48550D01*
X91158Y-49016D02*
X91391Y-49016D01*
X91158Y-48866D02*
X91341Y-48866D01*
X91375Y-48883D01*
X91391Y-48916D01*
X91391Y-48966D01*
X91375Y-48999D01*
X91358Y-49016D01*
X91391Y-49183D02*
X91041Y-49183D01*
X91175Y-49183D02*
X91158Y-49216D01*
X91158Y-49283D01*
X91175Y-49316D01*
X91191Y-49333D01*
X91225Y-49349D01*
X91325Y-49349D01*
X91358Y-49333D01*
X91375Y-49316D01*
X91391Y-49283D01*
X91391Y-49216D01*
X91375Y-49183D01*
X91358Y-49499D02*
X91375Y-49516D01*
X91391Y-49499D01*
X91375Y-49483D01*
X91358Y-49499D01*
X91391Y-49499D01*
X91375Y-49816D02*
X91391Y-49783D01*
X91391Y-49716D01*
X91375Y-49683D01*
X91358Y-49666D01*
X91325Y-49649D01*
X91225Y-49649D01*
X91191Y-49666D01*
X91175Y-49683D01*
X91158Y-49716D01*
X91158Y-49783D01*
X91175Y-49816D01*
X91391Y-50016D02*
X91375Y-49983D01*
X91358Y-49966D01*
X91325Y-49949D01*
X91225Y-49949D01*
X91191Y-49966D01*
X91175Y-49983D01*
X91158Y-50016D01*
X91158Y-50066D01*
X91175Y-50099D01*
X91191Y-50116D01*
X91225Y-50133D01*
X91325Y-50133D01*
X91358Y-50116D01*
X91375Y-50099D01*
X91391Y-50066D01*
X91391Y-50016D01*
X91391Y-50283D02*
X91158Y-50283D01*
X91191Y-50283D02*
X91175Y-50299D01*
X91158Y-50333D01*
X91158Y-50383D01*
X91175Y-50416D01*
X91208Y-50433D01*
X91391Y-50433D01*
X91208Y-50433D02*
X91175Y-50449D01*
X91158Y-50483D01*
X91158Y-50533D01*
X91175Y-50566D01*
X91208Y-50583D01*
X91391Y-50583D01*
X91025Y-50999D02*
X91475Y-50699D01*
X91158Y-51116D02*
X91508Y-51116D01*
X91175Y-51116D02*
X91158Y-51149D01*
X91158Y-51216D01*
X91175Y-51249D01*
X91191Y-51266D01*
X91225Y-51283D01*
X91325Y-51283D01*
X91358Y-51266D01*
X91375Y-51249D01*
X91391Y-51216D01*
X91391Y-51149D01*
X91375Y-51116D01*
X91375Y-51566D02*
X91391Y-51533D01*
X91391Y-51466D01*
X91375Y-51433D01*
X91341Y-51416D01*
X91208Y-51416D01*
X91175Y-51433D01*
X91158Y-51466D01*
X91158Y-51533D01*
X91175Y-51566D01*
X91208Y-51583D01*
X91241Y-51583D01*
X91275Y-51416D01*
X91158Y-51733D02*
X91508Y-51733D01*
X91175Y-51733D02*
X91158Y-51766D01*
X91158Y-51833D01*
X91175Y-51866D01*
X91191Y-51883D01*
X91225Y-51899D01*
X91325Y-51899D01*
X91358Y-51883D01*
X91375Y-51866D01*
X91391Y-51833D01*
X91391Y-51766D01*
X91375Y-51733D01*
X91391Y-52199D02*
X91208Y-52199D01*
X91175Y-52183D01*
X91158Y-52149D01*
X91158Y-52083D01*
X91175Y-52049D01*
X91375Y-52199D02*
X91391Y-52166D01*
X91391Y-52083D01*
X91375Y-52049D01*
X91341Y-52033D01*
X91308Y-52033D01*
X91275Y-52049D01*
X91258Y-52083D01*
X91258Y-52166D01*
X91241Y-52199D01*
X91375Y-52349D02*
X91391Y-52383D01*
X91391Y-52449D01*
X91375Y-52483D01*
X91341Y-52499D01*
X91325Y-52499D01*
X91291Y-52483D01*
X91275Y-52449D01*
X91275Y-52399D01*
X91258Y-52366D01*
X91225Y-52349D01*
X91208Y-52349D01*
X91175Y-52366D01*
X91158Y-52399D01*
X91158Y-52449D01*
X91175Y-52483D01*
X91391Y-52699D02*
X91375Y-52666D01*
X91341Y-52649D01*
X91041Y-52649D01*
X91391Y-52983D02*
X91208Y-52983D01*
X91175Y-52966D01*
X91158Y-52933D01*
X91158Y-52866D01*
X91175Y-52833D01*
X91375Y-52983D02*
X91391Y-52949D01*
X91391Y-52866D01*
X91375Y-52833D01*
X91341Y-52816D01*
X91308Y-52816D01*
X91275Y-52833D01*
X91258Y-52866D01*
X91258Y-52949D01*
X91241Y-52983D01*
X91391Y-53149D02*
X91041Y-53149D01*
X91175Y-53149D02*
X91158Y-53183D01*
X91158Y-53249D01*
X91175Y-53283D01*
X91191Y-53299D01*
X91225Y-53316D01*
X91325Y-53316D01*
X91358Y-53299D01*
X91375Y-53283D01*
X91391Y-53249D01*
X91391Y-53183D01*
X91375Y-53149D01*
X91375Y-53449D02*
X91391Y-53483D01*
X91391Y-53549D01*
X91375Y-53583D01*
X91341Y-53599D01*
X91325Y-53599D01*
X91291Y-53583D01*
X91275Y-53549D01*
X91275Y-53499D01*
X91258Y-53466D01*
X91225Y-53449D01*
X91208Y-53449D01*
X91175Y-53466D01*
X91158Y-53499D01*
X91158Y-53549D01*
X91175Y-53583D01*
X91025Y-53999D02*
X91475Y-53699D01*
X91391Y-54116D02*
X91041Y-54116D01*
X91391Y-54266D02*
X91208Y-54266D01*
X91175Y-54249D01*
X91158Y-54216D01*
X91158Y-54166D01*
X91175Y-54133D01*
X91191Y-54116D01*
X91158Y-54433D02*
X91508Y-54433D01*
X91175Y-54433D02*
X91158Y-54466D01*
X91158Y-54533D01*
X91175Y-54566D01*
X91191Y-54583D01*
X91225Y-54599D01*
X91325Y-54599D01*
X91358Y-54583D01*
X91375Y-54566D01*
X91391Y-54533D01*
X91391Y-54466D01*
X91375Y-54433D01*
X91258Y-54749D02*
X91258Y-55016D01*
X91041Y-55249D02*
X91041Y-55283D01*
X91058Y-55316D01*
X91075Y-55333D01*
X91108Y-55349D01*
X91175Y-55366D01*
X91258Y-55366D01*
X91325Y-55349D01*
X91358Y-55333D01*
X91375Y-55316D01*
X91391Y-55283D01*
X91391Y-55249D01*
X91375Y-55216D01*
X91358Y-55199D01*
X91325Y-55183D01*
X91258Y-55166D01*
X91175Y-55166D01*
X91108Y-55183D01*
X91075Y-55199D01*
X91058Y-55216D01*
X91041Y-55249D01*
X91041Y-55483D02*
X91041Y-55699D01*
X91175Y-55583D01*
X91175Y-55633D01*
X91191Y-55666D01*
X91208Y-55683D01*
X91241Y-55699D01*
X91325Y-55699D01*
X91358Y-55683D01*
X91375Y-55666D01*
X91391Y-55633D01*
X91391Y-55533D01*
X91375Y-55499D01*
X91358Y-55483D01*
X91158Y-55999D02*
X91391Y-55999D01*
X91025Y-55916D02*
X91275Y-55833D01*
X91275Y-56049D01*
X91041Y-56349D02*
X91041Y-56183D01*
X91208Y-56166D01*
X91191Y-56183D01*
X91175Y-56216D01*
X91175Y-56299D01*
X91191Y-56333D01*
X91208Y-56349D01*
X91241Y-56366D01*
X91325Y-56366D01*
X91358Y-56349D01*
X91375Y-56333D01*
X91391Y-56299D01*
X91391Y-56216D01*
X91375Y-56183D01*
X91358Y-56166D01*
X91191Y-56566D02*
X91175Y-56533D01*
X91158Y-56516D01*
X91125Y-56499D01*
X91108Y-56499D01*
X91075Y-56516D01*
X91058Y-56533D01*
X91041Y-56566D01*
X91041Y-56633D01*
X91058Y-56666D01*
X91075Y-56683D01*
X91108Y-56699D01*
X91125Y-56699D01*
X91158Y-56683D01*
X91175Y-56666D01*
X91191Y-56633D01*
X91191Y-56566D01*
X91208Y-56533D01*
X91225Y-56516D01*
X91258Y-56499D01*
X91325Y-56499D01*
X91358Y-56516D01*
X91375Y-56533D01*
X91391Y-56566D01*
X91391Y-56633D01*
X91375Y-56666D01*
X91358Y-56683D01*
X91325Y-56699D01*
X91258Y-56699D01*
X91225Y-56683D01*
X91208Y-56666D01*
X91191Y-56633D01*
X91258Y-56849D02*
X91258Y-57116D01*
X91041Y-57433D02*
X91041Y-57366D01*
X91058Y-57333D01*
X91075Y-57316D01*
X91125Y-57283D01*
X91191Y-57266D01*
X91325Y-57266D01*
X91358Y-57283D01*
X91375Y-57299D01*
X91391Y-57333D01*
X91391Y-57399D01*
X91375Y-57433D01*
X91358Y-57449D01*
X91325Y-57466D01*
X91241Y-57466D01*
X91208Y-57449D01*
X91191Y-57433D01*
X91175Y-57399D01*
X91175Y-57333D01*
X91191Y-57299D01*
X91208Y-57283D01*
X91241Y-57266D01*
X91041Y-57766D02*
X91041Y-57699D01*
X91058Y-57666D01*
X91075Y-57649D01*
X91125Y-57616D01*
X91191Y-57599D01*
X91325Y-57599D01*
X91358Y-57616D01*
X91375Y-57633D01*
X91391Y-57666D01*
X91391Y-57733D01*
X91375Y-57766D01*
X91358Y-57783D01*
X91325Y-57799D01*
X91241Y-57799D01*
X91208Y-57783D01*
X91191Y-57766D01*
X91175Y-57733D01*
X91175Y-57666D01*
X91191Y-57633D01*
X91208Y-57616D01*
X91241Y-57599D01*
X91041Y-58116D02*
X91041Y-57949D01*
X91208Y-57933D01*
X91191Y-57949D01*
X91175Y-57983D01*
X91175Y-58066D01*
X91191Y-58099D01*
X91208Y-58116D01*
X91241Y-58133D01*
X91325Y-58133D01*
X91358Y-58116D01*
X91375Y-58099D01*
X91391Y-58066D01*
X91391Y-57983D01*
X91375Y-57949D01*
X91358Y-57933D01*
X91041Y-58349D02*
X91041Y-58383D01*
X91058Y-58416D01*
X91075Y-58433D01*
X91108Y-58449D01*
X91175Y-58466D01*
X91258Y-58466D01*
X91325Y-58449D01*
X91358Y-58433D01*
X91375Y-58416D01*
X91391Y-58383D01*
X91391Y-58349D01*
X91375Y-58316D01*
X91358Y-58299D01*
X91325Y-58283D01*
X91258Y-58266D01*
X91175Y-58266D01*
X91108Y-58283D01*
X91075Y-58299D01*
X91058Y-58316D01*
X91041Y-58349D01*
X91391Y-58633D02*
X91391Y-58699D01*
X91375Y-58733D01*
X91358Y-58749D01*
X91308Y-58783D01*
X91241Y-58799D01*
X91108Y-58799D01*
X91075Y-58783D01*
X91058Y-58766D01*
X91041Y-58733D01*
X91041Y-58666D01*
X91058Y-58633D01*
X91075Y-58616D01*
X91108Y-58599D01*
X91191Y-58599D01*
X91225Y-58616D01*
X91241Y-58633D01*
X91258Y-58666D01*
X91258Y-58733D01*
X91241Y-58766D01*
X91225Y-58783D01*
X91191Y-58799D01*
X91258Y-58950D02*
X91258Y-59216D01*
X91375Y-59533D02*
X91391Y-59500D01*
X91391Y-59433D01*
X91375Y-59400D01*
X91358Y-59383D01*
X91325Y-59366D01*
X91225Y-59366D01*
X91191Y-59383D01*
X91175Y-59400D01*
X91158Y-59433D01*
X91158Y-59500D01*
X91175Y-59533D01*
X91391Y-59733D02*
X91375Y-59700D01*
X91341Y-59683D01*
X91041Y-59683D01*
X91391Y-59916D02*
X91375Y-59883D01*
X91358Y-59866D01*
X91325Y-59850D01*
X91225Y-59850D01*
X91191Y-59866D01*
X91175Y-59883D01*
X91158Y-59916D01*
X91158Y-59966D01*
X91175Y-60000D01*
X91191Y-60016D01*
X91225Y-60033D01*
X91325Y-60033D01*
X91358Y-60016D01*
X91375Y-60000D01*
X91391Y-59966D01*
X91391Y-59916D01*
X91158Y-60183D02*
X91391Y-60183D01*
X91191Y-60183D02*
X91175Y-60200D01*
X91158Y-60233D01*
X91158Y-60283D01*
X91175Y-60316D01*
X91208Y-60333D01*
X91391Y-60333D01*
X91375Y-60633D02*
X91391Y-60600D01*
X91391Y-60533D01*
X91375Y-60500D01*
X91341Y-60483D01*
X91208Y-60483D01*
X91175Y-60500D01*
X91158Y-60533D01*
X91158Y-60600D01*
X91175Y-60633D01*
X91208Y-60650D01*
X91241Y-60650D01*
X91275Y-60483D01*
M02*
