M48
;DRILL file {Pcbnew (22-Jun-2014 BZR 4027)-stable} date Sun 17 Dec 2017 02:26:34 AM CST
;FORMAT={-:-/ absolute / inch / decimal}
FMAT,2
INCH,TZ
T1C0.025
T2C0.032
T3C0.040
%
G90
G05
M72
T1
X7.5Y-6.05
X7.825Y-5.825
X8.1Y-5.325
X8.3Y-5.675
X8.35Y-5.35
X8.5Y-5.925
X8.625Y-5.15
X8.625Y-5.225
X8.625Y-5.4
X8.9Y-5.325
T2
X7.3Y-5.05
X7.3Y-5.2
X7.3Y-5.25
X7.3Y-5.45
X7.3Y-5.5
X7.3Y-5.65
X7.3Y-5.95
X7.3Y-6.1
X7.3Y-6.15
X7.4Y-5.25
X7.4Y-5.35
X7.4Y-5.45
X7.45Y-5.725
X7.45Y-6.225
X7.55Y-5.725
X7.55Y-6.225
X7.6Y-5.025
X7.6Y-5.525
X7.65Y-5.725
X7.65Y-6.225
X7.75Y-5.025
X7.75Y-5.525
X7.75Y-5.725
X7.75Y-6.225
X7.9Y-5.625
X7.9Y-5.725
X8.Y-4.75
X8.Y-5.225
X8.Y-5.525
X8.1Y-5.225
X8.1Y-5.525
X8.2Y-5.225
X8.2Y-5.525
X8.3Y-5.225
X8.3Y-5.525
X8.4Y-5.625
X8.4Y-5.725
X8.5Y-4.75
X8.5Y-5.225
X8.5Y-5.325
X8.5Y-5.45
X8.6Y-4.8
X8.726Y-5.925
X8.7543Y-5.8543
X8.7543Y-5.9957
X8.825Y-5.826
X8.825Y-6.024
X8.8957Y-5.8543
X8.8957Y-5.9957
X8.924Y-5.925
X9.Y-4.8
X9.Y-5.225
X9.Y-5.325
X9.Y-5.45
T3
X7.95Y-4.925
X7.95Y-6.125
X8.05Y-4.925
X8.05Y-6.125
X8.15Y-4.925
X8.15Y-6.125
X8.25Y-4.925
X8.25Y-6.125
X8.35Y-4.925
X8.35Y-6.125
X8.6Y-4.9
X8.7Y-5.075
X8.8Y-5.075
X8.9Y-5.075
X9.Y-4.9
T0
M30
