G04 (created by PCBNEW (22-Jun-2014 BZR 4027)-stable) date Sun 17 Dec 2017 02:26:31 AM CST*
%MOIN*%
G04 Gerber Fmt 3.4, Leading zero omitted, Abs format*
%FSLAX34Y34*%
G01*
G70*
G90*
G04 APERTURE LIST*
%ADD10C,0.00590551*%
%ADD11C,0.008*%
G04 APERTURE END LIST*
G54D10*
G54D11*
X91645Y-47876D02*
X91969Y-47876D01*
X92007Y-47857D01*
X92026Y-47838D01*
X92045Y-47800D01*
X92045Y-47742D01*
X92026Y-47704D01*
X91892Y-47876D02*
X91911Y-47838D01*
X91911Y-47761D01*
X91892Y-47723D01*
X91873Y-47704D01*
X91835Y-47685D01*
X91721Y-47685D01*
X91683Y-47704D01*
X91664Y-47723D01*
X91645Y-47761D01*
X91645Y-47838D01*
X91664Y-47876D01*
X91911Y-48066D02*
X91645Y-48066D01*
X91511Y-48066D02*
X91530Y-48047D01*
X91550Y-48066D01*
X91530Y-48085D01*
X91511Y-48066D01*
X91550Y-48066D01*
X91645Y-48200D02*
X91645Y-48352D01*
X91511Y-48257D02*
X91854Y-48257D01*
X91892Y-48276D01*
X91911Y-48314D01*
X91911Y-48352D01*
X91911Y-48485D02*
X91511Y-48485D01*
X91911Y-48657D02*
X91702Y-48657D01*
X91664Y-48638D01*
X91645Y-48600D01*
X91645Y-48542D01*
X91664Y-48504D01*
X91683Y-48485D01*
X91645Y-49019D02*
X91911Y-49019D01*
X91645Y-48847D02*
X91854Y-48847D01*
X91892Y-48866D01*
X91911Y-48904D01*
X91911Y-48961D01*
X91892Y-49000D01*
X91873Y-49019D01*
X91911Y-49209D02*
X91511Y-49209D01*
X91664Y-49209D02*
X91645Y-49247D01*
X91645Y-49323D01*
X91664Y-49361D01*
X91683Y-49380D01*
X91721Y-49400D01*
X91835Y-49400D01*
X91873Y-49380D01*
X91892Y-49361D01*
X91911Y-49323D01*
X91911Y-49247D01*
X91892Y-49209D01*
X91873Y-49571D02*
X91892Y-49590D01*
X91911Y-49571D01*
X91892Y-49552D01*
X91873Y-49571D01*
X91911Y-49571D01*
X91892Y-49933D02*
X91911Y-49895D01*
X91911Y-49819D01*
X91892Y-49780D01*
X91873Y-49761D01*
X91835Y-49742D01*
X91721Y-49742D01*
X91683Y-49761D01*
X91664Y-49780D01*
X91645Y-49819D01*
X91645Y-49895D01*
X91664Y-49933D01*
X91911Y-50161D02*
X91892Y-50123D01*
X91873Y-50104D01*
X91835Y-50085D01*
X91721Y-50085D01*
X91683Y-50104D01*
X91664Y-50123D01*
X91645Y-50161D01*
X91645Y-50219D01*
X91664Y-50257D01*
X91683Y-50276D01*
X91721Y-50295D01*
X91835Y-50295D01*
X91873Y-50276D01*
X91892Y-50257D01*
X91911Y-50219D01*
X91911Y-50161D01*
X91911Y-50466D02*
X91645Y-50466D01*
X91683Y-50466D02*
X91664Y-50485D01*
X91645Y-50523D01*
X91645Y-50580D01*
X91664Y-50619D01*
X91702Y-50638D01*
X91911Y-50638D01*
X91702Y-50638D02*
X91664Y-50657D01*
X91645Y-50695D01*
X91645Y-50752D01*
X91664Y-50790D01*
X91702Y-50809D01*
X91911Y-50809D01*
X91492Y-51285D02*
X92007Y-50942D01*
X91645Y-51419D02*
X92045Y-51419D01*
X91664Y-51419D02*
X91645Y-51457D01*
X91645Y-51533D01*
X91664Y-51571D01*
X91683Y-51590D01*
X91721Y-51609D01*
X91835Y-51609D01*
X91873Y-51590D01*
X91892Y-51571D01*
X91911Y-51533D01*
X91911Y-51457D01*
X91892Y-51419D01*
X91892Y-51933D02*
X91911Y-51895D01*
X91911Y-51819D01*
X91892Y-51780D01*
X91854Y-51761D01*
X91702Y-51761D01*
X91664Y-51780D01*
X91645Y-51819D01*
X91645Y-51895D01*
X91664Y-51933D01*
X91702Y-51952D01*
X91740Y-51952D01*
X91778Y-51761D01*
X91645Y-52123D02*
X92045Y-52123D01*
X91664Y-52123D02*
X91645Y-52161D01*
X91645Y-52238D01*
X91664Y-52276D01*
X91683Y-52295D01*
X91721Y-52314D01*
X91835Y-52314D01*
X91873Y-52295D01*
X91892Y-52276D01*
X91911Y-52238D01*
X91911Y-52161D01*
X91892Y-52123D01*
X91911Y-52657D02*
X91702Y-52657D01*
X91664Y-52638D01*
X91645Y-52600D01*
X91645Y-52523D01*
X91664Y-52485D01*
X91892Y-52657D02*
X91911Y-52619D01*
X91911Y-52523D01*
X91892Y-52485D01*
X91854Y-52466D01*
X91816Y-52466D01*
X91778Y-52485D01*
X91759Y-52523D01*
X91759Y-52619D01*
X91740Y-52657D01*
X91892Y-52828D02*
X91911Y-52866D01*
X91911Y-52942D01*
X91892Y-52980D01*
X91854Y-53000D01*
X91835Y-53000D01*
X91797Y-52980D01*
X91778Y-52942D01*
X91778Y-52885D01*
X91759Y-52847D01*
X91721Y-52828D01*
X91702Y-52828D01*
X91664Y-52847D01*
X91645Y-52885D01*
X91645Y-52942D01*
X91664Y-52980D01*
X91911Y-53228D02*
X91892Y-53190D01*
X91854Y-53171D01*
X91511Y-53171D01*
X91911Y-53552D02*
X91702Y-53552D01*
X91664Y-53533D01*
X91645Y-53495D01*
X91645Y-53419D01*
X91664Y-53380D01*
X91892Y-53552D02*
X91911Y-53514D01*
X91911Y-53419D01*
X91892Y-53380D01*
X91854Y-53361D01*
X91816Y-53361D01*
X91778Y-53380D01*
X91759Y-53419D01*
X91759Y-53514D01*
X91740Y-53552D01*
X91911Y-53742D02*
X91511Y-53742D01*
X91664Y-53742D02*
X91645Y-53780D01*
X91645Y-53857D01*
X91664Y-53895D01*
X91683Y-53914D01*
X91721Y-53933D01*
X91835Y-53933D01*
X91873Y-53914D01*
X91892Y-53895D01*
X91911Y-53857D01*
X91911Y-53780D01*
X91892Y-53742D01*
X91892Y-54085D02*
X91911Y-54123D01*
X91911Y-54200D01*
X91892Y-54238D01*
X91854Y-54257D01*
X91835Y-54257D01*
X91797Y-54238D01*
X91778Y-54200D01*
X91778Y-54142D01*
X91759Y-54104D01*
X91721Y-54085D01*
X91702Y-54085D01*
X91664Y-54104D01*
X91645Y-54142D01*
X91645Y-54200D01*
X91664Y-54238D01*
X91492Y-54714D02*
X92007Y-54371D01*
X91911Y-54847D02*
X91511Y-54847D01*
X91911Y-55019D02*
X91702Y-55019D01*
X91664Y-55000D01*
X91645Y-54961D01*
X91645Y-54904D01*
X91664Y-54866D01*
X91683Y-54847D01*
X91645Y-55209D02*
X92045Y-55209D01*
X91664Y-55209D02*
X91645Y-55247D01*
X91645Y-55323D01*
X91664Y-55361D01*
X91683Y-55380D01*
X91721Y-55400D01*
X91835Y-55400D01*
X91873Y-55380D01*
X91892Y-55361D01*
X91911Y-55323D01*
X91911Y-55247D01*
X91892Y-55209D01*
X91759Y-55571D02*
X91759Y-55876D01*
X91511Y-56142D02*
X91511Y-56180D01*
X91530Y-56219D01*
X91550Y-56238D01*
X91588Y-56257D01*
X91664Y-56276D01*
X91759Y-56276D01*
X91835Y-56257D01*
X91873Y-56238D01*
X91892Y-56219D01*
X91911Y-56180D01*
X91911Y-56142D01*
X91892Y-56104D01*
X91873Y-56085D01*
X91835Y-56066D01*
X91759Y-56047D01*
X91664Y-56047D01*
X91588Y-56066D01*
X91550Y-56085D01*
X91530Y-56104D01*
X91511Y-56142D01*
X91511Y-56409D02*
X91511Y-56657D01*
X91664Y-56523D01*
X91664Y-56580D01*
X91683Y-56619D01*
X91702Y-56638D01*
X91740Y-56657D01*
X91835Y-56657D01*
X91873Y-56638D01*
X91892Y-56619D01*
X91911Y-56580D01*
X91911Y-56466D01*
X91892Y-56428D01*
X91873Y-56409D01*
X91645Y-57000D02*
X91911Y-57000D01*
X91492Y-56904D02*
X91778Y-56809D01*
X91778Y-57057D01*
X91511Y-57400D02*
X91511Y-57209D01*
X91702Y-57190D01*
X91683Y-57209D01*
X91664Y-57247D01*
X91664Y-57342D01*
X91683Y-57380D01*
X91702Y-57400D01*
X91740Y-57419D01*
X91835Y-57419D01*
X91873Y-57400D01*
X91892Y-57380D01*
X91911Y-57342D01*
X91911Y-57247D01*
X91892Y-57209D01*
X91873Y-57190D01*
X91683Y-57647D02*
X91664Y-57609D01*
X91645Y-57590D01*
X91607Y-57571D01*
X91588Y-57571D01*
X91550Y-57590D01*
X91530Y-57609D01*
X91511Y-57647D01*
X91511Y-57723D01*
X91530Y-57761D01*
X91550Y-57780D01*
X91588Y-57800D01*
X91607Y-57800D01*
X91645Y-57780D01*
X91664Y-57761D01*
X91683Y-57723D01*
X91683Y-57647D01*
X91702Y-57609D01*
X91721Y-57590D01*
X91759Y-57571D01*
X91835Y-57571D01*
X91873Y-57590D01*
X91892Y-57609D01*
X91911Y-57647D01*
X91911Y-57723D01*
X91892Y-57761D01*
X91873Y-57780D01*
X91835Y-57800D01*
X91759Y-57800D01*
X91721Y-57780D01*
X91702Y-57761D01*
X91683Y-57723D01*
X91759Y-57971D02*
X91759Y-58276D01*
X91511Y-58638D02*
X91511Y-58561D01*
X91530Y-58523D01*
X91550Y-58504D01*
X91607Y-58466D01*
X91683Y-58447D01*
X91835Y-58447D01*
X91873Y-58466D01*
X91892Y-58485D01*
X91911Y-58523D01*
X91911Y-58600D01*
X91892Y-58638D01*
X91873Y-58657D01*
X91835Y-58676D01*
X91740Y-58676D01*
X91702Y-58657D01*
X91683Y-58638D01*
X91664Y-58600D01*
X91664Y-58523D01*
X91683Y-58485D01*
X91702Y-58466D01*
X91740Y-58447D01*
X91511Y-59019D02*
X91511Y-58942D01*
X91530Y-58904D01*
X91550Y-58885D01*
X91607Y-58847D01*
X91683Y-58828D01*
X91835Y-58828D01*
X91873Y-58847D01*
X91892Y-58866D01*
X91911Y-58904D01*
X91911Y-58980D01*
X91892Y-59019D01*
X91873Y-59038D01*
X91835Y-59057D01*
X91740Y-59057D01*
X91702Y-59038D01*
X91683Y-59019D01*
X91664Y-58980D01*
X91664Y-58904D01*
X91683Y-58866D01*
X91702Y-58847D01*
X91740Y-58828D01*
X91511Y-59419D02*
X91511Y-59228D01*
X91702Y-59209D01*
X91683Y-59228D01*
X91664Y-59266D01*
X91664Y-59361D01*
X91683Y-59400D01*
X91702Y-59419D01*
X91740Y-59438D01*
X91835Y-59438D01*
X91873Y-59419D01*
X91892Y-59400D01*
X91911Y-59361D01*
X91911Y-59266D01*
X91892Y-59228D01*
X91873Y-59209D01*
X91511Y-59685D02*
X91511Y-59723D01*
X91530Y-59761D01*
X91550Y-59780D01*
X91588Y-59800D01*
X91664Y-59819D01*
X91759Y-59819D01*
X91835Y-59800D01*
X91873Y-59780D01*
X91892Y-59761D01*
X91911Y-59723D01*
X91911Y-59685D01*
X91892Y-59647D01*
X91873Y-59628D01*
X91835Y-59609D01*
X91759Y-59590D01*
X91664Y-59590D01*
X91588Y-59609D01*
X91550Y-59628D01*
X91530Y-59647D01*
X91511Y-59685D01*
X91911Y-60009D02*
X91911Y-60085D01*
X91892Y-60123D01*
X91873Y-60142D01*
X91816Y-60180D01*
X91740Y-60200D01*
X91588Y-60200D01*
X91550Y-60180D01*
X91530Y-60161D01*
X91511Y-60123D01*
X91511Y-60047D01*
X91530Y-60009D01*
X91550Y-59990D01*
X91588Y-59971D01*
X91683Y-59971D01*
X91721Y-59990D01*
X91740Y-60009D01*
X91759Y-60047D01*
X91759Y-60123D01*
X91740Y-60161D01*
X91721Y-60180D01*
X91683Y-60200D01*
X91759Y-60371D02*
X91759Y-60676D01*
X91892Y-61038D02*
X91911Y-61000D01*
X91911Y-60923D01*
X91892Y-60885D01*
X91873Y-60866D01*
X91835Y-60847D01*
X91721Y-60847D01*
X91683Y-60866D01*
X91664Y-60885D01*
X91645Y-60923D01*
X91645Y-61000D01*
X91664Y-61038D01*
X91911Y-61266D02*
X91892Y-61228D01*
X91854Y-61209D01*
X91511Y-61209D01*
X91911Y-61476D02*
X91892Y-61438D01*
X91873Y-61419D01*
X91835Y-61400D01*
X91721Y-61400D01*
X91683Y-61419D01*
X91664Y-61438D01*
X91645Y-61476D01*
X91645Y-61533D01*
X91664Y-61571D01*
X91683Y-61590D01*
X91721Y-61609D01*
X91835Y-61609D01*
X91873Y-61590D01*
X91892Y-61571D01*
X91911Y-61533D01*
X91911Y-61476D01*
X91645Y-61780D02*
X91911Y-61780D01*
X91683Y-61780D02*
X91664Y-61800D01*
X91645Y-61838D01*
X91645Y-61895D01*
X91664Y-61933D01*
X91702Y-61952D01*
X91911Y-61952D01*
X91892Y-62295D02*
X91911Y-62257D01*
X91911Y-62180D01*
X91892Y-62142D01*
X91854Y-62123D01*
X91702Y-62123D01*
X91664Y-62142D01*
X91645Y-62180D01*
X91645Y-62257D01*
X91664Y-62295D01*
X91702Y-62314D01*
X91740Y-62314D01*
X91778Y-62123D01*
M02*
