M48
INCH,TZ
T10C0.025
T11C0.032
T12C0.040
T13C0.150
T14C0.069
%
T10
X075000Y-60500
X078250Y-58250
X081000Y-53250
X083000Y-56750
X083500Y-53500
X085000Y-59250
X086250Y-51500
X086250Y-52250
X086250Y-54000
X089000Y-53250
T11
X073000Y-50500
X073000Y-52000
X073000Y-52500
X073000Y-54500
X073000Y-55000
X073000Y-56500
X073000Y-59500
X073000Y-61000
X073000Y-61500
X074000Y-52500
X074000Y-53500
X074000Y-54500
X074500Y-57250
X074500Y-62250
X075500Y-57250
X075500Y-62250
X076000Y-50250
X076000Y-55250
X076500Y-57250
X076500Y-62250
X077500Y-50250
X077500Y-55250
X077500Y-57250
X077500Y-62250
X079000Y-56250
X079000Y-57250
X080000Y-47500
X080000Y-52250
X080000Y-55250
X081000Y-52250
X081000Y-55250
X082000Y-52250
X082000Y-55250
X083000Y-52250
X083000Y-55250
X084000Y-56250
X084000Y-57250
X085000Y-47500
X085000Y-52250
X085000Y-53250
X085000Y-54500
X086000Y-48000
X087260Y-59250
X087543Y-58543
X087543Y-59957
X088250Y-58260
X088250Y-60240
X088957Y-58543
X088957Y-59957
X089240Y-59250
X090000Y-48000
X090000Y-52250
X090000Y-53250
X090000Y-54500
T12
X079500Y-49250
X079500Y-61250
X080500Y-49250
X080500Y-61250
X081500Y-49250
X081500Y-61250
X082500Y-49250
X082500Y-61250
X083500Y-49250
X083500Y-61250
X086000Y-49000
X087000Y-50750
X088000Y-50750
X089000Y-50750
X090000Y-49000
T13
X073500Y-48250
X086000Y-56750
X090500Y-61750
T14
X079500Y-50750
X079500Y-59750
X080500Y-50750
X081500Y-50750
X081500Y-59750
X082500Y-50750
X082500Y-59750
X083500Y-50750
X083500Y-59750
M30

