M48
INCH,TZ
T10C0.025
T11C0.032
T12C0.040
T13C0.150
T14C0.069
%
T10
X075500Y-60500
X078500Y-58500
X081000Y-53500
X083500Y-53500
X084500Y-56750
X085250Y-59250
X086250Y-51500
X086250Y-52250
X086250Y-54000
X089000Y-53250
T11
X073250Y-55750
X073500Y-51500
X073500Y-52000
X073500Y-53500
X073500Y-59000
X073500Y-60500
X073500Y-61000
X074250Y-55750
X075000Y-57250
X075000Y-62250
X075250Y-51500
X075250Y-52000
X075250Y-53500
X075250Y-55750
X076000Y-57250
X076000Y-62250
X077000Y-50250
X077000Y-55250
X077000Y-57250
X077000Y-62250
X078000Y-50250
X078000Y-55250
X078000Y-57250
X078000Y-62250
X079000Y-56100
X079000Y-58000
X080000Y-47750
X080000Y-51700
X080000Y-54700
X080750Y-56100
X080750Y-58000
X081000Y-51700
X081000Y-54700
X082000Y-51700
X082000Y-54700
X082250Y-56100
X082250Y-58000
X082750Y-56100
X082750Y-58000
X083000Y-51700
X083000Y-54700
X084000Y-56100
X084000Y-58000
X085000Y-47750
X085000Y-52250
X085000Y-53250
X085000Y-54750
X086000Y-48000
X087260Y-59250
X087543Y-58543
X087543Y-59957
X088250Y-58260
X088250Y-60240
X088957Y-58543
X088957Y-59957
X089240Y-59250
X090000Y-48000
X090000Y-52250
X090000Y-53250
X090000Y-54750
T12
X079500Y-49250
X079500Y-61000
X080500Y-49250
X080500Y-61000
X081500Y-49250
X081500Y-61000
X082500Y-49250
X082500Y-61000
X083500Y-49250
X083500Y-61000
X086000Y-49000
X087000Y-50750
X088000Y-50750
X089000Y-50750
X090000Y-49000
T13
X074000Y-48250
X086000Y-56500
X089950Y-62000
T14
X079500Y-50750
X079500Y-59500
X080500Y-50750
X081500Y-50750
X081500Y-59500
X082500Y-50750
X082500Y-59500
X083500Y-50750
X083500Y-59500
M30

