  0
SECTION
  2
HEADER
  9
$ANGBASE
  50
0.0
  9
$ANGDIR
  70
  1
  9
$MEASUREMENT
  70
0
  0
ENDSEC
  0
SECTION
  2
TABLES
  0
TABLE
  2
LTYPE
  70
1
  0
LTYPE
  2
CONTINUOUS
  70
0
  3
Solid line
  72
65
  73
0
  40
0.0
  0
ENDTAB
  0
TABLE
  2
STYLE
  70
4
  0
STYLE
  2
KICAD
  70
0
  40
0
  41
1
  42
1
  50
0
  71
0
  3
isocp.shx
  0
STYLE
  2
KICADB
  70
0
  40
0
  41
1
  42
1
  50
0
  71
0
  3
isocp.shx
  0
STYLE
  2
KICADI
  70
0
  40
0
  41
1
  42
1
  50
15
  71
0
  3
isocp.shx
  0
STYLE
  2
KICADBI
  70
0
  40
0
  41
1
  42
1
  50
15
  71
0
  3
isocp.shx
  0
ENDTAB
  0
TABLE
  2
LAYER
  70
24
  0
LAYER
  2
BLACK
  70
0
  62
250
  6
CONTINUOUS
  0
LAYER
  2
BLUE
  70
0
  62
5
  6
CONTINUOUS
  0
LAYER
  2
GREEN
  70
0
  62
3
  6
CONTINUOUS
  0
LAYER
  2
CYAN
  70
0
  62
4
  6
CONTINUOUS
  0
LAYER
  2
RED
  70
0
  62
1
  6
CONTINUOUS
  0
LAYER
  2
MAGENTA
  70
0
  62
6
  6
CONTINUOUS
  0
LAYER
  2
BROWN
  70
0
  62
54
  6
CONTINUOUS
  0
LAYER
  2
LIGHTGRAY
  70
0
  62
9
  6
CONTINUOUS
  0
LAYER
  2
DARKGRAY
  70
0
  62
8
  6
CONTINUOUS
  0
LAYER
  2
LIGHTBLUE
  70
0
  62
171
  6
CONTINUOUS
  0
LAYER
  2
LIGHTGREEN
  70
0
  62
91
  6
CONTINUOUS
  0
LAYER
  2
LIGHTCYAN
  70
0
  62
131
  6
CONTINUOUS
  0
LAYER
  2
LIGHTRED
  70
0
  62
11
  6
CONTINUOUS
  0
LAYER
  2
LIGHTMAGENTA
  70
0
  62
221
  6
CONTINUOUS
  0
LAYER
  2
YELLOW
  70
0
  62
2
  6
CONTINUOUS
  0
LAYER
  2
WHITE
  70
0
  62
7
  6
CONTINUOUS
  0
LAYER
  2
DARKDARKGRAY
  70
0
  62
251
  6
CONTINUOUS
  0
LAYER
  2
DARKBLUE
  70
0
  62
178
  6
CONTINUOUS
  0
LAYER
  2
DARKGREEN
  70
0
  62
98
  6
CONTINUOUS
  0
LAYER
  2
DARKCYAN
  70
0
  62
138
  6
CONTINUOUS
  0
LAYER
  2
DARKRED
  70
0
  62
18
  6
CONTINUOUS
  0
LAYER
  2
DARKMAGENTA
  70
0
  62
228
  6
CONTINUOUS
  0
LAYER
  2
DARKBROWN
  70
0
  62
58
  6
CONTINUOUS
  0
LAYER
  2
LIGHTYELLOW
  70
0
  62
51
  6
CONTINUOUS
  0
ENDTAB
  0
ENDSEC
  0
SECTION
  2
ENTITIES
0
CIRCLE
8
BLACK
10
222.359
20
-148.699
40
0.635
0
CIRCLE
8
BLACK
10
225.951
20
-148.699
40
0.635
0
CIRCLE
8
BLACK
10
226.669
20
-150.495
40
0.635
0
CIRCLE
8
BLACK
10
224.155
20
-147.981
40
0.635
0
CIRCLE
8
BLACK
10
225.951
20
-152.291
40
0.635
0
CIRCLE
8
BLACK
10
224.155
20
-153.009
40
0.635
0
CIRCLE
8
BLACK
10
222.359
20
-152.291
40
0.635
0
CIRCLE
8
BLACK
10
221.641
20
-150.495
40
0.635
0
LINE
8
BLACK
10
220.104
20
-129.781
11
221.856
21
-129.781
0
LINE
8
BLACK
10
221.856
20
-129.781
11
221.856
21
-128.029
0
LINE
8
BLACK
10
221.856
20
-128.029
11
220.104
21
-128.029
0
LINE
8
BLACK
10
220.104
20
-128.029
11
220.104
21
-129.781
0
ARC
8
BLACK
10
223.52
20
-128.905
40
0.8763
50
270
51
450
0
ARC
8
BLACK
10
223.52
20
-128.905
40
0.8763
50
90
51
270
0
ARC
8
BLACK
10
226.06
20
-128.905
40
0.8763
50
270
51
450
0
ARC
8
BLACK
10
226.06
20
-128.905
40
0.8763
50
90
51
270
0
CIRCLE
8
BLACK
10
191.135
20
-130.81
40
0.7493
0
CIRCLE
8
BLACK
10
191.135
20
-135.89
40
0.7493
0
CIRCLE
8
BLACK
10
191.135
20
-132.08
40
0.7493
0
CIRCLE
8
BLACK
10
186.69
20
-130.81
40
0.7493
0
CIRCLE
8
BLACK
10
186.69
20
-135.89
40
0.7493
0
CIRCLE
8
BLACK
10
186.69
20
-132.08
40
0.7493
0
CIRCLE
8
BLACK
10
186.69
20
-154.94
40
0.7493
0
CIRCLE
8
BLACK
10
186.69
20
-149.86
40
0.7493
0
CIRCLE
8
BLACK
10
186.69
20
-153.67
40
0.7493
0
LINE
8
BLACK
10
202.451
20
-138.189
11
202.451
21
-139.687
0
LINE
8
BLACK
10
202.451
20
-139.687
11
203.949
21
-139.687
0
LINE
8
BLACK
10
203.949
20
-139.687
11
203.949
21
-138.189
0
LINE
8
BLACK
10
203.949
20
-138.189
11
202.451
21
-138.189
0
ARC
8
BLACK
10
205.74
20
-138.938
40
0.7493
50
180
51
360
0
ARC
8
BLACK
10
205.74
20
-138.938
40
0.7493
50
0
51
180
0
ARC
8
BLACK
10
208.28
20
-138.938
40
0.7493
50
180
51
360
0
ARC
8
BLACK
10
208.28
20
-138.938
40
0.7493
50
0
51
180
0
ARC
8
BLACK
10
210.82
20
-138.938
40
0.7493
50
180
51
360
0
ARC
8
BLACK
10
210.82
20
-138.938
40
0.7493
50
0
51
180
0
ARC
8
BLACK
10
210.82
20
-131.318
40
0.7493
50
180
51
360
0
ARC
8
BLACK
10
210.82
20
-131.318
40
0.7493
50
0
51
180
0
ARC
8
BLACK
10
208.28
20
-131.318
40
0.7493
50
180
51
360
0
ARC
8
BLACK
10
208.28
20
-131.318
40
0.7493
50
0
51
180
0
ARC
8
BLACK
10
203.2
20
-131.318
40
0.7493
50
180
51
360
0
ARC
8
BLACK
10
203.2
20
-131.318
40
0.7493
50
0
51
180
0
ARC
8
BLACK
10
205.74
20
-131.318
40
0.7493
50
180
51
360
0
ARC
8
BLACK
10
205.74
20
-131.318
40
0.7493
50
0
51
180
0
LINE
8
BLACK
10
201.168
20
-154.178
11
201.168
21
-155.702
0
LINE
8
BLACK
10
201.168
20
-155.702
11
202.692
21
-155.702
0
LINE
8
BLACK
10
202.692
20
-155.702
11
202.692
21
-154.178
0
LINE
8
BLACK
10
202.692
20
-154.178
11
201.168
21
-154.178
0
CIRCLE
8
BLACK
10
204.47
20
-154.94
40
0.762
0
CIRCLE
8
BLACK
10
207.01
20
-154.94
40
0.762
0
CIRCLE
8
BLACK
10
209.55
20
-154.94
40
0.762
0
CIRCLE
8
BLACK
10
212.09
20
-154.94
40
0.762
0
LINE
8
BLACK
10
212.852
20
-125.857
11
212.852
21
-124.333
0
LINE
8
BLACK
10
212.852
20
-124.333
11
211.328
21
-124.333
0
LINE
8
BLACK
10
211.328
20
-124.333
11
211.328
21
-125.857
0
LINE
8
BLACK
10
211.328
20
-125.857
11
212.852
21
-125.857
0
CIRCLE
8
BLACK
10
209.55
20
-125.095
40
0.762
0
CIRCLE
8
BLACK
10
207.01
20
-125.095
40
0.762
0
CIRCLE
8
BLACK
10
204.47
20
-125.095
40
0.762
0
CIRCLE
8
BLACK
10
201.93
20
-125.095
40
0.762
0
LINE
8
BLACK
10
219.189
20
-122.669
11
219.189
21
-121.171
0
LINE
8
BLACK
10
219.189
20
-121.171
11
217.691
21
-121.171
0
LINE
8
BLACK
10
217.691
20
-121.171
11
217.691
21
-122.669
0
LINE
8
BLACK
10
217.691
20
-122.669
11
219.189
21
-122.669
0
ARC
8
BLACK
10
228.6
20
-121.92
40
0.7493
50
360
51
540
0
ARC
8
BLACK
10
228.6
20
-121.92
40
0.7493
50
180
51
360
0
LINE
8
BLACK
10
219.316
20
-125.336
11
219.316
21
-123.584
0
LINE
8
BLACK
10
219.316
20
-123.584
11
217.564
21
-123.584
0
LINE
8
BLACK
10
217.564
20
-123.584
11
217.564
21
-125.336
0
LINE
8
BLACK
10
217.564
20
-125.336
11
219.316
21
-125.336
0
ARC
8
BLACK
10
228.6
20
-124.46
40
0.8763
50
360
51
540
0
ARC
8
BLACK
10
228.6
20
-124.46
40
0.8763
50
180
51
360
0
ARC
8
BLACK
10
215.9
20
-132.715
40
0.7493
50
180
51
360
0
ARC
8
BLACK
10
215.9
20
-132.715
40
0.7493
50
0
51
180
0
ARC
8
BLACK
10
228.6
20
-132.715
40
0.7493
50
180
51
360
0
ARC
8
BLACK
10
228.6
20
-132.715
40
0.7493
50
0
51
180
0
ARC
8
BLACK
10
215.9
20
-135.255
40
0.7493
50
180
51
360
0
ARC
8
BLACK
10
215.9
20
-135.255
40
0.7493
50
0
51
180
0
ARC
8
BLACK
10
228.6
20
-135.255
40
0.7493
50
180
51
360
0
ARC
8
BLACK
10
228.6
20
-135.255
40
0.7493
50
0
51
180
0
CIRCLE
8
BLACK
10
228.6
20
-139.065
40
0.7493
0
CIRCLE
8
BLACK
10
215.9
20
-139.065
40
0.7493
0
ARC
8
BLACK
10
215.9
20
-121.285
40
0.7493
50
360
51
540
0
ARC
8
BLACK
10
215.9
20
-121.285
40
0.7493
50
180
51
360
0
ARC
8
BLACK
10
203.2
20
-121.285
40
0.7493
50
360
51
540
0
ARC
8
BLACK
10
203.2
20
-121.285
40
0.7493
50
180
51
360
0
CIRCLE
8
BLACK
10
198.12
20
-127.635
40
0.7493
0
CIRCLE
8
BLACK
10
198.12
20
-140.335
40
0.7493
0
ARC
8
BLACK
10
195.58
20
-140.335
40
0.7493
50
270
51
450
0
ARC
8
BLACK
10
195.58
20
-140.335
40
0.7493
50
90
51
270
0
ARC
8
BLACK
10
195.58
20
-127.635
40
0.7493
50
270
51
450
0
ARC
8
BLACK
10
195.58
20
-127.635
40
0.7493
50
90
51
270
0
ARC
8
BLACK
10
198.12
20
-145.415
40
0.7493
50
450
51
630
0
ARC
8
BLACK
10
198.12
20
-145.415
40
0.7493
50
270
51
450
0
ARC
8
BLACK
10
198.12
20
-158.115
40
0.7493
50
450
51
630
0
ARC
8
BLACK
10
198.12
20
-158.115
40
0.7493
50
270
51
450
0
CIRCLE
8
BLACK
10
195.58
20
-145.415
40
0.7493
0
CIRCLE
8
BLACK
10
195.58
20
-158.115
40
0.7493
0
CIRCLE
8
BLACK
10
193.04
20
-145.415
40
0.7493
0
CIRCLE
8
BLACK
10
193.04
20
-158.115
40
0.7493
0
ARC
8
BLACK
10
190.5
20
-158.115
40
0.7493
50
270
51
450
0
ARC
8
BLACK
10
190.5
20
-158.115
40
0.7493
50
90
51
270
0
ARC
8
BLACK
10
190.5
20
-145.415
40
0.7493
50
270
51
450
0
ARC
8
BLACK
10
190.5
20
-145.415
40
0.7493
50
90
51
270
0
CIRCLE
8
BLACK
10
191.135
20
-141.605
40
0.7493
0
CIRCLE
8
BLACK
10
186.055
20
-141.605
40
0.7493
0
CIRCLE
8
BLACK
10
188.595
20
-141.605
40
0.7493
0
CIRCLE
8
BLACK
10
187.96
20
-122.555
40
1.905
0
CIRCLE
8
BLACK
10
218.44
20
-143.51
40
1.905
0
CIRCLE
8
BLACK
10
228.473
20
-157.48
40
1.905
0
CIRCLE
8
BLACK
10
210.185
20
-142.494
40
0.7493
0
CIRCLE
8
BLACK
10
205.105
20
-142.494
40
0.7493
0
CIRCLE
8
BLACK
10
208.915
20
-142.494
40
0.7493
0
CIRCLE
8
BLACK
10
200.66
20
-142.494
40
0.7493
0
CIRCLE
8
BLACK
10
213.36
20
-142.494
40
0.7493
0
CIRCLE
8
BLACK
10
210.185
20
-147.32
40
0.7493
0
CIRCLE
8
BLACK
10
205.105
20
-147.32
40
0.7493
0
CIRCLE
8
BLACK
10
208.915
20
-147.32
40
0.7493
0
CIRCLE
8
BLACK
10
200.66
20
-147.32
40
0.7493
0
CIRCLE
8
BLACK
10
213.36
20
-147.32
40
0.7493
0
CIRCLE
8
BLACK
10
231.14
20
-122.555
40
0.635
0
CIRCLE
8
BLACK
10
231.14
20
-125.095
40
0.635
0
CIRCLE
8
BLACK
10
215.9
20
-125.095
40
0.635
0
CIRCLE
8
BLACK
10
213.36
20
-122.555
40
0.635
0
CIRCLE
8
BLACK
10
210.82
20
-122.555
40
0.635
0
CIRCLE
8
BLACK
10
208.28
20
-122.555
40
0.635
0
CIRCLE
8
BLACK
10
205.74
20
-122.555
40
0.635
0
CIRCLE
8
BLACK
10
200.025
20
-122.555
40
0.635
0
CIRCLE
8
BLACK
10
226.06
20
-132.715
40
0.635
0
CIRCLE
8
BLACK
10
223.52
20
-132.715
40
0.635
0
CIRCLE
8
BLACK
10
218.44
20
-127.635
40
0.635
0
CIRCLE
8
BLACK
10
200.66
20
-155.575
40
0.635
0
CIRCLE
8
BLACK
10
203.2
20
-158.115
40
0.635
0
CIRCLE
8
BLACK
10
205.74
20
-158.115
40
0.635
0
CIRCLE
8
BLACK
10
210.82
20
-158.115
40
0.635
0
CIRCLE
8
BLACK
10
228.6
20
-142.875
40
0.635
0
CIRCLE
8
BLACK
10
226.06
20
-142.875
40
0.635
0
CIRCLE
8
BLACK
10
215.9
20
-153.035
40
0.635
0
CIRCLE
8
BLACK
10
215.9
20
-147.955
40
0.635
0
CIRCLE
8
BLACK
10
214.63
20
-144.145
40
0.4445
0
CIRCLE
8
BLACK
10
191.77
20
-153.67
40
0.4445
0
CIRCLE
8
BLACK
10
219.075
20
-130.81
40
0.4445
0
CIRCLE
8
BLACK
10
226.06
20
-135.255
40
0.4445
0
CIRCLE
8
BLACK
10
212.09
20
-135.89
40
0.4445
0
CIRCLE
8
BLACK
10
205.74
20
-135.89
40
0.4445
0
CIRCLE
8
BLACK
10
199.39
20
-148.59
40
0.4445
0
CIRCLE
8
BLACK
10
219.075
20
-137.16
40
0.4445
0
CIRCLE
8
BLACK
10
216.535
20
-150.495
40
0.4445
0
CIRCLE
8
BLACK
10
219.075
20
-132.715
40
0.4445
0
LINE
8
BLACK
10
204.597
20
-125.095
11
204.597
21
-123.19
0
LINE
8
BLACK
10
204.343
20
-125.095
11
204.343
21
-123.19
0
ARC
8
BLACK
10
204.47
20
-123.19
40
0.127
50
360
51
540
0
ARC
8
BLACK
10
204.47
20
-125.095
40
0.127
50
180
51
360
0
LINE
8
BLACK
10
204.488
20
-123.067
11
200.044
21
-122.427
0
LINE
8
BLACK
10
204.451
20
-123.318
11
200.007
21
-122.678
0
ARC
8
BLACK
10
200.025
20
-122.552
40
0.127
50
441.8
51
621.8
0
ARC
8
BLACK
10
204.47
20
-123.193
40
0.127
50
261.8
51
441.8
0
LINE
8
BLACK
10
223.647
20
-132.715
11
223.647
21
-128.905
0
LINE
8
BLACK
10
223.393
20
-132.715
11
223.393
21
-128.905
0
ARC
8
BLACK
10
223.52
20
-128.905
40
0.127
50
360
51
540
0
ARC
8
BLACK
10
223.52
20
-132.715
40
0.127
50
180
51
360
0
LINE
8
BLACK
10
212.217
20
-125.095
11
212.217
21
-123.825
0
LINE
8
BLACK
10
211.963
20
-125.095
11
211.963
21
-123.825
0
ARC
8
BLACK
10
212.09
20
-123.825
40
0.127
50
360
51
540
0
ARC
8
BLACK
10
212.09
20
-125.095
40
0.127
50
180
51
360
0
LINE
8
BLACK
10
212.18
20
-123.735
11
210.91
21
-122.465
0
LINE
8
BLACK
10
212
20
-123.915
11
210.73
21
-122.645
0
ARC
8
BLACK
10
210.82
20
-122.555
40
0.127
50
405
51
585
0
ARC
8
BLACK
10
212.09
20
-123.825
40
0.127
50
225
51
405
0
LINE
8
BLACK
10
223.647
20
-128.905
11
223.647
21
-126.365
0
LINE
8
BLACK
10
223.393
20
-128.905
11
223.393
21
-126.365
0
ARC
8
BLACK
10
223.52
20
-126.365
40
0.127
50
360
51
540
0
ARC
8
BLACK
10
223.52
20
-128.905
40
0.127
50
180
51
360
0
LINE
8
BLACK
10
212.09
20
-125.222
11
213.36
21
-125.222
0
LINE
8
BLACK
10
212.09
20
-124.968
11
213.36
21
-124.968
0
ARC
8
BLACK
10
213.36
20
-125.095
40
0.127
50
270
51
450
0
ARC
8
BLACK
10
212.09
20
-125.095
40
0.127
50
90
51
270
0
LINE
8
BLACK
10
214.72
20
-126.275
11
213.45
21
-125.005
0
LINE
8
BLACK
10
214.54
20
-126.455
11
213.27
21
-125.185
0
ARC
8
BLACK
10
213.36
20
-125.095
40
0.127
50
405
51
585
0
ARC
8
BLACK
10
214.63
20
-126.365
40
0.127
50
225
51
405
0
LINE
8
BLACK
10
214.63
20
-126.492
11
218.44
21
-126.492
0
LINE
8
BLACK
10
214.63
20
-126.238
11
218.44
21
-126.238
0
ARC
8
BLACK
10
218.44
20
-126.365
40
0.127
50
270
51
450
0
ARC
8
BLACK
10
214.63
20
-126.365
40
0.127
50
90
51
270
0
LINE
8
BLACK
10
218.44
20
-126.492
11
223.52
21
-126.492
0
LINE
8
BLACK
10
218.44
20
-126.238
11
223.52
21
-126.238
0
ARC
8
BLACK
10
223.52
20
-126.365
40
0.127
50
270
51
450
0
ARC
8
BLACK
10
218.44
20
-126.365
40
0.127
50
90
51
270
0
LINE
8
BLACK
10
223.52
20
-146.812
11
224.155
21
-146.812
0
LINE
8
BLACK
10
223.52
20
-146.558
11
224.155
21
-146.558
0
ARC
8
BLACK
10
224.155
20
-146.685
40
0.127
50
270
51
450
0
ARC
8
BLACK
10
223.52
20
-146.685
40
0.127
50
90
51
270
0
LINE
8
BLACK
10
224.282
20
-147.193
11
224.282
21
-146.685
0
LINE
8
BLACK
10
224.028
20
-147.193
11
224.028
21
-146.685
0
ARC
8
BLACK
10
224.155
20
-146.685
40
0.127
50
360
51
540
0
ARC
8
BLACK
10
224.155
20
-147.193
40
0.127
50
180
51
360
0
LINE
8
BLACK
10
224.282
20
-147.981
11
224.282
21
-147.193
0
LINE
8
BLACK
10
224.028
20
-147.981
11
224.028
21
-147.193
0
ARC
8
BLACK
10
224.155
20
-147.193
40
0.127
50
360
51
540
0
ARC
8
BLACK
10
224.155
20
-147.981
40
0.127
50
180
51
360
0
LINE
8
BLACK
10
222.25
20
-146.812
11
223.52
21
-146.812
0
LINE
8
BLACK
10
222.25
20
-146.558
11
223.52
21
-146.558
0
ARC
8
BLACK
10
223.52
20
-146.685
40
0.127
50
270
51
450
0
ARC
8
BLACK
10
222.25
20
-146.685
40
0.127
50
90
51
270
0
LINE
8
BLACK
10
223.52
20
-146.812
11
223.647
21
-146.812
0
LINE
8
BLACK
10
223.52
20
-146.558
11
223.647
21
-146.558
0
ARC
8
BLACK
10
223.647
20
-146.685
40
0.127
50
270
51
450
0
ARC
8
BLACK
10
223.52
20
-146.685
40
0.127
50
90
51
270
0
LINE
8
BLACK
10
210.91
20
-158.025
11
209.64
21
-156.755
0
LINE
8
BLACK
10
210.73
20
-158.205
11
209.46
21
-156.935
0
ARC
8
BLACK
10
209.55
20
-156.845
40
0.127
50
405
51
585
0
ARC
8
BLACK
10
210.82
20
-158.115
40
0.127
50
225
51
405
0
LINE
8
BLACK
10
209.677
20
-156.845
11
209.677
21
-154.94
0
LINE
8
BLACK
10
209.423
20
-156.845
11
209.423
21
-154.94
0
ARC
8
BLACK
10
209.55
20
-154.94
40
0.127
50
360
51
540
0
ARC
8
BLACK
10
209.55
20
-156.845
40
0.127
50
180
51
360
0
LINE
8
BLACK
10
215.81
20
-121.195
11
214.54
21
-122.465
0
LINE
8
BLACK
10
215.99
20
-121.375
11
214.72
21
-122.645
0
ARC
8
BLACK
10
214.63
20
-122.555
40
0.127
50
135
51
315
0
ARC
8
BLACK
10
215.9
20
-121.285
40
0.127
50
-45
51
135
0
LINE
8
BLACK
10
213.36
20
-122.682
11
214.63
21
-122.682
0
LINE
8
BLACK
10
213.36
20
-122.428
11
214.63
21
-122.428
0
ARC
8
BLACK
10
214.63
20
-122.555
40
0.127
50
270
51
450
0
ARC
8
BLACK
10
213.36
20
-122.555
40
0.127
50
90
51
270
0
LINE
8
BLACK
10
200.66
20
-145.542
11
210.82
21
-145.542
0
LINE
8
BLACK
10
200.66
20
-145.288
11
210.82
21
-145.288
0
ARC
8
BLACK
10
210.82
20
-145.415
40
0.127
50
270
51
450
0
ARC
8
BLACK
10
200.66
20
-145.415
40
0.127
50
90
51
270
0
LINE
8
BLACK
10
210.947
20
-145.415
11
210.947
21
-144.145
0
LINE
8
BLACK
10
210.693
20
-145.415
11
210.693
21
-144.145
0
ARC
8
BLACK
10
210.82
20
-144.145
40
0.127
50
360
51
540
0
ARC
8
BLACK
10
210.82
20
-145.415
40
0.127
50
180
51
360
0
LINE
8
BLACK
10
210.82
20
-144.272
11
214.63
21
-144.272
0
LINE
8
BLACK
10
210.82
20
-144.018
11
214.63
21
-144.018
0
ARC
8
BLACK
10
214.63
20
-144.145
40
0.127
50
270
51
450
0
ARC
8
BLACK
10
210.82
20
-144.145
40
0.127
50
90
51
270
0
LINE
8
BLACK
10
200.787
20
-145.415
11
200.787
21
-142.494
0
LINE
8
BLACK
10
200.533
20
-145.415
11
200.533
21
-142.494
0
ARC
8
BLACK
10
200.66
20
-142.494
40
0.127
50
360
51
540
0
ARC
8
BLACK
10
200.66
20
-145.415
40
0.127
50
180
51
360
0
LINE
8
BLACK
10
200.787
20
-147.32
11
200.787
21
-145.415
0
LINE
8
BLACK
10
200.533
20
-147.32
11
200.533
21
-145.415
0
ARC
8
BLACK
10
200.66
20
-145.415
40
0.127
50
360
51
540
0
ARC
8
BLACK
10
200.66
20
-147.32
40
0.127
50
180
51
360
0
LINE
8
BLACK
10
191.262
20
-141.605
11
191.262
21
-138.43
0
LINE
8
BLACK
10
191.008
20
-141.605
11
191.008
21
-138.43
0
ARC
8
BLACK
10
191.135
20
-138.43
40
0.127
50
360
51
540
0
ARC
8
BLACK
10
191.135
20
-141.605
40
0.127
50
180
51
360
0
LINE
8
BLACK
10
191.262
20
-138.43
11
191.262
21
-135.89
0
LINE
8
BLACK
10
191.008
20
-138.43
11
191.008
21
-135.89
0
ARC
8
BLACK
10
191.135
20
-135.89
40
0.127
50
360
51
540
0
ARC
8
BLACK
10
191.135
20
-138.43
40
0.127
50
180
51
360
0
LINE
8
BLACK
10
191.045
20
-141.695
11
192.315
21
-142.965
0
LINE
8
BLACK
10
191.225
20
-141.515
11
192.495
21
-142.785
0
ARC
8
BLACK
10
192.405
20
-142.875
40
0.127
50
225
51
405
0
ARC
8
BLACK
10
191.135
20
-141.605
40
0.127
50
45
51
225
0
LINE
8
BLACK
10
200.594
20
-142.385
11
199.96
21
-142.766
0
LINE
8
BLACK
10
200.725
20
-142.603
11
200.091
21
-142.984
0
ARC
8
BLACK
10
200.025
20
-142.875
40
0.127
50
121
51
301
0
ARC
8
BLACK
10
200.66
20
-142.494
40
0.127
50
-59
51
121
0
LINE
8
BLACK
10
192.405
20
-143.002
11
200.025
21
-143.002
0
LINE
8
BLACK
10
192.405
20
-142.748
11
200.025
21
-142.748
0
ARC
8
BLACK
10
200.025
20
-142.875
40
0.127
50
270
51
450
0
ARC
8
BLACK
10
192.405
20
-142.875
40
0.127
50
90
51
270
0
LINE
8
BLACK
10
200.66
20
-147.447
11
205.105
21
-147.447
0
LINE
8
BLACK
10
200.66
20
-147.193
11
205.105
21
-147.193
0
ARC
8
BLACK
10
205.105
20
-147.32
40
0.127
50
270
51
450
0
ARC
8
BLACK
10
200.66
20
-147.32
40
0.127
50
90
51
270
0
LINE
8
BLACK
10
200.66
20
-142.621
11
205.105
21
-142.621
0
LINE
8
BLACK
10
200.66
20
-142.367
11
205.105
21
-142.367
0
ARC
8
BLACK
10
205.105
20
-142.494
40
0.127
50
270
51
450
0
ARC
8
BLACK
10
200.66
20
-142.494
40
0.127
50
90
51
270
0
LINE
8
BLACK
10
214.757
20
-146.685
11
214.757
21
-144.145
0
LINE
8
BLACK
10
214.503
20
-146.685
11
214.503
21
-144.145
0
ARC
8
BLACK
10
214.63
20
-144.145
40
0.127
50
360
51
540
0
ARC
8
BLACK
10
214.63
20
-146.685
40
0.127
50
180
51
360
0
LINE
8
BLACK
10
214.63
20
-146.812
11
222.25
21
-146.812
0
LINE
8
BLACK
10
214.63
20
-146.558
11
222.25
21
-146.558
0
ARC
8
BLACK
10
222.25
20
-146.685
40
0.127
50
270
51
450
0
ARC
8
BLACK
10
214.63
20
-146.685
40
0.127
50
90
51
270
0
ARC
8
BLACK
10
214.63
20
-144.145
40
0.127
50
180
51
360
0
ARC
8
BLACK
10
214.63
20
-144.145
40
0.127
50
0
51
180
0
ARC
8
BLACK
10
214.63
20
-144.145
40
0.127
50
180
51
360
0
ARC
8
BLACK
10
214.63
20
-144.145
40
0.127
50
0
51
180
0
ARC
8
BLACK
10
214.63
20
-144.145
40
0.127
50
180
51
360
0
ARC
8
BLACK
10
214.63
20
-144.145
40
0.127
50
0
51
180
0
LINE
8
BLACK
10
209.677
20
-125.095
11
209.677
21
-123.825
0
LINE
8
BLACK
10
209.423
20
-125.095
11
209.423
21
-123.825
0
ARC
8
BLACK
10
209.55
20
-123.825
40
0.127
50
360
51
540
0
ARC
8
BLACK
10
209.55
20
-125.095
40
0.127
50
180
51
360
0
LINE
8
BLACK
10
209.64
20
-123.735
11
208.37
21
-122.465
0
LINE
8
BLACK
10
209.46
20
-123.915
11
208.19
21
-122.645
0
ARC
8
BLACK
10
208.28
20
-122.555
40
0.127
50
405
51
585
0
ARC
8
BLACK
10
209.55
20
-123.825
40
0.127
50
225
51
405
0
LINE
8
BLACK
10
205.65
20
-122.645
11
206.285
21
-123.28
0
LINE
8
BLACK
10
205.83
20
-122.465
11
206.465
21
-123.1
0
ARC
8
BLACK
10
206.375
20
-123.19
40
0.127
50
225
51
405
0
ARC
8
BLACK
10
205.74
20
-122.555
40
0.127
50
45
51
225
0
LINE
8
BLACK
10
207.137
20
-125.095
11
207.137
21
-124.46
0
LINE
8
BLACK
10
206.883
20
-125.095
11
206.883
21
-124.46
0
ARC
8
BLACK
10
207.01
20
-124.46
40
0.127
50
360
51
540
0
ARC
8
BLACK
10
207.01
20
-125.095
40
0.127
50
180
51
360
0
LINE
8
BLACK
10
206.285
20
-123.915
11
206.92
21
-124.55
0
LINE
8
BLACK
10
206.465
20
-123.735
11
207.1
21
-124.37
0
ARC
8
BLACK
10
207.01
20
-124.46
40
0.127
50
225
51
405
0
ARC
8
BLACK
10
206.375
20
-123.825
40
0.127
50
45
51
225
0
LINE
8
BLACK
10
206.502
20
-123.825
11
206.502
21
-123.19
0
LINE
8
BLACK
10
206.248
20
-123.825
11
206.248
21
-123.19
0
ARC
8
BLACK
10
206.375
20
-123.19
40
0.127
50
360
51
540
0
ARC
8
BLACK
10
206.375
20
-123.825
40
0.127
50
180
51
360
0
LINE
8
BLACK
10
216.535
20
-124.587
11
218.44
21
-124.587
0
LINE
8
BLACK
10
216.535
20
-124.333
11
218.44
21
-124.333
0
ARC
8
BLACK
10
218.44
20
-124.46
40
0.127
50
270
51
450
0
ARC
8
BLACK
10
216.535
20
-124.46
40
0.127
50
90
51
270
0
LINE
8
BLACK
10
216.445
20
-124.37
11
215.81
21
-125.005
0
LINE
8
BLACK
10
216.625
20
-124.55
11
215.99
21
-125.185
0
ARC
8
BLACK
10
215.9
20
-125.095
40
0.127
50
135
51
315
0
ARC
8
BLACK
10
216.535
20
-124.46
40
0.127
50
-45
51
135
0
LINE
8
BLACK
10
201.93
20
-153.797
11
213.995
21
-153.797
0
LINE
8
BLACK
10
201.93
20
-153.543
11
213.995
21
-153.543
0
ARC
8
BLACK
10
213.995
20
-153.67
40
0.127
50
270
51
450
0
ARC
8
BLACK
10
201.93
20
-153.67
40
0.127
50
90
51
270
0
LINE
8
BLACK
10
215.99
20
-153.125
11
216.625
21
-152.49
0
LINE
8
BLACK
10
215.81
20
-152.945
11
216.445
21
-152.31
0
ARC
8
BLACK
10
216.535
20
-152.4
40
0.127
50
315
51
495
0
ARC
8
BLACK
10
215.9
20
-153.035
40
0.127
50
135
51
315
0
LINE
8
BLACK
10
221.633
20
-152.525
11
222.377
21
-152.417
0
LINE
8
BLACK
10
221.597
20
-152.274
11
222.341
21
-152.166
0
ARC
8
BLACK
10
222.359
20
-152.291
40
0.127
50
278.3
51
458.3
0
ARC
8
BLACK
10
221.615
20
-152.4
40
0.127
50
98.3
51
278.3
0
LINE
8
BLACK
10
216.535
20
-152.527
11
221.615
21
-152.527
0
LINE
8
BLACK
10
216.535
20
-152.273
11
221.615
21
-152.273
0
ARC
8
BLACK
10
221.615
20
-152.4
40
0.127
50
270
51
450
0
ARC
8
BLACK
10
216.535
20
-152.4
40
0.127
50
90
51
270
0
LINE
8
BLACK
10
222.281
20
-152.189
11
219.634
21
-154.205
0
LINE
8
BLACK
10
222.435
20
-152.391
11
219.788
21
-154.407
0
ARC
8
BLACK
10
219.711
20
-154.306
40
0.127
50
127.3
51
307.3
0
ARC
8
BLACK
10
222.358
20
-152.29
40
0.127
50
-52.7
51
127.3
0
LINE
8
BLACK
10
214.72
20
-154.215
11
214.085
21
-153.58
0
LINE
8
BLACK
10
214.54
20
-154.395
11
213.905
21
-153.76
0
ARC
8
BLACK
10
213.995
20
-153.67
40
0.127
50
405
51
585
0
ARC
8
BLACK
10
214.63
20
-154.305
40
0.127
50
225
51
405
0
LINE
8
BLACK
10
214.63
20
-154.432
11
219.71
21
-154.432
0
LINE
8
BLACK
10
214.63
20
-154.178
11
219.71
21
-154.178
0
ARC
8
BLACK
10
219.71
20
-154.305
40
0.127
50
270
51
450
0
ARC
8
BLACK
10
214.63
20
-154.305
40
0.127
50
90
51
270
0
LINE
8
BLACK
10
200.716
20
-155.688
11
201.987
21
-155.054
0
LINE
8
BLACK
10
200.603
20
-155.461
11
201.874
21
-154.827
0
ARC
8
BLACK
10
201.93
20
-154.941
40
0.127
50
296.5
51
476.5
0
ARC
8
BLACK
10
200.66
20
-155.574
40
0.127
50
116.5
51
296.5
0
LINE
8
BLACK
10
191.77
20
-153.797
11
201.93
21
-153.797
0
LINE
8
BLACK
10
191.77
20
-153.543
11
201.93
21
-153.543
0
ARC
8
BLACK
10
201.93
20
-153.67
40
0.127
50
270
51
450
0
ARC
8
BLACK
10
191.77
20
-153.67
40
0.127
50
90
51
270
0
ARC
8
BLACK
10
201.93
20
-153.67
40
0.127
50
180
51
360
0
ARC
8
BLACK
10
201.93
20
-153.67
40
0.127
50
0
51
180
0
LINE
8
BLACK
10
202.057
20
-154.94
11
202.057
21
-153.67
0
LINE
8
BLACK
10
201.803
20
-154.94
11
201.803
21
-153.67
0
ARC
8
BLACK
10
201.93
20
-153.67
40
0.127
50
360
51
540
0
ARC
8
BLACK
10
201.93
20
-154.94
40
0.127
50
180
51
360
0
LINE
8
BLACK
10
224.098
20
-153.784
11
225.369
21
-154.418
0
LINE
8
BLACK
10
224.211
20
-153.557
11
225.482
21
-154.191
0
ARC
8
BLACK
10
225.425
20
-154.304
40
0.127
50
243.5
51
423.5
0
ARC
8
BLACK
10
224.155
20
-153.671
40
0.127
50
63.5
51
243.5
0
LINE
8
BLACK
10
224.078
20
-153.568
11
221.539
21
-155.474
0
LINE
8
BLACK
10
224.231
20
-153.771
11
221.692
21
-155.677
0
ARC
8
BLACK
10
221.616
20
-155.576
40
0.127
50
126.9
51
306.9
0
ARC
8
BLACK
10
224.154
20
-153.669
40
0.127
50
-53.1
51
126.9
0
LINE
8
BLACK
10
212.815
20
-155.485
11
212.18
21
-154.85
0
LINE
8
BLACK
10
212.635
20
-155.665
11
212
21
-155.03
0
ARC
8
BLACK
10
212.09
20
-154.94
40
0.127
50
405
51
585
0
ARC
8
BLACK
10
212.725
20
-155.575
40
0.127
50
225
51
405
0
LINE
8
BLACK
10
212.725
20
-155.702
11
221.615
21
-155.702
0
LINE
8
BLACK
10
212.725
20
-155.448
11
221.615
21
-155.448
0
ARC
8
BLACK
10
221.615
20
-155.575
40
0.127
50
270
51
450
0
ARC
8
BLACK
10
212.725
20
-155.575
40
0.127
50
90
51
270
0
LINE
8
BLACK
10
219.71
20
-159.512
11
220.345
21
-159.512
0
LINE
8
BLACK
10
219.71
20
-159.258
11
220.345
21
-159.258
0
ARC
8
BLACK
10
220.345
20
-159.385
40
0.127
50
270
51
450
0
ARC
8
BLACK
10
219.71
20
-159.385
40
0.127
50
90
51
270
0
LINE
8
BLACK
10
224.282
20
-155.575
11
224.282
21
-153.67
0
LINE
8
BLACK
10
224.028
20
-155.575
11
224.028
21
-153.67
0
ARC
8
BLACK
10
224.155
20
-153.67
40
0.127
50
360
51
540
0
ARC
8
BLACK
10
224.155
20
-155.575
40
0.127
50
180
51
360
0
LINE
8
BLACK
10
224.282
20
-153.67
11
224.282
21
-153.009
0
LINE
8
BLACK
10
224.028
20
-153.67
11
224.028
21
-153.009
0
ARC
8
BLACK
10
224.155
20
-153.009
40
0.127
50
360
51
540
0
ARC
8
BLACK
10
224.155
20
-153.67
40
0.127
50
180
51
360
0
LINE
8
BLACK
10
223.61
20
-156.3
11
224.245
21
-155.665
0
LINE
8
BLACK
10
223.43
20
-156.12
11
224.065
21
-155.485
0
ARC
8
BLACK
10
224.155
20
-155.575
40
0.127
50
315
51
495
0
ARC
8
BLACK
10
223.52
20
-156.21
40
0.127
50
135
51
315
0
LINE
8
BLACK
10
220.435
20
-159.475
11
223.61
21
-156.3
0
LINE
8
BLACK
10
220.255
20
-159.295
11
223.43
21
-156.12
0
ARC
8
BLACK
10
223.52
20
-156.21
40
0.127
50
315
51
495
0
ARC
8
BLACK
10
220.345
20
-159.385
40
0.127
50
135
51
315
0
LINE
8
BLACK
10
207.772
20
-156.21
11
207.772
21
-155.575
0
LINE
8
BLACK
10
207.518
20
-156.21
11
207.518
21
-155.575
0
ARC
8
BLACK
10
207.645
20
-155.575
40
0.127
50
360
51
540
0
ARC
8
BLACK
10
207.645
20
-156.21
40
0.127
50
180
51
360
0
LINE
8
BLACK
10
207.645
20
-159.512
11
219.71
21
-159.512
0
LINE
8
BLACK
10
207.645
20
-159.258
11
219.71
21
-159.258
0
ARC
8
BLACK
10
219.71
20
-159.385
40
0.127
50
270
51
450
0
ARC
8
BLACK
10
207.645
20
-159.385
40
0.127
50
90
51
270
0
LINE
8
BLACK
10
207.772
20
-159.385
11
207.772
21
-156.21
0
LINE
8
BLACK
10
207.518
20
-159.385
11
207.518
21
-156.21
0
ARC
8
BLACK
10
207.645
20
-156.21
40
0.127
50
360
51
540
0
ARC
8
BLACK
10
207.645
20
-159.385
40
0.127
50
180
51
360
0
LINE
8
BLACK
10
207.735
20
-155.485
11
207.1
21
-154.85
0
LINE
8
BLACK
10
207.555
20
-155.665
11
206.92
21
-155.03
0
ARC
8
BLACK
10
207.01
20
-154.94
40
0.127
50
405
51
585
0
ARC
8
BLACK
10
207.645
20
-155.575
40
0.127
50
225
51
405
0
LINE
8
BLACK
10
205.867
20
-158.115
11
205.867
21
-156.21
0
LINE
8
BLACK
10
205.613
20
-158.115
11
205.613
21
-156.21
0
ARC
8
BLACK
10
205.74
20
-156.21
40
0.127
50
360
51
540
0
ARC
8
BLACK
10
205.74
20
-158.115
40
0.127
50
180
51
360
0
LINE
8
BLACK
10
205.83
20
-156.3
11
207.1
21
-155.03
0
LINE
8
BLACK
10
205.65
20
-156.12
11
206.92
21
-154.85
0
ARC
8
BLACK
10
207.01
20
-154.94
40
0.127
50
315
51
495
0
ARC
8
BLACK
10
205.74
20
-156.21
40
0.127
50
135
51
315
0
LINE
8
BLACK
10
228.51
20
-135.165
11
224.7
21
-138.975
0
LINE
8
BLACK
10
228.69
20
-135.345
11
224.88
21
-139.155
0
ARC
8
BLACK
10
224.79
20
-139.065
40
0.127
50
135
51
315
0
ARC
8
BLACK
10
228.6
20
-135.255
40
0.127
50
-45
51
135
0
LINE
8
BLACK
10
215.9
20
-139.192
11
224.79
21
-139.192
0
LINE
8
BLACK
10
215.9
20
-138.938
11
224.79
21
-138.938
0
ARC
8
BLACK
10
224.79
20
-139.065
40
0.127
50
270
51
450
0
ARC
8
BLACK
10
215.9
20
-139.065
40
0.127
50
90
51
270
0
LINE
8
BLACK
10
210.82
20
-139.065
11
215.773
21
-139.065
0
LINE
8
BLACK
10
210.82
20
-138.811
11
215.773
21
-138.811
0
ARC
8
BLACK
10
215.773
20
-138.938
40
0.127
50
270
51
450
0
ARC
8
BLACK
10
210.82
20
-138.938
40
0.127
50
90
51
270
0
LINE
8
BLACK
10
215.683
20
-139.028
11
215.81
21
-139.155
0
LINE
8
BLACK
10
215.863
20
-138.848
11
215.99
21
-138.975
0
ARC
8
BLACK
10
215.9
20
-139.065
40
0.127
50
225
51
405
0
ARC
8
BLACK
10
215.773
20
-138.938
40
0.127
50
45
51
225
0
LINE
8
BLACK
10
191.86
20
-156.755
11
191.225
21
-156.12
0
LINE
8
BLACK
10
191.68
20
-156.935
11
191.045
21
-156.3
0
ARC
8
BLACK
10
191.135
20
-156.21
40
0.127
50
405
51
585
0
ARC
8
BLACK
10
191.77
20
-156.845
40
0.127
50
225
51
405
0
LINE
8
BLACK
10
187.96
20
-156.337
11
191.135
21
-156.337
0
LINE
8
BLACK
10
187.96
20
-156.083
11
191.135
21
-156.083
0
ARC
8
BLACK
10
191.135
20
-156.21
40
0.127
50
270
51
450
0
ARC
8
BLACK
10
187.96
20
-156.21
40
0.127
50
90
51
270
0
LINE
8
BLACK
10
211.037
20
-138.975
11
210.91
21
-138.848
0
LINE
8
BLACK
10
210.857
20
-139.155
11
210.73
21
-139.028
0
ARC
8
BLACK
10
210.82
20
-138.938
40
0.127
50
405
51
585
0
ARC
8
BLACK
10
210.947
20
-139.065
40
0.127
50
225
51
405
0
ARC
8
BLACK
10
230.505
20
-149.225
40
0.127
50
180
51
360
0
ARC
8
BLACK
10
230.505
20
-149.225
40
0.127
50
0
51
180
0
LINE
8
BLACK
10
225.425
20
-154.432
11
232.41
21
-154.432
0
LINE
8
BLACK
10
225.425
20
-154.178
11
232.41
21
-154.178
0
ARC
8
BLACK
10
232.41
20
-154.305
40
0.127
50
270
51
450
0
ARC
8
BLACK
10
225.425
20
-154.305
40
0.127
50
90
51
270
0
LINE
8
BLACK
10
232.537
20
-154.305
11
232.537
21
-150.495
0
LINE
8
BLACK
10
232.283
20
-154.305
11
232.283
21
-150.495
0
ARC
8
BLACK
10
232.41
20
-150.495
40
0.127
50
360
51
540
0
ARC
8
BLACK
10
232.41
20
-154.305
40
0.127
50
180
51
360
0
LINE
8
BLACK
10
232.48
20
-150.39
11
230.576
21
-149.119
0
LINE
8
BLACK
10
232.339
20
-150.601
11
230.435
21
-149.33
0
ARC
8
BLACK
10
230.505
20
-149.225
40
0.127
50
416.3
51
596.3
0
ARC
8
BLACK
10
232.41
20
-150.495
40
0.127
50
236.3
51
416.3
0
ARC
8
BLACK
10
232.41
20
-154.305
40
0.127
50
180
51
360
0
ARC
8
BLACK
10
232.41
20
-154.305
40
0.127
50
0
51
180
0
ARC
8
BLACK
10
225.425
20
-154.305
40
0.127
50
180
51
360
0
ARC
8
BLACK
10
225.425
20
-154.305
40
0.127
50
0
51
180
0
LINE
8
BLACK
10
186.817
20
-154.94
11
186.817
21
-153.67
0
LINE
8
BLACK
10
186.563
20
-154.94
11
186.563
21
-153.67
0
ARC
8
BLACK
10
186.69
20
-153.67
40
0.127
50
360
51
540
0
ARC
8
BLACK
10
186.69
20
-154.94
40
0.127
50
180
51
360
0
LINE
8
BLACK
10
186.6
20
-155.03
11
187.87
21
-156.3
0
LINE
8
BLACK
10
186.78
20
-154.85
11
188.05
21
-156.12
0
ARC
8
BLACK
10
187.96
20
-156.21
40
0.127
50
225
51
405
0
ARC
8
BLACK
10
186.69
20
-154.94
40
0.127
50
45
51
225
0
LINE
8
BLACK
10
191.68
20
-156.935
11
192.95
21
-158.205
0
LINE
8
BLACK
10
191.86
20
-156.755
11
193.13
21
-158.025
0
ARC
8
BLACK
10
193.04
20
-158.115
40
0.127
50
225
51
405
0
ARC
8
BLACK
10
191.77
20
-156.845
40
0.127
50
45
51
225
0
LINE
8
BLACK
10
193.04
20
-158.242
11
195.58
21
-158.242
0
LINE
8
BLACK
10
193.04
20
-157.988
11
195.58
21
-157.988
0
ARC
8
BLACK
10
195.58
20
-158.115
40
0.127
50
270
51
450
0
ARC
8
BLACK
10
193.04
20
-158.115
40
0.127
50
90
51
270
0
LINE
8
BLACK
10
227.965
20
-135.382
11
228.6
21
-135.382
0
LINE
8
BLACK
10
227.965
20
-135.128
11
228.6
21
-135.128
0
ARC
8
BLACK
10
228.6
20
-135.255
40
0.127
50
270
51
450
0
ARC
8
BLACK
10
227.965
20
-135.255
40
0.127
50
90
51
270
0
ARC
8
BLACK
10
230.505
20
-149.225
40
0.127
50
180
51
360
0
ARC
8
BLACK
10
230.505
20
-149.225
40
0.127
50
0
51
180
0
LINE
8
BLACK
10
228.6
20
-135.382
11
230.505
21
-135.382
0
LINE
8
BLACK
10
228.6
20
-135.128
11
230.505
21
-135.128
0
ARC
8
BLACK
10
230.505
20
-135.255
40
0.127
50
270
51
450
0
ARC
8
BLACK
10
228.6
20
-135.255
40
0.127
50
90
51
270
0
LINE
8
BLACK
10
230.632
20
-149.225
11
230.632
21
-135.255
0
LINE
8
BLACK
10
230.378
20
-149.225
11
230.378
21
-135.255
0
ARC
8
BLACK
10
230.505
20
-135.255
40
0.127
50
360
51
540
0
ARC
8
BLACK
10
230.505
20
-149.225
40
0.127
50
180
51
360
0
LINE
8
BLACK
10
226.187
20
-132.715
11
226.187
21
-128.905
0
LINE
8
BLACK
10
225.933
20
-132.715
11
225.933
21
-128.905
0
ARC
8
BLACK
10
226.06
20
-128.905
40
0.127
50
360
51
540
0
ARC
8
BLACK
10
226.06
20
-132.715
40
0.127
50
180
51
360
0
LINE
8
BLACK
10
203.29
20
-126.275
11
202.02
21
-125.005
0
LINE
8
BLACK
10
203.11
20
-126.455
11
201.84
21
-125.185
0
ARC
8
BLACK
10
201.93
20
-125.095
40
0.127
50
405
51
585
0
ARC
8
BLACK
10
203.2
20
-126.365
40
0.127
50
225
51
405
0
LINE
8
BLACK
10
203.2
20
-126.492
11
212.725
21
-126.492
0
LINE
8
BLACK
10
203.2
20
-126.238
11
212.725
21
-126.238
0
ARC
8
BLACK
10
212.725
20
-126.365
40
0.127
50
270
51
450
0
ARC
8
BLACK
10
203.2
20
-126.365
40
0.127
50
90
51
270
0
LINE
8
BLACK
10
215.99
20
-129.45
11
212.815
21
-126.275
0
LINE
8
BLACK
10
215.81
20
-129.63
11
212.635
21
-126.455
0
ARC
8
BLACK
10
212.725
20
-126.365
40
0.127
50
405
51
585
0
ARC
8
BLACK
10
215.9
20
-129.54
40
0.127
50
225
51
405
0
LINE
8
BLACK
10
215.9
20
-129.667
11
217.805
21
-129.667
0
LINE
8
BLACK
10
215.9
20
-129.413
11
217.805
21
-129.413
0
ARC
8
BLACK
10
217.805
20
-129.54
40
0.127
50
270
51
450
0
ARC
8
BLACK
10
215.9
20
-129.54
40
0.127
50
90
51
270
0
LINE
8
BLACK
10
219.165
20
-130.72
11
217.895
21
-129.45
0
LINE
8
BLACK
10
218.985
20
-130.9
11
217.715
21
-129.63
0
ARC
8
BLACK
10
217.805
20
-129.54
40
0.127
50
405
51
585
0
ARC
8
BLACK
10
219.075
20
-130.81
40
0.127
50
225
51
405
0
LINE
8
BLACK
10
226.06
20
-129.032
11
228.6
21
-129.032
0
LINE
8
BLACK
10
226.06
20
-128.778
11
228.6
21
-128.778
0
ARC
8
BLACK
10
228.6
20
-128.905
40
0.127
50
270
51
450
0
ARC
8
BLACK
10
226.06
20
-128.905
40
0.127
50
90
51
270
0
LINE
8
BLACK
10
228.727
20
-132.715
11
228.727
21
-128.905
0
LINE
8
BLACK
10
228.473
20
-132.715
11
228.473
21
-128.905
0
ARC
8
BLACK
10
228.6
20
-128.905
40
0.127
50
360
51
540
0
ARC
8
BLACK
10
228.6
20
-132.715
40
0.127
50
180
51
360
0
LINE
8
BLACK
10
226.669
20
-150.622
11
227.965
21
-150.622
0
LINE
8
BLACK
10
226.669
20
-150.368
11
227.965
21
-150.368
0
ARC
8
BLACK
10
227.965
20
-150.495
40
0.127
50
270
51
450
0
ARC
8
BLACK
10
226.669
20
-150.495
40
0.127
50
90
51
270
0
LINE
8
BLACK
10
227.965
20
-150.622
11
228.6
21
-150.622
0
LINE
8
BLACK
10
227.965
20
-150.368
11
228.6
21
-150.368
0
ARC
8
BLACK
10
228.6
20
-150.495
40
0.127
50
270
51
450
0
ARC
8
BLACK
10
227.965
20
-150.495
40
0.127
50
90
51
270
0
LINE
8
BLACK
10
228.727
20
-149.987
11
228.727
21
-142.875
0
LINE
8
BLACK
10
228.473
20
-149.987
11
228.473
21
-142.875
0
ARC
8
BLACK
10
228.6
20
-142.875
40
0.127
50
360
51
540
0
ARC
8
BLACK
10
228.6
20
-149.987
40
0.127
50
180
51
360
0
LINE
8
BLACK
10
228.727
20
-150.495
11
228.727
21
-149.987
0
LINE
8
BLACK
10
228.473
20
-150.495
11
228.473
21
-149.987
0
ARC
8
BLACK
10
228.6
20
-149.987
40
0.127
50
360
51
540
0
ARC
8
BLACK
10
228.6
20
-150.495
40
0.127
50
180
51
360
0
LINE
8
BLACK
10
227.965
20
-150.622
11
228.092
21
-150.622
0
LINE
8
BLACK
10
227.965
20
-150.368
11
228.092
21
-150.368
0
ARC
8
BLACK
10
228.092
20
-150.495
40
0.127
50
270
51
450
0
ARC
8
BLACK
10
227.965
20
-150.495
40
0.127
50
90
51
270
0
LINE
8
BLACK
10
221.107
20
-128.905
11
221.107
21
-127.635
0
LINE
8
BLACK
10
220.853
20
-128.905
11
220.853
21
-127.635
0
ARC
8
BLACK
10
220.98
20
-127.635
40
0.127
50
360
51
540
0
ARC
8
BLACK
10
220.98
20
-128.905
40
0.127
50
180
51
360
0
LINE
8
BLACK
10
218.44
20
-127.762
11
220.472
21
-127.762
0
LINE
8
BLACK
10
218.44
20
-127.508
11
220.472
21
-127.508
0
ARC
8
BLACK
10
220.472
20
-127.635
40
0.127
50
270
51
450
0
ARC
8
BLACK
10
218.44
20
-127.635
40
0.127
50
90
51
270
0
LINE
8
BLACK
10
220.472
20
-127.762
11
220.98
21
-127.762
0
LINE
8
BLACK
10
220.472
20
-127.508
11
220.98
21
-127.508
0
ARC
8
BLACK
10
220.98
20
-127.635
40
0.127
50
270
51
450
0
ARC
8
BLACK
10
220.472
20
-127.635
40
0.127
50
90
51
270
0
LINE
8
BLACK
10
221.107
20
-135.255
11
221.107
21
-128.905
0
LINE
8
BLACK
10
220.853
20
-135.255
11
220.853
21
-128.905
0
ARC
8
BLACK
10
220.98
20
-128.905
40
0.127
50
360
51
540
0
ARC
8
BLACK
10
220.98
20
-135.255
40
0.127
50
180
51
360
0
LINE
8
BLACK
10
220.98
20
-135.382
11
226.06
21
-135.382
0
LINE
8
BLACK
10
220.98
20
-135.128
11
226.06
21
-135.128
0
ARC
8
BLACK
10
226.06
20
-135.255
40
0.127
50
270
51
450
0
ARC
8
BLACK
10
220.98
20
-135.255
40
0.127
50
90
51
270
0
LINE
8
BLACK
10
203.327
20
-138.938
11
203.327
21
-137.16
0
LINE
8
BLACK
10
203.073
20
-138.938
11
203.073
21
-137.16
0
ARC
8
BLACK
10
203.2
20
-137.16
40
0.127
50
360
51
540
0
ARC
8
BLACK
10
203.2
20
-138.938
40
0.127
50
180
51
360
0
LINE
8
BLACK
10
210.91
20
-137.25
11
212.18
21
-135.98
0
LINE
8
BLACK
10
210.73
20
-137.07
11
212
21
-135.8
0
ARC
8
BLACK
10
212.09
20
-135.89
40
0.127
50
315
51
495
0
ARC
8
BLACK
10
210.82
20
-137.16
40
0.127
50
135
51
315
0
LINE
8
BLACK
10
210.185
20
-137.287
11
210.82
21
-137.287
0
LINE
8
BLACK
10
210.185
20
-137.033
11
210.82
21
-137.033
0
ARC
8
BLACK
10
210.82
20
-137.16
40
0.127
50
270
51
450
0
ARC
8
BLACK
10
210.185
20
-137.16
40
0.127
50
90
51
270
0
LINE
8
BLACK
10
203.2
20
-137.287
11
210.185
21
-137.287
0
LINE
8
BLACK
10
203.2
20
-137.033
11
210.185
21
-137.033
0
ARC
8
BLACK
10
210.185
20
-137.16
40
0.127
50
270
51
450
0
ARC
8
BLACK
10
203.2
20
-137.16
40
0.127
50
90
51
270
0
LINE
8
BLACK
10
198.247
20
-135.89
11
198.247
21
-134.747
0
LINE
8
BLACK
10
197.993
20
-135.89
11
197.993
21
-134.747
0
ARC
8
BLACK
10
198.12
20
-134.747
40
0.127
50
360
51
540
0
ARC
8
BLACK
10
198.12
20
-135.89
40
0.127
50
180
51
360
0
ARC
8
BLACK
10
198.12
20
-135.89
40
0.127
50
180
51
360
0
ARC
8
BLACK
10
198.12
20
-135.89
40
0.127
50
0
51
180
0
LINE
8
BLACK
10
198.247
20
-134.747
11
198.247
21
-127.635
0
LINE
8
BLACK
10
197.993
20
-134.747
11
197.993
21
-127.635
0
ARC
8
BLACK
10
198.12
20
-127.635
40
0.127
50
360
51
540
0
ARC
8
BLACK
10
198.12
20
-134.747
40
0.127
50
180
51
360
0
LINE
8
BLACK
10
198.12
20
-136.017
11
205.74
21
-136.017
0
LINE
8
BLACK
10
198.12
20
-135.763
11
205.74
21
-135.763
0
ARC
8
BLACK
10
205.74
20
-135.89
40
0.127
50
270
51
450
0
ARC
8
BLACK
10
198.12
20
-135.89
40
0.127
50
90
51
270
0
LINE
8
BLACK
10
195.58
20
-127.762
11
198.12
21
-127.762
0
LINE
8
BLACK
10
195.58
20
-127.508
11
198.12
21
-127.508
0
ARC
8
BLACK
10
198.12
20
-127.635
40
0.127
50
270
51
450
0
ARC
8
BLACK
10
195.58
20
-127.635
40
0.127
50
90
51
270
0
LINE
8
BLACK
10
226.076
20
-148.717
11
226.186
21
-147.974
0
LINE
8
BLACK
10
225.825
20
-148.68
11
225.935
21
-147.937
0
ARC
8
BLACK
10
226.06
20
-147.955
40
0.127
50
351.6
51
531.6
0
ARC
8
BLACK
10
225.951
20
-148.699
40
0.127
50
171.6
51
351.6
0
LINE
8
BLACK
10
226.187
20
-147.955
11
226.187
21
-142.875
0
LINE
8
BLACK
10
225.933
20
-147.955
11
225.933
21
-142.875
0
ARC
8
BLACK
10
226.06
20
-142.875
40
0.127
50
360
51
540
0
ARC
8
BLACK
10
226.06
20
-147.955
40
0.127
50
180
51
360
0
LINE
8
BLACK
10
228.6
20
-124.587
11
230.505
21
-124.587
0
LINE
8
BLACK
10
228.6
20
-124.333
11
230.505
21
-124.333
0
ARC
8
BLACK
10
230.505
20
-124.46
40
0.127
50
270
51
450
0
ARC
8
BLACK
10
228.6
20
-124.46
40
0.127
50
90
51
270
0
LINE
8
BLACK
10
230.415
20
-124.55
11
231.05
21
-125.185
0
LINE
8
BLACK
10
230.595
20
-124.37
11
231.23
21
-125.005
0
ARC
8
BLACK
10
231.14
20
-125.095
40
0.127
50
225
51
405
0
ARC
8
BLACK
10
230.505
20
-124.46
40
0.127
50
45
51
225
0
LINE
8
BLACK
10
227.33
20
-139.192
11
228.6
21
-139.192
0
LINE
8
BLACK
10
227.33
20
-138.938
11
228.6
21
-138.938
0
ARC
8
BLACK
10
228.6
20
-139.065
40
0.127
50
270
51
450
0
ARC
8
BLACK
10
227.33
20
-139.065
40
0.127
50
90
51
270
0
LINE
8
BLACK
10
216.535
20
-140.462
11
226.06
21
-140.462
0
LINE
8
BLACK
10
216.535
20
-140.208
11
226.06
21
-140.208
0
ARC
8
BLACK
10
226.06
20
-140.335
40
0.127
50
270
51
450
0
ARC
8
BLACK
10
216.535
20
-140.335
40
0.127
50
90
51
270
0
LINE
8
BLACK
10
227.24
20
-138.975
11
225.97
21
-140.245
0
LINE
8
BLACK
10
227.42
20
-139.155
11
226.15
21
-140.425
0
ARC
8
BLACK
10
226.06
20
-140.335
40
0.127
50
135
51
315
0
ARC
8
BLACK
10
227.33
20
-139.065
40
0.127
50
-45
51
135
0
LINE
8
BLACK
10
228.6
20
-139.192
11
229.87
21
-139.192
0
LINE
8
BLACK
10
228.6
20
-138.938
11
229.87
21
-138.938
0
ARC
8
BLACK
10
229.87
20
-139.065
40
0.127
50
270
51
450
0
ARC
8
BLACK
10
228.6
20
-139.065
40
0.127
50
90
51
270
0
LINE
8
BLACK
10
229.997
20
-152.182
11
229.997
21
-139.065
0
LINE
8
BLACK
10
229.743
20
-152.182
11
229.743
21
-139.065
0
ARC
8
BLACK
10
229.87
20
-139.065
40
0.127
50
360
51
540
0
ARC
8
BLACK
10
229.87
20
-152.182
40
0.127
50
180
51
360
0
LINE
8
BLACK
10
208.534
20
-142.621
11
208.915
21
-142.621
0
LINE
8
BLACK
10
208.534
20
-142.367
11
208.915
21
-142.367
0
ARC
8
BLACK
10
208.915
20
-142.494
40
0.127
50
270
51
450
0
ARC
8
BLACK
10
208.534
20
-142.494
40
0.127
50
90
51
270
0
LINE
8
BLACK
10
208.407
20
-140.335
11
208.407
21
-138.938
0
LINE
8
BLACK
10
208.153
20
-140.335
11
208.153
21
-138.938
0
ARC
8
BLACK
10
208.28
20
-138.938
40
0.127
50
360
51
540
0
ARC
8
BLACK
10
208.28
20
-140.335
40
0.127
50
180
51
360
0
LINE
8
BLACK
10
208.407
20
-142.24
11
208.407
21
-140.335
0
LINE
8
BLACK
10
208.153
20
-142.24
11
208.153
21
-140.335
0
ARC
8
BLACK
10
208.28
20
-140.335
40
0.127
50
360
51
540
0
ARC
8
BLACK
10
208.28
20
-142.24
40
0.127
50
180
51
360
0
LINE
8
BLACK
10
208.624
20
-142.404
11
208.37
21
-142.15
0
LINE
8
BLACK
10
208.444
20
-142.584
11
208.19
21
-142.33
0
ARC
8
BLACK
10
208.28
20
-142.24
40
0.127
50
405
51
585
0
ARC
8
BLACK
10
208.534
20
-142.494
40
0.127
50
225
51
405
0
LINE
8
BLACK
10
208.915
20
-142.621
11
210.185
21
-142.621
0
LINE
8
BLACK
10
208.915
20
-142.367
11
210.185
21
-142.367
0
ARC
8
BLACK
10
210.185
20
-142.494
40
0.127
50
270
51
450
0
ARC
8
BLACK
10
208.915
20
-142.494
40
0.127
50
90
51
270
0
LINE
8
BLACK
10
210.185
20
-142.621
11
213.36
21
-142.621
0
LINE
8
BLACK
10
210.185
20
-142.367
11
213.36
21
-142.367
0
ARC
8
BLACK
10
213.36
20
-142.494
40
0.127
50
270
51
450
0
ARC
8
BLACK
10
210.185
20
-142.494
40
0.127
50
90
51
270
0
LINE
8
BLACK
10
216.445
20
-140.245
11
214.54
21
-142.15
0
LINE
8
BLACK
10
216.625
20
-140.425
11
214.72
21
-142.33
0
ARC
8
BLACK
10
214.63
20
-142.24
40
0.127
50
135
51
315
0
ARC
8
BLACK
10
216.535
20
-140.335
40
0.127
50
-45
51
135
0
LINE
8
BLACK
10
213.614
20
-142.367
11
214.63
21
-142.367
0
LINE
8
BLACK
10
213.614
20
-142.113
11
214.63
21
-142.113
0
ARC
8
BLACK
10
214.63
20
-142.24
40
0.127
50
270
51
450
0
ARC
8
BLACK
10
213.614
20
-142.24
40
0.127
50
90
51
270
0
LINE
8
BLACK
10
213.524
20
-142.15
11
213.27
21
-142.404
0
LINE
8
BLACK
10
213.704
20
-142.33
11
213.45
21
-142.584
0
ARC
8
BLACK
10
213.36
20
-142.494
40
0.127
50
135
51
315
0
ARC
8
BLACK
10
213.614
20
-142.24
40
0.127
50
-45
51
135
0
LINE
8
BLACK
10
225.951
20
-152.418
11
226.06
21
-152.418
0
LINE
8
BLACK
10
225.951
20
-152.164
11
226.06
21
-152.164
0
ARC
8
BLACK
10
226.06
20
-152.291
40
0.127
50
270
51
450
0
ARC
8
BLACK
10
225.951
20
-152.291
40
0.127
50
90
51
270
0
LINE
8
BLACK
10
226.06
20
-152.418
11
229.761
21
-152.418
0
LINE
8
BLACK
10
226.06
20
-152.164
11
229.761
21
-152.164
0
ARC
8
BLACK
10
229.761
20
-152.291
40
0.127
50
270
51
450
0
ARC
8
BLACK
10
226.06
20
-152.291
40
0.127
50
90
51
270
0
LINE
8
BLACK
10
229.851
20
-152.381
11
229.96
21
-152.272
0
LINE
8
BLACK
10
229.671
20
-152.201
11
229.78
21
-152.092
0
ARC
8
BLACK
10
229.87
20
-152.182
40
0.127
50
315
51
495
0
ARC
8
BLACK
10
229.761
20
-152.291
40
0.127
50
135
51
315
0
LINE
8
BLACK
10
215.9
20
-148.082
11
221.615
21
-148.082
0
LINE
8
BLACK
10
215.9
20
-147.828
11
221.615
21
-147.828
0
ARC
8
BLACK
10
221.615
20
-147.955
40
0.127
50
270
51
450
0
ARC
8
BLACK
10
215.9
20
-147.955
40
0.127
50
90
51
270
0
LINE
8
BLACK
10
221.525
20
-148.045
11
222.269
21
-148.789
0
LINE
8
BLACK
10
221.705
20
-147.865
11
222.449
21
-148.609
0
ARC
8
BLACK
10
222.359
20
-148.699
40
0.127
50
225
51
405
0
ARC
8
BLACK
10
221.615
20
-147.955
40
0.127
50
45
51
225
0
LINE
8
BLACK
10
220.98
20
-149.352
11
221.615
21
-149.352
0
LINE
8
BLACK
10
220.98
20
-149.098
11
221.615
21
-149.098
0
ARC
8
BLACK
10
221.615
20
-149.225
40
0.127
50
270
51
450
0
ARC
8
BLACK
10
220.98
20
-149.225
40
0.127
50
90
51
270
0
LINE
8
BLACK
10
221.688
20
-149.328
11
222.432
21
-148.803
0
LINE
8
BLACK
10
221.541
20
-149.121
11
222.286
21
-148.596
0
ARC
8
BLACK
10
222.359
20
-148.699
40
0.127
50
305.2
51
485.2
0
ARC
8
BLACK
10
221.615
20
-149.225
40
0.127
50
125.2
51
305.2
0
LINE
8
BLACK
10
186.817
20
-149.86
11
186.817
21
-147.32
0
LINE
8
BLACK
10
186.563
20
-149.86
11
186.563
21
-147.32
0
ARC
8
BLACK
10
186.69
20
-147.32
40
0.127
50
360
51
540
0
ARC
8
BLACK
10
186.69
20
-149.86
40
0.127
50
180
51
360
0
LINE
8
BLACK
10
187.96
20
-145.542
11
190.5
21
-145.542
0
LINE
8
BLACK
10
187.96
20
-145.288
11
190.5
21
-145.288
0
ARC
8
BLACK
10
190.5
20
-145.415
40
0.127
50
270
51
450
0
ARC
8
BLACK
10
187.96
20
-145.415
40
0.127
50
90
51
270
0
LINE
8
BLACK
10
186.78
20
-146.775
11
188.05
21
-145.505
0
LINE
8
BLACK
10
186.6
20
-146.595
11
187.87
21
-145.325
0
ARC
8
BLACK
10
187.96
20
-145.415
40
0.127
50
315
51
495
0
ARC
8
BLACK
10
186.69
20
-146.685
40
0.127
50
135
51
315
0
LINE
8
BLACK
10
186.817
20
-147.32
11
186.817
21
-146.685
0
LINE
8
BLACK
10
186.563
20
-147.32
11
186.563
21
-146.685
0
ARC
8
BLACK
10
186.69
20
-146.685
40
0.127
50
360
51
540
0
ARC
8
BLACK
10
186.69
20
-147.32
40
0.127
50
180
51
360
0
LINE
8
BLACK
10
191.68
20
-144.055
11
190.41
21
-145.325
0
LINE
8
BLACK
10
191.86
20
-144.235
11
190.59
21
-145.505
0
ARC
8
BLACK
10
190.5
20
-145.415
40
0.127
50
135
51
315
0
ARC
8
BLACK
10
191.77
20
-144.145
40
0.127
50
-45
51
135
0
LINE
8
BLACK
10
191.77
20
-144.272
11
198.755
21
-144.272
0
LINE
8
BLACK
10
191.77
20
-144.018
11
198.755
21
-144.018
0
ARC
8
BLACK
10
198.755
20
-144.145
40
0.127
50
270
51
450
0
ARC
8
BLACK
10
191.77
20
-144.145
40
0.127
50
90
51
270
0
LINE
8
BLACK
10
198.755
20
-144.272
11
199.39
21
-144.272
0
LINE
8
BLACK
10
198.755
20
-144.018
11
199.39
21
-144.018
0
ARC
8
BLACK
10
199.39
20
-144.145
40
0.127
50
270
51
450
0
ARC
8
BLACK
10
198.755
20
-144.145
40
0.127
50
90
51
270
0
LINE
8
BLACK
10
199.517
20
-148.59
11
199.517
21
-144.145
0
LINE
8
BLACK
10
199.263
20
-148.59
11
199.263
21
-144.145
0
ARC
8
BLACK
10
199.39
20
-144.145
40
0.127
50
360
51
540
0
ARC
8
BLACK
10
199.39
20
-148.59
40
0.127
50
180
51
360
0
ARC
8
BLACK
10
191.77
20
-144.145
40
0.127
50
180
51
360
0
ARC
8
BLACK
10
191.77
20
-144.145
40
0.127
50
0
51
180
0
ARC
8
BLACK
10
190.5
20
-145.415
40
0.127
50
180
51
360
0
ARC
8
BLACK
10
190.5
20
-145.415
40
0.127
50
0
51
180
0
LINE
8
BLACK
10
211.455
20
-148.717
11
214.63
21
-148.717
0
LINE
8
BLACK
10
211.455
20
-148.463
11
214.63
21
-148.463
0
ARC
8
BLACK
10
214.63
20
-148.59
40
0.127
50
270
51
450
0
ARC
8
BLACK
10
211.455
20
-148.59
40
0.127
50
90
51
270
0
ARC
8
BLACK
10
199.39
20
-148.59
40
0.127
50
180
51
360
0
ARC
8
BLACK
10
199.39
20
-148.59
40
0.127
50
0
51
180
0
LINE
8
BLACK
10
199.39
20
-148.717
11
211.455
21
-148.717
0
LINE
8
BLACK
10
199.39
20
-148.463
11
211.455
21
-148.463
0
ARC
8
BLACK
10
211.455
20
-148.59
40
0.127
50
270
51
450
0
ARC
8
BLACK
10
199.39
20
-148.59
40
0.127
50
90
51
270
0
LINE
8
BLACK
10
215.355
20
-149.135
11
214.72
21
-148.5
0
LINE
8
BLACK
10
215.175
20
-149.315
11
214.54
21
-148.68
0
ARC
8
BLACK
10
214.63
20
-148.59
40
0.127
50
405
51
585
0
ARC
8
BLACK
10
215.265
20
-149.225
40
0.127
50
225
51
405
0
LINE
8
BLACK
10
215.265
20
-149.352
11
220.98
21
-149.352
0
LINE
8
BLACK
10
215.265
20
-149.098
11
220.98
21
-149.098
0
ARC
8
BLACK
10
220.98
20
-149.225
40
0.127
50
270
51
450
0
ARC
8
BLACK
10
215.265
20
-149.225
40
0.127
50
90
51
270
0
LINE
8
BLACK
10
213.995
20
-137.287
11
219.075
21
-137.287
0
LINE
8
BLACK
10
213.995
20
-137.033
11
219.075
21
-137.033
0
ARC
8
BLACK
10
219.075
20
-137.16
40
0.127
50
270
51
450
0
ARC
8
BLACK
10
213.995
20
-137.16
40
0.127
50
90
51
270
0
LINE
8
BLACK
10
214.122
20
-137.16
11
214.122
21
-132.715
0
LINE
8
BLACK
10
213.868
20
-137.16
11
213.868
21
-132.715
0
ARC
8
BLACK
10
213.995
20
-132.715
40
0.127
50
360
51
540
0
ARC
8
BLACK
10
213.995
20
-137.16
40
0.127
50
180
51
360
0
LINE
8
BLACK
10
210.82
20
-132.842
11
213.995
21
-132.842
0
LINE
8
BLACK
10
210.82
20
-132.588
11
213.995
21
-132.588
0
ARC
8
BLACK
10
213.995
20
-132.715
40
0.127
50
270
51
450
0
ARC
8
BLACK
10
210.82
20
-132.715
40
0.127
50
90
51
270
0
LINE
8
BLACK
10
210.947
20
-132.715
11
210.947
21
-131.318
0
LINE
8
BLACK
10
210.693
20
-132.715
11
210.693
21
-131.318
0
ARC
8
BLACK
10
210.82
20
-131.318
40
0.127
50
360
51
540
0
ARC
8
BLACK
10
210.82
20
-132.715
40
0.127
50
180
51
360
0
LINE
8
BLACK
10
220.98
20
-150.622
11
221.641
21
-150.622
0
LINE
8
BLACK
10
220.98
20
-150.368
11
221.641
21
-150.368
0
ARC
8
BLACK
10
221.641
20
-150.495
40
0.127
50
270
51
450
0
ARC
8
BLACK
10
220.98
20
-150.495
40
0.127
50
90
51
270
0
LINE
8
BLACK
10
215.355
20
-150.405
11
214.085
21
-149.135
0
LINE
8
BLACK
10
215.175
20
-150.585
11
213.905
21
-149.315
0
ARC
8
BLACK
10
213.995
20
-149.225
40
0.127
50
405
51
585
0
ARC
8
BLACK
10
215.265
20
-150.495
40
0.127
50
225
51
405
0
LINE
8
BLACK
10
195.58
20
-148.717
11
197.485
21
-148.717
0
LINE
8
BLACK
10
195.58
20
-148.463
11
197.485
21
-148.463
0
ARC
8
BLACK
10
197.485
20
-148.59
40
0.127
50
270
51
450
0
ARC
8
BLACK
10
195.58
20
-148.59
40
0.127
50
90
51
270
0
LINE
8
BLACK
10
198.845
20
-149.77
11
197.575
21
-148.5
0
LINE
8
BLACK
10
198.665
20
-149.95
11
197.395
21
-148.68
0
ARC
8
BLACK
10
197.485
20
-148.59
40
0.127
50
405
51
585
0
ARC
8
BLACK
10
198.755
20
-149.86
40
0.127
50
225
51
405
0
LINE
8
BLACK
10
198.755
20
-149.987
11
200.025
21
-149.987
0
LINE
8
BLACK
10
198.755
20
-149.733
11
200.025
21
-149.733
0
ARC
8
BLACK
10
200.025
20
-149.86
40
0.127
50
270
51
450
0
ARC
8
BLACK
10
198.755
20
-149.86
40
0.127
50
90
51
270
0
LINE
8
BLACK
10
200.57
20
-149.135
11
199.935
21
-149.77
0
LINE
8
BLACK
10
200.75
20
-149.315
11
200.115
21
-149.95
0
ARC
8
BLACK
10
200.025
20
-149.86
40
0.127
50
135
51
315
0
ARC
8
BLACK
10
200.66
20
-149.225
40
0.127
50
-45
51
135
0
LINE
8
BLACK
10
200.66
20
-149.352
11
213.995
21
-149.352
0
LINE
8
BLACK
10
200.66
20
-149.098
11
213.995
21
-149.098
0
ARC
8
BLACK
10
213.995
20
-149.225
40
0.127
50
270
51
450
0
ARC
8
BLACK
10
200.66
20
-149.225
40
0.127
50
90
51
270
0
LINE
8
BLACK
10
195.707
20
-148.59
11
195.707
21
-145.415
0
LINE
8
BLACK
10
195.453
20
-148.59
11
195.453
21
-145.415
0
ARC
8
BLACK
10
195.58
20
-145.415
40
0.127
50
360
51
540
0
ARC
8
BLACK
10
195.58
20
-148.59
40
0.127
50
180
51
360
0
LINE
8
BLACK
10
216.535
20
-150.622
11
220.98
21
-150.622
0
LINE
8
BLACK
10
216.535
20
-150.368
11
220.98
21
-150.368
0
ARC
8
BLACK
10
220.98
20
-150.495
40
0.127
50
270
51
450
0
ARC
8
BLACK
10
216.535
20
-150.495
40
0.127
50
90
51
270
0
LINE
8
BLACK
10
220.98
20
-150.622
11
221.006
21
-150.622
0
LINE
8
BLACK
10
220.98
20
-150.368
11
221.006
21
-150.368
0
ARC
8
BLACK
10
221.006
20
-150.495
40
0.127
50
270
51
450
0
ARC
8
BLACK
10
220.98
20
-150.495
40
0.127
50
90
51
270
0
LINE
8
BLACK
10
215.265
20
-150.622
11
216.535
21
-150.622
0
LINE
8
BLACK
10
215.265
20
-150.368
11
216.535
21
-150.368
0
ARC
8
BLACK
10
216.535
20
-150.495
40
0.127
50
270
51
450
0
ARC
8
BLACK
10
215.265
20
-150.495
40
0.127
50
90
51
270
0
ARC
8
BLACK
10
215.265
20
-150.495
40
0.127
50
180
51
360
0
ARC
8
BLACK
10
215.265
20
-150.495
40
0.127
50
0
51
180
0
LINE
8
BLACK
10
228.6
20
-122.047
11
230.505
21
-122.047
0
LINE
8
BLACK
10
228.6
20
-121.793
11
230.505
21
-121.793
0
ARC
8
BLACK
10
230.505
20
-121.92
40
0.127
50
270
51
450
0
ARC
8
BLACK
10
228.6
20
-121.92
40
0.127
50
90
51
270
0
LINE
8
BLACK
10
230.415
20
-122.01
11
231.05
21
-122.645
0
LINE
8
BLACK
10
230.595
20
-121.83
11
231.23
21
-122.465
0
ARC
8
BLACK
10
231.14
20
-122.555
40
0.127
50
225
51
405
0
ARC
8
BLACK
10
230.505
20
-121.92
40
0.127
50
45
51
225
0
LINE
8
BLACK
10
213.995
20
-130.302
11
214.63
21
-130.302
0
LINE
8
BLACK
10
213.995
20
-130.048
11
214.63
21
-130.048
0
ARC
8
BLACK
10
214.63
20
-130.175
40
0.127
50
270
51
450
0
ARC
8
BLACK
10
213.995
20
-130.175
40
0.127
50
90
51
270
0
LINE
8
BLACK
10
214.54
20
-130.265
11
215.175
21
-130.9
0
LINE
8
BLACK
10
214.72
20
-130.085
11
215.355
21
-130.72
0
ARC
8
BLACK
10
215.265
20
-130.81
40
0.127
50
225
51
405
0
ARC
8
BLACK
10
214.63
20
-130.175
40
0.127
50
45
51
225
0
LINE
8
BLACK
10
218.44
20
-132.842
11
219.075
21
-132.842
0
LINE
8
BLACK
10
218.44
20
-132.588
11
219.075
21
-132.588
0
ARC
8
BLACK
10
219.075
20
-132.715
40
0.127
50
270
51
450
0
ARC
8
BLACK
10
218.44
20
-132.715
40
0.127
50
90
51
270
0
LINE
8
BLACK
10
218.53
20
-132.625
11
216.625
21
-130.72
0
LINE
8
BLACK
10
218.35
20
-132.805
11
216.445
21
-130.9
0
ARC
8
BLACK
10
216.535
20
-130.81
40
0.127
50
405
51
585
0
ARC
8
BLACK
10
218.44
20
-132.715
40
0.127
50
225
51
405
0
LINE
8
BLACK
10
215.265
20
-130.937
11
216.535
21
-130.937
0
LINE
8
BLACK
10
215.265
20
-130.683
11
216.535
21
-130.683
0
ARC
8
BLACK
10
216.535
20
-130.81
40
0.127
50
270
51
450
0
ARC
8
BLACK
10
215.265
20
-130.81
40
0.127
50
90
51
270
0
LINE
8
BLACK
10
207.01
20
-130.302
11
213.995
21
-130.302
0
LINE
8
BLACK
10
207.01
20
-130.048
11
213.995
21
-130.048
0
ARC
8
BLACK
10
213.995
20
-130.175
40
0.127
50
270
51
450
0
ARC
8
BLACK
10
207.01
20
-130.175
40
0.127
50
90
51
270
0
LINE
8
BLACK
10
206.92
20
-130.085
11
205.777
21
-131.228
0
LINE
8
BLACK
10
207.1
20
-130.265
11
205.957
21
-131.408
0
ARC
8
BLACK
10
205.867
20
-131.318
40
0.127
50
135
51
315
0
ARC
8
BLACK
10
207.01
20
-130.175
40
0.127
50
-45
51
135
0
LINE
8
BLACK
10
205.74
20
-131.445
11
205.867
21
-131.445
0
LINE
8
BLACK
10
205.74
20
-131.191
11
205.867
21
-131.191
0
ARC
8
BLACK
10
205.867
20
-131.318
40
0.127
50
270
51
450
0
ARC
8
BLACK
10
205.74
20
-131.318
40
0.127
50
90
51
270
  0
ENDSEC
  0
EOF
