  0
SECTION
  2
HEADER
  9
$ANGBASE
  50
0.0
  9
$ANGDIR
  70
  1
  9
$MEASUREMENT
  70
0
  0
ENDSEC
  0
SECTION
  2
TABLES
  0
TABLE
  2
LTYPE
  70
1
  0
LTYPE
  2
CONTINUOUS
  70
0
  3
Solid line
  72
65
  73
0
  40
0.0
  0
ENDTAB
  0
TABLE
  2
STYLE
  70
4
  0
STYLE
  2
KICAD
  70
0
  40
0
  41
1
  42
1
  50
0
  71
0
  3
isocp.shx
  0
STYLE
  2
KICADB
  70
0
  40
0
  41
1
  42
1
  50
0
  71
0
  3
isocp.shx
  0
STYLE
  2
KICADI
  70
0
  40
0
  41
1
  42
1
  50
15
  71
0
  3
isocp.shx
  0
STYLE
  2
KICADBI
  70
0
  40
0
  41
1
  42
1
  50
15
  71
0
  3
isocp.shx
  0
ENDTAB
  0
TABLE
  2
LAYER
  70
24
  0
LAYER
  2
BLACK
  70
0
  62
250
  6
CONTINUOUS
  0
LAYER
  2
BLUE
  70
0
  62
5
  6
CONTINUOUS
  0
LAYER
  2
GREEN
  70
0
  62
3
  6
CONTINUOUS
  0
LAYER
  2
CYAN
  70
0
  62
4
  6
CONTINUOUS
  0
LAYER
  2
RED
  70
0
  62
1
  6
CONTINUOUS
  0
LAYER
  2
MAGENTA
  70
0
  62
6
  6
CONTINUOUS
  0
LAYER
  2
BROWN
  70
0
  62
54
  6
CONTINUOUS
  0
LAYER
  2
LIGHTGRAY
  70
0
  62
9
  6
CONTINUOUS
  0
LAYER
  2
DARKGRAY
  70
0
  62
8
  6
CONTINUOUS
  0
LAYER
  2
LIGHTBLUE
  70
0
  62
171
  6
CONTINUOUS
  0
LAYER
  2
LIGHTGREEN
  70
0
  62
91
  6
CONTINUOUS
  0
LAYER
  2
LIGHTCYAN
  70
0
  62
131
  6
CONTINUOUS
  0
LAYER
  2
LIGHTRED
  70
0
  62
11
  6
CONTINUOUS
  0
LAYER
  2
LIGHTMAGENTA
  70
0
  62
221
  6
CONTINUOUS
  0
LAYER
  2
YELLOW
  70
0
  62
2
  6
CONTINUOUS
  0
LAYER
  2
WHITE
  70
0
  62
7
  6
CONTINUOUS
  0
LAYER
  2
DARKDARKGRAY
  70
0
  62
251
  6
CONTINUOUS
  0
LAYER
  2
DARKBLUE
  70
0
  62
178
  6
CONTINUOUS
  0
LAYER
  2
DARKGREEN
  70
0
  62
98
  6
CONTINUOUS
  0
LAYER
  2
DARKCYAN
  70
0
  62
138
  6
CONTINUOUS
  0
LAYER
  2
DARKRED
  70
0
  62
18
  6
CONTINUOUS
  0
LAYER
  2
DARKMAGENTA
  70
0
  62
228
  6
CONTINUOUS
  0
LAYER
  2
DARKBROWN
  70
0
  62
58
  6
CONTINUOUS
  0
LAYER
  2
LIGHTYELLOW
  70
0
  62
51
  6
CONTINUOUS
  0
ENDTAB
  0
ENDSEC
  0
SECTION
  2
ENTITIES
0
LINE
8
BLACK
10
231.575
20
-126.764
11
232.192
21
-126.764
0
LINE
8
BLACK
10
232.192
20
-126.764
11
232.265
21
-126.728
0
LINE
8
BLACK
10
232.265
20
-126.728
11
232.301
21
-126.692
0
LINE
8
BLACK
10
232.301
20
-126.692
11
232.337
21
-126.619
0
LINE
8
BLACK
10
232.337
20
-126.619
11
232.337
21
-126.51
0
LINE
8
BLACK
10
232.337
20
-126.51
11
232.301
21
-126.438
0
LINE
8
BLACK
10
232.047
20
-126.764
11
232.083
21
-126.692
0
LINE
8
BLACK
10
232.083
20
-126.692
11
232.083
21
-126.546
0
LINE
8
BLACK
10
232.083
20
-126.546
11
232.047
21
-126.474
0
LINE
8
BLACK
10
232.047
20
-126.474
11
232.011
21
-126.438
0
LINE
8
BLACK
10
232.011
20
-126.438
11
231.938
21
-126.401
0
LINE
8
BLACK
10
231.938
20
-126.401
11
231.721
21
-126.401
0
LINE
8
BLACK
10
231.721
20
-126.401
11
231.648
21
-126.438
0
LINE
8
BLACK
10
231.648
20
-126.438
11
231.612
21
-126.474
0
LINE
8
BLACK
10
231.612
20
-126.474
11
231.575
21
-126.546
0
LINE
8
BLACK
10
231.575
20
-126.546
11
231.575
21
-126.692
0
LINE
8
BLACK
10
231.575
20
-126.692
11
231.612
21
-126.764
0
LINE
8
BLACK
10
232.083
20
-127.127
11
231.575
21
-127.127
0
LINE
8
BLACK
10
231.321
20
-127.127
11
231.358
21
-127.091
0
LINE
8
BLACK
10
231.358
20
-127.091
11
231.394
21
-127.127
0
LINE
8
BLACK
10
231.394
20
-127.127
11
231.358
21
-127.163
0
LINE
8
BLACK
10
231.358
20
-127.163
11
231.321
21
-127.127
0
LINE
8
BLACK
10
231.321
20
-127.127
11
231.394
21
-127.127
0
LINE
8
BLACK
10
231.575
20
-127.381
11
231.575
21
-127.671
0
LINE
8
BLACK
10
231.321
20
-127.49
11
231.975
21
-127.49
0
LINE
8
BLACK
10
231.975
20
-127.49
11
232.047
21
-127.526
0
LINE
8
BLACK
10
232.047
20
-127.526
11
232.083
21
-127.599
0
LINE
8
BLACK
10
232.083
20
-127.599
11
232.083
21
-127.671
0
LINE
8
BLACK
10
232.083
20
-127.925
11
231.321
21
-127.925
0
LINE
8
BLACK
10
232.083
20
-128.252
11
231.684
21
-128.252
0
LINE
8
BLACK
10
231.684
20
-128.252
11
231.612
21
-128.216
0
LINE
8
BLACK
10
231.612
20
-128.216
11
231.575
21
-128.143
0
LINE
8
BLACK
10
231.575
20
-128.143
11
231.575
21
-128.034
0
LINE
8
BLACK
10
231.575
20
-128.034
11
231.612
21
-127.962
0
LINE
8
BLACK
10
231.612
20
-127.962
11
231.648
21
-127.925
0
LINE
8
BLACK
10
231.575
20
-128.941
11
232.083
21
-128.941
0
LINE
8
BLACK
10
231.575
20
-128.615
11
231.975
21
-128.615
0
LINE
8
BLACK
10
231.975
20
-128.615
11
232.047
21
-128.651
0
LINE
8
BLACK
10
232.047
20
-128.651
11
232.083
21
-128.724
0
LINE
8
BLACK
10
232.083
20
-128.724
11
232.083
21
-128.832
0
LINE
8
BLACK
10
232.083
20
-128.832
11
232.047
21
-128.905
0
LINE
8
BLACK
10
232.047
20
-128.905
11
232.011
21
-128.941
0
LINE
8
BLACK
10
232.083
20
-129.304
11
231.321
21
-129.304
0
LINE
8
BLACK
10
231.612
20
-129.304
11
231.575
21
-129.377
0
LINE
8
BLACK
10
231.575
20
-129.377
11
231.575
21
-129.522
0
LINE
8
BLACK
10
231.575
20
-129.522
11
231.612
21
-129.594
0
LINE
8
BLACK
10
231.612
20
-129.594
11
231.648
21
-129.631
0
LINE
8
BLACK
10
231.648
20
-129.631
11
231.721
21
-129.667
0
LINE
8
BLACK
10
231.721
20
-129.667
11
231.938
21
-129.667
0
LINE
8
BLACK
10
231.938
20
-129.667
11
232.011
21
-129.631
0
LINE
8
BLACK
10
232.011
20
-129.631
11
232.047
21
-129.594
0
LINE
8
BLACK
10
232.047
20
-129.594
11
232.083
21
-129.522
0
LINE
8
BLACK
10
232.083
20
-129.522
11
232.083
21
-129.377
0
LINE
8
BLACK
10
232.083
20
-129.377
11
232.047
21
-129.304
0
LINE
8
BLACK
10
232.011
20
-129.994
11
232.047
21
-130.03
0
LINE
8
BLACK
10
232.047
20
-130.03
11
232.083
21
-129.994
0
LINE
8
BLACK
10
232.083
20
-129.994
11
232.047
21
-129.957
0
LINE
8
BLACK
10
232.047
20
-129.957
11
232.011
21
-129.994
0
LINE
8
BLACK
10
232.011
20
-129.994
11
232.083
21
-129.994
0
LINE
8
BLACK
10
232.047
20
-130.683
11
232.083
21
-130.61
0
LINE
8
BLACK
10
232.083
20
-130.61
11
232.083
21
-130.465
0
LINE
8
BLACK
10
232.083
20
-130.465
11
232.047
21
-130.393
0
LINE
8
BLACK
10
232.047
20
-130.393
11
232.011
21
-130.356
0
LINE
8
BLACK
10
232.011
20
-130.356
11
231.938
21
-130.32
0
LINE
8
BLACK
10
231.938
20
-130.32
11
231.721
21
-130.32
0
LINE
8
BLACK
10
231.721
20
-130.32
11
231.648
21
-130.356
0
LINE
8
BLACK
10
231.648
20
-130.356
11
231.612
21
-130.393
0
LINE
8
BLACK
10
231.612
20
-130.393
11
231.575
21
-130.465
0
LINE
8
BLACK
10
231.575
20
-130.465
11
231.575
21
-130.61
0
LINE
8
BLACK
10
231.575
20
-130.61
11
231.612
21
-130.683
0
LINE
8
BLACK
10
232.083
20
-131.118
11
232.047
21
-131.046
0
LINE
8
BLACK
10
232.047
20
-131.046
11
232.011
21
-131.01
0
LINE
8
BLACK
10
232.011
20
-131.01
11
231.938
21
-130.973
0
LINE
8
BLACK
10
231.938
20
-130.973
11
231.721
21
-130.973
0
LINE
8
BLACK
10
231.721
20
-130.973
11
231.648
21
-131.01
0
LINE
8
BLACK
10
231.648
20
-131.01
11
231.612
21
-131.046
0
LINE
8
BLACK
10
231.612
20
-131.046
11
231.575
21
-131.118
0
LINE
8
BLACK
10
231.575
20
-131.118
11
231.575
21
-131.227
0
LINE
8
BLACK
10
231.575
20
-131.227
11
231.612
21
-131.3
0
LINE
8
BLACK
10
231.612
20
-131.3
11
231.648
21
-131.336
0
LINE
8
BLACK
10
231.648
20
-131.336
11
231.721
21
-131.372
0
LINE
8
BLACK
10
231.721
20
-131.372
11
231.938
21
-131.372
0
LINE
8
BLACK
10
231.938
20
-131.372
11
232.011
21
-131.336
0
LINE
8
BLACK
10
232.011
20
-131.336
11
232.047
21
-131.3
0
LINE
8
BLACK
10
232.047
20
-131.3
11
232.083
21
-131.227
0
LINE
8
BLACK
10
232.083
20
-131.227
11
232.083
21
-131.118
0
LINE
8
BLACK
10
232.083
20
-131.699
11
231.575
21
-131.699
0
LINE
8
BLACK
10
231.648
20
-131.699
11
231.612
21
-131.735
0
LINE
8
BLACK
10
231.612
20
-131.735
11
231.575
21
-131.808
0
LINE
8
BLACK
10
231.575
20
-131.808
11
231.575
21
-131.917
0
LINE
8
BLACK
10
231.575
20
-131.917
11
231.612
21
-131.989
0
LINE
8
BLACK
10
231.612
20
-131.989
11
231.684
21
-132.026
0
LINE
8
BLACK
10
231.684
20
-132.026
11
232.083
21
-132.026
0
LINE
8
BLACK
10
231.684
20
-132.026
11
231.612
21
-132.062
0
LINE
8
BLACK
10
231.612
20
-132.062
11
231.575
21
-132.134
0
LINE
8
BLACK
10
231.575
20
-132.134
11
231.575
21
-132.243
0
LINE
8
BLACK
10
231.575
20
-132.243
11
231.612
21
-132.316
0
LINE
8
BLACK
10
231.612
20
-132.316
11
231.684
21
-132.352
0
LINE
8
BLACK
10
231.684
20
-132.352
11
232.083
21
-132.352
0
LINE
8
BLACK
10
231.285
20
-133.259
11
232.265
21
-132.606
0
LINE
8
BLACK
10
231.575
20
-133.513
11
232.337
21
-133.513
0
LINE
8
BLACK
10
231.612
20
-133.513
11
231.575
21
-133.586
0
LINE
8
BLACK
10
231.575
20
-133.586
11
231.575
21
-133.731
0
LINE
8
BLACK
10
231.575
20
-133.731
11
231.612
21
-133.804
0
LINE
8
BLACK
10
231.612
20
-133.804
11
231.648
21
-133.84
0
LINE
8
BLACK
10
231.648
20
-133.84
11
231.721
21
-133.876
0
LINE
8
BLACK
10
231.721
20
-133.876
11
231.938
21
-133.876
0
LINE
8
BLACK
10
231.938
20
-133.876
11
232.011
21
-133.84
0
LINE
8
BLACK
10
232.011
20
-133.84
11
232.047
21
-133.804
0
LINE
8
BLACK
10
232.047
20
-133.804
11
232.083
21
-133.731
0
LINE
8
BLACK
10
232.083
20
-133.731
11
232.083
21
-133.586
0
LINE
8
BLACK
10
232.083
20
-133.586
11
232.047
21
-133.513
0
LINE
8
BLACK
10
232.047
20
-134.493
11
232.083
21
-134.42
0
LINE
8
BLACK
10
232.083
20
-134.42
11
232.083
21
-134.275
0
LINE
8
BLACK
10
232.083
20
-134.275
11
232.047
21
-134.203
0
LINE
8
BLACK
10
232.047
20
-134.203
11
231.975
21
-134.166
0
LINE
8
BLACK
10
231.975
20
-134.166
11
231.684
21
-134.166
0
LINE
8
BLACK
10
231.684
20
-134.166
11
231.612
21
-134.203
0
LINE
8
BLACK
10
231.612
20
-134.203
11
231.575
21
-134.275
0
LINE
8
BLACK
10
231.575
20
-134.275
11
231.575
21
-134.42
0
LINE
8
BLACK
10
231.575
20
-134.42
11
231.612
21
-134.493
0
LINE
8
BLACK
10
231.612
20
-134.493
11
231.684
21
-134.529
0
LINE
8
BLACK
10
231.684
20
-134.529
11
231.757
21
-134.529
0
LINE
8
BLACK
10
231.757
20
-134.529
11
231.829
21
-134.166
0
LINE
8
BLACK
10
231.575
20
-134.856
11
232.337
21
-134.856
0
LINE
8
BLACK
10
231.612
20
-134.856
11
231.575
21
-134.928
0
LINE
8
BLACK
10
231.575
20
-134.928
11
231.575
21
-135.074
0
LINE
8
BLACK
10
231.575
20
-135.074
11
231.612
21
-135.146
0
LINE
8
BLACK
10
231.612
20
-135.146
11
231.648
21
-135.182
0
LINE
8
BLACK
10
231.648
20
-135.182
11
231.721
21
-135.219
0
LINE
8
BLACK
10
231.721
20
-135.219
11
231.938
21
-135.219
0
LINE
8
BLACK
10
231.938
20
-135.219
11
232.011
21
-135.182
0
LINE
8
BLACK
10
232.011
20
-135.182
11
232.047
21
-135.146
0
LINE
8
BLACK
10
232.047
20
-135.146
11
232.083
21
-135.074
0
LINE
8
BLACK
10
232.083
20
-135.074
11
232.083
21
-134.928
0
LINE
8
BLACK
10
232.083
20
-134.928
11
232.047
21
-134.856
0
LINE
8
BLACK
10
232.083
20
-135.872
11
231.684
21
-135.872
0
LINE
8
BLACK
10
231.684
20
-135.872
11
231.612
21
-135.836
0
LINE
8
BLACK
10
231.612
20
-135.836
11
231.575
21
-135.763
0
LINE
8
BLACK
10
231.575
20
-135.763
11
231.575
21
-135.618
0
LINE
8
BLACK
10
231.575
20
-135.618
11
231.612
21
-135.545
0
LINE
8
BLACK
10
232.047
20
-135.872
11
232.083
21
-135.799
0
LINE
8
BLACK
10
232.083
20
-135.799
11
232.083
21
-135.618
0
LINE
8
BLACK
10
232.083
20
-135.618
11
232.047
21
-135.545
0
LINE
8
BLACK
10
232.047
20
-135.545
11
231.975
21
-135.509
0
LINE
8
BLACK
10
231.975
20
-135.509
11
231.902
21
-135.509
0
LINE
8
BLACK
10
231.902
20
-135.509
11
231.829
21
-135.545
0
LINE
8
BLACK
10
231.829
20
-135.545
11
231.793
21
-135.618
0
LINE
8
BLACK
10
231.793
20
-135.618
11
231.793
21
-135.799
0
LINE
8
BLACK
10
231.793
20
-135.799
11
231.757
21
-135.872
0
LINE
8
BLACK
10
232.047
20
-136.198
11
232.083
21
-136.271
0
LINE
8
BLACK
10
232.083
20
-136.271
11
232.083
21
-136.416
0
LINE
8
BLACK
10
232.083
20
-136.416
11
232.047
21
-136.489
0
LINE
8
BLACK
10
232.047
20
-136.489
11
231.975
21
-136.525
0
LINE
8
BLACK
10
231.975
20
-136.525
11
231.938
21
-136.525
0
LINE
8
BLACK
10
231.938
20
-136.525
11
231.866
21
-136.489
0
LINE
8
BLACK
10
231.866
20
-136.489
11
231.829
21
-136.416
0
LINE
8
BLACK
10
231.829
20
-136.416
11
231.829
21
-136.307
0
LINE
8
BLACK
10
231.829
20
-136.307
11
231.793
21
-136.235
0
LINE
8
BLACK
10
231.793
20
-136.235
11
231.721
21
-136.198
0
LINE
8
BLACK
10
231.721
20
-136.198
11
231.684
21
-136.198
0
LINE
8
BLACK
10
231.684
20
-136.198
11
231.612
21
-136.235
0
LINE
8
BLACK
10
231.612
20
-136.235
11
231.575
21
-136.307
0
LINE
8
BLACK
10
231.575
20
-136.307
11
231.575
21
-136.416
0
LINE
8
BLACK
10
231.575
20
-136.416
11
231.612
21
-136.489
0
LINE
8
BLACK
10
232.083
20
-136.96
11
232.047
21
-136.888
0
LINE
8
BLACK
10
232.047
20
-136.888
11
231.975
21
-136.852
0
LINE
8
BLACK
10
231.975
20
-136.852
11
231.321
21
-136.852
0
LINE
8
BLACK
10
232.083
20
-137.577
11
231.684
21
-137.577
0
LINE
8
BLACK
10
231.684
20
-137.577
11
231.612
21
-137.541
0
LINE
8
BLACK
10
231.612
20
-137.541
11
231.575
21
-137.468
0
LINE
8
BLACK
10
231.575
20
-137.468
11
231.575
21
-137.323
0
LINE
8
BLACK
10
231.575
20
-137.323
11
231.612
21
-137.251
0
LINE
8
BLACK
10
232.047
20
-137.577
11
232.083
21
-137.505
0
LINE
8
BLACK
10
232.083
20
-137.505
11
232.083
21
-137.323
0
LINE
8
BLACK
10
232.083
20
-137.323
11
232.047
21
-137.251
0
LINE
8
BLACK
10
232.047
20
-137.251
11
231.975
21
-137.214
0
LINE
8
BLACK
10
231.975
20
-137.214
11
231.902
21
-137.214
0
LINE
8
BLACK
10
231.902
20
-137.214
11
231.829
21
-137.251
0
LINE
8
BLACK
10
231.829
20
-137.251
11
231.793
21
-137.323
0
LINE
8
BLACK
10
231.793
20
-137.323
11
231.793
21
-137.505
0
LINE
8
BLACK
10
231.793
20
-137.505
11
231.757
21
-137.577
0
LINE
8
BLACK
10
232.083
20
-137.94
11
231.321
21
-137.94
0
LINE
8
BLACK
10
231.612
20
-137.94
11
231.575
21
-138.013
0
LINE
8
BLACK
10
231.575
20
-138.013
11
231.575
21
-138.158
0
LINE
8
BLACK
10
231.575
20
-138.158
11
231.612
21
-138.23
0
LINE
8
BLACK
10
231.612
20
-138.23
11
231.648
21
-138.267
0
LINE
8
BLACK
10
231.648
20
-138.267
11
231.721
21
-138.303
0
LINE
8
BLACK
10
231.721
20
-138.303
11
231.938
21
-138.303
0
LINE
8
BLACK
10
231.938
20
-138.303
11
232.011
21
-138.267
0
LINE
8
BLACK
10
232.011
20
-138.267
11
232.047
21
-138.23
0
LINE
8
BLACK
10
232.047
20
-138.23
11
232.083
21
-138.158
0
LINE
8
BLACK
10
232.083
20
-138.158
11
232.083
21
-138.013
0
LINE
8
BLACK
10
232.083
20
-138.013
11
232.047
21
-137.94
0
LINE
8
BLACK
10
232.047
20
-138.593
11
232.083
21
-138.666
0
LINE
8
BLACK
10
232.083
20
-138.666
11
232.083
21
-138.811
0
LINE
8
BLACK
10
232.083
20
-138.811
11
232.047
21
-138.884
0
LINE
8
BLACK
10
232.047
20
-138.884
11
231.975
21
-138.92
0
LINE
8
BLACK
10
231.975
20
-138.92
11
231.938
21
-138.92
0
LINE
8
BLACK
10
231.938
20
-138.92
11
231.866
21
-138.884
0
LINE
8
BLACK
10
231.866
20
-138.884
11
231.829
21
-138.811
0
LINE
8
BLACK
10
231.829
20
-138.811
11
231.829
21
-138.702
0
LINE
8
BLACK
10
231.829
20
-138.702
11
231.793
21
-138.63
0
LINE
8
BLACK
10
231.793
20
-138.63
11
231.721
21
-138.593
0
LINE
8
BLACK
10
231.721
20
-138.593
11
231.684
21
-138.593
0
LINE
8
BLACK
10
231.684
20
-138.593
11
231.612
21
-138.63
0
LINE
8
BLACK
10
231.612
20
-138.63
11
231.575
21
-138.702
0
LINE
8
BLACK
10
231.575
20
-138.702
11
231.575
21
-138.811
0
LINE
8
BLACK
10
231.575
20
-138.811
11
231.612
21
-138.884
0
LINE
8
BLACK
10
231.285
20
-139.791
11
232.265
21
-139.138
0
LINE
8
BLACK
10
232.083
20
-140.045
11
231.321
21
-140.045
0
LINE
8
BLACK
10
232.083
20
-140.371
11
231.684
21
-140.371
0
LINE
8
BLACK
10
231.684
20
-140.371
11
231.612
21
-140.335
0
LINE
8
BLACK
10
231.612
20
-140.335
11
231.575
21
-140.262
0
LINE
8
BLACK
10
231.575
20
-140.262
11
231.575
21
-140.154
0
LINE
8
BLACK
10
231.575
20
-140.154
11
231.612
21
-140.081
0
LINE
8
BLACK
10
231.612
20
-140.081
11
231.648
21
-140.045
0
LINE
8
BLACK
10
231.575
20
-140.734
11
232.337
21
-140.734
0
LINE
8
BLACK
10
231.612
20
-140.734
11
231.575
21
-140.807
0
LINE
8
BLACK
10
231.575
20
-140.807
11
231.575
21
-140.952
0
LINE
8
BLACK
10
231.575
20
-140.952
11
231.612
21
-141.024
0
LINE
8
BLACK
10
231.612
20
-141.024
11
231.648
21
-141.061
0
LINE
8
BLACK
10
231.648
20
-141.061
11
231.721
21
-141.097
0
LINE
8
BLACK
10
231.721
20
-141.097
11
231.938
21
-141.097
0
LINE
8
BLACK
10
231.938
20
-141.097
11
232.011
21
-141.061
0
LINE
8
BLACK
10
232.011
20
-141.061
11
232.047
21
-141.024
0
LINE
8
BLACK
10
232.047
20
-141.024
11
232.083
21
-140.952
0
LINE
8
BLACK
10
232.083
20
-140.952
11
232.083
21
-140.807
0
LINE
8
BLACK
10
232.083
20
-140.807
11
232.047
21
-140.734
0
LINE
8
BLACK
10
231.793
20
-141.424
11
231.793
21
-142.004
0
LINE
8
BLACK
10
231.321
20
-142.512
11
231.321
21
-142.585
0
LINE
8
BLACK
10
231.321
20
-142.585
11
231.358
21
-142.657
0
LINE
8
BLACK
10
231.358
20
-142.657
11
231.394
21
-142.694
0
LINE
8
BLACK
10
231.394
20
-142.694
11
231.467
21
-142.73
0
LINE
8
BLACK
10
231.467
20
-142.73
11
231.612
21
-142.766
0
LINE
8
BLACK
10
231.612
20
-142.766
11
231.793
21
-142.766
0
LINE
8
BLACK
10
231.793
20
-142.766
11
231.938
21
-142.73
0
LINE
8
BLACK
10
231.938
20
-142.73
11
232.011
21
-142.694
0
LINE
8
BLACK
10
232.011
20
-142.694
11
232.047
21
-142.657
0
LINE
8
BLACK
10
232.047
20
-142.657
11
232.083
21
-142.585
0
LINE
8
BLACK
10
232.083
20
-142.585
11
232.083
21
-142.512
0
LINE
8
BLACK
10
232.083
20
-142.512
11
232.047
21
-142.44
0
LINE
8
BLACK
10
232.047
20
-142.44
11
232.011
21
-142.403
0
LINE
8
BLACK
10
232.011
20
-142.403
11
231.938
21
-142.367
0
LINE
8
BLACK
10
231.938
20
-142.367
11
231.793
21
-142.331
0
LINE
8
BLACK
10
231.793
20
-142.331
11
231.612
21
-142.331
0
LINE
8
BLACK
10
231.612
20
-142.331
11
231.467
21
-142.367
0
LINE
8
BLACK
10
231.467
20
-142.367
11
231.394
21
-142.403
0
LINE
8
BLACK
10
231.394
20
-142.403
11
231.358
21
-142.44
0
LINE
8
BLACK
10
231.358
20
-142.44
11
231.321
21
-142.512
0
LINE
8
BLACK
10
231.321
20
-143.02
11
231.321
21
-143.492
0
LINE
8
BLACK
10
231.321
20
-143.492
11
231.612
21
-143.238
0
LINE
8
BLACK
10
231.612
20
-143.238
11
231.612
21
-143.347
0
LINE
8
BLACK
10
231.612
20
-143.347
11
231.648
21
-143.419
0
LINE
8
BLACK
10
231.648
20
-143.419
11
231.684
21
-143.456
0
LINE
8
BLACK
10
231.684
20
-143.456
11
231.757
21
-143.492
0
LINE
8
BLACK
10
231.757
20
-143.492
11
231.938
21
-143.492
0
LINE
8
BLACK
10
231.938
20
-143.492
11
232.011
21
-143.456
0
LINE
8
BLACK
10
232.011
20
-143.456
11
232.047
21
-143.419
0
LINE
8
BLACK
10
232.047
20
-143.419
11
232.083
21
-143.347
0
LINE
8
BLACK
10
232.083
20
-143.347
11
232.083
21
-143.129
0
LINE
8
BLACK
10
232.083
20
-143.129
11
232.047
21
-143.056
0
LINE
8
BLACK
10
232.047
20
-143.056
11
232.011
21
-143.02
0
LINE
8
BLACK
10
231.575
20
-144.145
11
232.083
21
-144.145
0
LINE
8
BLACK
10
231.285
20
-143.964
11
231.829
21
-143.782
0
LINE
8
BLACK
10
231.829
20
-143.782
11
231.829
21
-144.254
0
LINE
8
BLACK
10
231.321
20
-144.907
11
231.321
21
-144.544
0
LINE
8
BLACK
10
231.321
20
-144.544
11
231.684
21
-144.508
0
LINE
8
BLACK
10
231.684
20
-144.508
11
231.648
21
-144.544
0
LINE
8
BLACK
10
231.648
20
-144.544
11
231.612
21
-144.617
0
LINE
8
BLACK
10
231.612
20
-144.617
11
231.612
21
-144.798
0
LINE
8
BLACK
10
231.612
20
-144.798
11
231.648
21
-144.871
0
LINE
8
BLACK
10
231.648
20
-144.871
11
231.684
21
-144.907
0
LINE
8
BLACK
10
231.684
20
-144.907
11
231.757
21
-144.943
0
LINE
8
BLACK
10
231.757
20
-144.943
11
231.938
21
-144.943
0
LINE
8
BLACK
10
231.938
20
-144.943
11
232.011
21
-144.907
0
LINE
8
BLACK
10
232.011
20
-144.907
11
232.047
21
-144.871
0
LINE
8
BLACK
10
232.047
20
-144.871
11
232.083
21
-144.798
0
LINE
8
BLACK
10
232.083
20
-144.798
11
232.083
21
-144.617
0
LINE
8
BLACK
10
232.083
20
-144.617
11
232.047
21
-144.544
0
LINE
8
BLACK
10
232.047
20
-144.544
11
232.011
21
-144.508
0
LINE
8
BLACK
10
231.648
20
-145.379
11
231.612
21
-145.306
0
LINE
8
BLACK
10
231.612
20
-145.306
11
231.575
21
-145.27
0
LINE
8
BLACK
10
231.575
20
-145.27
11
231.503
21
-145.234
0
LINE
8
BLACK
10
231.503
20
-145.234
11
231.467
21
-145.234
0
LINE
8
BLACK
10
231.467
20
-145.234
11
231.394
21
-145.27
0
LINE
8
BLACK
10
231.394
20
-145.27
11
231.358
21
-145.306
0
LINE
8
BLACK
10
231.358
20
-145.306
11
231.321
21
-145.379
0
LINE
8
BLACK
10
231.321
20
-145.379
11
231.321
21
-145.524
0
LINE
8
BLACK
10
231.321
20
-145.524
11
231.358
21
-145.596
0
LINE
8
BLACK
10
231.358
20
-145.596
11
231.394
21
-145.633
0
LINE
8
BLACK
10
231.394
20
-145.633
11
231.467
21
-145.669
0
LINE
8
BLACK
10
231.467
20
-145.669
11
231.503
21
-145.669
0
LINE
8
BLACK
10
231.503
20
-145.669
11
231.575
21
-145.633
0
LINE
8
BLACK
10
231.575
20
-145.633
11
231.612
21
-145.596
0
LINE
8
BLACK
10
231.612
20
-145.596
11
231.648
21
-145.524
0
LINE
8
BLACK
10
231.648
20
-145.524
11
231.648
21
-145.379
0
LINE
8
BLACK
10
231.648
20
-145.379
11
231.684
21
-145.306
0
LINE
8
BLACK
10
231.684
20
-145.306
11
231.721
21
-145.27
0
LINE
8
BLACK
10
231.721
20
-145.27
11
231.793
21
-145.234
0
LINE
8
BLACK
10
231.793
20
-145.234
11
231.938
21
-145.234
0
LINE
8
BLACK
10
231.938
20
-145.234
11
232.011
21
-145.27
0
LINE
8
BLACK
10
232.011
20
-145.27
11
232.047
21
-145.306
0
LINE
8
BLACK
10
232.047
20
-145.306
11
232.083
21
-145.379
0
LINE
8
BLACK
10
232.083
20
-145.379
11
232.083
21
-145.524
0
LINE
8
BLACK
10
232.083
20
-145.524
11
232.047
21
-145.596
0
LINE
8
BLACK
10
232.047
20
-145.596
11
232.011
21
-145.633
0
LINE
8
BLACK
10
232.011
20
-145.633
11
231.938
21
-145.669
0
LINE
8
BLACK
10
231.938
20
-145.669
11
231.793
21
-145.669
0
LINE
8
BLACK
10
231.793
20
-145.669
11
231.721
21
-145.633
0
LINE
8
BLACK
10
231.721
20
-145.633
11
231.684
21
-145.596
0
LINE
8
BLACK
10
231.684
20
-145.596
11
231.648
21
-145.524
0
LINE
8
BLACK
10
231.793
20
-145.996
11
231.793
21
-146.576
0
LINE
8
BLACK
10
231.321
20
-147.266
11
231.321
21
-147.12
0
LINE
8
BLACK
10
231.321
20
-147.12
11
231.358
21
-147.048
0
LINE
8
BLACK
10
231.358
20
-147.048
11
231.394
21
-147.012
0
LINE
8
BLACK
10
231.394
20
-147.012
11
231.503
21
-146.939
0
LINE
8
BLACK
10
231.503
20
-146.939
11
231.648
21
-146.903
0
LINE
8
BLACK
10
231.648
20
-146.903
11
231.938
21
-146.903
0
LINE
8
BLACK
10
231.938
20
-146.903
11
232.011
21
-146.939
0
LINE
8
BLACK
10
232.011
20
-146.939
11
232.047
21
-146.975
0
LINE
8
BLACK
10
232.047
20
-146.975
11
232.083
21
-147.048
0
LINE
8
BLACK
10
232.083
20
-147.048
11
232.083
21
-147.193
0
LINE
8
BLACK
10
232.083
20
-147.193
11
232.047
21
-147.266
0
LINE
8
BLACK
10
232.047
20
-147.266
11
232.011
21
-147.302
0
LINE
8
BLACK
10
232.011
20
-147.302
11
231.938
21
-147.338
0
LINE
8
BLACK
10
231.938
20
-147.338
11
231.757
21
-147.338
0
LINE
8
BLACK
10
231.757
20
-147.338
11
231.684
21
-147.302
0
LINE
8
BLACK
10
231.684
20
-147.302
11
231.648
21
-147.266
0
LINE
8
BLACK
10
231.648
20
-147.266
11
231.612
21
-147.193
0
LINE
8
BLACK
10
231.612
20
-147.193
11
231.612
21
-147.048
0
LINE
8
BLACK
10
231.612
20
-147.048
11
231.648
21
-146.975
0
LINE
8
BLACK
10
231.648
20
-146.975
11
231.684
21
-146.939
0
LINE
8
BLACK
10
231.684
20
-146.939
11
231.757
21
-146.903
0
LINE
8
BLACK
10
231.321
20
-147.991
11
231.321
21
-147.846
0
LINE
8
BLACK
10
231.321
20
-147.846
11
231.358
21
-147.774
0
LINE
8
BLACK
10
231.358
20
-147.774
11
231.394
21
-147.737
0
LINE
8
BLACK
10
231.394
20
-147.737
11
231.503
21
-147.665
0
LINE
8
BLACK
10
231.503
20
-147.665
11
231.648
21
-147.628
0
LINE
8
BLACK
10
231.648
20
-147.628
11
231.938
21
-147.628
0
LINE
8
BLACK
10
231.938
20
-147.628
11
232.011
21
-147.665
0
LINE
8
BLACK
10
232.011
20
-147.665
11
232.047
21
-147.701
0
LINE
8
BLACK
10
232.047
20
-147.701
11
232.083
21
-147.774
0
LINE
8
BLACK
10
232.083
20
-147.774
11
232.083
21
-147.919
0
LINE
8
BLACK
10
232.083
20
-147.919
11
232.047
21
-147.991
0
LINE
8
BLACK
10
232.047
20
-147.991
11
232.011
21
-148.028
0
LINE
8
BLACK
10
232.011
20
-148.028
11
231.938
21
-148.064
0
LINE
8
BLACK
10
231.938
20
-148.064
11
231.757
21
-148.064
0
LINE
8
BLACK
10
231.757
20
-148.064
11
231.684
21
-148.028
0
LINE
8
BLACK
10
231.684
20
-148.028
11
231.648
21
-147.991
0
LINE
8
BLACK
10
231.648
20
-147.991
11
231.612
21
-147.919
0
LINE
8
BLACK
10
231.612
20
-147.919
11
231.612
21
-147.774
0
LINE
8
BLACK
10
231.612
20
-147.774
11
231.648
21
-147.701
0
LINE
8
BLACK
10
231.648
20
-147.701
11
231.684
21
-147.665
0
LINE
8
BLACK
10
231.684
20
-147.665
11
231.757
21
-147.628
0
LINE
8
BLACK
10
231.321
20
-148.753
11
231.321
21
-148.39
0
LINE
8
BLACK
10
231.321
20
-148.39
11
231.684
21
-148.354
0
LINE
8
BLACK
10
231.684
20
-148.354
11
231.648
21
-148.39
0
LINE
8
BLACK
10
231.648
20
-148.39
11
231.612
21
-148.463
0
LINE
8
BLACK
10
231.612
20
-148.463
11
231.612
21
-148.644
0
LINE
8
BLACK
10
231.612
20
-148.644
11
231.648
21
-148.717
0
LINE
8
BLACK
10
231.648
20
-148.717
11
231.684
21
-148.753
0
LINE
8
BLACK
10
231.684
20
-148.753
11
231.757
21
-148.79
0
LINE
8
BLACK
10
231.757
20
-148.79
11
231.938
21
-148.79
0
LINE
8
BLACK
10
231.938
20
-148.79
11
232.011
21
-148.753
0
LINE
8
BLACK
10
232.011
20
-148.753
11
232.047
21
-148.717
0
LINE
8
BLACK
10
232.047
20
-148.717
11
232.083
21
-148.644
0
LINE
8
BLACK
10
232.083
20
-148.644
11
232.083
21
-148.463
0
LINE
8
BLACK
10
232.083
20
-148.463
11
232.047
21
-148.39
0
LINE
8
BLACK
10
232.047
20
-148.39
11
232.011
21
-148.354
0
LINE
8
BLACK
10
231.321
20
-149.261
11
231.321
21
-149.334
0
LINE
8
BLACK
10
231.321
20
-149.334
11
231.358
21
-149.406
0
LINE
8
BLACK
10
231.358
20
-149.406
11
231.394
21
-149.443
0
LINE
8
BLACK
10
231.394
20
-149.443
11
231.467
21
-149.479
0
LINE
8
BLACK
10
231.467
20
-149.479
11
231.612
21
-149.515
0
LINE
8
BLACK
10
231.612
20
-149.515
11
231.793
21
-149.515
0
LINE
8
BLACK
10
231.793
20
-149.515
11
231.938
21
-149.479
0
LINE
8
BLACK
10
231.938
20
-149.479
11
232.011
21
-149.443
0
LINE
8
BLACK
10
232.011
20
-149.443
11
232.047
21
-149.406
0
LINE
8
BLACK
10
232.047
20
-149.406
11
232.083
21
-149.334
0
LINE
8
BLACK
10
232.083
20
-149.334
11
232.083
21
-149.261
0
LINE
8
BLACK
10
232.083
20
-149.261
11
232.047
21
-149.189
0
LINE
8
BLACK
10
232.047
20
-149.189
11
232.011
21
-149.152
0
LINE
8
BLACK
10
232.011
20
-149.152
11
231.938
21
-149.116
0
LINE
8
BLACK
10
231.938
20
-149.116
11
231.793
21
-149.08
0
LINE
8
BLACK
10
231.793
20
-149.08
11
231.612
21
-149.08
0
LINE
8
BLACK
10
231.612
20
-149.08
11
231.467
21
-149.116
0
LINE
8
BLACK
10
231.467
20
-149.116
11
231.394
21
-149.152
0
LINE
8
BLACK
10
231.394
20
-149.152
11
231.358
21
-149.189
0
LINE
8
BLACK
10
231.358
20
-149.189
11
231.321
21
-149.261
0
LINE
8
BLACK
10
232.083
20
-149.878
11
232.083
21
-150.023
0
LINE
8
BLACK
10
232.083
20
-150.023
11
232.047
21
-150.096
0
LINE
8
BLACK
10
232.047
20
-150.096
11
232.011
21
-150.132
0
LINE
8
BLACK
10
232.011
20
-150.132
11
231.902
21
-150.205
0
LINE
8
BLACK
10
231.902
20
-150.205
11
231.757
21
-150.241
0
LINE
8
BLACK
10
231.757
20
-150.241
11
231.467
21
-150.241
0
LINE
8
BLACK
10
231.467
20
-150.241
11
231.394
21
-150.205
0
LINE
8
BLACK
10
231.394
20
-150.205
11
231.358
21
-150.168
0
LINE
8
BLACK
10
231.358
20
-150.168
11
231.321
21
-150.096
0
LINE
8
BLACK
10
231.321
20
-150.096
11
231.321
21
-149.951
0
LINE
8
BLACK
10
231.321
20
-149.951
11
231.358
21
-149.878
0
LINE
8
BLACK
10
231.358
20
-149.878
11
231.394
21
-149.842
0
LINE
8
BLACK
10
231.394
20
-149.842
11
231.467
21
-149.806
0
LINE
8
BLACK
10
231.467
20
-149.806
11
231.648
21
-149.806
0
LINE
8
BLACK
10
231.648
20
-149.806
11
231.721
21
-149.842
0
LINE
8
BLACK
10
231.721
20
-149.842
11
231.757
21
-149.878
0
LINE
8
BLACK
10
231.757
20
-149.878
11
231.793
21
-149.951
0
LINE
8
BLACK
10
231.793
20
-149.951
11
231.793
21
-150.096
0
LINE
8
BLACK
10
231.793
20
-150.096
11
231.757
21
-150.168
0
LINE
8
BLACK
10
231.757
20
-150.168
11
231.721
21
-150.205
0
LINE
8
BLACK
10
231.721
20
-150.205
11
231.648
21
-150.241
0
LINE
8
BLACK
10
231.793
20
-150.568
11
231.793
21
-151.148
0
LINE
8
BLACK
10
232.047
20
-151.838
11
232.083
21
-151.765
0
LINE
8
BLACK
10
232.083
20
-151.765
11
232.083
21
-151.62
0
LINE
8
BLACK
10
232.083
20
-151.62
11
232.047
21
-151.547
0
LINE
8
BLACK
10
232.047
20
-151.547
11
232.011
21
-151.511
0
LINE
8
BLACK
10
232.011
20
-151.511
11
231.938
21
-151.475
0
LINE
8
BLACK
10
231.938
20
-151.475
11
231.721
21
-151.475
0
LINE
8
BLACK
10
231.721
20
-151.475
11
231.648
21
-151.511
0
LINE
8
BLACK
10
231.648
20
-151.511
11
231.612
21
-151.547
0
LINE
8
BLACK
10
231.612
20
-151.547
11
231.575
21
-151.62
0
LINE
8
BLACK
10
231.575
20
-151.62
11
231.575
21
-151.765
0
LINE
8
BLACK
10
231.575
20
-151.765
11
231.612
21
-151.838
0
LINE
8
BLACK
10
232.083
20
-152.273
11
232.047
21
-152.2
0
LINE
8
BLACK
10
232.047
20
-152.2
11
231.975
21
-152.164
0
LINE
8
BLACK
10
231.975
20
-152.164
11
231.321
21
-152.164
0
LINE
8
BLACK
10
232.083
20
-152.672
11
232.047
21
-152.6
0
LINE
8
BLACK
10
232.047
20
-152.6
11
232.011
21
-152.563
0
LINE
8
BLACK
10
232.011
20
-152.563
11
231.938
21
-152.527
0
LINE
8
BLACK
10
231.938
20
-152.527
11
231.721
21
-152.527
0
LINE
8
BLACK
10
231.721
20
-152.527
11
231.648
21
-152.563
0
LINE
8
BLACK
10
231.648
20
-152.563
11
231.612
21
-152.6
0
LINE
8
BLACK
10
231.612
20
-152.6
11
231.575
21
-152.672
0
LINE
8
BLACK
10
231.575
20
-152.672
11
231.575
21
-152.781
0
LINE
8
BLACK
10
231.575
20
-152.781
11
231.612
21
-152.854
0
LINE
8
BLACK
10
231.612
20
-152.854
11
231.648
21
-152.89
0
LINE
8
BLACK
10
231.648
20
-152.89
11
231.721
21
-152.926
0
LINE
8
BLACK
10
231.721
20
-152.926
11
231.938
21
-152.926
0
LINE
8
BLACK
10
231.938
20
-152.926
11
232.011
21
-152.89
0
LINE
8
BLACK
10
232.011
20
-152.89
11
232.047
21
-152.854
0
LINE
8
BLACK
10
232.047
20
-152.854
11
232.083
21
-152.781
0
LINE
8
BLACK
10
232.083
20
-152.781
11
232.083
21
-152.672
0
LINE
8
BLACK
10
231.575
20
-153.253
11
232.083
21
-153.253
0
LINE
8
BLACK
10
231.648
20
-153.253
11
231.612
21
-153.289
0
LINE
8
BLACK
10
231.612
20
-153.289
11
231.575
21
-153.362
0
LINE
8
BLACK
10
231.575
20
-153.362
11
231.575
21
-153.47
0
LINE
8
BLACK
10
231.575
20
-153.47
11
231.612
21
-153.543
0
LINE
8
BLACK
10
231.612
20
-153.543
11
231.684
21
-153.579
0
LINE
8
BLACK
10
231.684
20
-153.579
11
232.083
21
-153.579
0
LINE
8
BLACK
10
232.047
20
-154.232
11
232.083
21
-154.16
0
LINE
8
BLACK
10
232.083
20
-154.16
11
232.083
21
-154.015
0
LINE
8
BLACK
10
232.083
20
-154.015
11
232.047
21
-153.942
0
LINE
8
BLACK
10
232.047
20
-153.942
11
231.975
21
-153.906
0
LINE
8
BLACK
10
231.975
20
-153.906
11
231.684
21
-153.906
0
LINE
8
BLACK
10
231.684
20
-153.906
11
231.612
21
-153.942
0
LINE
8
BLACK
10
231.612
20
-153.942
11
231.575
21
-154.015
0
LINE
8
BLACK
10
231.575
20
-154.015
11
231.575
21
-154.16
0
LINE
8
BLACK
10
231.575
20
-154.16
11
231.612
21
-154.232
0
LINE
8
BLACK
10
231.612
20
-154.232
11
231.684
21
-154.269
0
LINE
8
BLACK
10
231.684
20
-154.269
11
231.757
21
-154.269
0
LINE
8
BLACK
10
231.757
20
-154.269
11
231.829
21
-153.906
  0
ENDSEC
  0
EOF
