  0
SECTION
  2
HEADER
  9
$ANGBASE
  50
0.0
  9
$ANGDIR
  70
  1
  9
$MEASUREMENT
  70
0
  0
ENDSEC
  0
SECTION
  2
TABLES
  0
TABLE
  2
LTYPE
  70
1
  0
LTYPE
  2
CONTINUOUS
  70
0
  3
Solid line
  72
65
  73
0
  40
0.0
  0
ENDTAB
  0
TABLE
  2
STYLE
  70
4
  0
STYLE
  2
KICAD
  70
0
  40
0
  41
1
  42
1
  50
0
  71
0
  3
isocp.shx
  0
STYLE
  2
KICADB
  70
0
  40
0
  41
1
  42
1
  50
0
  71
0
  3
isocp.shx
  0
STYLE
  2
KICADI
  70
0
  40
0
  41
1
  42
1
  50
15
  71
0
  3
isocp.shx
  0
STYLE
  2
KICADBI
  70
0
  40
0
  41
1
  42
1
  50
15
  71
0
  3
isocp.shx
  0
ENDTAB
  0
TABLE
  2
LAYER
  70
24
  0
LAYER
  2
BLACK
  70
0
  62
250
  6
CONTINUOUS
  0
LAYER
  2
BLUE
  70
0
  62
5
  6
CONTINUOUS
  0
LAYER
  2
GREEN
  70
0
  62
3
  6
CONTINUOUS
  0
LAYER
  2
CYAN
  70
0
  62
4
  6
CONTINUOUS
  0
LAYER
  2
RED
  70
0
  62
1
  6
CONTINUOUS
  0
LAYER
  2
MAGENTA
  70
0
  62
6
  6
CONTINUOUS
  0
LAYER
  2
BROWN
  70
0
  62
54
  6
CONTINUOUS
  0
LAYER
  2
LIGHTGRAY
  70
0
  62
9
  6
CONTINUOUS
  0
LAYER
  2
DARKGRAY
  70
0
  62
8
  6
CONTINUOUS
  0
LAYER
  2
LIGHTBLUE
  70
0
  62
171
  6
CONTINUOUS
  0
LAYER
  2
LIGHTGREEN
  70
0
  62
91
  6
CONTINUOUS
  0
LAYER
  2
LIGHTCYAN
  70
0
  62
131
  6
CONTINUOUS
  0
LAYER
  2
LIGHTRED
  70
0
  62
11
  6
CONTINUOUS
  0
LAYER
  2
LIGHTMAGENTA
  70
0
  62
221
  6
CONTINUOUS
  0
LAYER
  2
YELLOW
  70
0
  62
2
  6
CONTINUOUS
  0
LAYER
  2
WHITE
  70
0
  62
7
  6
CONTINUOUS
  0
LAYER
  2
DARKDARKGRAY
  70
0
  62
251
  6
CONTINUOUS
  0
LAYER
  2
DARKBLUE
  70
0
  62
178
  6
CONTINUOUS
  0
LAYER
  2
DARKGREEN
  70
0
  62
98
  6
CONTINUOUS
  0
LAYER
  2
DARKCYAN
  70
0
  62
138
  6
CONTINUOUS
  0
LAYER
  2
DARKRED
  70
0
  62
18
  6
CONTINUOUS
  0
LAYER
  2
DARKMAGENTA
  70
0
  62
228
  6
CONTINUOUS
  0
LAYER
  2
DARKBROWN
  70
0
  62
58
  6
CONTINUOUS
  0
LAYER
  2
LIGHTYELLOW
  70
0
  62
51
  6
CONTINUOUS
  0
ENDTAB
  0
ENDSEC
  0
SECTION
  2
ENTITIES
0
CIRCLE
8
BLACK
10
222.359
20
-148.699
40
0.635
0
CIRCLE
8
BLACK
10
225.951
20
-148.699
40
0.635
0
CIRCLE
8
BLACK
10
226.669
20
-150.495
40
0.635
0
CIRCLE
8
BLACK
10
224.155
20
-147.981
40
0.635
0
CIRCLE
8
BLACK
10
225.951
20
-152.291
40
0.635
0
CIRCLE
8
BLACK
10
224.155
20
-153.009
40
0.635
0
CIRCLE
8
BLACK
10
222.359
20
-152.291
40
0.635
0
CIRCLE
8
BLACK
10
221.641
20
-150.495
40
0.635
0
LINE
8
BLACK
10
220.104
20
-129.781
11
221.856
21
-129.781
0
LINE
8
BLACK
10
221.856
20
-129.781
11
221.856
21
-128.029
0
LINE
8
BLACK
10
221.856
20
-128.029
11
220.104
21
-128.029
0
LINE
8
BLACK
10
220.104
20
-128.029
11
220.104
21
-129.781
0
ARC
8
BLACK
10
223.52
20
-128.905
40
0.8763
50
270
51
450
0
ARC
8
BLACK
10
223.52
20
-128.905
40
0.8763
50
90
51
270
0
ARC
8
BLACK
10
226.06
20
-128.905
40
0.8763
50
270
51
450
0
ARC
8
BLACK
10
226.06
20
-128.905
40
0.8763
50
90
51
270
0
CIRCLE
8
BLACK
10
191.135
20
-130.81
40
0.7493
0
CIRCLE
8
BLACK
10
191.135
20
-135.89
40
0.7493
0
CIRCLE
8
BLACK
10
191.135
20
-132.08
40
0.7493
0
CIRCLE
8
BLACK
10
186.69
20
-130.81
40
0.7493
0
CIRCLE
8
BLACK
10
186.69
20
-135.89
40
0.7493
0
CIRCLE
8
BLACK
10
186.69
20
-132.08
40
0.7493
0
CIRCLE
8
BLACK
10
186.69
20
-154.94
40
0.7493
0
CIRCLE
8
BLACK
10
186.69
20
-149.86
40
0.7493
0
CIRCLE
8
BLACK
10
186.69
20
-153.67
40
0.7493
0
LINE
8
BLACK
10
202.451
20
-138.189
11
202.451
21
-139.687
0
LINE
8
BLACK
10
202.451
20
-139.687
11
203.949
21
-139.687
0
LINE
8
BLACK
10
203.949
20
-139.687
11
203.949
21
-138.189
0
LINE
8
BLACK
10
203.949
20
-138.189
11
202.451
21
-138.189
0
ARC
8
BLACK
10
205.74
20
-138.938
40
0.7493
50
180
51
360
0
ARC
8
BLACK
10
205.74
20
-138.938
40
0.7493
50
0
51
180
0
ARC
8
BLACK
10
208.28
20
-138.938
40
0.7493
50
180
51
360
0
ARC
8
BLACK
10
208.28
20
-138.938
40
0.7493
50
0
51
180
0
ARC
8
BLACK
10
210.82
20
-138.938
40
0.7493
50
180
51
360
0
ARC
8
BLACK
10
210.82
20
-138.938
40
0.7493
50
0
51
180
0
ARC
8
BLACK
10
210.82
20
-131.318
40
0.7493
50
180
51
360
0
ARC
8
BLACK
10
210.82
20
-131.318
40
0.7493
50
0
51
180
0
ARC
8
BLACK
10
208.28
20
-131.318
40
0.7493
50
180
51
360
0
ARC
8
BLACK
10
208.28
20
-131.318
40
0.7493
50
0
51
180
0
ARC
8
BLACK
10
203.2
20
-131.318
40
0.7493
50
180
51
360
0
ARC
8
BLACK
10
203.2
20
-131.318
40
0.7493
50
0
51
180
0
ARC
8
BLACK
10
205.74
20
-131.318
40
0.7493
50
180
51
360
0
ARC
8
BLACK
10
205.74
20
-131.318
40
0.7493
50
0
51
180
0
LINE
8
BLACK
10
201.168
20
-154.178
11
201.168
21
-155.702
0
LINE
8
BLACK
10
201.168
20
-155.702
11
202.692
21
-155.702
0
LINE
8
BLACK
10
202.692
20
-155.702
11
202.692
21
-154.178
0
LINE
8
BLACK
10
202.692
20
-154.178
11
201.168
21
-154.178
0
CIRCLE
8
BLACK
10
204.47
20
-154.94
40
0.762
0
CIRCLE
8
BLACK
10
207.01
20
-154.94
40
0.762
0
CIRCLE
8
BLACK
10
209.55
20
-154.94
40
0.762
0
CIRCLE
8
BLACK
10
212.09
20
-154.94
40
0.762
0
CIRCLE
8
BLACK
10
201.93
20
-151.13
40
0.8763
0
CIRCLE
8
BLACK
10
207.01
20
-151.13
40
0.8763
0
CIRCLE
8
BLACK
10
209.55
20
-151.13
40
0.8763
0
CIRCLE
8
BLACK
10
212.09
20
-151.13
40
0.8763
0
LINE
8
BLACK
10
212.852
20
-125.857
11
212.852
21
-124.333
0
LINE
8
BLACK
10
212.852
20
-124.333
11
211.328
21
-124.333
0
LINE
8
BLACK
10
211.328
20
-124.333
11
211.328
21
-125.857
0
LINE
8
BLACK
10
211.328
20
-125.857
11
212.852
21
-125.857
0
CIRCLE
8
BLACK
10
209.55
20
-125.095
40
0.762
0
CIRCLE
8
BLACK
10
207.01
20
-125.095
40
0.762
0
CIRCLE
8
BLACK
10
204.47
20
-125.095
40
0.762
0
CIRCLE
8
BLACK
10
201.93
20
-125.095
40
0.762
0
CIRCLE
8
BLACK
10
212.09
20
-128.905
40
0.8763
0
CIRCLE
8
BLACK
10
209.55
20
-128.905
40
0.8763
0
CIRCLE
8
BLACK
10
207.01
20
-128.905
40
0.8763
0
CIRCLE
8
BLACK
10
204.47
20
-128.905
40
0.8763
0
CIRCLE
8
BLACK
10
201.93
20
-128.905
40
0.8763
0
LINE
8
BLACK
10
219.189
20
-122.669
11
219.189
21
-121.171
0
LINE
8
BLACK
10
219.189
20
-121.171
11
217.691
21
-121.171
0
LINE
8
BLACK
10
217.691
20
-121.171
11
217.691
21
-122.669
0
LINE
8
BLACK
10
217.691
20
-122.669
11
219.189
21
-122.669
0
ARC
8
BLACK
10
228.6
20
-121.92
40
0.7493
50
360
51
540
0
ARC
8
BLACK
10
228.6
20
-121.92
40
0.7493
50
180
51
360
0
LINE
8
BLACK
10
219.316
20
-125.336
11
219.316
21
-123.584
0
LINE
8
BLACK
10
219.316
20
-123.584
11
217.564
21
-123.584
0
LINE
8
BLACK
10
217.564
20
-123.584
11
217.564
21
-125.336
0
LINE
8
BLACK
10
217.564
20
-125.336
11
219.316
21
-125.336
0
ARC
8
BLACK
10
228.6
20
-124.46
40
0.8763
50
360
51
540
0
ARC
8
BLACK
10
228.6
20
-124.46
40
0.8763
50
180
51
360
0
ARC
8
BLACK
10
215.9
20
-132.715
40
0.7493
50
180
51
360
0
ARC
8
BLACK
10
215.9
20
-132.715
40
0.7493
50
0
51
180
0
ARC
8
BLACK
10
228.6
20
-132.715
40
0.7493
50
180
51
360
0
ARC
8
BLACK
10
228.6
20
-132.715
40
0.7493
50
0
51
180
0
ARC
8
BLACK
10
215.9
20
-135.255
40
0.7493
50
180
51
360
0
ARC
8
BLACK
10
215.9
20
-135.255
40
0.7493
50
0
51
180
0
ARC
8
BLACK
10
228.6
20
-135.255
40
0.7493
50
180
51
360
0
ARC
8
BLACK
10
228.6
20
-135.255
40
0.7493
50
0
51
180
0
CIRCLE
8
BLACK
10
228.6
20
-139.065
40
0.7493
0
CIRCLE
8
BLACK
10
215.9
20
-139.065
40
0.7493
0
ARC
8
BLACK
10
215.9
20
-121.285
40
0.7493
50
360
51
540
0
ARC
8
BLACK
10
215.9
20
-121.285
40
0.7493
50
180
51
360
0
ARC
8
BLACK
10
203.2
20
-121.285
40
0.7493
50
360
51
540
0
ARC
8
BLACK
10
203.2
20
-121.285
40
0.7493
50
180
51
360
0
CIRCLE
8
BLACK
10
198.12
20
-127.635
40
0.7493
0
CIRCLE
8
BLACK
10
198.12
20
-140.335
40
0.7493
0
ARC
8
BLACK
10
195.58
20
-140.335
40
0.7493
50
270
51
450
0
ARC
8
BLACK
10
195.58
20
-140.335
40
0.7493
50
90
51
270
0
ARC
8
BLACK
10
195.58
20
-127.635
40
0.7493
50
270
51
450
0
ARC
8
BLACK
10
195.58
20
-127.635
40
0.7493
50
90
51
270
0
ARC
8
BLACK
10
198.12
20
-145.415
40
0.7493
50
450
51
630
0
ARC
8
BLACK
10
198.12
20
-145.415
40
0.7493
50
270
51
450
0
ARC
8
BLACK
10
198.12
20
-158.115
40
0.7493
50
450
51
630
0
ARC
8
BLACK
10
198.12
20
-158.115
40
0.7493
50
270
51
450
0
CIRCLE
8
BLACK
10
195.58
20
-145.415
40
0.7493
0
CIRCLE
8
BLACK
10
195.58
20
-158.115
40
0.7493
0
CIRCLE
8
BLACK
10
193.04
20
-145.415
40
0.7493
0
CIRCLE
8
BLACK
10
193.04
20
-158.115
40
0.7493
0
ARC
8
BLACK
10
190.5
20
-158.115
40
0.7493
50
270
51
450
0
ARC
8
BLACK
10
190.5
20
-158.115
40
0.7493
50
90
51
270
0
ARC
8
BLACK
10
190.5
20
-145.415
40
0.7493
50
270
51
450
0
ARC
8
BLACK
10
190.5
20
-145.415
40
0.7493
50
90
51
270
0
CIRCLE
8
BLACK
10
191.135
20
-141.605
40
0.7493
0
CIRCLE
8
BLACK
10
186.055
20
-141.605
40
0.7493
0
CIRCLE
8
BLACK
10
188.595
20
-141.605
40
0.7493
0
CIRCLE
8
BLACK
10
187.96
20
-122.555
40
1.905
0
CIRCLE
8
BLACK
10
218.44
20
-143.51
40
1.905
0
CIRCLE
8
BLACK
10
228.473
20
-157.48
40
1.905
0
CIRCLE
8
BLACK
10
210.185
20
-142.494
40
0.7493
0
CIRCLE
8
BLACK
10
205.105
20
-142.494
40
0.7493
0
CIRCLE
8
BLACK
10
208.915
20
-142.494
40
0.7493
0
CIRCLE
8
BLACK
10
200.66
20
-142.494
40
0.7493
0
CIRCLE
8
BLACK
10
213.36
20
-142.494
40
0.7493
0
CIRCLE
8
BLACK
10
210.185
20
-147.32
40
0.7493
0
CIRCLE
8
BLACK
10
205.105
20
-147.32
40
0.7493
0
CIRCLE
8
BLACK
10
208.915
20
-147.32
40
0.7493
0
CIRCLE
8
BLACK
10
200.66
20
-147.32
40
0.7493
0
CIRCLE
8
BLACK
10
213.36
20
-147.32
40
0.7493
0
CIRCLE
8
BLACK
10
231.14
20
-122.555
40
0.635
0
CIRCLE
8
BLACK
10
231.14
20
-125.095
40
0.635
0
CIRCLE
8
BLACK
10
215.9
20
-125.095
40
0.635
0
CIRCLE
8
BLACK
10
213.36
20
-122.555
40
0.635
0
CIRCLE
8
BLACK
10
210.82
20
-122.555
40
0.635
0
CIRCLE
8
BLACK
10
208.28
20
-122.555
40
0.635
0
CIRCLE
8
BLACK
10
205.74
20
-122.555
40
0.635
0
CIRCLE
8
BLACK
10
200.025
20
-122.555
40
0.635
0
CIRCLE
8
BLACK
10
226.06
20
-132.715
40
0.635
0
CIRCLE
8
BLACK
10
223.52
20
-132.715
40
0.635
0
CIRCLE
8
BLACK
10
218.44
20
-127.635
40
0.635
0
CIRCLE
8
BLACK
10
200.66
20
-155.575
40
0.635
0
CIRCLE
8
BLACK
10
203.2
20
-158.115
40
0.635
0
CIRCLE
8
BLACK
10
205.74
20
-158.115
40
0.635
0
CIRCLE
8
BLACK
10
210.82
20
-158.115
40
0.635
0
CIRCLE
8
BLACK
10
228.6
20
-142.875
40
0.635
0
CIRCLE
8
BLACK
10
226.06
20
-142.875
40
0.635
0
CIRCLE
8
BLACK
10
215.9
20
-153.035
40
0.635
0
CIRCLE
8
BLACK
10
215.9
20
-147.955
40
0.635
  0
ENDSEC
  0
EOF
