  0
SECTION
  2
HEADER
  9
$ANGBASE
  50
0.0
  9
$ANGDIR
  70
  1
  9
$MEASUREMENT
  70
0
  0
ENDSEC
  0
SECTION
  2
TABLES
  0
TABLE
  2
LTYPE
  70
1
  0
LTYPE
  2
CONTINUOUS
  70
0
  3
Solid line
  72
65
  73
0
  40
0.0
  0
ENDTAB
  0
TABLE
  2
STYLE
  70
4
  0
STYLE
  2
KICAD
  70
0
  40
0
  41
1
  42
1
  50
0
  71
0
  3
isocp.shx
  0
STYLE
  2
KICADB
  70
0
  40
0
  41
1
  42
1
  50
0
  71
0
  3
isocp.shx
  0
STYLE
  2
KICADI
  70
0
  40
0
  41
1
  42
1
  50
15
  71
0
  3
isocp.shx
  0
STYLE
  2
KICADBI
  70
0
  40
0
  41
1
  42
1
  50
15
  71
0
  3
isocp.shx
  0
ENDTAB
  0
TABLE
  2
LAYER
  70
24
  0
LAYER
  2
BLACK
  70
0
  62
250
  6
CONTINUOUS
  0
LAYER
  2
BLUE
  70
0
  62
5
  6
CONTINUOUS
  0
LAYER
  2
GREEN
  70
0
  62
3
  6
CONTINUOUS
  0
LAYER
  2
CYAN
  70
0
  62
4
  6
CONTINUOUS
  0
LAYER
  2
RED
  70
0
  62
1
  6
CONTINUOUS
  0
LAYER
  2
MAGENTA
  70
0
  62
6
  6
CONTINUOUS
  0
LAYER
  2
BROWN
  70
0
  62
54
  6
CONTINUOUS
  0
LAYER
  2
LIGHTGRAY
  70
0
  62
9
  6
CONTINUOUS
  0
LAYER
  2
DARKGRAY
  70
0
  62
8
  6
CONTINUOUS
  0
LAYER
  2
LIGHTBLUE
  70
0
  62
171
  6
CONTINUOUS
  0
LAYER
  2
LIGHTGREEN
  70
0
  62
91
  6
CONTINUOUS
  0
LAYER
  2
LIGHTCYAN
  70
0
  62
131
  6
CONTINUOUS
  0
LAYER
  2
LIGHTRED
  70
0
  62
11
  6
CONTINUOUS
  0
LAYER
  2
LIGHTMAGENTA
  70
0
  62
221
  6
CONTINUOUS
  0
LAYER
  2
YELLOW
  70
0
  62
2
  6
CONTINUOUS
  0
LAYER
  2
WHITE
  70
0
  62
7
  6
CONTINUOUS
  0
LAYER
  2
DARKDARKGRAY
  70
0
  62
251
  6
CONTINUOUS
  0
LAYER
  2
DARKBLUE
  70
0
  62
178
  6
CONTINUOUS
  0
LAYER
  2
DARKGREEN
  70
0
  62
98
  6
CONTINUOUS
  0
LAYER
  2
DARKCYAN
  70
0
  62
138
  6
CONTINUOUS
  0
LAYER
  2
DARKRED
  70
0
  62
18
  6
CONTINUOUS
  0
LAYER
  2
DARKMAGENTA
  70
0
  62
228
  6
CONTINUOUS
  0
LAYER
  2
DARKBROWN
  70
0
  62
58
  6
CONTINUOUS
  0
LAYER
  2
LIGHTYELLOW
  70
0
  62
51
  6
CONTINUOUS
  0
ENDTAB
  0
ENDSEC
  0
SECTION
  2
ENTITIES
0
LINE
8
BLACK
10
232.374
20
-122.682
11
232.337
21
-122.718
0
LINE
8
BLACK
10
232.337
20
-122.718
11
232.229
21
-122.791
0
LINE
8
BLACK
10
232.229
20
-122.791
11
232.156
21
-122.827
0
LINE
8
BLACK
10
232.156
20
-122.827
11
232.047
21
-122.863
0
LINE
8
BLACK
10
232.047
20
-122.863
11
231.866
21
-122.9
0
LINE
8
BLACK
10
231.866
20
-122.9
11
231.721
21
-122.9
0
LINE
8
BLACK
10
231.721
20
-122.9
11
231.539
21
-122.863
0
LINE
8
BLACK
10
231.539
20
-122.863
11
231.43
21
-122.827
0
LINE
8
BLACK
10
231.43
20
-122.827
11
231.358
21
-122.791
0
LINE
8
BLACK
10
231.358
20
-122.791
11
231.249
21
-122.718
0
LINE
8
BLACK
10
231.249
20
-122.718
11
231.213
21
-122.682
0
LINE
8
BLACK
10
231.575
20
-122.464
11
232.083
21
-122.283
0
LINE
8
BLACK
10
232.083
20
-122.283
11
231.575
21
-122.101
0
LINE
8
BLACK
10
231.394
20
-121.847
11
231.358
21
-121.811
0
LINE
8
BLACK
10
231.358
20
-121.811
11
231.321
21
-121.739
0
LINE
8
BLACK
10
231.321
20
-121.739
11
231.321
21
-121.557
0
LINE
8
BLACK
10
231.321
20
-121.557
11
231.358
21
-121.485
0
LINE
8
BLACK
10
231.358
20
-121.485
11
231.394
21
-121.448
0
LINE
8
BLACK
10
231.394
20
-121.448
11
231.467
21
-121.412
0
LINE
8
BLACK
10
231.467
20
-121.412
11
231.539
21
-121.412
0
LINE
8
BLACK
10
231.539
20
-121.412
11
231.648
21
-121.448
0
LINE
8
BLACK
10
231.648
20
-121.448
11
232.083
21
-121.884
0
LINE
8
BLACK
10
232.083
20
-121.884
11
232.083
21
-121.412
0
LINE
8
BLACK
10
232.374
20
-121.158
11
232.337
21
-121.122
0
LINE
8
BLACK
10
232.337
20
-121.122
11
232.229
21
-121.049
0
LINE
8
BLACK
10
232.229
20
-121.049
11
232.156
21
-121.013
0
LINE
8
BLACK
10
232.156
20
-121.013
11
232.047
21
-120.977
0
LINE
8
BLACK
10
232.047
20
-120.977
11
231.866
21
-120.94
0
LINE
8
BLACK
10
231.866
20
-120.94
11
231.721
21
-120.94
0
LINE
8
BLACK
10
231.721
20
-120.94
11
231.539
21
-120.977
0
LINE
8
BLACK
10
231.539
20
-120.977
11
231.43
21
-121.013
0
LINE
8
BLACK
10
231.43
20
-121.013
11
231.358
21
-121.049
0
LINE
8
BLACK
10
231.358
20
-121.049
11
231.249
21
-121.122
0
LINE
8
BLACK
10
231.249
20
-121.122
11
231.213
21
-121.158
0
LINE
8
BLACK
10
230.868
20
-139.627
11
230.868
21
-139.482
0
LINE
8
BLACK
10
230.868
20
-139.482
11
230.94
21
-139.337
0
LINE
8
BLACK
10
230.94
20
-139.337
11
231.013
21
-139.265
0
LINE
8
BLACK
10
231.013
20
-139.265
11
231.158
21
-139.192
0
LINE
8
BLACK
10
231.158
20
-139.192
11
231.448
21
-139.119
0
LINE
8
BLACK
10
231.448
20
-139.119
11
231.811
21
-139.119
0
LINE
8
BLACK
10
231.811
20
-139.119
11
232.102
21
-139.192
0
LINE
8
BLACK
10
232.102
20
-139.192
11
232.247
21
-139.265
0
LINE
8
BLACK
10
232.247
20
-139.265
11
232.319
21
-139.337
0
LINE
8
BLACK
10
232.319
20
-139.337
11
232.392
21
-139.482
0
LINE
8
BLACK
10
232.392
20
-139.482
11
232.392
21
-139.627
0
LINE
8
BLACK
10
232.392
20
-139.627
11
232.319
21
-139.773
0
LINE
8
BLACK
10
232.319
20
-139.773
11
232.247
21
-139.845
0
LINE
8
BLACK
10
232.247
20
-139.845
11
232.102
21
-139.918
0
LINE
8
BLACK
10
232.102
20
-139.918
11
231.811
21
-139.99
0
LINE
8
BLACK
10
231.811
20
-139.99
11
231.448
21
-139.99
0
LINE
8
BLACK
10
231.448
20
-139.99
11
231.158
21
-139.918
0
LINE
8
BLACK
10
231.158
20
-139.918
11
231.013
21
-139.845
0
LINE
8
BLACK
10
231.013
20
-139.845
11
230.94
21
-139.773
0
LINE
8
BLACK
10
230.94
20
-139.773
11
230.868
21
-139.627
0
LINE
8
BLACK
10
230.868
20
-138.611
11
230.868
21
-137.668
0
LINE
8
BLACK
10
230.868
20
-137.668
11
231.448
21
-138.176
0
LINE
8
BLACK
10
231.448
20
-138.176
11
231.448
21
-137.958
0
LINE
8
BLACK
10
231.448
20
-137.958
11
231.521
21
-137.813
0
LINE
8
BLACK
10
231.521
20
-137.813
11
231.594
21
-137.741
0
LINE
8
BLACK
10
231.594
20
-137.741
11
231.739
21
-137.668
0
LINE
8
BLACK
10
231.739
20
-137.668
11
232.102
21
-137.668
0
LINE
8
BLACK
10
232.102
20
-137.668
11
232.247
21
-137.741
0
LINE
8
BLACK
10
232.247
20
-137.741
11
232.319
21
-137.813
0
LINE
8
BLACK
10
232.319
20
-137.813
11
232.392
21
-137.958
0
LINE
8
BLACK
10
232.392
20
-137.958
11
232.392
21
-138.394
0
LINE
8
BLACK
10
232.392
20
-138.394
11
232.319
21
-138.539
0
LINE
8
BLACK
10
232.319
20
-138.539
11
232.247
21
-138.611
0
LINE
8
BLACK
10
231.376
20
-136.362
11
232.392
21
-136.362
0
LINE
8
BLACK
10
230.795
20
-136.725
11
231.884
21
-137.087
0
LINE
8
BLACK
10
231.884
20
-137.087
11
231.884
21
-136.144
0
LINE
8
BLACK
10
230.868
20
-134.838
11
230.868
21
-135.563
0
LINE
8
BLACK
10
230.868
20
-135.563
11
231.594
21
-135.636
0
LINE
8
BLACK
10
231.594
20
-135.636
11
231.521
21
-135.563
0
LINE
8
BLACK
10
231.521
20
-135.563
11
231.448
21
-135.418
0
LINE
8
BLACK
10
231.448
20
-135.418
11
231.448
21
-135.055
0
LINE
8
BLACK
10
231.448
20
-135.055
11
231.521
21
-134.91
0
LINE
8
BLACK
10
231.521
20
-134.91
11
231.594
21
-134.838
0
LINE
8
BLACK
10
231.594
20
-134.838
11
231.739
21
-134.765
0
LINE
8
BLACK
10
231.739
20
-134.765
11
232.102
21
-134.765
0
LINE
8
BLACK
10
232.102
20
-134.765
11
232.247
21
-134.838
0
LINE
8
BLACK
10
232.247
20
-134.838
11
232.319
21
-134.91
0
LINE
8
BLACK
10
232.319
20
-134.91
11
232.392
21
-135.055
0
LINE
8
BLACK
10
232.392
20
-135.055
11
232.392
21
-135.418
0
LINE
8
BLACK
10
232.392
20
-135.418
11
232.319
21
-135.563
0
LINE
8
BLACK
10
232.319
20
-135.563
11
232.247
21
-135.636
0
LINE
8
BLACK
10
231.521
20
-133.894
11
231.448
21
-134.039
0
LINE
8
BLACK
10
231.448
20
-134.039
11
231.376
21
-134.112
0
LINE
8
BLACK
10
231.376
20
-134.112
11
231.231
21
-134.185
0
LINE
8
BLACK
10
231.231
20
-134.185
11
231.158
21
-134.185
0
LINE
8
BLACK
10
231.158
20
-134.185
11
231.013
21
-134.112
0
LINE
8
BLACK
10
231.013
20
-134.112
11
230.94
21
-134.039
0
LINE
8
BLACK
10
230.94
20
-134.039
11
230.868
21
-133.894
0
LINE
8
BLACK
10
230.868
20
-133.894
11
230.868
21
-133.604
0
LINE
8
BLACK
10
230.868
20
-133.604
11
230.94
21
-133.459
0
LINE
8
BLACK
10
230.94
20
-133.459
11
231.013
21
-133.386
0
LINE
8
BLACK
10
231.013
20
-133.386
11
231.158
21
-133.314
0
LINE
8
BLACK
10
231.158
20
-133.314
11
231.231
21
-133.314
0
LINE
8
BLACK
10
231.231
20
-133.314
11
231.376
21
-133.386
0
LINE
8
BLACK
10
231.376
20
-133.386
11
231.448
21
-133.459
0
LINE
8
BLACK
10
231.448
20
-133.459
11
231.521
21
-133.604
0
LINE
8
BLACK
10
231.521
20
-133.604
11
231.521
21
-133.894
0
LINE
8
BLACK
10
231.521
20
-133.894
11
231.594
21
-134.039
0
LINE
8
BLACK
10
231.594
20
-134.039
11
231.666
21
-134.112
0
LINE
8
BLACK
10
231.666
20
-134.112
11
231.811
21
-134.185
0
LINE
8
BLACK
10
231.811
20
-134.185
11
232.102
21
-134.185
0
LINE
8
BLACK
10
232.102
20
-134.185
11
232.247
21
-134.112
0
LINE
8
BLACK
10
232.247
20
-134.112
11
232.319
21
-134.039
0
LINE
8
BLACK
10
232.319
20
-134.039
11
232.392
21
-133.894
0
LINE
8
BLACK
10
232.392
20
-133.894
11
232.392
21
-133.604
0
LINE
8
BLACK
10
232.392
20
-133.604
11
232.319
21
-133.459
0
LINE
8
BLACK
10
232.319
20
-133.459
11
232.247
21
-133.386
0
LINE
8
BLACK
10
232.247
20
-133.386
11
232.102
21
-133.314
0
LINE
8
BLACK
10
232.102
20
-133.314
11
231.811
21
-133.314
0
LINE
8
BLACK
10
231.811
20
-133.314
11
231.666
21
-133.386
0
LINE
8
BLACK
10
231.666
20
-133.386
11
231.594
21
-133.459
0
LINE
8
BLACK
10
231.594
20
-133.459
11
231.521
21
-133.604
0
LINE
8
BLACK
10
231.811
20
-132.661
11
231.811
21
-131.499
0
LINE
8
BLACK
10
230.868
20
-130.121
11
230.868
21
-130.411
0
LINE
8
BLACK
10
230.868
20
-130.411
11
230.94
21
-130.556
0
LINE
8
BLACK
10
230.94
20
-130.556
11
231.013
21
-130.629
0
LINE
8
BLACK
10
231.013
20
-130.629
11
231.231
21
-130.774
0
LINE
8
BLACK
10
231.231
20
-130.774
11
231.521
21
-130.846
0
LINE
8
BLACK
10
231.521
20
-130.846
11
232.102
21
-130.846
0
LINE
8
BLACK
10
232.102
20
-130.846
11
232.247
21
-130.774
0
LINE
8
BLACK
10
232.247
20
-130.774
11
232.319
21
-130.701
0
LINE
8
BLACK
10
232.319
20
-130.701
11
232.392
21
-130.556
0
LINE
8
BLACK
10
232.392
20
-130.556
11
232.392
21
-130.266
0
LINE
8
BLACK
10
232.392
20
-130.266
11
232.319
21
-130.121
0
LINE
8
BLACK
10
232.319
20
-130.121
11
232.247
21
-130.048
0
LINE
8
BLACK
10
232.247
20
-130.048
11
232.102
21
-129.975
0
LINE
8
BLACK
10
232.102
20
-129.975
11
231.739
21
-129.975
0
LINE
8
BLACK
10
231.739
20
-129.975
11
231.594
21
-130.048
0
LINE
8
BLACK
10
231.594
20
-130.048
11
231.521
21
-130.121
0
LINE
8
BLACK
10
231.521
20
-130.121
11
231.448
21
-130.266
0
LINE
8
BLACK
10
231.448
20
-130.266
11
231.448
21
-130.556
0
LINE
8
BLACK
10
231.448
20
-130.556
11
231.521
21
-130.701
0
LINE
8
BLACK
10
231.521
20
-130.701
11
231.594
21
-130.774
0
LINE
8
BLACK
10
231.594
20
-130.774
11
231.739
21
-130.846
0
LINE
8
BLACK
10
230.868
20
-128.669
11
230.868
21
-128.959
0
LINE
8
BLACK
10
230.868
20
-128.959
11
230.94
21
-129.105
0
LINE
8
BLACK
10
230.94
20
-129.105
11
231.013
21
-129.177
0
LINE
8
BLACK
10
231.013
20
-129.177
11
231.231
21
-129.322
0
LINE
8
BLACK
10
231.231
20
-129.322
11
231.521
21
-129.395
0
LINE
8
BLACK
10
231.521
20
-129.395
11
232.102
21
-129.395
0
LINE
8
BLACK
10
232.102
20
-129.395
11
232.247
21
-129.322
0
LINE
8
BLACK
10
232.247
20
-129.322
11
232.319
21
-129.25
0
LINE
8
BLACK
10
232.319
20
-129.25
11
232.392
21
-129.105
0
LINE
8
BLACK
10
232.392
20
-129.105
11
232.392
21
-128.814
0
LINE
8
BLACK
10
232.392
20
-128.814
11
232.319
21
-128.669
0
LINE
8
BLACK
10
232.319
20
-128.669
11
232.247
21
-128.597
0
LINE
8
BLACK
10
232.247
20
-128.597
11
232.102
21
-128.524
0
LINE
8
BLACK
10
232.102
20
-128.524
11
231.739
21
-128.524
0
LINE
8
BLACK
10
231.739
20
-128.524
11
231.594
21
-128.597
0
LINE
8
BLACK
10
231.594
20
-128.597
11
231.521
21
-128.669
0
LINE
8
BLACK
10
231.521
20
-128.669
11
231.448
21
-128.814
0
LINE
8
BLACK
10
231.448
20
-128.814
11
231.448
21
-129.105
0
LINE
8
BLACK
10
231.448
20
-129.105
11
231.521
21
-129.25
0
LINE
8
BLACK
10
231.521
20
-129.25
11
231.594
21
-129.322
0
LINE
8
BLACK
10
231.594
20
-129.322
11
231.739
21
-129.395
0
LINE
8
BLACK
10
230.868
20
-127.145
11
230.868
21
-127.871
0
LINE
8
BLACK
10
230.868
20
-127.871
11
231.594
21
-127.943
0
LINE
8
BLACK
10
231.594
20
-127.943
11
231.521
21
-127.871
0
LINE
8
BLACK
10
231.521
20
-127.871
11
231.448
21
-127.726
0
LINE
8
BLACK
10
231.448
20
-127.726
11
231.448
21
-127.363
0
LINE
8
BLACK
10
231.448
20
-127.363
11
231.521
21
-127.218
0
LINE
8
BLACK
10
231.521
20
-127.218
11
231.594
21
-127.145
0
LINE
8
BLACK
10
231.594
20
-127.145
11
231.739
21
-127.073
0
LINE
8
BLACK
10
231.739
20
-127.073
11
232.102
21
-127.073
0
LINE
8
BLACK
10
232.102
20
-127.073
11
232.247
21
-127.145
0
LINE
8
BLACK
10
232.247
20
-127.145
11
232.319
21
-127.218
0
LINE
8
BLACK
10
232.319
20
-127.218
11
232.392
21
-127.363
0
LINE
8
BLACK
10
232.392
20
-127.363
11
232.392
21
-127.726
0
LINE
8
BLACK
10
232.392
20
-127.726
11
232.319
21
-127.871
0
LINE
8
BLACK
10
232.319
20
-127.871
11
232.247
21
-127.943
0
LINE
8
BLACK
10
230.868
20
-126.129
11
230.868
21
-125.984
0
LINE
8
BLACK
10
230.868
20
-125.984
11
230.94
21
-125.839
0
LINE
8
BLACK
10
230.94
20
-125.839
11
231.013
21
-125.766
0
LINE
8
BLACK
10
231.013
20
-125.766
11
231.158
21
-125.694
0
LINE
8
BLACK
10
231.158
20
-125.694
11
231.448
21
-125.621
0
LINE
8
BLACK
10
231.448
20
-125.621
11
231.811
21
-125.621
0
LINE
8
BLACK
10
231.811
20
-125.621
11
232.102
21
-125.694
0
LINE
8
BLACK
10
232.102
20
-125.694
11
232.247
21
-125.766
0
LINE
8
BLACK
10
232.247
20
-125.766
11
232.319
21
-125.839
0
LINE
8
BLACK
10
232.319
20
-125.839
11
232.392
21
-125.984
0
LINE
8
BLACK
10
232.392
20
-125.984
11
232.392
21
-126.129
0
LINE
8
BLACK
10
232.392
20
-126.129
11
232.319
21
-126.274
0
LINE
8
BLACK
10
232.319
20
-126.274
11
232.247
21
-126.347
0
LINE
8
BLACK
10
232.247
20
-126.347
11
232.102
21
-126.419
0
LINE
8
BLACK
10
232.102
20
-126.419
11
231.811
21
-126.492
0
LINE
8
BLACK
10
231.811
20
-126.492
11
231.448
21
-126.492
0
LINE
8
BLACK
10
231.448
20
-126.492
11
231.158
21
-126.419
0
LINE
8
BLACK
10
231.158
20
-126.419
11
231.013
21
-126.347
0
LINE
8
BLACK
10
231.013
20
-126.347
11
230.94
21
-126.274
0
LINE
8
BLACK
10
230.94
20
-126.274
11
230.868
21
-126.129
0
LINE
8
BLACK
10
232.392
20
-124.895
11
232.392
21
-124.605
0
LINE
8
BLACK
10
232.392
20
-124.605
11
232.319
21
-124.46
0
LINE
8
BLACK
10
232.319
20
-124.46
11
232.247
21
-124.387
0
LINE
8
BLACK
10
232.247
20
-124.387
11
232.029
21
-124.242
0
LINE
8
BLACK
10
232.029
20
-124.242
11
231.739
21
-124.17
0
LINE
8
BLACK
10
231.739
20
-124.17
11
231.158
21
-124.17
0
LINE
8
BLACK
10
231.158
20
-124.17
11
231.013
21
-124.242
0
LINE
8
BLACK
10
231.013
20
-124.242
11
230.94
21
-124.315
0
LINE
8
BLACK
10
230.94
20
-124.315
11
230.868
21
-124.46
0
LINE
8
BLACK
10
230.868
20
-124.46
11
230.868
21
-124.75
0
LINE
8
BLACK
10
230.868
20
-124.75
11
230.94
21
-124.895
0
LINE
8
BLACK
10
230.94
20
-124.895
11
231.013
21
-124.968
0
LINE
8
BLACK
10
231.013
20
-124.968
11
231.158
21
-125.041
0
LINE
8
BLACK
10
231.158
20
-125.041
11
231.521
21
-125.041
0
LINE
8
BLACK
10
231.521
20
-125.041
11
231.666
21
-124.968
0
LINE
8
BLACK
10
231.666
20
-124.968
11
231.739
21
-124.895
0
LINE
8
BLACK
10
231.739
20
-124.895
11
231.811
21
-124.75
0
LINE
8
BLACK
10
231.811
20
-124.75
11
231.811
21
-124.46
0
LINE
8
BLACK
10
231.811
20
-124.46
11
231.739
21
-124.315
0
LINE
8
BLACK
10
231.739
20
-124.315
11
231.666
21
-124.242
0
LINE
8
BLACK
10
231.666
20
-124.242
11
231.521
21
-124.17
0
LINE
8
BLACK
10
199.68
20
-125.506
11
199.1
21
-125.506
0
LINE
8
BLACK
10
199.39
20
-125.506
11
199.39
21
-124.49
0
LINE
8
BLACK
10
199.39
20
-124.49
11
199.293
21
-124.635
0
LINE
8
BLACK
10
199.293
20
-124.635
11
199.196
21
-124.732
0
LINE
8
BLACK
10
199.196
20
-124.732
11
199.1
21
-124.781
0
LINE
8
BLACK
10
212.284
20
-159.119
11
212.284
21
-159.796
0
LINE
8
BLACK
10
212.042
20
-158.732
11
211.8
21
-159.458
0
LINE
8
BLACK
10
211.8
20
-159.458
11
212.429
21
-159.458
0
LINE
8
BLACK
10
209.211
20
-158.78
11
209.84
21
-158.78
0
LINE
8
BLACK
10
209.84
20
-158.78
11
209.502
21
-159.167
0
LINE
8
BLACK
10
209.502
20
-159.167
11
209.647
21
-159.167
0
LINE
8
BLACK
10
209.647
20
-159.167
11
209.744
21
-159.216
0
LINE
8
BLACK
10
209.744
20
-159.216
11
209.792
21
-159.264
0
LINE
8
BLACK
10
209.792
20
-159.264
11
209.84
21
-159.361
0
LINE
8
BLACK
10
209.84
20
-159.361
11
209.84
21
-159.603
0
LINE
8
BLACK
10
209.84
20
-159.603
11
209.792
21
-159.699
0
LINE
8
BLACK
10
209.792
20
-159.699
11
209.744
21
-159.748
0
LINE
8
BLACK
10
209.744
20
-159.748
11
209.647
21
-159.796
0
LINE
8
BLACK
10
209.647
20
-159.796
11
209.356
21
-159.796
0
LINE
8
BLACK
10
209.356
20
-159.796
11
209.26
21
-159.748
0
LINE
8
BLACK
10
209.26
20
-159.748
11
209.211
21
-159.699
0
LINE
8
BLACK
10
206.72
20
-158.877
11
206.768
21
-158.829
0
LINE
8
BLACK
10
206.768
20
-158.829
11
206.865
21
-158.78
0
LINE
8
BLACK
10
206.865
20
-158.78
11
207.107
21
-158.78
0
LINE
8
BLACK
10
207.107
20
-158.78
11
207.204
21
-158.829
0
LINE
8
BLACK
10
207.204
20
-158.829
11
207.252
21
-158.877
0
LINE
8
BLACK
10
207.252
20
-158.877
11
207.3
21
-158.974
0
LINE
8
BLACK
10
207.3
20
-158.974
11
207.3
21
-159.071
0
LINE
8
BLACK
10
207.3
20
-159.071
11
207.252
21
-159.216
0
LINE
8
BLACK
10
207.252
20
-159.216
11
206.671
21
-159.796
0
LINE
8
BLACK
10
206.671
20
-159.796
11
207.3
21
-159.796
0
LINE
8
BLACK
10
202.22
20
-159.796
11
201.64
21
-159.796
0
LINE
8
BLACK
10
201.93
20
-159.796
11
201.93
21
-158.78
0
LINE
8
BLACK
10
201.93
20
-158.78
11
201.833
21
-158.925
0
LINE
8
BLACK
10
201.833
20
-158.925
11
201.736
21
-159.022
0
LINE
8
BLACK
10
201.736
20
-159.022
11
201.64
21
-159.071
0
CIRCLE
8
BLACK
10
224.155
20
-150.495
40
4.699
0
LINE
8
BLACK
10
227.567
20
-154.626
11
227.118
21
-154.177
0
LINE
8
BLACK
10
227.388
20
-154.806
11
226.939
21
-154.357
0
ARC
8
BLACK
10
227.029
20
-154.267
40
0.127
50
405
51
585
0
ARC
8
BLACK
10
227.478
20
-154.716
40
0.127
50
225
51
405
0
LINE
8
BLACK
10
228.465
20
-153.728
11
228.017
21
-153.279
0
LINE
8
BLACK
10
228.285
20
-153.908
11
227.837
21
-153.458
0
ARC
8
BLACK
10
227.927
20
-153.368
40
0.127
50
404.9
51
584.9
0
ARC
8
BLACK
10
228.375
20
-153.818
40
0.127
50
224.9
51
404.9
0
LINE
8
BLACK
10
228.286
20
-153.728
11
227.388
21
-154.626
0
LINE
8
BLACK
10
228.466
20
-153.907
11
227.567
21
-154.806
0
ARC
8
BLACK
10
227.478
20
-154.716
40
0.127
50
135
51
315
0
ARC
8
BLACK
10
228.376
20
-153.818
40
0.127
50
-45
51
135
0
LINE
8
BLACK
10
218.567
20
-127
11
218.567
21
-126.365
0
LINE
8
BLACK
10
218.313
20
-127
11
218.313
21
-126.365
0
ARC
8
BLACK
10
218.44
20
-126.365
40
0.127
50
360
51
540
0
ARC
8
BLACK
10
218.44
20
-127
40
0.127
50
180
51
360
0
LINE
8
BLACK
10
218.44
20
-126.492
11
228.6
21
-126.492
0
LINE
8
BLACK
10
218.44
20
-126.238
11
228.6
21
-126.238
0
ARC
8
BLACK
10
228.6
20
-126.365
40
0.127
50
270
51
450
0
ARC
8
BLACK
10
218.44
20
-126.365
40
0.127
50
90
51
270
0
LINE
8
BLACK
10
228.727
20
-127
11
228.727
21
-126.365
0
LINE
8
BLACK
10
228.473
20
-127
11
228.473
21
-126.365
0
ARC
8
BLACK
10
228.6
20
-126.365
40
0.127
50
360
51
540
0
ARC
8
BLACK
10
228.6
20
-127
40
0.127
50
180
51
360
0
LINE
8
BLACK
10
218.567
20
-130.81
11
218.567
21
-127
0
LINE
8
BLACK
10
218.313
20
-130.81
11
218.313
21
-127
0
ARC
8
BLACK
10
218.44
20
-127
40
0.127
50
360
51
540
0
ARC
8
BLACK
10
218.44
20
-130.81
40
0.127
50
180
51
360
0
LINE
8
BLACK
10
218.44
20
-127.127
11
228.6
21
-127.127
0
LINE
8
BLACK
10
218.44
20
-126.873
11
228.6
21
-126.873
0
ARC
8
BLACK
10
228.6
20
-127
40
0.127
50
270
51
450
0
ARC
8
BLACK
10
218.44
20
-127
40
0.127
50
90
51
270
0
LINE
8
BLACK
10
228.727
20
-130.81
11
228.727
21
-127
0
LINE
8
BLACK
10
228.473
20
-130.81
11
228.473
21
-127
0
ARC
8
BLACK
10
228.6
20
-127
40
0.127
50
360
51
540
0
ARC
8
BLACK
10
228.6
20
-130.81
40
0.127
50
180
51
360
0
LINE
8
BLACK
10
218.44
20
-130.937
11
228.6
21
-130.937
0
LINE
8
BLACK
10
218.44
20
-130.683
11
228.6
21
-130.683
0
ARC
8
BLACK
10
228.6
20
-130.81
40
0.127
50
270
51
450
0
ARC
8
BLACK
10
218.44
20
-130.81
40
0.127
50
90
51
270
0
LINE
8
BLACK
10
189.23
20
-137.414
11
189.23
21
-130.556
0
LINE
8
BLACK
10
188.976
20
-137.414
11
188.976
21
-130.556
0
ARC
8
BLACK
10
189.103
20
-130.556
40
0.127
50
360
51
540
0
ARC
8
BLACK
10
189.103
20
-137.414
40
0.127
50
180
51
360
0
LINE
8
BLACK
10
193.294
20
-137.414
11
193.294
21
-130.556
0
LINE
8
BLACK
10
193.04
20
-137.414
11
193.04
21
-130.556
0
ARC
8
BLACK
10
193.167
20
-130.556
40
0.127
50
360
51
540
0
ARC
8
BLACK
10
193.167
20
-137.414
40
0.127
50
180
51
360
0
ARC
8
BLACK
10
191.135
20
-130.556
40
2.032
50
0
51
90
0
ARC
8
BLACK
10
191.135
20
-130.556
40
2.032
50
90
51
180
0
ARC
8
BLACK
10
191.135
20
-137.414
40
2.032
50
-90
51
0
0
ARC
8
BLACK
10
191.135
20
-137.414
40
2.032
50
-180
51
-90
0
LINE
8
BLACK
10
192.532
20
-137.795
11
192.532
21
-130.175
0
LINE
8
BLACK
10
192.278
20
-137.795
11
192.278
21
-130.175
0
ARC
8
BLACK
10
192.405
20
-130.175
40
0.127
50
360
51
540
0
ARC
8
BLACK
10
192.405
20
-137.795
40
0.127
50
180
51
360
0
LINE
8
BLACK
10
189.865
20
-137.922
11
192.405
21
-137.922
0
LINE
8
BLACK
10
189.865
20
-137.668
11
192.405
21
-137.668
0
ARC
8
BLACK
10
192.405
20
-137.795
40
0.127
50
270
51
450
0
ARC
8
BLACK
10
189.865
20
-137.795
40
0.127
50
90
51
270
0
LINE
8
BLACK
10
189.992
20
-137.795
11
189.992
21
-130.175
0
LINE
8
BLACK
10
189.738
20
-137.795
11
189.738
21
-130.175
0
ARC
8
BLACK
10
189.865
20
-130.175
40
0.127
50
360
51
540
0
ARC
8
BLACK
10
189.865
20
-137.795
40
0.127
50
180
51
360
0
LINE
8
BLACK
10
189.865
20
-130.302
11
192.405
21
-130.302
0
LINE
8
BLACK
10
189.865
20
-130.048
11
192.405
21
-130.048
0
ARC
8
BLACK
10
192.405
20
-130.175
40
0.127
50
270
51
450
0
ARC
8
BLACK
10
189.865
20
-130.175
40
0.127
50
90
51
270
0
LINE
8
BLACK
10
184.785
20
-137.414
11
184.785
21
-130.556
0
LINE
8
BLACK
10
184.531
20
-137.414
11
184.531
21
-130.556
0
ARC
8
BLACK
10
184.658
20
-130.556
40
0.127
50
360
51
540
0
ARC
8
BLACK
10
184.658
20
-137.414
40
0.127
50
180
51
360
0
LINE
8
BLACK
10
188.849
20
-137.414
11
188.849
21
-130.556
0
LINE
8
BLACK
10
188.595
20
-137.414
11
188.595
21
-130.556
0
ARC
8
BLACK
10
188.722
20
-130.556
40
0.127
50
360
51
540
0
ARC
8
BLACK
10
188.722
20
-137.414
40
0.127
50
180
51
360
0
ARC
8
BLACK
10
186.69
20
-130.556
40
2.032
50
0
51
90
0
ARC
8
BLACK
10
186.69
20
-130.556
40
2.032
50
90
51
180
0
ARC
8
BLACK
10
186.69
20
-137.414
40
2.032
50
-90
51
0
0
ARC
8
BLACK
10
186.69
20
-137.414
40
2.032
50
-180
51
-90
0
LINE
8
BLACK
10
188.087
20
-137.795
11
188.087
21
-130.175
0
LINE
8
BLACK
10
187.833
20
-137.795
11
187.833
21
-130.175
0
ARC
8
BLACK
10
187.96
20
-130.175
40
0.127
50
360
51
540
0
ARC
8
BLACK
10
187.96
20
-137.795
40
0.127
50
180
51
360
0
LINE
8
BLACK
10
185.42
20
-137.922
11
187.96
21
-137.922
0
LINE
8
BLACK
10
185.42
20
-137.668
11
187.96
21
-137.668
0
ARC
8
BLACK
10
187.96
20
-137.795
40
0.127
50
270
51
450
0
ARC
8
BLACK
10
185.42
20
-137.795
40
0.127
50
90
51
270
0
LINE
8
BLACK
10
185.547
20
-137.795
11
185.547
21
-130.175
0
LINE
8
BLACK
10
185.293
20
-137.795
11
185.293
21
-130.175
0
ARC
8
BLACK
10
185.42
20
-130.175
40
0.127
50
360
51
540
0
ARC
8
BLACK
10
185.42
20
-137.795
40
0.127
50
180
51
360
0
LINE
8
BLACK
10
185.42
20
-130.302
11
187.96
21
-130.302
0
LINE
8
BLACK
10
185.42
20
-130.048
11
187.96
21
-130.048
0
ARC
8
BLACK
10
187.96
20
-130.175
40
0.127
50
270
51
450
0
ARC
8
BLACK
10
185.42
20
-130.175
40
0.127
50
90
51
270
0
LINE
8
BLACK
10
188.849
20
-155.194
11
188.849
21
-148.336
0
LINE
8
BLACK
10
188.595
20
-155.194
11
188.595
21
-148.336
0
ARC
8
BLACK
10
188.722
20
-148.336
40
0.127
50
360
51
540
0
ARC
8
BLACK
10
188.722
20
-155.194
40
0.127
50
180
51
360
0
LINE
8
BLACK
10
184.785
20
-155.194
11
184.785
21
-148.336
0
LINE
8
BLACK
10
184.531
20
-155.194
11
184.531
21
-148.336
0
ARC
8
BLACK
10
184.658
20
-148.336
40
0.127
50
360
51
540
0
ARC
8
BLACK
10
184.658
20
-155.194
40
0.127
50
180
51
360
0
ARC
8
BLACK
10
186.69
20
-155.194
40
2.032
50
-180
51
-90
0
ARC
8
BLACK
10
186.69
20
-155.194
40
2.032
50
-90
51
0
0
ARC
8
BLACK
10
186.69
20
-148.336
40
2.032
50
90
51
180
0
ARC
8
BLACK
10
186.69
20
-148.336
40
2.032
50
0
51
90
0
LINE
8
BLACK
10
185.547
20
-155.575
11
185.547
21
-147.955
0
LINE
8
BLACK
10
185.293
20
-155.575
11
185.293
21
-147.955
0
ARC
8
BLACK
10
185.42
20
-147.955
40
0.127
50
360
51
540
0
ARC
8
BLACK
10
185.42
20
-155.575
40
0.127
50
180
51
360
0
LINE
8
BLACK
10
185.42
20
-148.082
11
187.96
21
-148.082
0
LINE
8
BLACK
10
185.42
20
-147.828
11
187.96
21
-147.828
0
ARC
8
BLACK
10
187.96
20
-147.955
40
0.127
50
270
51
450
0
ARC
8
BLACK
10
185.42
20
-147.955
40
0.127
50
90
51
270
0
LINE
8
BLACK
10
188.087
20
-155.575
11
188.087
21
-147.955
0
LINE
8
BLACK
10
187.833
20
-155.575
11
187.833
21
-147.955
0
ARC
8
BLACK
10
187.96
20
-147.955
40
0.127
50
360
51
540
0
ARC
8
BLACK
10
187.96
20
-155.575
40
0.127
50
180
51
360
0
LINE
8
BLACK
10
185.42
20
-155.702
11
187.96
21
-155.702
0
LINE
8
BLACK
10
185.42
20
-155.448
11
187.96
21
-155.448
0
ARC
8
BLACK
10
187.96
20
-155.575
40
0.127
50
270
51
450
0
ARC
8
BLACK
10
185.42
20
-155.575
40
0.127
50
90
51
270
0
ARC
8
BLACK
10
201.93
20
-135.128
40
0.762
50
0
51
90
0
ARC
8
BLACK
10
201.93
20
-135.128
40
0.762
50
-90
51
0
0
LINE
8
BLACK
10
201.93
20
-132.715
11
212.09
21
-132.715
0
LINE
8
BLACK
10
201.93
20
-132.461
11
212.09
21
-132.461
0
ARC
8
BLACK
10
212.09
20
-132.588
40
0.127
50
270
51
450
0
ARC
8
BLACK
10
201.93
20
-132.588
40
0.127
50
90
51
270
0
LINE
8
BLACK
10
212.217
20
-137.668
11
212.217
21
-132.588
0
LINE
8
BLACK
10
211.963
20
-137.668
11
211.963
21
-132.588
0
ARC
8
BLACK
10
212.09
20
-132.588
40
0.127
50
360
51
540
0
ARC
8
BLACK
10
212.09
20
-137.668
40
0.127
50
180
51
360
0
LINE
8
BLACK
10
201.93
20
-137.795
11
212.09
21
-137.795
0
LINE
8
BLACK
10
201.93
20
-137.541
11
212.09
21
-137.541
0
ARC
8
BLACK
10
212.09
20
-137.668
40
0.127
50
270
51
450
0
ARC
8
BLACK
10
201.93
20
-137.668
40
0.127
50
90
51
270
0
LINE
8
BLACK
10
202.057
20
-137.668
11
202.057
21
-132.588
0
LINE
8
BLACK
10
201.803
20
-137.668
11
201.803
21
-132.588
0
ARC
8
BLACK
10
201.93
20
-132.588
40
0.127
50
360
51
540
0
ARC
8
BLACK
10
201.93
20
-137.668
40
0.127
50
180
51
360
0
LINE
8
BLACK
10
200.66
20
-149.987
11
213.36
21
-149.987
0
LINE
8
BLACK
10
200.66
20
-149.733
11
213.36
21
-149.733
0
ARC
8
BLACK
10
213.36
20
-149.86
40
0.127
50
270
51
450
0
ARC
8
BLACK
10
200.66
20
-149.86
40
0.127
50
90
51
270
0
LINE
8
BLACK
10
213.487
20
-157.48
11
213.487
21
-149.86
0
LINE
8
BLACK
10
213.233
20
-157.48
11
213.233
21
-149.86
0
ARC
8
BLACK
10
213.36
20
-149.86
40
0.127
50
360
51
540
0
ARC
8
BLACK
10
213.36
20
-157.48
40
0.127
50
180
51
360
0
LINE
8
BLACK
10
200.66
20
-157.607
11
213.36
21
-157.607
0
LINE
8
BLACK
10
200.66
20
-157.353
11
213.36
21
-157.353
0
ARC
8
BLACK
10
213.36
20
-157.48
40
0.127
50
270
51
450
0
ARC
8
BLACK
10
200.66
20
-157.48
40
0.127
50
90
51
270
0
LINE
8
BLACK
10
200.787
20
-157.48
11
200.787
21
-149.86
0
LINE
8
BLACK
10
200.533
20
-157.48
11
200.533
21
-149.86
0
ARC
8
BLACK
10
200.66
20
-149.86
40
0.127
50
360
51
540
0
ARC
8
BLACK
10
200.66
20
-157.48
40
0.127
50
180
51
360
0
LINE
8
BLACK
10
200.66
20
-130.302
11
213.36
21
-130.302
0
LINE
8
BLACK
10
200.66
20
-130.048
11
213.36
21
-130.048
0
ARC
8
BLACK
10
213.36
20
-130.175
40
0.127
50
270
51
450
0
ARC
8
BLACK
10
200.66
20
-130.175
40
0.127
50
90
51
270
0
LINE
8
BLACK
10
200.787
20
-130.175
11
200.787
21
-122.555
0
LINE
8
BLACK
10
200.533
20
-130.175
11
200.533
21
-122.555
0
ARC
8
BLACK
10
200.66
20
-122.555
40
0.127
50
360
51
540
0
ARC
8
BLACK
10
200.66
20
-130.175
40
0.127
50
180
51
360
0
LINE
8
BLACK
10
200.66
20
-122.682
11
213.36
21
-122.682
0
LINE
8
BLACK
10
200.66
20
-122.428
11
213.36
21
-122.428
0
ARC
8
BLACK
10
213.36
20
-122.555
40
0.127
50
270
51
450
0
ARC
8
BLACK
10
200.66
20
-122.555
40
0.127
50
90
51
270
0
LINE
8
BLACK
10
213.487
20
-130.175
11
213.487
21
-122.555
0
LINE
8
BLACK
10
213.233
20
-130.175
11
213.233
21
-122.555
0
ARC
8
BLACK
10
213.36
20
-122.555
40
0.127
50
360
51
540
0
ARC
8
BLACK
10
213.36
20
-130.175
40
0.127
50
180
51
360
0
LINE
8
BLACK
10
218.44
20
-122.047
11
219.71
21
-122.047
0
LINE
8
BLACK
10
218.44
20
-121.793
11
219.71
21
-121.793
0
ARC
8
BLACK
10
219.71
20
-121.92
40
0.127
50
270
51
450
0
ARC
8
BLACK
10
218.44
20
-121.92
40
0.127
50
90
51
270
0
LINE
8
BLACK
10
227.33
20
-122.047
11
228.6
21
-122.047
0
LINE
8
BLACK
10
227.33
20
-121.793
11
228.6
21
-121.793
0
ARC
8
BLACK
10
228.6
20
-121.92
40
0.127
50
270
51
450
0
ARC
8
BLACK
10
227.33
20
-121.92
40
0.127
50
90
51
270
0
LINE
8
BLACK
10
226.314
20
-122.047
11
227.33
21
-122.047
0
LINE
8
BLACK
10
226.314
20
-121.793
11
227.33
21
-121.793
0
ARC
8
BLACK
10
227.33
20
-121.92
40
0.127
50
270
51
450
0
ARC
8
BLACK
10
226.314
20
-121.92
40
0.127
50
90
51
270
0
LINE
8
BLACK
10
219.71
20
-122.047
11
220.726
21
-122.047
0
LINE
8
BLACK
10
219.71
20
-121.793
11
220.726
21
-121.793
0
ARC
8
BLACK
10
220.726
20
-121.92
40
0.127
50
270
51
450
0
ARC
8
BLACK
10
219.71
20
-121.92
40
0.127
50
90
51
270
0
LINE
8
BLACK
10
220.726
20
-121.031
11
226.314
21
-121.031
0
LINE
8
BLACK
10
220.726
20
-120.777
11
226.314
21
-120.777
0
ARC
8
BLACK
10
226.314
20
-120.904
40
0.127
50
270
51
450
0
ARC
8
BLACK
10
220.726
20
-120.904
40
0.127
50
90
51
270
0
LINE
8
BLACK
10
220.726
20
-123.063
11
226.314
21
-123.063
0
LINE
8
BLACK
10
220.726
20
-122.809
11
226.314
21
-122.809
0
ARC
8
BLACK
10
226.314
20
-122.936
40
0.127
50
270
51
450
0
ARC
8
BLACK
10
220.726
20
-122.936
40
0.127
50
90
51
270
0
LINE
8
BLACK
10
221.488
20
-122.936
11
221.488
21
-120.904
0
LINE
8
BLACK
10
221.234
20
-122.936
11
221.234
21
-120.904
0
ARC
8
BLACK
10
221.361
20
-120.904
40
0.127
50
360
51
540
0
ARC
8
BLACK
10
221.361
20
-122.936
40
0.127
50
180
51
360
0
LINE
8
BLACK
10
220.853
20
-122.936
11
220.853
21
-121.92
0
LINE
8
BLACK
10
220.599
20
-122.936
11
220.599
21
-121.92
0
ARC
8
BLACK
10
220.726
20
-121.92
40
0.127
50
360
51
540
0
ARC
8
BLACK
10
220.726
20
-122.936
40
0.127
50
180
51
360
0
LINE
8
BLACK
10
226.441
20
-122.936
11
226.441
21
-121.92
0
LINE
8
BLACK
10
226.187
20
-122.936
11
226.187
21
-121.92
0
ARC
8
BLACK
10
226.314
20
-121.92
40
0.127
50
360
51
540
0
ARC
8
BLACK
10
226.314
20
-122.936
40
0.127
50
180
51
360
0
LINE
8
BLACK
10
226.441
20
-121.92
11
226.441
21
-120.904
0
LINE
8
BLACK
10
226.187
20
-121.92
11
226.187
21
-120.904
0
ARC
8
BLACK
10
226.314
20
-120.904
40
0.127
50
360
51
540
0
ARC
8
BLACK
10
226.314
20
-121.92
40
0.127
50
180
51
360
0
LINE
8
BLACK
10
220.853
20
-121.92
11
220.853
21
-120.904
0
LINE
8
BLACK
10
220.599
20
-121.92
11
220.599
21
-120.904
0
ARC
8
BLACK
10
220.726
20
-120.904
40
0.127
50
360
51
540
0
ARC
8
BLACK
10
220.726
20
-121.92
40
0.127
50
180
51
360
0
LINE
8
BLACK
10
226.695
20
-124.587
11
228.6
21
-124.587
0
LINE
8
BLACK
10
226.695
20
-124.333
11
228.6
21
-124.333
0
ARC
8
BLACK
10
228.6
20
-124.46
40
0.127
50
270
51
450
0
ARC
8
BLACK
10
226.695
20
-124.46
40
0.127
50
90
51
270
0
LINE
8
BLACK
10
218.44
20
-124.587
11
220.345
21
-124.587
0
LINE
8
BLACK
10
218.44
20
-124.333
11
220.345
21
-124.333
0
ARC
8
BLACK
10
220.345
20
-124.46
40
0.127
50
270
51
450
0
ARC
8
BLACK
10
218.44
20
-124.46
40
0.127
50
90
51
270
0
LINE
8
BLACK
10
221.107
20
-125.476
11
221.107
21
-123.444
0
LINE
8
BLACK
10
220.853
20
-125.476
11
220.853
21
-123.444
0
ARC
8
BLACK
10
220.98
20
-123.444
40
0.127
50
360
51
540
0
ARC
8
BLACK
10
220.98
20
-125.476
40
0.127
50
180
51
360
0
LINE
8
BLACK
10
220.345
20
-123.571
11
226.695
21
-123.571
0
LINE
8
BLACK
10
220.345
20
-123.317
11
226.695
21
-123.317
0
ARC
8
BLACK
10
226.695
20
-123.444
40
0.127
50
270
51
450
0
ARC
8
BLACK
10
220.345
20
-123.444
40
0.127
50
90
51
270
0
LINE
8
BLACK
10
226.822
20
-125.476
11
226.822
21
-123.444
0
LINE
8
BLACK
10
226.568
20
-125.476
11
226.568
21
-123.444
0
ARC
8
BLACK
10
226.695
20
-123.444
40
0.127
50
360
51
540
0
ARC
8
BLACK
10
226.695
20
-125.476
40
0.127
50
180
51
360
0
LINE
8
BLACK
10
220.472
20
-125.476
11
220.472
21
-123.444
0
LINE
8
BLACK
10
220.218
20
-125.476
11
220.218
21
-123.444
0
ARC
8
BLACK
10
220.345
20
-123.444
40
0.127
50
360
51
540
0
ARC
8
BLACK
10
220.345
20
-125.476
40
0.127
50
180
51
360
0
LINE
8
BLACK
10
220.345
20
-125.603
11
226.695
21
-125.603
0
LINE
8
BLACK
10
220.345
20
-125.349
11
226.695
21
-125.349
0
ARC
8
BLACK
10
226.695
20
-125.476
40
0.127
50
270
51
450
0
ARC
8
BLACK
10
220.345
20
-125.476
40
0.127
50
90
51
270
0
LINE
8
BLACK
10
215.9
20
-132.842
11
217.17
21
-132.842
0
LINE
8
BLACK
10
215.9
20
-132.588
11
217.17
21
-132.588
0
ARC
8
BLACK
10
217.17
20
-132.715
40
0.127
50
270
51
450
0
ARC
8
BLACK
10
215.9
20
-132.715
40
0.127
50
90
51
270
0
LINE
8
BLACK
10
227.33
20
-132.842
11
228.6
21
-132.842
0
LINE
8
BLACK
10
227.33
20
-132.588
11
228.6
21
-132.588
0
ARC
8
BLACK
10
228.6
20
-132.715
40
0.127
50
270
51
450
0
ARC
8
BLACK
10
227.33
20
-132.715
40
0.127
50
90
51
270
0
LINE
8
BLACK
10
217.17
20
-132.842
11
218.186
21
-132.842
0
LINE
8
BLACK
10
217.17
20
-132.588
11
218.186
21
-132.588
0
ARC
8
BLACK
10
218.186
20
-132.715
40
0.127
50
270
51
450
0
ARC
8
BLACK
10
217.17
20
-132.715
40
0.127
50
90
51
270
0
LINE
8
BLACK
10
218.313
20
-132.715
11
218.313
21
-131.699
0
LINE
8
BLACK
10
218.059
20
-132.715
11
218.059
21
-131.699
0
ARC
8
BLACK
10
218.186
20
-131.699
40
0.127
50
360
51
540
0
ARC
8
BLACK
10
218.186
20
-132.715
40
0.127
50
180
51
360
0
LINE
8
BLACK
10
218.186
20
-131.826
11
226.314
21
-131.826
0
LINE
8
BLACK
10
218.186
20
-131.572
11
226.314
21
-131.572
0
ARC
8
BLACK
10
226.314
20
-131.699
40
0.127
50
270
51
450
0
ARC
8
BLACK
10
218.186
20
-131.699
40
0.127
50
90
51
270
0
LINE
8
BLACK
10
226.441
20
-133.731
11
226.441
21
-131.699
0
LINE
8
BLACK
10
226.187
20
-133.731
11
226.187
21
-131.699
0
ARC
8
BLACK
10
226.314
20
-131.699
40
0.127
50
360
51
540
0
ARC
8
BLACK
10
226.314
20
-133.731
40
0.127
50
180
51
360
0
LINE
8
BLACK
10
218.186
20
-133.858
11
226.314
21
-133.858
0
LINE
8
BLACK
10
218.186
20
-133.604
11
226.314
21
-133.604
0
ARC
8
BLACK
10
226.314
20
-133.731
40
0.127
50
270
51
450
0
ARC
8
BLACK
10
218.186
20
-133.731
40
0.127
50
90
51
270
0
LINE
8
BLACK
10
218.313
20
-133.731
11
218.313
21
-132.715
0
LINE
8
BLACK
10
218.059
20
-133.731
11
218.059
21
-132.715
0
ARC
8
BLACK
10
218.186
20
-132.715
40
0.127
50
360
51
540
0
ARC
8
BLACK
10
218.186
20
-133.731
40
0.127
50
180
51
360
0
LINE
8
BLACK
10
226.314
20
-132.842
11
227.33
21
-132.842
0
LINE
8
BLACK
10
226.314
20
-132.588
11
227.33
21
-132.588
0
ARC
8
BLACK
10
227.33
20
-132.715
40
0.127
50
270
51
450
0
ARC
8
BLACK
10
226.314
20
-132.715
40
0.127
50
90
51
270
0
LINE
8
BLACK
10
215.9
20
-135.382
11
217.17
21
-135.382
0
LINE
8
BLACK
10
215.9
20
-135.128
11
217.17
21
-135.128
0
ARC
8
BLACK
10
217.17
20
-135.255
40
0.127
50
270
51
450
0
ARC
8
BLACK
10
215.9
20
-135.255
40
0.127
50
90
51
270
0
LINE
8
BLACK
10
227.33
20
-135.382
11
228.6
21
-135.382
0
LINE
8
BLACK
10
227.33
20
-135.128
11
228.6
21
-135.128
0
ARC
8
BLACK
10
228.6
20
-135.255
40
0.127
50
270
51
450
0
ARC
8
BLACK
10
227.33
20
-135.255
40
0.127
50
90
51
270
0
LINE
8
BLACK
10
217.17
20
-135.382
11
218.186
21
-135.382
0
LINE
8
BLACK
10
217.17
20
-135.128
11
218.186
21
-135.128
0
ARC
8
BLACK
10
218.186
20
-135.255
40
0.127
50
270
51
450
0
ARC
8
BLACK
10
217.17
20
-135.255
40
0.127
50
90
51
270
0
LINE
8
BLACK
10
218.313
20
-135.255
11
218.313
21
-134.239
0
LINE
8
BLACK
10
218.059
20
-135.255
11
218.059
21
-134.239
0
ARC
8
BLACK
10
218.186
20
-134.239
40
0.127
50
360
51
540
0
ARC
8
BLACK
10
218.186
20
-135.255
40
0.127
50
180
51
360
0
LINE
8
BLACK
10
218.186
20
-134.366
11
226.314
21
-134.366
0
LINE
8
BLACK
10
218.186
20
-134.112
11
226.314
21
-134.112
0
ARC
8
BLACK
10
226.314
20
-134.239
40
0.127
50
270
51
450
0
ARC
8
BLACK
10
218.186
20
-134.239
40
0.127
50
90
51
270
0
LINE
8
BLACK
10
226.441
20
-136.271
11
226.441
21
-134.239
0
LINE
8
BLACK
10
226.187
20
-136.271
11
226.187
21
-134.239
0
ARC
8
BLACK
10
226.314
20
-134.239
40
0.127
50
360
51
540
0
ARC
8
BLACK
10
226.314
20
-136.271
40
0.127
50
180
51
360
0
LINE
8
BLACK
10
218.186
20
-136.398
11
226.314
21
-136.398
0
LINE
8
BLACK
10
218.186
20
-136.144
11
226.314
21
-136.144
0
ARC
8
BLACK
10
226.314
20
-136.271
40
0.127
50
270
51
450
0
ARC
8
BLACK
10
218.186
20
-136.271
40
0.127
50
90
51
270
0
LINE
8
BLACK
10
218.313
20
-136.271
11
218.313
21
-135.255
0
LINE
8
BLACK
10
218.059
20
-136.271
11
218.059
21
-135.255
0
ARC
8
BLACK
10
218.186
20
-135.255
40
0.127
50
360
51
540
0
ARC
8
BLACK
10
218.186
20
-136.271
40
0.127
50
180
51
360
0
LINE
8
BLACK
10
226.314
20
-135.382
11
227.33
21
-135.382
0
LINE
8
BLACK
10
226.314
20
-135.128
11
227.33
21
-135.128
0
ARC
8
BLACK
10
227.33
20
-135.255
40
0.127
50
270
51
450
0
ARC
8
BLACK
10
226.314
20
-135.255
40
0.127
50
90
51
270
0
LINE
8
BLACK
10
215.9
20
-139.192
11
218.059
21
-139.192
0
LINE
8
BLACK
10
215.9
20
-138.938
11
218.059
21
-138.938
0
ARC
8
BLACK
10
218.059
20
-139.065
40
0.127
50
270
51
450
0
ARC
8
BLACK
10
215.9
20
-139.065
40
0.127
50
90
51
270
0
LINE
8
BLACK
10
226.441
20
-139.192
11
228.6
21
-139.192
0
LINE
8
BLACK
10
226.441
20
-138.938
11
228.6
21
-138.938
0
ARC
8
BLACK
10
228.6
20
-139.065
40
0.127
50
270
51
450
0
ARC
8
BLACK
10
226.441
20
-139.065
40
0.127
50
90
51
270
0
LINE
8
BLACK
10
218.059
20
-140.208
11
226.441
21
-140.208
0
LINE
8
BLACK
10
218.059
20
-139.954
11
226.441
21
-139.954
0
ARC
8
BLACK
10
226.441
20
-140.081
40
0.127
50
270
51
450
0
ARC
8
BLACK
10
218.059
20
-140.081
40
0.127
50
90
51
270
0
LINE
8
BLACK
10
218.186
20
-140.081
11
218.186
21
-138.049
0
LINE
8
BLACK
10
217.932
20
-140.081
11
217.932
21
-138.049
0
ARC
8
BLACK
10
218.059
20
-138.049
40
0.127
50
360
51
540
0
ARC
8
BLACK
10
218.059
20
-140.081
40
0.127
50
180
51
360
0
LINE
8
BLACK
10
218.059
20
-138.176
11
226.441
21
-138.176
0
LINE
8
BLACK
10
218.059
20
-137.922
11
226.441
21
-137.922
0
ARC
8
BLACK
10
226.441
20
-138.049
40
0.127
50
270
51
450
0
ARC
8
BLACK
10
218.059
20
-138.049
40
0.127
50
90
51
270
0
LINE
8
BLACK
10
226.568
20
-140.081
11
226.568
21
-138.049
0
LINE
8
BLACK
10
226.314
20
-140.081
11
226.314
21
-138.049
0
ARC
8
BLACK
10
226.441
20
-138.049
40
0.127
50
360
51
540
0
ARC
8
BLACK
10
226.441
20
-140.081
40
0.127
50
180
51
360
0
LINE
8
BLACK
10
214.63
20
-121.412
11
215.9
21
-121.412
0
LINE
8
BLACK
10
214.63
20
-121.158
11
215.9
21
-121.158
0
ARC
8
BLACK
10
215.9
20
-121.285
40
0.127
50
270
51
450
0
ARC
8
BLACK
10
214.63
20
-121.285
40
0.127
50
90
51
270
0
LINE
8
BLACK
10
203.2
20
-121.412
11
204.47
21
-121.412
0
LINE
8
BLACK
10
203.2
20
-121.158
11
204.47
21
-121.158
0
ARC
8
BLACK
10
204.47
20
-121.285
40
0.127
50
270
51
450
0
ARC
8
BLACK
10
203.2
20
-121.285
40
0.127
50
90
51
270
0
LINE
8
BLACK
10
213.614
20
-121.412
11
214.63
21
-121.412
0
LINE
8
BLACK
10
213.614
20
-121.158
11
214.63
21
-121.158
0
ARC
8
BLACK
10
214.63
20
-121.285
40
0.127
50
270
51
450
0
ARC
8
BLACK
10
213.614
20
-121.285
40
0.127
50
90
51
270
0
LINE
8
BLACK
10
213.741
20
-122.301
11
213.741
21
-121.285
0
LINE
8
BLACK
10
213.487
20
-122.301
11
213.487
21
-121.285
0
ARC
8
BLACK
10
213.614
20
-121.285
40
0.127
50
360
51
540
0
ARC
8
BLACK
10
213.614
20
-122.301
40
0.127
50
180
51
360
0
LINE
8
BLACK
10
205.486
20
-122.428
11
213.614
21
-122.428
0
LINE
8
BLACK
10
205.486
20
-122.174
11
213.614
21
-122.174
0
ARC
8
BLACK
10
213.614
20
-122.301
40
0.127
50
270
51
450
0
ARC
8
BLACK
10
205.486
20
-122.301
40
0.127
50
90
51
270
0
LINE
8
BLACK
10
205.613
20
-122.301
11
205.613
21
-120.269
0
LINE
8
BLACK
10
205.359
20
-122.301
11
205.359
21
-120.269
0
ARC
8
BLACK
10
205.486
20
-120.269
40
0.127
50
360
51
540
0
ARC
8
BLACK
10
205.486
20
-122.301
40
0.127
50
180
51
360
0
LINE
8
BLACK
10
205.486
20
-120.396
11
213.614
21
-120.396
0
LINE
8
BLACK
10
205.486
20
-120.142
11
213.614
21
-120.142
0
ARC
8
BLACK
10
213.614
20
-120.269
40
0.127
50
270
51
450
0
ARC
8
BLACK
10
205.486
20
-120.269
40
0.127
50
90
51
270
0
LINE
8
BLACK
10
213.741
20
-121.285
11
213.741
21
-120.269
0
LINE
8
BLACK
10
213.487
20
-121.285
11
213.487
21
-120.269
0
ARC
8
BLACK
10
213.614
20
-120.269
40
0.127
50
360
51
540
0
ARC
8
BLACK
10
213.614
20
-121.285
40
0.127
50
180
51
360
0
LINE
8
BLACK
10
204.47
20
-121.412
11
205.486
21
-121.412
0
LINE
8
BLACK
10
204.47
20
-121.158
11
205.486
21
-121.158
0
ARC
8
BLACK
10
205.486
20
-121.285
40
0.127
50
270
51
450
0
ARC
8
BLACK
10
204.47
20
-121.285
40
0.127
50
90
51
270
0
LINE
8
BLACK
10
198.247
20
-140.335
11
198.247
21
-138.176
0
LINE
8
BLACK
10
197.993
20
-140.335
11
197.993
21
-138.176
0
ARC
8
BLACK
10
198.12
20
-138.176
40
0.127
50
360
51
540
0
ARC
8
BLACK
10
198.12
20
-140.335
40
0.127
50
180
51
360
0
LINE
8
BLACK
10
198.247
20
-129.794
11
198.247
21
-127.635
0
LINE
8
BLACK
10
197.993
20
-129.794
11
197.993
21
-127.635
0
ARC
8
BLACK
10
198.12
20
-127.635
40
0.127
50
360
51
540
0
ARC
8
BLACK
10
198.12
20
-129.794
40
0.127
50
180
51
360
0
LINE
8
BLACK
10
199.263
20
-138.176
11
199.263
21
-129.794
0
LINE
8
BLACK
10
199.009
20
-138.176
11
199.009
21
-129.794
0
ARC
8
BLACK
10
199.136
20
-129.794
40
0.127
50
360
51
540
0
ARC
8
BLACK
10
199.136
20
-138.176
40
0.127
50
180
51
360
0
LINE
8
BLACK
10
197.104
20
-138.303
11
199.136
21
-138.303
0
LINE
8
BLACK
10
197.104
20
-138.049
11
199.136
21
-138.049
0
ARC
8
BLACK
10
199.136
20
-138.176
40
0.127
50
270
51
450
0
ARC
8
BLACK
10
197.104
20
-138.176
40
0.127
50
90
51
270
0
LINE
8
BLACK
10
197.231
20
-138.176
11
197.231
21
-129.794
0
LINE
8
BLACK
10
196.977
20
-138.176
11
196.977
21
-129.794
0
ARC
8
BLACK
10
197.104
20
-129.794
40
0.127
50
360
51
540
0
ARC
8
BLACK
10
197.104
20
-138.176
40
0.127
50
180
51
360
0
LINE
8
BLACK
10
197.104
20
-129.921
11
199.136
21
-129.921
0
LINE
8
BLACK
10
197.104
20
-129.667
11
199.136
21
-129.667
0
ARC
8
BLACK
10
199.136
20
-129.794
40
0.127
50
270
51
450
0
ARC
8
BLACK
10
197.104
20
-129.794
40
0.127
50
90
51
270
0
LINE
8
BLACK
10
195.707
20
-140.335
11
195.707
21
-139.065
0
LINE
8
BLACK
10
195.453
20
-140.335
11
195.453
21
-139.065
0
ARC
8
BLACK
10
195.58
20
-139.065
40
0.127
50
360
51
540
0
ARC
8
BLACK
10
195.58
20
-140.335
40
0.127
50
180
51
360
0
LINE
8
BLACK
10
195.707
20
-128.905
11
195.707
21
-127.635
0
LINE
8
BLACK
10
195.453
20
-128.905
11
195.453
21
-127.635
0
ARC
8
BLACK
10
195.58
20
-127.635
40
0.127
50
360
51
540
0
ARC
8
BLACK
10
195.58
20
-128.905
40
0.127
50
180
51
360
0
LINE
8
BLACK
10
195.707
20
-139.065
11
195.707
21
-138.049
0
LINE
8
BLACK
10
195.453
20
-139.065
11
195.453
21
-138.049
0
ARC
8
BLACK
10
195.58
20
-138.049
40
0.127
50
360
51
540
0
ARC
8
BLACK
10
195.58
20
-139.065
40
0.127
50
180
51
360
0
LINE
8
BLACK
10
194.564
20
-138.176
11
195.58
21
-138.176
0
LINE
8
BLACK
10
194.564
20
-137.922
11
195.58
21
-137.922
0
ARC
8
BLACK
10
195.58
20
-138.049
40
0.127
50
270
51
450
0
ARC
8
BLACK
10
194.564
20
-138.049
40
0.127
50
90
51
270
0
LINE
8
BLACK
10
194.691
20
-138.049
11
194.691
21
-129.921
0
LINE
8
BLACK
10
194.437
20
-138.049
11
194.437
21
-129.921
0
ARC
8
BLACK
10
194.564
20
-129.921
40
0.127
50
360
51
540
0
ARC
8
BLACK
10
194.564
20
-138.049
40
0.127
50
180
51
360
0
LINE
8
BLACK
10
194.564
20
-130.048
11
196.596
21
-130.048
0
LINE
8
BLACK
10
194.564
20
-129.794
11
196.596
21
-129.794
0
ARC
8
BLACK
10
196.596
20
-129.921
40
0.127
50
270
51
450
0
ARC
8
BLACK
10
194.564
20
-129.921
40
0.127
50
90
51
270
0
LINE
8
BLACK
10
196.723
20
-138.049
11
196.723
21
-129.921
0
LINE
8
BLACK
10
196.469
20
-138.049
11
196.469
21
-129.921
0
ARC
8
BLACK
10
196.596
20
-129.921
40
0.127
50
360
51
540
0
ARC
8
BLACK
10
196.596
20
-138.049
40
0.127
50
180
51
360
0
LINE
8
BLACK
10
195.58
20
-138.176
11
196.596
21
-138.176
0
LINE
8
BLACK
10
195.58
20
-137.922
11
196.596
21
-137.922
0
ARC
8
BLACK
10
196.596
20
-138.049
40
0.127
50
270
51
450
0
ARC
8
BLACK
10
195.58
20
-138.049
40
0.127
50
90
51
270
0
LINE
8
BLACK
10
195.707
20
-129.921
11
195.707
21
-128.905
0
LINE
8
BLACK
10
195.453
20
-129.921
11
195.453
21
-128.905
0
ARC
8
BLACK
10
195.58
20
-128.905
40
0.127
50
360
51
540
0
ARC
8
BLACK
10
195.58
20
-129.921
40
0.127
50
180
51
360
0
LINE
8
BLACK
10
198.247
20
-146.685
11
198.247
21
-145.415
0
LINE
8
BLACK
10
197.993
20
-146.685
11
197.993
21
-145.415
0
ARC
8
BLACK
10
198.12
20
-145.415
40
0.127
50
360
51
540
0
ARC
8
BLACK
10
198.12
20
-146.685
40
0.127
50
180
51
360
0
LINE
8
BLACK
10
198.247
20
-158.115
11
198.247
21
-156.845
0
LINE
8
BLACK
10
197.993
20
-158.115
11
197.993
21
-156.845
0
ARC
8
BLACK
10
198.12
20
-156.845
40
0.127
50
360
51
540
0
ARC
8
BLACK
10
198.12
20
-158.115
40
0.127
50
180
51
360
0
LINE
8
BLACK
10
198.247
20
-147.701
11
198.247
21
-146.685
0
LINE
8
BLACK
10
197.993
20
-147.701
11
197.993
21
-146.685
0
ARC
8
BLACK
10
198.12
20
-146.685
40
0.127
50
360
51
540
0
ARC
8
BLACK
10
198.12
20
-147.701
40
0.127
50
180
51
360
0
LINE
8
BLACK
10
198.12
20
-147.828
11
199.136
21
-147.828
0
LINE
8
BLACK
10
198.12
20
-147.574
11
199.136
21
-147.574
0
ARC
8
BLACK
10
199.136
20
-147.701
40
0.127
50
270
51
450
0
ARC
8
BLACK
10
198.12
20
-147.701
40
0.127
50
90
51
270
0
LINE
8
BLACK
10
199.263
20
-155.829
11
199.263
21
-147.701
0
LINE
8
BLACK
10
199.009
20
-155.829
11
199.009
21
-147.701
0
ARC
8
BLACK
10
199.136
20
-147.701
40
0.127
50
360
51
540
0
ARC
8
BLACK
10
199.136
20
-155.829
40
0.127
50
180
51
360
0
LINE
8
BLACK
10
197.104
20
-155.956
11
199.136
21
-155.956
0
LINE
8
BLACK
10
197.104
20
-155.702
11
199.136
21
-155.702
0
ARC
8
BLACK
10
199.136
20
-155.829
40
0.127
50
270
51
450
0
ARC
8
BLACK
10
197.104
20
-155.829
40
0.127
50
90
51
270
0
LINE
8
BLACK
10
197.231
20
-155.829
11
197.231
21
-147.701
0
LINE
8
BLACK
10
196.977
20
-155.829
11
196.977
21
-147.701
0
ARC
8
BLACK
10
197.104
20
-147.701
40
0.127
50
360
51
540
0
ARC
8
BLACK
10
197.104
20
-155.829
40
0.127
50
180
51
360
0
LINE
8
BLACK
10
197.104
20
-147.828
11
198.12
21
-147.828
0
LINE
8
BLACK
10
197.104
20
-147.574
11
198.12
21
-147.574
0
ARC
8
BLACK
10
198.12
20
-147.701
40
0.127
50
270
51
450
0
ARC
8
BLACK
10
197.104
20
-147.701
40
0.127
50
90
51
270
0
LINE
8
BLACK
10
198.247
20
-156.845
11
198.247
21
-155.829
0
LINE
8
BLACK
10
197.993
20
-156.845
11
197.993
21
-155.829
0
ARC
8
BLACK
10
198.12
20
-155.829
40
0.127
50
360
51
540
0
ARC
8
BLACK
10
198.12
20
-156.845
40
0.127
50
180
51
360
0
LINE
8
BLACK
10
195.707
20
-158.115
11
195.707
21
-155.956
0
LINE
8
BLACK
10
195.453
20
-158.115
11
195.453
21
-155.956
0
ARC
8
BLACK
10
195.58
20
-155.956
40
0.127
50
360
51
540
0
ARC
8
BLACK
10
195.58
20
-158.115
40
0.127
50
180
51
360
0
LINE
8
BLACK
10
195.707
20
-147.574
11
195.707
21
-145.415
0
LINE
8
BLACK
10
195.453
20
-147.574
11
195.453
21
-145.415
0
ARC
8
BLACK
10
195.58
20
-145.415
40
0.127
50
360
51
540
0
ARC
8
BLACK
10
195.58
20
-147.574
40
0.127
50
180
51
360
0
LINE
8
BLACK
10
196.723
20
-155.956
11
196.723
21
-147.574
0
LINE
8
BLACK
10
196.469
20
-155.956
11
196.469
21
-147.574
0
ARC
8
BLACK
10
196.596
20
-147.574
40
0.127
50
360
51
540
0
ARC
8
BLACK
10
196.596
20
-155.956
40
0.127
50
180
51
360
0
LINE
8
BLACK
10
194.564
20
-156.083
11
196.596
21
-156.083
0
LINE
8
BLACK
10
194.564
20
-155.829
11
196.596
21
-155.829
0
ARC
8
BLACK
10
196.596
20
-155.956
40
0.127
50
270
51
450
0
ARC
8
BLACK
10
194.564
20
-155.956
40
0.127
50
90
51
270
0
LINE
8
BLACK
10
194.691
20
-155.956
11
194.691
21
-147.574
0
LINE
8
BLACK
10
194.437
20
-155.956
11
194.437
21
-147.574
0
ARC
8
BLACK
10
194.564
20
-147.574
40
0.127
50
360
51
540
0
ARC
8
BLACK
10
194.564
20
-155.956
40
0.127
50
180
51
360
0
LINE
8
BLACK
10
194.564
20
-147.701
11
196.596
21
-147.701
0
LINE
8
BLACK
10
194.564
20
-147.447
11
196.596
21
-147.447
0
ARC
8
BLACK
10
196.596
20
-147.574
40
0.127
50
270
51
450
0
ARC
8
BLACK
10
194.564
20
-147.574
40
0.127
50
90
51
270
0
LINE
8
BLACK
10
193.167
20
-158.115
11
193.167
21
-155.956
0
LINE
8
BLACK
10
192.913
20
-158.115
11
192.913
21
-155.956
0
ARC
8
BLACK
10
193.04
20
-155.956
40
0.127
50
360
51
540
0
ARC
8
BLACK
10
193.04
20
-158.115
40
0.127
50
180
51
360
0
LINE
8
BLACK
10
193.167
20
-147.574
11
193.167
21
-145.415
0
LINE
8
BLACK
10
192.913
20
-147.574
11
192.913
21
-145.415
0
ARC
8
BLACK
10
193.04
20
-145.415
40
0.127
50
360
51
540
0
ARC
8
BLACK
10
193.04
20
-147.574
40
0.127
50
180
51
360
0
LINE
8
BLACK
10
194.183
20
-155.956
11
194.183
21
-147.574
0
LINE
8
BLACK
10
193.929
20
-155.956
11
193.929
21
-147.574
0
ARC
8
BLACK
10
194.056
20
-147.574
40
0.127
50
360
51
540
0
ARC
8
BLACK
10
194.056
20
-155.956
40
0.127
50
180
51
360
0
LINE
8
BLACK
10
192.024
20
-156.083
11
194.056
21
-156.083
0
LINE
8
BLACK
10
192.024
20
-155.829
11
194.056
21
-155.829
0
ARC
8
BLACK
10
194.056
20
-155.956
40
0.127
50
270
51
450
0
ARC
8
BLACK
10
192.024
20
-155.956
40
0.127
50
90
51
270
0
LINE
8
BLACK
10
192.151
20
-155.956
11
192.151
21
-147.574
0
LINE
8
BLACK
10
191.897
20
-155.956
11
191.897
21
-147.574
0
ARC
8
BLACK
10
192.024
20
-147.574
40
0.127
50
360
51
540
0
ARC
8
BLACK
10
192.024
20
-155.956
40
0.127
50
180
51
360
0
LINE
8
BLACK
10
192.024
20
-147.701
11
194.056
21
-147.701
0
LINE
8
BLACK
10
192.024
20
-147.447
11
194.056
21
-147.447
0
ARC
8
BLACK
10
194.056
20
-147.574
40
0.127
50
270
51
450
0
ARC
8
BLACK
10
192.024
20
-147.574
40
0.127
50
90
51
270
0
LINE
8
BLACK
10
190.627
20
-158.115
11
190.627
21
-156.845
0
LINE
8
BLACK
10
190.373
20
-158.115
11
190.373
21
-156.845
0
ARC
8
BLACK
10
190.5
20
-156.845
40
0.127
50
360
51
540
0
ARC
8
BLACK
10
190.5
20
-158.115
40
0.127
50
180
51
360
0
LINE
8
BLACK
10
190.627
20
-146.685
11
190.627
21
-145.415
0
LINE
8
BLACK
10
190.373
20
-146.685
11
190.373
21
-145.415
0
ARC
8
BLACK
10
190.5
20
-145.415
40
0.127
50
360
51
540
0
ARC
8
BLACK
10
190.5
20
-146.685
40
0.127
50
180
51
360
0
LINE
8
BLACK
10
190.627
20
-156.845
11
190.627
21
-155.829
0
LINE
8
BLACK
10
190.373
20
-156.845
11
190.373
21
-155.829
0
ARC
8
BLACK
10
190.5
20
-155.829
40
0.127
50
360
51
540
0
ARC
8
BLACK
10
190.5
20
-156.845
40
0.127
50
180
51
360
0
LINE
8
BLACK
10
189.484
20
-155.956
11
190.5
21
-155.956
0
LINE
8
BLACK
10
189.484
20
-155.702
11
190.5
21
-155.702
0
ARC
8
BLACK
10
190.5
20
-155.829
40
0.127
50
270
51
450
0
ARC
8
BLACK
10
189.484
20
-155.829
40
0.127
50
90
51
270
0
LINE
8
BLACK
10
189.611
20
-155.829
11
189.611
21
-147.701
0
LINE
8
BLACK
10
189.357
20
-155.829
11
189.357
21
-147.701
0
ARC
8
BLACK
10
189.484
20
-147.701
40
0.127
50
360
51
540
0
ARC
8
BLACK
10
189.484
20
-155.829
40
0.127
50
180
51
360
0
LINE
8
BLACK
10
189.484
20
-147.828
11
191.516
21
-147.828
0
LINE
8
BLACK
10
189.484
20
-147.574
11
191.516
21
-147.574
0
ARC
8
BLACK
10
191.516
20
-147.701
40
0.127
50
270
51
450
0
ARC
8
BLACK
10
189.484
20
-147.701
40
0.127
50
90
51
270
0
LINE
8
BLACK
10
191.643
20
-155.829
11
191.643
21
-147.701
0
LINE
8
BLACK
10
191.389
20
-155.829
11
191.389
21
-147.701
0
ARC
8
BLACK
10
191.516
20
-147.701
40
0.127
50
360
51
540
0
ARC
8
BLACK
10
191.516
20
-155.829
40
0.127
50
180
51
360
0
LINE
8
BLACK
10
190.5
20
-155.956
11
191.516
21
-155.956
0
LINE
8
BLACK
10
190.5
20
-155.702
11
191.516
21
-155.702
0
ARC
8
BLACK
10
191.516
20
-155.829
40
0.127
50
270
51
450
0
ARC
8
BLACK
10
190.5
20
-155.829
40
0.127
50
90
51
270
0
LINE
8
BLACK
10
190.627
20
-147.701
11
190.627
21
-146.685
0
LINE
8
BLACK
10
190.373
20
-147.701
11
190.373
21
-146.685
0
ARC
8
BLACK
10
190.5
20
-146.685
40
0.127
50
360
51
540
0
ARC
8
BLACK
10
190.5
20
-147.701
40
0.127
50
180
51
360
0
LINE
8
BLACK
10
184.785
20
-143.002
11
192.405
21
-143.002
0
LINE
8
BLACK
10
184.785
20
-142.748
11
192.405
21
-142.748
0
ARC
8
BLACK
10
192.405
20
-142.875
40
0.127
50
270
51
450
0
ARC
8
BLACK
10
184.785
20
-142.875
40
0.127
50
90
51
270
0
LINE
8
BLACK
10
184.912
20
-142.875
11
184.912
21
-140.335
0
LINE
8
BLACK
10
184.658
20
-142.875
11
184.658
21
-140.335
0
ARC
8
BLACK
10
184.785
20
-140.335
40
0.127
50
360
51
540
0
ARC
8
BLACK
10
184.785
20
-142.875
40
0.127
50
180
51
360
0
LINE
8
BLACK
10
184.785
20
-140.462
11
192.405
21
-140.462
0
LINE
8
BLACK
10
184.785
20
-140.208
11
192.405
21
-140.208
0
ARC
8
BLACK
10
192.405
20
-140.335
40
0.127
50
270
51
450
0
ARC
8
BLACK
10
184.785
20
-140.335
40
0.127
50
90
51
270
0
LINE
8
BLACK
10
192.532
20
-142.875
11
192.532
21
-140.335
0
LINE
8
BLACK
10
192.278
20
-142.875
11
192.278
21
-140.335
0
ARC
8
BLACK
10
192.405
20
-140.335
40
0.127
50
360
51
540
0
ARC
8
BLACK
10
192.405
20
-142.875
40
0.127
50
180
51
360
0
LINE
8
BLACK
10
185.42
20
-139.192
11
191.77
21
-139.192
0
LINE
8
BLACK
10
185.42
20
-138.938
11
191.77
21
-138.938
0
ARC
8
BLACK
10
191.77
20
-139.065
40
0.127
50
270
51
450
0
ARC
8
BLACK
10
185.42
20
-139.065
40
0.127
50
90
51
270
0
LINE
8
BLACK
10
185.42
20
-144.272
11
191.77
21
-144.272
0
LINE
8
BLACK
10
185.42
20
-144.018
11
191.77
21
-144.018
0
ARC
8
BLACK
10
191.77
20
-144.145
40
0.127
50
270
51
450
0
ARC
8
BLACK
10
185.42
20
-144.145
40
0.127
50
90
51
270
0
ARC
8
BLACK
10
185.42
20
-141.605
40
2.54
50
90
51
180
0
ARC
8
BLACK
10
185.42
20
-141.605
40
2.54
50
-180
51
-90
0
ARC
8
BLACK
10
191.77
20
-141.605
40
2.54
50
-90
51
0
0
ARC
8
BLACK
10
191.77
20
-141.605
40
2.54
50
0
51
90
0
LINE
8
BLACK
10
203.2
20
-141.351
11
211.455
21
-141.351
0
LINE
8
BLACK
10
203.2
20
-141.097
11
211.455
21
-141.097
0
ARC
8
BLACK
10
211.455
20
-141.224
40
0.127
50
270
51
450
0
ARC
8
BLACK
10
203.2
20
-141.224
40
0.127
50
90
51
270
0
LINE
8
BLACK
10
203.2
20
-143.891
11
211.455
21
-143.891
0
LINE
8
BLACK
10
203.2
20
-143.637
11
211.455
21
-143.637
0
ARC
8
BLACK
10
211.455
20
-143.764
40
0.127
50
270
51
450
0
ARC
8
BLACK
10
203.2
20
-143.764
40
0.127
50
90
51
270
0
LINE
8
BLACK
10
203.835
20
-140.335
11
210.185
21
-140.335
0
LINE
8
BLACK
10
203.835
20
-140.081
11
210.185
21
-140.081
0
ARC
8
BLACK
10
210.185
20
-140.208
40
0.127
50
270
51
450
0
ARC
8
BLACK
10
203.835
20
-140.208
40
0.127
50
90
51
270
0
LINE
8
BLACK
10
203.835
20
-144.907
11
210.185
21
-144.907
0
LINE
8
BLACK
10
203.835
20
-144.653
11
210.185
21
-144.653
0
ARC
8
BLACK
10
210.185
20
-144.78
40
0.127
50
270
51
450
0
ARC
8
BLACK
10
203.835
20
-144.78
40
0.127
50
90
51
270
0
ARC
8
BLACK
10
203.835
20
-142.494
40
2.286
50
-180
51
-90
0
ARC
8
BLACK
10
203.835
20
-142.494
40
2.286
50
90
51
180
0
ARC
8
BLACK
10
210.185
20
-142.494
40
2.286
50
0
51
90
0
ARC
8
BLACK
10
210.185
20
-142.494
40
2.286
50
-90
51
0
0
ARC
8
BLACK
10
203.835
20
-142.494
40
2.286
50
-180
51
-90
0
LINE
8
BLACK
10
203.327
20
-143.764
11
203.327
21
-141.224
0
LINE
8
BLACK
10
203.073
20
-143.764
11
203.073
21
-141.224
0
ARC
8
BLACK
10
203.2
20
-141.224
40
0.127
50
360
51
540
0
ARC
8
BLACK
10
203.2
20
-143.764
40
0.127
50
180
51
360
0
LINE
8
BLACK
10
211.582
20
-143.764
11
211.582
21
-141.224
0
LINE
8
BLACK
10
211.328
20
-143.764
11
211.328
21
-141.224
0
ARC
8
BLACK
10
211.455
20
-141.224
40
0.127
50
360
51
540
0
ARC
8
BLACK
10
211.455
20
-143.764
40
0.127
50
180
51
360
0
LINE
8
BLACK
10
203.2
20
-146.177
11
211.455
21
-146.177
0
LINE
8
BLACK
10
203.2
20
-145.923
11
211.455
21
-145.923
0
ARC
8
BLACK
10
211.455
20
-146.05
40
0.127
50
270
51
450
0
ARC
8
BLACK
10
203.2
20
-146.05
40
0.127
50
90
51
270
0
LINE
8
BLACK
10
203.2
20
-148.717
11
211.455
21
-148.717
0
LINE
8
BLACK
10
203.2
20
-148.463
11
211.455
21
-148.463
0
ARC
8
BLACK
10
211.455
20
-148.59
40
0.127
50
270
51
450
0
ARC
8
BLACK
10
203.2
20
-148.59
40
0.127
50
90
51
270
0
LINE
8
BLACK
10
203.835
20
-145.161
11
210.185
21
-145.161
0
LINE
8
BLACK
10
203.835
20
-144.907
11
210.185
21
-144.907
0
ARC
8
BLACK
10
210.185
20
-145.034
40
0.127
50
270
51
450
0
ARC
8
BLACK
10
203.835
20
-145.034
40
0.127
50
90
51
270
0
LINE
8
BLACK
10
203.835
20
-149.733
11
210.185
21
-149.733
0
LINE
8
BLACK
10
203.835
20
-149.479
11
210.185
21
-149.479
0
ARC
8
BLACK
10
210.185
20
-149.606
40
0.127
50
270
51
450
0
ARC
8
BLACK
10
203.835
20
-149.606
40
0.127
50
90
51
270
0
ARC
8
BLACK
10
203.835
20
-147.32
40
2.286
50
-180
51
-90
0
ARC
8
BLACK
10
203.835
20
-147.32
40
2.286
50
90
51
180
0
ARC
8
BLACK
10
210.185
20
-147.32
40
2.286
50
0
51
90
0
ARC
8
BLACK
10
210.185
20
-147.32
40
2.286
50
-90
51
0
0
ARC
8
BLACK
10
203.835
20
-147.32
40
2.286
50
-180
51
-90
0
LINE
8
BLACK
10
203.327
20
-148.59
11
203.327
21
-146.05
0
LINE
8
BLACK
10
203.073
20
-148.59
11
203.073
21
-146.05
0
ARC
8
BLACK
10
203.2
20
-146.05
40
0.127
50
360
51
540
0
ARC
8
BLACK
10
203.2
20
-148.59
40
0.127
50
180
51
360
0
LINE
8
BLACK
10
211.582
20
-148.59
11
211.582
21
-146.05
0
LINE
8
BLACK
10
211.328
20
-148.59
11
211.328
21
-146.05
0
ARC
8
BLACK
10
211.455
20
-146.05
40
0.127
50
360
51
540
0
ARC
8
BLACK
10
211.455
20
-148.59
40
0.127
50
180
51
360
0
LINE
8
BLACK
10
193.558
20
-124.8
11
193.584
21
-124.785
0
LINE
8
BLACK
10
193.584
20
-124.785
11
193.642
21
-124.75
0
LINE
8
BLACK
10
193.642
20
-124.75
11
193.726
21
-124.694
0
LINE
8
BLACK
10
193.726
20
-124.694
11
193.825
21
-124.628
0
LINE
8
BLACK
10
193.825
20
-124.628
11
193.924
21
-124.562
0
LINE
8
BLACK
10
193.924
20
-124.562
11
194.005
21
-124.508
0
LINE
8
BLACK
10
194.005
20
-124.508
11
194.061
21
-124.47
0
LINE
8
BLACK
10
194.061
20
-124.47
11
194.086
21
-124.457
0
LINE
8
BLACK
10
194.086
20
-124.457
11
194.099
21
-124.463
0
LINE
8
BLACK
10
194.099
20
-124.463
11
194.145
21
-124.485
0
LINE
8
BLACK
10
194.145
20
-124.485
11
194.213
21
-124.521
0
LINE
8
BLACK
10
194.213
20
-124.521
11
194.254
21
-124.541
0
LINE
8
BLACK
10
194.254
20
-124.541
11
194.315
21
-124.567
0
LINE
8
BLACK
10
194.315
20
-124.567
11
194.348
21
-124.574
0
LINE
8
BLACK
10
194.348
20
-124.574
11
194.353
21
-124.564
0
LINE
8
BLACK
10
194.353
20
-124.564
11
194.376
21
-124.516
0
LINE
8
BLACK
10
194.376
20
-124.516
11
194.412
21
-124.435
0
LINE
8
BLACK
10
194.412
20
-124.435
11
194.457
21
-124.325
0
LINE
8
BLACK
10
194.457
20
-124.325
11
194.513
21
-124.198
0
LINE
8
BLACK
10
194.513
20
-124.198
11
194.569
21
-124.064
0
LINE
8
BLACK
10
194.569
20
-124.064
11
194.627
21
-123.924
0
LINE
8
BLACK
10
194.627
20
-123.924
11
194.683
21
-123.789
0
LINE
8
BLACK
10
194.683
20
-123.789
11
194.732
21
-123.67
0
LINE
8
BLACK
10
194.732
20
-123.67
11
194.772
21
-123.574
0
LINE
8
BLACK
10
194.772
20
-123.574
11
194.798
21
-123.505
0
LINE
8
BLACK
10
194.798
20
-123.505
11
194.808
21
-123.477
0
LINE
8
BLACK
10
194.808
20
-123.477
11
194.805
21
-123.469
0
LINE
8
BLACK
10
194.805
20
-123.469
11
194.772
21
-123.439
0
LINE
8
BLACK
10
194.772
20
-123.439
11
194.719
21
-123.398
0
LINE
8
BLACK
10
194.719
20
-123.398
11
194.6
21
-123.302
0
LINE
8
BLACK
10
194.6
20
-123.302
11
194.483
21
-123.157
0
LINE
8
BLACK
10
194.483
20
-123.157
11
194.412
21
-122.992
0
LINE
8
BLACK
10
194.412
20
-122.992
11
194.389
21
-122.806
0
LINE
8
BLACK
10
194.389
20
-122.806
11
194.409
21
-122.636
0
LINE
8
BLACK
10
194.409
20
-122.636
11
194.475
21
-122.474
0
LINE
8
BLACK
10
194.475
20
-122.474
11
194.589
21
-122.326
0
LINE
8
BLACK
10
194.589
20
-122.326
11
194.729
21
-122.217
0
LINE
8
BLACK
10
194.729
20
-122.217
11
194.892
21
-122.149
0
LINE
8
BLACK
10
194.892
20
-122.149
11
195.072
21
-122.126
0
LINE
8
BLACK
10
195.072
20
-122.126
11
195.245
21
-122.146
0
LINE
8
BLACK
10
195.245
20
-122.146
11
195.412
21
-122.212
0
LINE
8
BLACK
10
195.412
20
-122.212
11
195.56
21
-122.324
0
LINE
8
BLACK
10
195.56
20
-122.324
11
195.623
21
-122.395
0
LINE
8
BLACK
10
195.623
20
-122.395
11
195.71
21
-122.545
0
LINE
8
BLACK
10
195.71
20
-122.545
11
195.758
21
-122.702
0
LINE
8
BLACK
10
195.758
20
-122.702
11
195.763
21
-122.743
0
LINE
8
BLACK
10
195.763
20
-122.743
11
195.755
21
-122.918
0
LINE
8
BLACK
10
195.755
20
-122.918
11
195.704
21
-123.088
0
LINE
8
BLACK
10
195.704
20
-123.088
11
195.61
21
-123.238
0
LINE
8
BLACK
10
195.61
20
-123.238
11
195.481
21
-123.363
0
LINE
8
BLACK
10
195.481
20
-123.363
11
195.466
21
-123.373
0
LINE
8
BLACK
10
195.466
20
-123.373
11
195.407
21
-123.419
0
LINE
8
BLACK
10
195.407
20
-123.419
11
195.367
21
-123.449
0
LINE
8
BLACK
10
195.367
20
-123.449
11
195.336
21
-123.474
0
LINE
8
BLACK
10
195.336
20
-123.474
11
195.56
21
-124.013
0
LINE
8
BLACK
10
195.56
20
-124.013
11
195.595
21
-124.097
0
LINE
8
BLACK
10
195.595
20
-124.097
11
195.656
21
-124.244
0
LINE
8
BLACK
10
195.656
20
-124.244
11
195.71
21
-124.371
0
LINE
8
BLACK
10
195.71
20
-124.371
11
195.753
21
-124.473
0
LINE
8
BLACK
10
195.753
20
-124.473
11
195.783
21
-124.539
0
LINE
8
BLACK
10
195.783
20
-124.539
11
195.796
21
-124.567
0
LINE
8
BLACK
10
195.796
20
-124.567
11
195.796
21
-124.569
0
LINE
8
BLACK
10
195.796
20
-124.569
11
195.816
21
-124.572
0
LINE
8
BLACK
10
195.816
20
-124.572
11
195.857
21
-124.557
0
LINE
8
BLACK
10
195.857
20
-124.557
11
195.933
21
-124.521
0
LINE
8
BLACK
10
195.933
20
-124.521
11
195.981
21
-124.496
0
LINE
8
BLACK
10
195.981
20
-124.496
11
196.04
21
-124.468
0
LINE
8
BLACK
10
196.04
20
-124.468
11
196.065
21
-124.457
0
LINE
8
BLACK
10
196.065
20
-124.457
11
196.088
21
-124.47
0
LINE
8
BLACK
10
196.088
20
-124.47
11
196.141
21
-124.506
0
LINE
8
BLACK
10
196.141
20
-124.506
11
196.223
21
-124.559
0
LINE
8
BLACK
10
196.223
20
-124.559
11
196.319
21
-124.623
0
LINE
8
BLACK
10
196.319
20
-124.623
11
196.411
21
-124.686
0
LINE
8
BLACK
10
196.411
20
-124.686
11
196.494
21
-124.742
0
LINE
8
BLACK
10
196.494
20
-124.742
11
196.555
21
-124.78
0
LINE
8
BLACK
10
196.555
20
-124.78
11
196.586
21
-124.798
0
LINE
8
BLACK
10
196.586
20
-124.798
11
196.591
21
-124.798
0
LINE
8
BLACK
10
196.591
20
-124.798
11
196.616
21
-124.783
0
LINE
8
BLACK
10
196.616
20
-124.783
11
196.665
21
-124.742
0
LINE
8
BLACK
10
196.665
20
-124.742
11
196.738
21
-124.673
0
LINE
8
BLACK
10
196.738
20
-124.673
11
196.842
21
-124.569
0
LINE
8
BLACK
10
196.842
20
-124.569
11
196.858
21
-124.554
0
LINE
8
BLACK
10
196.858
20
-124.554
11
196.944
21
-124.468
0
LINE
8
BLACK
10
196.944
20
-124.468
11
197.013
21
-124.394
0
LINE
8
BLACK
10
197.013
20
-124.394
11
197.058
21
-124.343
0
LINE
8
BLACK
10
197.058
20
-124.343
11
197.076
21
-124.32
0
LINE
8
BLACK
10
197.076
20
-124.32
11
197.061
21
-124.29
0
LINE
8
BLACK
10
197.061
20
-124.29
11
197.023
21
-124.229
0
LINE
8
BLACK
10
197.023
20
-124.229
11
196.967
21
-124.142
0
LINE
8
BLACK
10
196.967
20
-124.142
11
196.898
21
-124.043
0
LINE
8
BLACK
10
196.898
20
-124.043
11
196.72
21
-123.784
0
LINE
8
BLACK
10
196.72
20
-123.784
11
196.817
21
-123.541
0
LINE
8
BLACK
10
196.817
20
-123.541
11
196.847
21
-123.464
0
LINE
8
BLACK
10
196.847
20
-123.464
11
196.886
21
-123.375
0
LINE
8
BLACK
10
196.886
20
-123.375
11
196.913
21
-123.309
0
LINE
8
BLACK
10
196.913
20
-123.309
11
196.929
21
-123.281
0
LINE
8
BLACK
10
196.929
20
-123.281
11
196.954
21
-123.271
0
LINE
8
BLACK
10
196.954
20
-123.271
11
197.023
21
-123.256
0
LINE
8
BLACK
10
197.023
20
-123.256
11
197.119
21
-123.236
0
LINE
8
BLACK
10
197.119
20
-123.236
11
197.234
21
-123.215
0
LINE
8
BLACK
10
197.234
20
-123.215
11
197.345
21
-123.195
0
LINE
8
BLACK
10
197.345
20
-123.195
11
197.444
21
-123.175
0
LINE
8
BLACK
10
197.444
20
-123.175
11
197.515
21
-123.162
0
LINE
8
BLACK
10
197.515
20
-123.162
11
197.548
21
-123.154
0
LINE
8
BLACK
10
197.548
20
-123.154
11
197.556
21
-123.149
0
LINE
8
BLACK
10
197.556
20
-123.149
11
197.564
21
-123.134
0
LINE
8
BLACK
10
197.564
20
-123.134
11
197.566
21
-123.101
0
LINE
8
BLACK
10
197.566
20
-123.101
11
197.569
21
-123.04
0
LINE
8
BLACK
10
197.569
20
-123.04
11
197.571
21
-122.946
0
LINE
8
BLACK
10
197.571
20
-122.946
11
197.571
21
-122.806
0
LINE
8
BLACK
10
197.571
20
-122.806
11
197.571
21
-122.791
0
LINE
8
BLACK
10
197.571
20
-122.791
11
197.569
21
-122.662
0
LINE
8
BLACK
10
197.569
20
-122.662
11
197.566
21
-122.555
0
LINE
8
BLACK
10
197.566
20
-122.555
11
197.564
21
-122.489
0
LINE
8
BLACK
10
197.564
20
-122.489
11
197.559
21
-122.461
0
LINE
8
BLACK
10
197.559
20
-122.461
11
197.528
21
-122.453
0
LINE
8
BLACK
10
197.528
20
-122.453
11
197.457
21
-122.438
0
LINE
8
BLACK
10
197.457
20
-122.438
11
197.358
21
-122.42
0
LINE
8
BLACK
10
197.358
20
-122.42
11
197.239
21
-122.398
0
LINE
8
BLACK
10
197.239
20
-122.398
11
197.231
21
-122.395
0
LINE
8
BLACK
10
197.231
20
-122.395
11
197.114
21
-122.372
0
LINE
8
BLACK
10
197.114
20
-122.372
11
197.015
21
-122.352
0
LINE
8
BLACK
10
197.015
20
-122.352
11
196.944
21
-122.337
0
LINE
8
BLACK
10
196.944
20
-122.337
11
196.916
21
-122.326
0
LINE
8
BLACK
10
196.916
20
-122.326
11
196.908
21
-122.319
0
LINE
8
BLACK
10
196.908
20
-122.319
11
196.886
21
-122.273
0
LINE
8
BLACK
10
196.886
20
-122.273
11
196.853
21
-122.199
0
LINE
8
BLACK
10
196.853
20
-122.199
11
196.812
21
-122.11
0
LINE
8
BLACK
10
196.812
20
-122.11
11
196.774
21
-122.017
0
LINE
8
BLACK
10
196.774
20
-122.017
11
196.741
21
-121.933
0
LINE
8
BLACK
10
196.741
20
-121.933
11
196.718
21
-121.872
0
LINE
8
BLACK
10
196.718
20
-121.872
11
196.71
21
-121.844
0
LINE
8
BLACK
10
196.71
20
-121.844
11
196.713
21
-121.841
0
LINE
8
BLACK
10
196.713
20
-121.841
11
196.731
21
-121.813
0
LINE
8
BLACK
10
196.731
20
-121.813
11
196.771
21
-121.752
0
LINE
8
BLACK
10
196.771
20
-121.752
11
196.827
21
-121.669
0
LINE
8
BLACK
10
196.827
20
-121.669
11
196.896
21
-121.567
0
LINE
8
BLACK
10
196.896
20
-121.567
11
196.901
21
-121.559
0
LINE
8
BLACK
10
196.901
20
-121.559
11
196.969
21
-121.46
0
LINE
8
BLACK
10
196.969
20
-121.46
11
197.025
21
-121.374
0
LINE
8
BLACK
10
197.025
20
-121.374
11
197.061
21
-121.315
0
LINE
8
BLACK
10
197.061
20
-121.315
11
197.076
21
-121.288
0
LINE
8
BLACK
10
197.076
20
-121.288
11
197.076
21
-121.285
0
LINE
8
BLACK
10
197.076
20
-121.285
11
197.053
21
-121.255
0
LINE
8
BLACK
10
197.053
20
-121.255
11
197.002
21
-121.199
0
LINE
8
BLACK
10
197.002
20
-121.199
11
196.929
21
-121.122
0
LINE
8
BLACK
10
196.929
20
-121.122
11
196.842
21
-121.034
0
LINE
8
BLACK
10
196.842
20
-121.034
11
196.814
21
-121.008
0
LINE
8
BLACK
10
196.814
20
-121.008
11
196.715
21
-120.912
0
LINE
8
BLACK
10
196.715
20
-120.912
11
196.649
21
-120.851
0
LINE
8
BLACK
10
196.649
20
-120.851
11
196.606
21
-120.818
0
LINE
8
BLACK
10
196.606
20
-120.818
11
196.586
21
-120.81
0
LINE
8
BLACK
10
196.586
20
-120.81
11
196.555
21
-120.828
0
LINE
8
BLACK
10
196.555
20
-120.828
11
196.492
21
-120.868
0
LINE
8
BLACK
10
196.492
20
-120.868
11
196.408
21
-120.927
0
LINE
8
BLACK
10
196.408
20
-120.927
11
196.306
21
-120.995
0
LINE
8
BLACK
10
196.306
20
-120.995
11
196.299
21
-121.001
0
LINE
8
BLACK
10
196.299
20
-121.001
11
196.2
21
-121.069
0
LINE
8
BLACK
10
196.2
20
-121.069
11
196.116
21
-121.125
0
LINE
8
BLACK
10
196.116
20
-121.125
11
196.058
21
-121.166
0
LINE
8
BLACK
10
196.058
20
-121.166
11
196.03
21
-121.181
0
LINE
8
BLACK
10
196.03
20
-121.181
11
196.027
21
-121.181
0
LINE
8
BLACK
10
196.027
20
-121.181
11
195.986
21
-121.168
0
LINE
8
BLACK
10
195.986
20
-121.168
11
195.915
21
-121.143
0
LINE
8
BLACK
10
195.915
20
-121.143
11
195.826
21
-121.11
0
LINE
8
BLACK
10
195.826
20
-121.11
11
195.735
21
-121.072
0
LINE
8
BLACK
10
195.735
20
-121.072
11
195.651
21
-121.036
0
LINE
8
BLACK
10
195.651
20
-121.036
11
195.588
21
-121.008
0
LINE
8
BLACK
10
195.588
20
-121.008
11
195.557
21
-120.99
0
LINE
8
BLACK
10
195.557
20
-120.99
11
195.547
21
-120.955
0
LINE
8
BLACK
10
195.547
20
-120.955
11
195.529
21
-120.879
0
LINE
8
BLACK
10
195.529
20
-120.879
11
195.509
21
-120.777
0
LINE
8
BLACK
10
195.509
20
-120.777
11
195.483
21
-120.655
0
LINE
8
BLACK
10
195.483
20
-120.655
11
195.481
21
-120.635
0
LINE
8
BLACK
10
195.481
20
-120.635
11
195.458
21
-120.515
0
LINE
8
BLACK
10
195.458
20
-120.515
11
195.44
21
-120.416
0
LINE
8
BLACK
10
195.44
20
-120.416
11
195.425
21
-120.348
0
LINE
8
BLACK
10
195.425
20
-120.348
11
195.417
21
-120.32
0
LINE
8
BLACK
10
195.417
20
-120.32
11
195.402
21
-120.317
0
LINE
8
BLACK
10
195.402
20
-120.317
11
195.344
21
-120.312
0
LINE
8
BLACK
10
195.344
20
-120.312
11
195.255
21
-120.31
0
LINE
8
BLACK
10
195.255
20
-120.31
11
195.146
21
-120.31
0
LINE
8
BLACK
10
195.146
20
-120.31
11
195.034
21
-120.31
0
LINE
8
BLACK
10
195.034
20
-120.31
11
194.925
21
-120.312
0
LINE
8
BLACK
10
194.925
20
-120.312
11
194.831
21
-120.315
0
LINE
8
BLACK
10
194.831
20
-120.315
11
194.762
21
-120.32
0
LINE
8
BLACK
10
194.762
20
-120.32
11
194.734
21
-120.325
0
LINE
8
BLACK
10
194.734
20
-120.325
11
194.734
21
-120.327
0
LINE
8
BLACK
10
194.734
20
-120.327
11
194.724
21
-120.366
0
LINE
8
BLACK
10
194.724
20
-120.366
11
194.706
21
-120.439
0
LINE
8
BLACK
10
194.706
20
-120.439
11
194.686
21
-120.543
0
LINE
8
BLACK
10
194.686
20
-120.543
11
194.663
21
-120.665
0
LINE
8
BLACK
10
194.663
20
-120.665
11
194.658
21
-120.688
0
LINE
8
BLACK
10
194.658
20
-120.688
11
194.635
21
-120.805
0
LINE
8
BLACK
10
194.635
20
-120.805
11
194.615
21
-120.904
0
LINE
8
BLACK
10
194.615
20
-120.904
11
194.602
21
-120.97
0
LINE
8
BLACK
10
194.602
20
-120.97
11
194.594
21
-120.998
0
LINE
8
BLACK
10
194.594
20
-120.998
11
194.582
21
-121.003
0
LINE
8
BLACK
10
194.582
20
-121.003
11
194.534
21
-121.023
0
LINE
8
BLACK
10
194.534
20
-121.023
11
194.455
21
-121.056
0
LINE
8
BLACK
10
194.455
20
-121.056
11
194.356
21
-121.097
0
LINE
8
BLACK
10
194.356
20
-121.097
11
194.127
21
-121.188
0
LINE
8
BLACK
10
194.127
20
-121.188
11
193.845
21
-120.998
0
LINE
8
BLACK
10
193.845
20
-120.998
11
193.82
21
-120.98
0
LINE
8
BLACK
10
193.82
20
-120.98
11
193.718
21
-120.912
0
LINE
8
BLACK
10
193.718
20
-120.912
11
193.637
21
-120.856
0
LINE
8
BLACK
10
193.637
20
-120.856
11
193.578
21
-120.818
0
LINE
8
BLACK
10
193.578
20
-120.818
11
193.556
21
-120.805
0
LINE
8
BLACK
10
193.556
20
-120.805
11
193.553
21
-120.805
0
LINE
8
BLACK
10
193.553
20
-120.805
11
193.525
21
-120.83
0
LINE
8
BLACK
10
193.525
20
-120.83
11
193.469
21
-120.884
0
LINE
8
BLACK
10
193.469
20
-120.884
11
193.393
21
-120.957
0
LINE
8
BLACK
10
193.393
20
-120.957
11
193.304
21
-121.044
0
LINE
8
BLACK
10
193.304
20
-121.044
11
193.241
21
-121.11
0
LINE
8
BLACK
10
193.241
20
-121.11
11
193.162
21
-121.188
0
LINE
8
BLACK
10
193.162
20
-121.188
11
193.114
21
-121.242
0
LINE
8
BLACK
10
193.114
20
-121.242
11
193.086
21
-121.275
0
LINE
8
BLACK
10
193.086
20
-121.275
11
193.078
21
-121.295
0
LINE
8
BLACK
10
193.078
20
-121.295
11
193.081
21
-121.31
0
LINE
8
BLACK
10
193.081
20
-121.31
11
193.098
21
-121.338
0
LINE
8
BLACK
10
193.098
20
-121.338
11
193.139
21
-121.399
0
LINE
8
BLACK
10
193.139
20
-121.399
11
193.197
21
-121.486
0
LINE
8
BLACK
10
193.197
20
-121.486
11
193.266
21
-121.585
0
LINE
8
BLACK
10
193.266
20
-121.585
11
193.322
21
-121.669
0
LINE
8
BLACK
10
193.322
20
-121.669
11
193.383
21
-121.763
0
LINE
8
BLACK
10
193.383
20
-121.763
11
193.421
21
-121.829
0
LINE
8
BLACK
10
193.421
20
-121.829
11
193.436
21
-121.862
0
LINE
8
BLACK
10
193.436
20
-121.862
11
193.431
21
-121.874
0
LINE
8
BLACK
10
193.431
20
-121.874
11
193.413
21
-121.93
0
LINE
8
BLACK
10
193.413
20
-121.93
11
193.378
21
-122.014
0
LINE
8
BLACK
10
193.378
20
-122.014
11
193.337
21
-122.113
0
LINE
8
BLACK
10
193.337
20
-122.113
11
193.238
21
-122.334
0
LINE
8
BLACK
10
193.238
20
-122.334
11
193.093
21
-122.362
0
LINE
8
BLACK
10
193.093
20
-122.362
11
193.004
21
-122.38
0
LINE
8
BLACK
10
193.004
20
-122.38
11
192.883
21
-122.403
0
LINE
8
BLACK
10
192.883
20
-122.403
11
192.763
21
-122.425
0
LINE
8
BLACK
10
192.763
20
-122.425
11
192.58
21
-122.461
0
LINE
8
BLACK
10
192.58
20
-122.461
11
192.573
21
-123.137
0
LINE
8
BLACK
10
192.573
20
-123.137
11
192.601
21
-123.149
0
LINE
8
BLACK
10
192.601
20
-123.149
11
192.629
21
-123.157
0
LINE
8
BLACK
10
192.629
20
-123.157
11
192.697
21
-123.172
0
LINE
8
BLACK
10
192.697
20
-123.172
11
192.794
21
-123.193
0
LINE
8
BLACK
10
192.794
20
-123.193
11
192.91
21
-123.213
0
LINE
8
BLACK
10
192.91
20
-123.213
11
193.007
21
-123.231
0
LINE
8
BLACK
10
193.007
20
-123.231
11
193.106
21
-123.251
0
LINE
8
BLACK
10
193.106
20
-123.251
11
193.177
21
-123.264
0
LINE
8
BLACK
10
193.177
20
-123.264
11
193.208
21
-123.271
0
LINE
8
BLACK
10
193.208
20
-123.271
11
193.218
21
-123.281
0
LINE
8
BLACK
10
193.218
20
-123.281
11
193.241
21
-123.33
0
LINE
8
BLACK
10
193.241
20
-123.33
11
193.276
21
-123.406
0
LINE
8
BLACK
10
193.276
20
-123.406
11
193.317
21
-123.497
0
LINE
8
BLACK
10
193.317
20
-123.497
11
193.355
21
-123.591
0
LINE
8
BLACK
10
193.355
20
-123.591
11
193.391
21
-123.68
0
LINE
8
BLACK
10
193.391
20
-123.68
11
193.413
21
-123.746
0
LINE
8
BLACK
10
193.413
20
-123.746
11
193.424
21
-123.779
0
LINE
8
BLACK
10
193.424
20
-123.779
11
193.411
21
-123.807
0
LINE
8
BLACK
10
193.411
20
-123.807
11
193.373
21
-123.866
0
LINE
8
BLACK
10
193.373
20
-123.866
11
193.319
21
-123.947
0
LINE
8
BLACK
10
193.319
20
-123.947
11
193.251
21
-124.046
0
LINE
8
BLACK
10
193.251
20
-124.046
11
193.185
21
-124.142
0
LINE
8
BLACK
10
193.185
20
-124.142
11
193.126
21
-124.226
0
LINE
8
BLACK
10
193.126
20
-124.226
11
193.088
21
-124.287
0
LINE
8
BLACK
10
193.088
20
-124.287
11
193.07
21
-124.315
0
LINE
8
BLACK
10
193.07
20
-124.315
11
193.081
21
-124.333
0
LINE
8
BLACK
10
193.081
20
-124.333
11
193.119
21
-124.381
0
LINE
8
BLACK
10
193.119
20
-124.381
11
193.192
21
-124.457
0
LINE
8
BLACK
10
193.192
20
-124.457
11
193.304
21
-124.567
0
LINE
8
BLACK
10
193.304
20
-124.567
11
193.322
21
-124.584
0
LINE
8
BLACK
10
193.322
20
-124.584
11
193.408
21
-124.668
0
LINE
8
BLACK
10
193.408
20
-124.668
11
193.482
21
-124.737
0
LINE
8
BLACK
10
193.482
20
-124.737
11
193.535
21
-124.783
0
LINE
8
BLACK
10
193.535
20
-124.783
11
193.558
21
-124.8
0
LINE
8
BLACK
10
224.816
20
-156.813
11
225.252
21
-157.249
0
LINE
8
BLACK
10
225.252
20
-157.249
11
225.329
21
-157.275
0
LINE
8
BLACK
10
225.329
20
-157.275
11
225.38
21
-157.275
0
LINE
8
BLACK
10
225.38
20
-157.275
11
225.457
21
-157.249
0
LINE
8
BLACK
10
225.457
20
-157.249
11
225.56
21
-157.147
0
LINE
8
BLACK
10
225.56
20
-157.147
11
225.585
21
-157.07
0
LINE
8
BLACK
10
225.585
20
-157.07
11
225.585
21
-157.018
0
LINE
8
BLACK
10
225.585
20
-157.018
11
225.56
21
-156.941
0
LINE
8
BLACK
10
225.56
20
-156.941
11
225.123
21
-156.505
0
LINE
8
BLACK
10
225.791
20
-156.197
11
226.15
21
-156.556
0
LINE
8
BLACK
10
225.457
20
-156.12
11
225.714
21
-156.633
0
LINE
8
BLACK
10
225.714
20
-156.633
11
226.047
21
-156.3
0
LINE
8
BLACK
10
225.996
20
-155.633
11
226.047
21
-155.581
0
LINE
8
BLACK
10
226.047
20
-155.581
11
226.124
21
-155.556
0
LINE
8
BLACK
10
226.124
20
-155.556
11
226.175
21
-155.556
0
LINE
8
BLACK
10
226.175
20
-155.556
11
226.252
21
-155.581
0
LINE
8
BLACK
10
226.252
20
-155.581
11
226.381
21
-155.658
0
LINE
8
BLACK
10
226.381
20
-155.658
11
226.509
21
-155.787
0
LINE
8
BLACK
10
226.509
20
-155.787
11
226.586
21
-155.915
0
LINE
8
BLACK
10
226.586
20
-155.915
11
226.612
21
-155.992
0
LINE
8
BLACK
10
226.612
20
-155.992
11
226.612
21
-156.043
0
LINE
8
BLACK
10
226.612
20
-156.043
11
226.586
21
-156.12
0
LINE
8
BLACK
10
226.586
20
-156.12
11
226.535
21
-156.172
0
LINE
8
BLACK
10
226.535
20
-156.172
11
226.458
21
-156.197
0
LINE
8
BLACK
10
226.458
20
-156.197
11
226.406
21
-156.197
0
LINE
8
BLACK
10
226.406
20
-156.197
11
226.329
21
-156.172
0
LINE
8
BLACK
10
226.329
20
-156.172
11
226.201
21
-156.095
0
LINE
8
BLACK
10
226.201
20
-156.095
11
226.073
21
-155.966
0
LINE
8
BLACK
10
226.073
20
-155.966
11
225.996
21
-155.838
0
LINE
8
BLACK
10
225.996
20
-155.838
11
225.97
21
-155.761
0
LINE
8
BLACK
10
225.97
20
-155.761
11
225.97
21
-155.71
0
LINE
8
BLACK
10
225.97
20
-155.71
11
225.996
21
-155.633
0
LINE
8
BLACK
10
227.227
20
-155.479
11
226.92
21
-155.787
0
LINE
8
BLACK
10
227.073
20
-155.633
11
226.535
21
-155.094
0
LINE
8
BLACK
10
226.535
20
-155.094
11
226.56
21
-155.222
0
LINE
8
BLACK
10
226.56
20
-155.222
11
226.56
21
-155.325
0
LINE
8
BLACK
10
226.56
20
-155.325
11
226.535
21
-155.402
0
LINE
8
BLACK
10
219.011
20
-148.455
11
218.754
21
-148.712
0
LINE
8
BLACK
10
218.754
20
-148.712
11
218.215
21
-148.173
0
LINE
8
BLACK
10
218.575
20
-147.814
11
218.883
21
-147.506
0
LINE
8
BLACK
10
219.267
20
-148.199
11
218.729
21
-147.66
0
LINE
8
BLACK
10
219.011
20
-147.378
11
219.37
21
-147.019
0
LINE
8
BLACK
10
219.37
20
-147.019
11
219.55
21
-147.917
0
LINE
8
BLACK
10
219.55
20
-147.917
11
219.909
21
-147.557
0
LINE
8
BLACK
10
220.396
20
-147.07
11
220.088
21
-147.378
0
LINE
8
BLACK
10
220.242
20
-147.224
11
219.704
21
-146.685
0
LINE
8
BLACK
10
219.704
20
-146.685
11
219.729
21
-146.813
0
LINE
8
BLACK
10
219.729
20
-146.813
11
219.729
21
-146.916
0
LINE
8
BLACK
10
219.729
20
-146.916
11
219.704
21
-146.993
0
LINE
8
BLACK
10
220.191
20
-146.198
11
220.242
21
-146.146
0
LINE
8
BLACK
10
220.242
20
-146.146
11
220.319
21
-146.121
0
LINE
8
BLACK
10
220.319
20
-146.121
11
220.371
21
-146.121
0
LINE
8
BLACK
10
220.371
20
-146.121
11
220.448
21
-146.146
0
LINE
8
BLACK
10
220.448
20
-146.146
11
220.576
21
-146.223
0
LINE
8
BLACK
10
220.576
20
-146.223
11
220.704
21
-146.351
0
LINE
8
BLACK
10
220.704
20
-146.351
11
220.781
21
-146.48
0
LINE
8
BLACK
10
220.781
20
-146.48
11
220.807
21
-146.557
0
LINE
8
BLACK
10
220.807
20
-146.557
11
220.807
21
-146.608
0
LINE
8
BLACK
10
220.807
20
-146.608
11
220.781
21
-146.685
0
LINE
8
BLACK
10
220.781
20
-146.685
11
220.73
21
-146.736
0
LINE
8
BLACK
10
220.73
20
-146.736
11
220.653
21
-146.762
0
LINE
8
BLACK
10
220.653
20
-146.762
11
220.602
21
-146.762
0
LINE
8
BLACK
10
220.602
20
-146.762
11
220.525
21
-146.736
0
LINE
8
BLACK
10
220.525
20
-146.736
11
220.396
21
-146.659
0
LINE
8
BLACK
10
220.396
20
-146.659
11
220.268
21
-146.531
0
LINE
8
BLACK
10
220.268
20
-146.531
11
220.191
21
-146.403
0
LINE
8
BLACK
10
220.191
20
-146.403
11
220.165
21
-146.326
0
LINE
8
BLACK
10
220.165
20
-146.326
11
220.165
21
-146.274
0
LINE
8
BLACK
10
220.165
20
-146.274
11
220.191
21
-146.198
0
LINE
8
BLACK
10
220.704
20
-145.684
11
220.756
21
-145.633
0
LINE
8
BLACK
10
220.756
20
-145.633
11
220.832
21
-145.607
0
LINE
8
BLACK
10
220.832
20
-145.607
11
220.884
21
-145.607
0
LINE
8
BLACK
10
220.884
20
-145.607
11
220.961
21
-145.633
0
LINE
8
BLACK
10
220.961
20
-145.633
11
221.089
21
-145.71
0
LINE
8
BLACK
10
221.089
20
-145.71
11
221.217
21
-145.838
0
LINE
8
BLACK
10
221.217
20
-145.838
11
221.294
21
-145.967
0
LINE
8
BLACK
10
221.294
20
-145.967
11
221.32
21
-146.044
0
LINE
8
BLACK
10
221.32
20
-146.044
11
221.32
21
-146.095
0
LINE
8
BLACK
10
221.32
20
-146.095
11
221.294
21
-146.172
0
LINE
8
BLACK
10
221.294
20
-146.172
11
221.243
21
-146.223
0
LINE
8
BLACK
10
221.243
20
-146.223
11
221.166
21
-146.249
0
LINE
8
BLACK
10
221.166
20
-146.249
11
221.115
21
-146.249
0
LINE
8
BLACK
10
221.115
20
-146.249
11
221.038
21
-146.223
0
LINE
8
BLACK
10
221.038
20
-146.223
11
220.909
21
-146.146
0
LINE
8
BLACK
10
220.909
20
-146.146
11
220.781
21
-146.018
0
LINE
8
BLACK
10
220.781
20
-146.018
11
220.704
21
-145.89
0
LINE
8
BLACK
10
220.704
20
-145.89
11
220.679
21
-145.813
0
LINE
8
BLACK
10
220.679
20
-145.813
11
220.679
21
-145.761
0
LINE
8
BLACK
10
220.679
20
-145.761
11
220.704
21
-145.684
0
LINE
8
BLACK
10
221.217
20
-145.171
11
221.269
21
-145.12
0
LINE
8
BLACK
10
221.269
20
-145.12
11
221.346
21
-145.094
0
LINE
8
BLACK
10
221.346
20
-145.094
11
221.397
21
-145.094
0
LINE
8
BLACK
10
221.397
20
-145.094
11
221.474
21
-145.12
0
LINE
8
BLACK
10
221.474
20
-145.12
11
221.602
21
-145.197
0
LINE
8
BLACK
10
221.602
20
-145.197
11
221.731
21
-145.325
0
LINE
8
BLACK
10
221.731
20
-145.325
11
221.807
21
-145.453
0
LINE
8
BLACK
10
221.807
20
-145.453
11
221.833
21
-145.53
0
LINE
8
BLACK
10
221.833
20
-145.53
11
221.833
21
-145.582
0
LINE
8
BLACK
10
221.833
20
-145.582
11
221.807
21
-145.659
0
LINE
8
BLACK
10
221.807
20
-145.659
11
221.756
21
-145.71
0
LINE
8
BLACK
10
221.756
20
-145.71
11
221.679
21
-145.736
0
LINE
8
BLACK
10
221.679
20
-145.736
11
221.628
21
-145.736
0
LINE
8
BLACK
10
221.628
20
-145.736
11
221.551
21
-145.71
0
LINE
8
BLACK
10
221.551
20
-145.71
11
221.423
21
-145.633
0
LINE
8
BLACK
10
221.423
20
-145.633
11
221.294
21
-145.505
0
LINE
8
BLACK
10
221.294
20
-145.505
11
221.217
21
-145.376
0
LINE
8
BLACK
10
221.217
20
-145.376
11
221.192
21
-145.299
0
LINE
8
BLACK
10
221.192
20
-145.299
11
221.192
21
-145.248
0
LINE
8
BLACK
10
221.192
20
-145.248
11
221.217
21
-145.171
0
LINE
8
BLACK
10
221.987
20
-145.171
11
222.244
21
-144.915
0
LINE
8
BLACK
10
222.09
20
-145.376
11
221.731
21
-144.658
0
LINE
8
BLACK
10
221.731
20
-144.658
11
222.449
21
-145.017
0
LINE
8
BLACK
10
229.87
20
-129.703
11
229.834
21
-129.776
0
LINE
8
BLACK
10
229.834
20
-129.776
11
229.761
21
-129.848
0
LINE
8
BLACK
10
229.761
20
-129.848
11
229.652
21
-129.957
0
LINE
8
BLACK
10
229.652
20
-129.957
11
229.616
21
-130.03
0
LINE
8
BLACK
10
229.616
20
-130.03
11
229.616
21
-130.102
0
LINE
8
BLACK
10
229.797
20
-130.066
11
229.761
21
-130.139
0
LINE
8
BLACK
10
229.761
20
-130.139
11
229.689
21
-130.211
0
LINE
8
BLACK
10
229.689
20
-130.211
11
229.543
21
-130.248
0
LINE
8
BLACK
10
229.543
20
-130.248
11
229.289
21
-130.248
0
LINE
8
BLACK
10
229.289
20
-130.248
11
229.144
21
-130.211
0
LINE
8
BLACK
10
229.144
20
-130.211
11
229.072
21
-130.139
0
LINE
8
BLACK
10
229.072
20
-130.139
11
229.035
21
-130.066
0
LINE
8
BLACK
10
229.035
20
-130.066
11
229.035
21
-129.921
0
LINE
8
BLACK
10
229.035
20
-129.921
11
229.072
21
-129.848
0
LINE
8
BLACK
10
229.072
20
-129.848
11
229.144
21
-129.776
0
LINE
8
BLACK
10
229.144
20
-129.776
11
229.289
21
-129.74
0
LINE
8
BLACK
10
229.289
20
-129.74
11
229.543
21
-129.74
0
LINE
8
BLACK
10
229.543
20
-129.74
11
229.689
21
-129.776
0
LINE
8
BLACK
10
229.689
20
-129.776
11
229.761
21
-129.848
0
LINE
8
BLACK
10
229.761
20
-129.848
11
229.797
21
-129.921
0
LINE
8
BLACK
10
229.797
20
-129.921
11
229.797
21
-130.066
0
LINE
8
BLACK
10
229.289
20
-129.086
11
229.797
21
-129.086
0
LINE
8
BLACK
10
228.999
20
-129.268
11
229.543
21
-129.449
0
LINE
8
BLACK
10
229.543
20
-129.449
11
229.543
21
-128.978
0
LINE
8
BLACK
10
229.035
20
-128.542
11
229.035
21
-128.47
0
LINE
8
BLACK
10
229.035
20
-128.47
11
229.072
21
-128.397
0
LINE
8
BLACK
10
229.072
20
-128.397
11
229.108
21
-128.361
0
LINE
8
BLACK
10
229.108
20
-128.361
11
229.181
21
-128.324
0
LINE
8
BLACK
10
229.181
20
-128.324
11
229.326
21
-128.288
0
LINE
8
BLACK
10
229.326
20
-128.288
11
229.507
21
-128.288
0
LINE
8
BLACK
10
229.507
20
-128.288
11
229.652
21
-128.324
0
LINE
8
BLACK
10
229.652
20
-128.324
11
229.725
21
-128.361
0
LINE
8
BLACK
10
229.725
20
-128.361
11
229.761
21
-128.397
0
LINE
8
BLACK
10
229.761
20
-128.397
11
229.797
21
-128.47
0
LINE
8
BLACK
10
229.797
20
-128.47
11
229.797
21
-128.542
0
LINE
8
BLACK
10
229.797
20
-128.542
11
229.761
21
-128.615
0
LINE
8
BLACK
10
229.761
20
-128.615
11
229.725
21
-128.651
0
LINE
8
BLACK
10
229.725
20
-128.651
11
229.652
21
-128.687
0
LINE
8
BLACK
10
229.652
20
-128.687
11
229.507
21
-128.724
0
LINE
8
BLACK
10
229.507
20
-128.724
11
229.326
21
-128.724
0
LINE
8
BLACK
10
229.326
20
-128.724
11
229.181
21
-128.687
0
LINE
8
BLACK
10
229.181
20
-128.687
11
229.108
21
-128.651
0
LINE
8
BLACK
10
229.108
20
-128.651
11
229.072
21
-128.615
0
LINE
8
BLACK
10
229.072
20
-128.615
11
229.035
21
-128.542
0
LINE
8
BLACK
10
229.797
20
-127.562
11
229.797
21
-127.998
0
LINE
8
BLACK
10
229.797
20
-127.78
11
229.035
21
-127.78
0
LINE
8
BLACK
10
229.035
20
-127.78
11
229.144
21
-127.853
0
LINE
8
BLACK
10
229.144
20
-127.853
11
229.217
21
-127.925
0
LINE
8
BLACK
10
229.217
20
-127.925
11
229.253
21
-127.998
0
LINE
8
BLACK
10
217.986
20
-130.883
11
217.224
21
-130.883
0
LINE
8
BLACK
10
217.224
20
-130.883
11
217.769
21
-130.629
0
LINE
8
BLACK
10
217.769
20
-130.629
11
217.224
21
-130.375
0
LINE
8
BLACK
10
217.224
20
-130.375
11
217.986
21
-130.375
0
LINE
8
BLACK
10
217.224
20
-129.794
11
217.769
21
-129.794
0
LINE
8
BLACK
10
217.769
20
-129.794
11
217.878
21
-129.83
0
LINE
8
BLACK
10
217.878
20
-129.83
11
217.95
21
-129.903
0
LINE
8
BLACK
10
217.95
20
-129.903
11
217.986
21
-130.012
0
LINE
8
BLACK
10
217.986
20
-130.012
11
217.986
21
-130.084
0
LINE
8
BLACK
10
217.587
20
-129.431
11
217.587
21
-129.177
0
LINE
8
BLACK
10
217.986
20
-129.068
11
217.986
21
-129.431
0
LINE
8
BLACK
10
217.986
20
-129.431
11
217.224
21
-129.431
0
LINE
8
BLACK
10
217.224
20
-129.431
11
217.224
21
-129.068
0
LINE
8
BLACK
10
217.986
20
-128.343
11
217.986
21
-128.778
0
LINE
8
BLACK
10
217.986
20
-128.56
11
217.224
21
-128.56
0
LINE
8
BLACK
10
217.224
20
-128.56
11
217.333
21
-128.633
0
LINE
8
BLACK
10
217.333
20
-128.633
11
217.406
21
-128.705
0
LINE
8
BLACK
10
217.406
20
-128.705
11
217.442
21
-128.778
0
LINE
8
BLACK
10
217.551
20
-127.907
11
217.515
21
-127.98
0
LINE
8
BLACK
10
217.515
20
-127.98
11
217.478
21
-128.016
0
LINE
8
BLACK
10
217.478
20
-128.016
11
217.406
21
-128.052
0
LINE
8
BLACK
10
217.406
20
-128.052
11
217.37
21
-128.052
0
LINE
8
BLACK
10
217.37
20
-128.052
11
217.297
21
-128.016
0
LINE
8
BLACK
10
217.297
20
-128.016
11
217.261
21
-127.98
0
LINE
8
BLACK
10
217.261
20
-127.98
11
217.224
21
-127.907
0
LINE
8
BLACK
10
217.224
20
-127.907
11
217.224
21
-127.762
0
LINE
8
BLACK
10
217.224
20
-127.762
11
217.261
21
-127.689
0
LINE
8
BLACK
10
217.261
20
-127.689
11
217.297
21
-127.653
0
LINE
8
BLACK
10
217.297
20
-127.653
11
217.37
21
-127.617
0
LINE
8
BLACK
10
217.37
20
-127.617
11
217.406
21
-127.617
0
LINE
8
BLACK
10
217.406
20
-127.617
11
217.478
21
-127.653
0
LINE
8
BLACK
10
217.478
20
-127.653
11
217.515
21
-127.689
0
LINE
8
BLACK
10
217.515
20
-127.689
11
217.551
21
-127.762
0
LINE
8
BLACK
10
217.551
20
-127.762
11
217.551
21
-127.907
0
LINE
8
BLACK
10
217.551
20
-127.907
11
217.587
21
-127.98
0
LINE
8
BLACK
10
217.587
20
-127.98
11
217.624
21
-128.016
0
LINE
8
BLACK
10
217.624
20
-128.016
11
217.696
21
-128.052
0
LINE
8
BLACK
10
217.696
20
-128.052
11
217.841
21
-128.052
0
LINE
8
BLACK
10
217.841
20
-128.052
11
217.914
21
-128.016
0
LINE
8
BLACK
10
217.914
20
-128.016
11
217.95
21
-127.98
0
LINE
8
BLACK
10
217.95
20
-127.98
11
217.986
21
-127.907
0
LINE
8
BLACK
10
217.986
20
-127.907
11
217.986
21
-127.762
0
LINE
8
BLACK
10
217.986
20
-127.762
11
217.95
21
-127.689
0
LINE
8
BLACK
10
217.95
20
-127.689
11
217.914
21
-127.653
0
LINE
8
BLACK
10
217.914
20
-127.653
11
217.841
21
-127.617
0
LINE
8
BLACK
10
217.841
20
-127.617
11
217.696
21
-127.617
0
LINE
8
BLACK
10
217.696
20
-127.617
11
217.624
21
-127.653
0
LINE
8
BLACK
10
217.624
20
-127.653
11
217.587
21
-127.689
0
LINE
8
BLACK
10
217.587
20
-127.689
11
217.551
21
-127.762
0
LINE
8
BLACK
10
217.297
20
-127.327
11
217.261
21
-127.29
0
LINE
8
BLACK
10
217.261
20
-127.29
11
217.224
21
-127.218
0
LINE
8
BLACK
10
217.224
20
-127.218
11
217.224
21
-127.036
0
LINE
8
BLACK
10
217.224
20
-127.036
11
217.261
21
-126.964
0
LINE
8
BLACK
10
217.261
20
-126.964
11
217.297
21
-126.927
0
LINE
8
BLACK
10
217.297
20
-126.927
11
217.37
21
-126.891
0
LINE
8
BLACK
10
217.37
20
-126.891
11
217.442
21
-126.891
0
LINE
8
BLACK
10
217.442
20
-126.891
11
217.551
21
-126.927
0
LINE
8
BLACK
10
217.551
20
-126.927
11
217.986
21
-127.363
0
LINE
8
BLACK
10
217.986
20
-127.363
11
217.986
21
-126.891
0
LINE
8
BLACK
10
185.347
20
-127.181
11
185.855
21
-127.943
0
LINE
8
BLACK
10
185.855
20
-127.181
11
185.347
21
-127.943
0
LINE
8
BLACK
10
186.472
20
-127.435
11
186.472
21
-127.943
0
LINE
8
BLACK
10
186.291
20
-127.145
11
186.109
21
-127.689
0
LINE
8
BLACK
10
186.109
20
-127.689
11
186.581
21
-127.689
0
LINE
8
BLACK
10
187.271
20
-127.943
11
186.835
21
-127.943
0
LINE
8
BLACK
10
187.053
20
-127.943
11
187.053
21
-127.181
0
LINE
8
BLACK
10
187.053
20
-127.181
11
186.98
21
-127.29
0
LINE
8
BLACK
10
186.98
20
-127.29
11
186.908
21
-127.363
0
LINE
8
BLACK
10
186.908
20
-127.363
11
186.835
21
-127.399
0
LINE
8
BLACK
10
187.996
20
-127.943
11
187.561
21
-127.943
0
LINE
8
BLACK
10
187.779
20
-127.943
11
187.779
21
-127.181
0
LINE
8
BLACK
10
187.779
20
-127.181
11
187.706
21
-127.29
0
LINE
8
BLACK
10
187.706
20
-127.29
11
187.633
21
-127.363
0
LINE
8
BLACK
10
187.633
20
-127.363
11
187.561
21
-127.399
0
LINE
8
BLACK
10
190.681
20
-126.673
11
190.246
21
-126.673
0
LINE
8
BLACK
10
190.464
20
-126.673
11
190.464
21
-125.911
0
LINE
8
BLACK
10
190.464
20
-125.911
11
190.391
21
-126.02
0
LINE
8
BLACK
10
190.391
20
-126.02
11
190.319
21
-126.093
0
LINE
8
BLACK
10
190.319
20
-126.093
11
190.246
21
-126.129
0
LINE
8
BLACK
10
191.371
20
-125.911
11
191.008
21
-125.911
0
LINE
8
BLACK
10
191.008
20
-125.911
11
190.972
21
-126.274
0
LINE
8
BLACK
10
190.972
20
-126.274
11
191.008
21
-126.238
0
LINE
8
BLACK
10
191.008
20
-126.238
11
191.081
21
-126.202
0
LINE
8
BLACK
10
191.081
20
-126.202
11
191.262
21
-126.202
0
LINE
8
BLACK
10
191.262
20
-126.202
11
191.335
21
-126.238
0
LINE
8
BLACK
10
191.335
20
-126.238
11
191.371
21
-126.274
0
LINE
8
BLACK
10
191.371
20
-126.274
11
191.407
21
-126.347
0
LINE
8
BLACK
10
191.407
20
-126.347
11
191.407
21
-126.528
0
LINE
8
BLACK
10
191.407
20
-126.528
11
191.371
21
-126.601
0
LINE
8
BLACK
10
191.371
20
-126.601
11
191.335
21
-126.637
0
LINE
8
BLACK
10
191.335
20
-126.637
11
191.262
21
-126.673
0
LINE
8
BLACK
10
191.262
20
-126.673
11
191.081
21
-126.673
0
LINE
8
BLACK
10
191.081
20
-126.673
11
191.008
21
-126.637
0
LINE
8
BLACK
10
191.008
20
-126.637
11
190.972
21
-126.601
0
LINE
8
BLACK
10
191.734
20
-126.673
11
191.734
21
-125.911
0
LINE
8
BLACK
10
191.806
20
-126.383
11
192.024
21
-126.673
0
LINE
8
BLACK
10
192.024
20
-126.165
11
191.734
21
-126.456
0
LINE
8
BLACK
10
189.792
20
-127.181
11
190.3
21
-127.943
0
LINE
8
BLACK
10
190.3
20
-127.181
11
189.792
21
-127.943
0
LINE
8
BLACK
10
190.917
20
-127.435
11
190.917
21
-127.943
0
LINE
8
BLACK
10
190.736
20
-127.145
11
190.554
21
-127.689
0
LINE
8
BLACK
10
190.554
20
-127.689
11
191.026
21
-127.689
0
LINE
8
BLACK
10
191.716
20
-127.943
11
191.28
21
-127.943
0
LINE
8
BLACK
10
191.498
20
-127.943
11
191.498
21
-127.181
0
LINE
8
BLACK
10
191.498
20
-127.181
11
191.425
21
-127.29
0
LINE
8
BLACK
10
191.425
20
-127.29
11
191.353
21
-127.363
0
LINE
8
BLACK
10
191.353
20
-127.363
11
191.28
21
-127.399
0
LINE
8
BLACK
10
192.006
20
-127.254
11
192.042
21
-127.218
0
LINE
8
BLACK
10
192.042
20
-127.218
11
192.115
21
-127.181
0
LINE
8
BLACK
10
192.115
20
-127.181
11
192.296
21
-127.181
0
LINE
8
BLACK
10
192.296
20
-127.181
11
192.369
21
-127.218
0
LINE
8
BLACK
10
192.369
20
-127.218
11
192.405
21
-127.254
0
LINE
8
BLACK
10
192.405
20
-127.254
11
192.441
21
-127.327
0
LINE
8
BLACK
10
192.441
20
-127.327
11
192.441
21
-127.399
0
LINE
8
BLACK
10
192.441
20
-127.399
11
192.405
21
-127.508
0
LINE
8
BLACK
10
192.405
20
-127.508
11
191.97
21
-127.943
0
LINE
8
BLACK
10
191.97
20
-127.943
11
192.441
21
-127.943
0
LINE
8
BLACK
10
186.599
20
-126.673
11
186.164
21
-126.673
0
LINE
8
BLACK
10
186.382
20
-126.673
11
186.382
21
-125.911
0
LINE
8
BLACK
10
186.382
20
-125.911
11
186.309
21
-126.02
0
LINE
8
BLACK
10
186.309
20
-126.02
11
186.236
21
-126.093
0
LINE
8
BLACK
10
186.236
20
-126.093
11
186.164
21
-126.129
0
LINE
8
BLACK
10
186.926
20
-126.673
11
186.926
21
-125.911
0
LINE
8
BLACK
10
186.998
20
-126.383
11
187.216
21
-126.673
0
LINE
8
BLACK
10
187.216
20
-126.165
11
186.926
21
-126.456
0
LINE
8
BLACK
10
185.347
20
-157.661
11
185.855
21
-158.423
0
LINE
8
BLACK
10
185.855
20
-157.661
11
185.347
21
-158.423
0
LINE
8
BLACK
10
186.472
20
-157.915
11
186.472
21
-158.423
0
LINE
8
BLACK
10
186.291
20
-157.625
11
186.109
21
-158.169
0
LINE
8
BLACK
10
186.109
20
-158.169
11
186.581
21
-158.169
0
LINE
8
BLACK
10
187.271
20
-158.423
11
186.835
21
-158.423
0
LINE
8
BLACK
10
187.053
20
-158.423
11
187.053
21
-157.661
0
LINE
8
BLACK
10
187.053
20
-157.661
11
186.98
21
-157.77
0
LINE
8
BLACK
10
186.98
20
-157.77
11
186.908
21
-157.843
0
LINE
8
BLACK
10
186.908
20
-157.843
11
186.835
21
-157.879
0
LINE
8
BLACK
10
187.924
20
-157.915
11
187.924
21
-158.423
0
LINE
8
BLACK
10
187.742
20
-157.625
11
187.561
21
-158.169
0
LINE
8
BLACK
10
187.561
20
-158.169
11
188.033
21
-158.169
0
LINE
8
BLACK
10
185.801
20
-159.693
11
185.366
21
-159.693
0
LINE
8
BLACK
10
185.583
20
-159.693
11
185.583
21
-158.931
0
LINE
8
BLACK
10
185.583
20
-158.931
11
185.511
21
-159.04
0
LINE
8
BLACK
10
185.511
20
-159.04
11
185.438
21
-159.113
0
LINE
8
BLACK
10
185.438
20
-159.113
11
185.366
21
-159.149
0
LINE
8
BLACK
10
186.527
20
-159.693
11
186.091
21
-159.693
0
LINE
8
BLACK
10
186.309
20
-159.693
11
186.309
21
-158.931
0
LINE
8
BLACK
10
186.309
20
-158.931
11
186.236
21
-159.04
0
LINE
8
BLACK
10
186.236
20
-159.04
11
186.164
21
-159.113
0
LINE
8
BLACK
10
186.164
20
-159.113
11
186.091
21
-159.149
0
LINE
8
BLACK
10
187.252
20
-159.693
11
186.817
21
-159.693
0
LINE
8
BLACK
10
187.035
20
-159.693
11
187.035
21
-158.931
0
LINE
8
BLACK
10
187.035
20
-158.931
11
186.962
21
-159.04
0
LINE
8
BLACK
10
186.962
20
-159.04
11
186.89
21
-159.113
0
LINE
8
BLACK
10
186.89
20
-159.113
11
186.817
21
-159.149
0
LINE
8
BLACK
10
188.014
20
-159.693
11
187.76
21
-159.331
0
LINE
8
BLACK
10
187.579
20
-159.693
11
187.579
21
-158.931
0
LINE
8
BLACK
10
187.579
20
-158.931
11
187.869
21
-158.931
0
LINE
8
BLACK
10
187.869
20
-158.931
11
187.942
21
-158.968
0
LINE
8
BLACK
10
187.942
20
-158.968
11
187.978
21
-159.004
0
LINE
8
BLACK
10
187.978
20
-159.004
11
188.014
21
-159.077
0
LINE
8
BLACK
10
188.014
20
-159.077
11
188.014
21
-159.185
0
LINE
8
BLACK
10
188.014
20
-159.185
11
187.978
21
-159.258
0
LINE
8
BLACK
10
187.978
20
-159.258
11
187.942
21
-159.294
0
LINE
8
BLACK
10
187.942
20
-159.294
11
187.869
21
-159.331
0
LINE
8
BLACK
10
187.869
20
-159.331
11
187.579
21
-159.331
0
LINE
8
BLACK
10
203.381
20
-136.434
11
203.998
21
-136.434
0
LINE
8
BLACK
10
203.998
20
-136.434
11
204.071
21
-136.398
0
LINE
8
BLACK
10
204.071
20
-136.398
11
204.107
21
-136.362
0
LINE
8
BLACK
10
204.107
20
-136.362
11
204.143
21
-136.289
0
LINE
8
BLACK
10
204.143
20
-136.289
11
204.143
21
-136.144
0
LINE
8
BLACK
10
204.143
20
-136.144
11
204.107
21
-136.071
0
LINE
8
BLACK
10
204.107
20
-136.071
11
204.071
21
-136.035
0
LINE
8
BLACK
10
204.071
20
-136.035
11
203.998
21
-135.999
0
LINE
8
BLACK
10
203.998
20
-135.999
11
203.381
21
-135.999
0
LINE
8
BLACK
10
203.635
20
-135.309
11
204.143
21
-135.309
0
LINE
8
BLACK
10
203.345
20
-135.491
11
203.889
21
-135.672
0
LINE
8
BLACK
10
203.889
20
-135.672
11
203.889
21
-135.201
0
LINE
8
BLACK
10
203.381
20
-134.765
11
203.381
21
-134.693
0
LINE
8
BLACK
10
203.381
20
-134.693
11
203.418
21
-134.62
0
LINE
8
BLACK
10
203.418
20
-134.62
11
203.454
21
-134.584
0
LINE
8
BLACK
10
203.454
20
-134.584
11
203.527
21
-134.547
0
LINE
8
BLACK
10
203.527
20
-134.547
11
203.672
21
-134.511
0
LINE
8
BLACK
10
203.672
20
-134.511
11
203.853
21
-134.511
0
LINE
8
BLACK
10
203.853
20
-134.511
11
203.998
21
-134.547
0
LINE
8
BLACK
10
203.998
20
-134.547
11
204.071
21
-134.584
0
LINE
8
BLACK
10
204.071
20
-134.584
11
204.107
21
-134.62
0
LINE
8
BLACK
10
204.107
20
-134.62
11
204.143
21
-134.693
0
LINE
8
BLACK
10
204.143
20
-134.693
11
204.143
21
-134.765
0
LINE
8
BLACK
10
204.143
20
-134.765
11
204.107
21
-134.838
0
LINE
8
BLACK
10
204.107
20
-134.838
11
204.071
21
-134.874
0
LINE
8
BLACK
10
204.071
20
-134.874
11
203.998
21
-134.91
0
LINE
8
BLACK
10
203.998
20
-134.91
11
203.853
21
-134.947
0
LINE
8
BLACK
10
203.853
20
-134.947
11
203.672
21
-134.947
0
LINE
8
BLACK
10
203.672
20
-134.947
11
203.527
21
-134.91
0
LINE
8
BLACK
10
203.527
20
-134.91
11
203.454
21
-134.874
0
LINE
8
BLACK
10
203.454
20
-134.874
11
203.418
21
-134.838
0
LINE
8
BLACK
10
203.418
20
-134.838
11
203.381
21
-134.765
0
LINE
8
BLACK
10
203.454
20
-134.221
11
203.418
21
-134.185
0
LINE
8
BLACK
10
203.418
20
-134.185
11
203.381
21
-134.112
0
LINE
8
BLACK
10
203.381
20
-134.112
11
203.381
21
-133.931
0
LINE
8
BLACK
10
203.381
20
-133.931
11
203.418
21
-133.858
0
LINE
8
BLACK
10
203.418
20
-133.858
11
203.454
21
-133.822
0
LINE
8
BLACK
10
203.454
20
-133.822
11
203.527
21
-133.785
0
LINE
8
BLACK
10
203.527
20
-133.785
11
203.599
21
-133.785
0
LINE
8
BLACK
10
203.599
20
-133.785
11
203.708
21
-133.822
0
LINE
8
BLACK
10
203.708
20
-133.822
11
204.143
21
-134.257
0
LINE
8
BLACK
10
204.143
20
-134.257
11
204.143
21
-133.785
0
LINE
8
BLACK
10
206.774
20
-135.436
11
206.411
21
-135.436
0
LINE
8
BLACK
10
206.411
20
-135.436
11
206.411
21
-134.674
0
LINE
8
BLACK
10
206.919
20
-134.674
11
207.355
21
-134.674
0
LINE
8
BLACK
10
207.137
20
-135.436
11
207.137
21
-134.674
0
LINE
8
BLACK
10
208.008
20
-135.436
11
207.572
21
-135.436
0
LINE
8
BLACK
10
207.79
20
-135.436
11
207.79
21
-134.674
0
LINE
8
BLACK
10
207.79
20
-134.674
11
207.718
21
-134.783
0
LINE
8
BLACK
10
207.718
20
-134.783
11
207.645
21
-134.856
0
LINE
8
BLACK
10
207.645
20
-134.856
11
207.572
21
-134.892
0
LINE
8
BLACK
10
208.48
20
-134.674
11
208.552
21
-134.674
0
LINE
8
BLACK
10
208.552
20
-134.674
11
208.625
21
-134.711
0
LINE
8
BLACK
10
208.625
20
-134.711
11
208.661
21
-134.747
0
LINE
8
BLACK
10
208.661
20
-134.747
11
208.697
21
-134.82
0
LINE
8
BLACK
10
208.697
20
-134.82
11
208.734
21
-134.965
0
LINE
8
BLACK
10
208.734
20
-134.965
11
208.734
21
-135.146
0
LINE
8
BLACK
10
208.734
20
-135.146
11
208.697
21
-135.291
0
LINE
8
BLACK
10
208.697
20
-135.291
11
208.661
21
-135.364
0
LINE
8
BLACK
10
208.661
20
-135.364
11
208.625
21
-135.4
0
LINE
8
BLACK
10
208.625
20
-135.4
11
208.552
21
-135.436
0
LINE
8
BLACK
10
208.552
20
-135.436
11
208.48
21
-135.436
0
LINE
8
BLACK
10
208.48
20
-135.436
11
208.407
21
-135.4
0
LINE
8
BLACK
10
208.407
20
-135.4
11
208.371
21
-135.364
0
LINE
8
BLACK
10
208.371
20
-135.364
11
208.334
21
-135.291
0
LINE
8
BLACK
10
208.334
20
-135.291
11
208.298
21
-135.146
0
LINE
8
BLACK
10
208.298
20
-135.146
11
208.298
21
-134.965
0
LINE
8
BLACK
10
208.298
20
-134.965
11
208.334
21
-134.82
0
LINE
8
BLACK
10
208.334
20
-134.82
11
208.371
21
-134.747
0
LINE
8
BLACK
10
208.371
20
-134.747
11
208.407
21
-134.711
0
LINE
8
BLACK
10
208.407
20
-134.711
11
208.48
21
-134.674
0
LINE
8
BLACK
10
209.459
20
-135.436
11
209.024
21
-135.436
0
LINE
8
BLACK
10
209.242
20
-135.436
11
209.242
21
-134.674
0
LINE
8
BLACK
10
209.242
20
-134.674
11
209.169
21
-134.783
0
LINE
8
BLACK
10
209.169
20
-134.783
11
209.096
21
-134.856
0
LINE
8
BLACK
10
209.096
20
-134.856
11
209.024
21
-134.892
0
LINE
8
BLACK
10
209.713
20
-134.674
11
210.185
21
-134.674
0
LINE
8
BLACK
10
210.185
20
-134.674
11
209.931
21
-134.965
0
LINE
8
BLACK
10
209.931
20
-134.965
11
210.04
21
-134.965
0
LINE
8
BLACK
10
210.04
20
-134.965
11
210.112
21
-135.001
0
LINE
8
BLACK
10
210.112
20
-135.001
11
210.149
21
-135.037
0
LINE
8
BLACK
10
210.149
20
-135.037
11
210.185
21
-135.11
0
LINE
8
BLACK
10
210.185
20
-135.11
11
210.185
21
-135.291
0
LINE
8
BLACK
10
210.185
20
-135.291
11
210.149
21
-135.364
0
LINE
8
BLACK
10
210.149
20
-135.364
11
210.112
21
-135.4
0
LINE
8
BLACK
10
210.112
20
-135.4
11
210.04
21
-135.436
0
LINE
8
BLACK
10
210.04
20
-135.436
11
209.822
21
-135.436
0
LINE
8
BLACK
10
209.822
20
-135.436
11
209.75
21
-135.4
0
LINE
8
BLACK
10
209.75
20
-135.4
11
209.713
21
-135.364
0
LINE
8
BLACK
10
213.922
20
-154.65
11
214.467
21
-154.65
0
LINE
8
BLACK
10
214.467
20
-154.65
11
214.576
21
-154.686
0
LINE
8
BLACK
10
214.576
20
-154.686
11
214.648
21
-154.759
0
LINE
8
BLACK
10
214.648
20
-154.759
11
214.684
21
-154.867
0
LINE
8
BLACK
10
214.684
20
-154.867
11
214.684
21
-154.94
0
LINE
8
BLACK
10
214.176
20
-153.96
11
214.684
21
-153.96
0
LINE
8
BLACK
10
213.886
20
-154.142
11
214.43
21
-154.323
0
LINE
8
BLACK
10
214.43
20
-154.323
11
214.43
21
-153.851
0
LINE
8
BLACK
10
213.922
20
-153.416
11
213.922
21
-153.343
0
LINE
8
BLACK
10
213.922
20
-153.343
11
213.959
21
-153.271
0
LINE
8
BLACK
10
213.959
20
-153.271
11
213.995
21
-153.235
0
LINE
8
BLACK
10
213.995
20
-153.235
11
214.068
21
-153.198
0
LINE
8
BLACK
10
214.068
20
-153.198
11
214.213
21
-153.162
0
LINE
8
BLACK
10
214.213
20
-153.162
11
214.394
21
-153.162
0
LINE
8
BLACK
10
214.394
20
-153.162
11
214.539
21
-153.198
0
LINE
8
BLACK
10
214.539
20
-153.198
11
214.612
21
-153.235
0
LINE
8
BLACK
10
214.612
20
-153.235
11
214.648
21
-153.271
0
LINE
8
BLACK
10
214.648
20
-153.271
11
214.684
21
-153.343
0
LINE
8
BLACK
10
214.684
20
-153.343
11
214.684
21
-153.416
0
LINE
8
BLACK
10
214.684
20
-153.416
11
214.648
21
-153.489
0
LINE
8
BLACK
10
214.648
20
-153.489
11
214.612
21
-153.525
0
LINE
8
BLACK
10
214.612
20
-153.525
11
214.539
21
-153.561
0
LINE
8
BLACK
10
214.539
20
-153.561
11
214.394
21
-153.597
0
LINE
8
BLACK
10
214.394
20
-153.597
11
214.213
21
-153.597
0
LINE
8
BLACK
10
214.213
20
-153.597
11
214.068
21
-153.561
0
LINE
8
BLACK
10
214.068
20
-153.561
11
213.995
21
-153.525
0
LINE
8
BLACK
10
213.995
20
-153.525
11
213.959
21
-153.489
0
LINE
8
BLACK
10
213.959
20
-153.489
11
213.922
21
-153.416
0
LINE
8
BLACK
10
213.922
20
-152.69
11
213.922
21
-152.618
0
LINE
8
BLACK
10
213.922
20
-152.618
11
213.959
21
-152.545
0
LINE
8
BLACK
10
213.959
20
-152.545
11
213.995
21
-152.509
0
LINE
8
BLACK
10
213.995
20
-152.509
11
214.068
21
-152.473
0
LINE
8
BLACK
10
214.068
20
-152.473
11
214.213
21
-152.436
0
LINE
8
BLACK
10
214.213
20
-152.436
11
214.394
21
-152.436
0
LINE
8
BLACK
10
214.394
20
-152.436
11
214.539
21
-152.473
0
LINE
8
BLACK
10
214.539
20
-152.473
11
214.612
21
-152.509
0
LINE
8
BLACK
10
214.612
20
-152.509
11
214.648
21
-152.545
0
LINE
8
BLACK
10
214.648
20
-152.545
11
214.684
21
-152.618
0
LINE
8
BLACK
10
214.684
20
-152.618
11
214.684
21
-152.69
0
LINE
8
BLACK
10
214.684
20
-152.69
11
214.648
21
-152.763
0
LINE
8
BLACK
10
214.648
20
-152.763
11
214.612
21
-152.799
0
LINE
8
BLACK
10
214.612
20
-152.799
11
214.539
21
-152.835
0
LINE
8
BLACK
10
214.539
20
-152.835
11
214.394
21
-152.872
0
LINE
8
BLACK
10
214.394
20
-152.872
11
214.213
21
-152.872
0
LINE
8
BLACK
10
214.213
20
-152.872
11
214.068
21
-152.835
0
LINE
8
BLACK
10
214.068
20
-152.835
11
213.995
21
-152.799
0
LINE
8
BLACK
10
213.995
20
-152.799
11
213.959
21
-152.763
0
LINE
8
BLACK
10
213.959
20
-152.763
11
213.922
21
-152.69
0
LINE
8
BLACK
10
203.309
20
-152.654
11
203.345
21
-152.618
0
LINE
8
BLACK
10
203.345
20
-152.618
11
203.418
21
-152.581
0
LINE
8
BLACK
10
203.418
20
-152.581
11
203.599
21
-152.581
0
LINE
8
BLACK
10
203.599
20
-152.581
11
203.672
21
-152.618
0
LINE
8
BLACK
10
203.672
20
-152.618
11
203.708
21
-152.654
0
LINE
8
BLACK
10
203.708
20
-152.654
11
203.744
21
-152.727
0
LINE
8
BLACK
10
203.744
20
-152.727
11
203.744
21
-152.799
0
LINE
8
BLACK
10
203.744
20
-152.799
11
203.708
21
-152.908
0
LINE
8
BLACK
10
203.708
20
-152.908
11
203.273
21
-153.343
0
LINE
8
BLACK
10
203.273
20
-153.343
11
203.744
21
-153.343
0
LINE
8
BLACK
10
204.035
20
-152.654
11
204.071
21
-152.618
0
LINE
8
BLACK
10
204.071
20
-152.618
11
204.143
21
-152.581
0
LINE
8
BLACK
10
204.143
20
-152.581
11
204.325
21
-152.581
0
LINE
8
BLACK
10
204.325
20
-152.581
11
204.397
21
-152.618
0
LINE
8
BLACK
10
204.397
20
-152.618
11
204.434
21
-152.654
0
LINE
8
BLACK
10
204.434
20
-152.654
11
204.47
21
-152.727
0
LINE
8
BLACK
10
204.47
20
-152.727
11
204.47
21
-152.799
0
LINE
8
BLACK
10
204.47
20
-152.799
11
204.434
21
-152.908
0
LINE
8
BLACK
10
204.434
20
-152.908
11
203.998
21
-153.343
0
LINE
8
BLACK
10
203.998
20
-153.343
11
204.47
21
-153.343
0
LINE
8
BLACK
10
204.797
20
-153.053
11
205.377
21
-153.053
0
LINE
8
BLACK
10
206.139
20
-153.343
11
205.704
21
-153.343
0
LINE
8
BLACK
10
205.921
20
-153.343
11
205.921
21
-152.581
0
LINE
8
BLACK
10
205.921
20
-152.581
11
205.849
21
-152.69
0
LINE
8
BLACK
10
205.849
20
-152.69
11
205.776
21
-152.763
0
LINE
8
BLACK
10
205.776
20
-152.763
11
205.704
21
-152.799
0
LINE
8
BLACK
10
206.393
20
-152.581
11
206.901
21
-152.581
0
LINE
8
BLACK
10
206.901
20
-152.581
11
206.575
21
-153.343
0
LINE
8
BLACK
10
207.191
20
-153.053
11
207.772
21
-153.053
0
LINE
8
BLACK
10
208.099
20
-152.654
11
208.135
21
-152.618
0
LINE
8
BLACK
10
208.135
20
-152.618
11
208.207
21
-152.581
0
LINE
8
BLACK
10
208.207
20
-152.581
11
208.389
21
-152.581
0
LINE
8
BLACK
10
208.389
20
-152.581
11
208.461
21
-152.618
0
LINE
8
BLACK
10
208.461
20
-152.618
11
208.498
21
-152.654
0
LINE
8
BLACK
10
208.498
20
-152.654
11
208.534
21
-152.727
0
LINE
8
BLACK
10
208.534
20
-152.727
11
208.534
21
-152.799
0
LINE
8
BLACK
10
208.534
20
-152.799
11
208.498
21
-152.908
0
LINE
8
BLACK
10
208.498
20
-152.908
11
208.062
21
-153.343
0
LINE
8
BLACK
10
208.062
20
-153.343
11
208.534
21
-153.343
0
LINE
8
BLACK
10
209.006
20
-152.581
11
209.078
21
-152.581
0
LINE
8
BLACK
10
209.078
20
-152.581
11
209.151
21
-152.618
0
LINE
8
BLACK
10
209.151
20
-152.618
11
209.187
21
-152.654
0
LINE
8
BLACK
10
209.187
20
-152.654
11
209.223
21
-152.727
0
LINE
8
BLACK
10
209.223
20
-152.727
11
209.26
21
-152.872
0
LINE
8
BLACK
10
209.26
20
-152.872
11
209.26
21
-153.053
0
LINE
8
BLACK
10
209.26
20
-153.053
11
209.223
21
-153.198
0
LINE
8
BLACK
10
209.223
20
-153.198
11
209.187
21
-153.271
0
LINE
8
BLACK
10
209.187
20
-153.271
11
209.151
21
-153.307
0
LINE
8
BLACK
10
209.151
20
-153.307
11
209.078
21
-153.343
0
LINE
8
BLACK
10
209.078
20
-153.343
11
209.006
21
-153.343
0
LINE
8
BLACK
10
209.006
20
-153.343
11
208.933
21
-153.307
0
LINE
8
BLACK
10
208.933
20
-153.307
11
208.897
21
-153.271
0
LINE
8
BLACK
10
208.897
20
-153.271
11
208.861
21
-153.198
0
LINE
8
BLACK
10
208.861
20
-153.198
11
208.824
21
-153.053
0
LINE
8
BLACK
10
208.824
20
-153.053
11
208.824
21
-152.872
0
LINE
8
BLACK
10
208.824
20
-152.872
11
208.861
21
-152.727
0
LINE
8
BLACK
10
208.861
20
-152.727
11
208.897
21
-152.654
0
LINE
8
BLACK
10
208.897
20
-152.654
11
208.933
21
-152.618
0
LINE
8
BLACK
10
208.933
20
-152.618
11
209.006
21
-152.581
0
LINE
8
BLACK
10
209.949
20
-152.581
11
209.586
21
-152.581
0
LINE
8
BLACK
10
209.586
20
-152.581
11
209.55
21
-152.944
0
LINE
8
BLACK
10
209.55
20
-152.944
11
209.586
21
-152.908
0
LINE
8
BLACK
10
209.586
20
-152.908
11
209.659
21
-152.872
0
LINE
8
BLACK
10
209.659
20
-152.872
11
209.84
21
-152.872
0
LINE
8
BLACK
10
209.84
20
-152.872
11
209.913
21
-152.908
0
LINE
8
BLACK
10
209.913
20
-152.908
11
209.949
21
-152.944
0
LINE
8
BLACK
10
209.949
20
-152.944
11
209.985
21
-153.017
0
LINE
8
BLACK
10
209.985
20
-153.017
11
209.985
21
-153.198
0
LINE
8
BLACK
10
209.985
20
-153.198
11
209.949
21
-153.271
0
LINE
8
BLACK
10
209.949
20
-153.271
11
209.913
21
-153.307
0
LINE
8
BLACK
10
209.913
20
-153.307
11
209.84
21
-153.343
0
LINE
8
BLACK
10
209.84
20
-153.343
11
209.659
21
-153.343
0
LINE
8
BLACK
10
209.659
20
-153.343
11
209.586
21
-153.307
0
LINE
8
BLACK
10
209.586
20
-153.307
11
209.55
21
-153.271
0
LINE
8
BLACK
10
210.276
20
-152.654
11
210.312
21
-152.618
0
LINE
8
BLACK
10
210.312
20
-152.618
11
210.385
21
-152.581
0
LINE
8
BLACK
10
210.385
20
-152.581
11
210.566
21
-152.581
0
LINE
8
BLACK
10
210.566
20
-152.581
11
210.639
21
-152.618
0
LINE
8
BLACK
10
210.639
20
-152.618
11
210.675
21
-152.654
0
LINE
8
BLACK
10
210.675
20
-152.654
11
210.711
21
-152.727
0
LINE
8
BLACK
10
210.711
20
-152.727
11
210.711
21
-152.799
0
LINE
8
BLACK
10
210.711
20
-152.799
11
210.675
21
-152.908
0
LINE
8
BLACK
10
210.675
20
-152.908
11
210.239
21
-153.343
0
LINE
8
BLACK
10
210.239
20
-153.343
11
210.711
21
-153.343
0
LINE
8
BLACK
10
213.922
20
-127.345
11
214.467
21
-127.345
0
LINE
8
BLACK
10
214.467
20
-127.345
11
214.576
21
-127.381
0
LINE
8
BLACK
10
214.576
20
-127.381
11
214.648
21
-127.454
0
LINE
8
BLACK
10
214.648
20
-127.454
11
214.684
21
-127.562
0
LINE
8
BLACK
10
214.684
20
-127.562
11
214.684
21
-127.635
0
LINE
8
BLACK
10
214.176
20
-126.655
11
214.684
21
-126.655
0
LINE
8
BLACK
10
213.886
20
-126.837
11
214.43
21
-127.018
0
LINE
8
BLACK
10
214.43
20
-127.018
11
214.43
21
-126.546
0
LINE
8
BLACK
10
213.922
20
-126.111
11
213.922
21
-126.038
0
LINE
8
BLACK
10
213.922
20
-126.038
11
213.959
21
-125.966
0
LINE
8
BLACK
10
213.959
20
-125.966
11
213.995
21
-125.93
0
LINE
8
BLACK
10
213.995
20
-125.93
11
214.068
21
-125.893
0
LINE
8
BLACK
10
214.068
20
-125.893
11
214.213
21
-125.857
0
LINE
8
BLACK
10
214.213
20
-125.857
11
214.394
21
-125.857
0
LINE
8
BLACK
10
214.394
20
-125.857
11
214.539
21
-125.893
0
LINE
8
BLACK
10
214.539
20
-125.893
11
214.612
21
-125.93
0
LINE
8
BLACK
10
214.612
20
-125.93
11
214.648
21
-125.966
0
LINE
8
BLACK
10
214.648
20
-125.966
11
214.684
21
-126.038
0
LINE
8
BLACK
10
214.684
20
-126.038
11
214.684
21
-126.111
0
LINE
8
BLACK
10
214.684
20
-126.111
11
214.648
21
-126.184
0
LINE
8
BLACK
10
214.648
20
-126.184
11
214.612
21
-126.22
0
LINE
8
BLACK
10
214.612
20
-126.22
11
214.539
21
-126.256
0
LINE
8
BLACK
10
214.539
20
-126.256
11
214.394
21
-126.292
0
LINE
8
BLACK
10
214.394
20
-126.292
11
214.213
21
-126.292
0
LINE
8
BLACK
10
214.213
20
-126.292
11
214.068
21
-126.256
0
LINE
8
BLACK
10
214.068
20
-126.256
11
213.995
21
-126.22
0
LINE
8
BLACK
10
213.995
20
-126.22
11
213.959
21
-126.184
0
LINE
8
BLACK
10
213.959
20
-126.184
11
213.922
21
-126.111
0
LINE
8
BLACK
10
214.684
20
-125.131
11
214.684
21
-125.567
0
LINE
8
BLACK
10
214.684
20
-125.349
11
213.922
21
-125.349
0
LINE
8
BLACK
10
213.922
20
-125.349
11
214.031
21
-125.422
0
LINE
8
BLACK
10
214.031
20
-125.422
11
214.104
21
-125.494
0
LINE
8
BLACK
10
214.104
20
-125.494
11
214.14
21
-125.567
0
LINE
8
BLACK
10
203.309
20
-126.619
11
203.345
21
-126.583
0
LINE
8
BLACK
10
203.345
20
-126.583
11
203.418
21
-126.546
0
LINE
8
BLACK
10
203.418
20
-126.546
11
203.599
21
-126.546
0
LINE
8
BLACK
10
203.599
20
-126.546
11
203.672
21
-126.583
0
LINE
8
BLACK
10
203.672
20
-126.583
11
203.708
21
-126.619
0
LINE
8
BLACK
10
203.708
20
-126.619
11
203.744
21
-126.692
0
LINE
8
BLACK
10
203.744
20
-126.692
11
203.744
21
-126.764
0
LINE
8
BLACK
10
203.744
20
-126.764
11
203.708
21
-126.873
0
LINE
8
BLACK
10
203.708
20
-126.873
11
203.273
21
-127.308
0
LINE
8
BLACK
10
203.273
20
-127.308
11
203.744
21
-127.308
0
LINE
8
BLACK
10
204.035
20
-126.619
11
204.071
21
-126.583
0
LINE
8
BLACK
10
204.071
20
-126.583
11
204.143
21
-126.546
0
LINE
8
BLACK
10
204.143
20
-126.546
11
204.325
21
-126.546
0
LINE
8
BLACK
10
204.325
20
-126.546
11
204.397
21
-126.583
0
LINE
8
BLACK
10
204.397
20
-126.583
11
204.434
21
-126.619
0
LINE
8
BLACK
10
204.434
20
-126.619
11
204.47
21
-126.692
0
LINE
8
BLACK
10
204.47
20
-126.692
11
204.47
21
-126.764
0
LINE
8
BLACK
10
204.47
20
-126.764
11
204.434
21
-126.873
0
LINE
8
BLACK
10
204.434
20
-126.873
11
203.998
21
-127.308
0
LINE
8
BLACK
10
203.998
20
-127.308
11
204.47
21
-127.308
0
LINE
8
BLACK
10
204.797
20
-127.018
11
205.377
21
-127.018
0
LINE
8
BLACK
10
206.139
20
-127.308
11
205.704
21
-127.308
0
LINE
8
BLACK
10
205.921
20
-127.308
11
205.921
21
-126.546
0
LINE
8
BLACK
10
205.921
20
-126.546
11
205.849
21
-126.655
0
LINE
8
BLACK
10
205.849
20
-126.655
11
205.776
21
-126.728
0
LINE
8
BLACK
10
205.776
20
-126.728
11
205.704
21
-126.764
0
LINE
8
BLACK
10
206.393
20
-126.546
11
206.901
21
-126.546
0
LINE
8
BLACK
10
206.901
20
-126.546
11
206.575
21
-127.308
0
LINE
8
BLACK
10
207.191
20
-127.018
11
207.772
21
-127.018
0
LINE
8
BLACK
10
208.099
20
-126.619
11
208.135
21
-126.583
0
LINE
8
BLACK
10
208.135
20
-126.583
11
208.207
21
-126.546
0
LINE
8
BLACK
10
208.207
20
-126.546
11
208.389
21
-126.546
0
LINE
8
BLACK
10
208.389
20
-126.546
11
208.461
21
-126.583
0
LINE
8
BLACK
10
208.461
20
-126.583
11
208.498
21
-126.619
0
LINE
8
BLACK
10
208.498
20
-126.619
11
208.534
21
-126.692
0
LINE
8
BLACK
10
208.534
20
-126.692
11
208.534
21
-126.764
0
LINE
8
BLACK
10
208.534
20
-126.764
11
208.498
21
-126.873
0
LINE
8
BLACK
10
208.498
20
-126.873
11
208.062
21
-127.308
0
LINE
8
BLACK
10
208.062
20
-127.308
11
208.534
21
-127.308
0
LINE
8
BLACK
10
209.006
20
-126.546
11
209.078
21
-126.546
0
LINE
8
BLACK
10
209.078
20
-126.546
11
209.151
21
-126.583
0
LINE
8
BLACK
10
209.151
20
-126.583
11
209.187
21
-126.619
0
LINE
8
BLACK
10
209.187
20
-126.619
11
209.223
21
-126.692
0
LINE
8
BLACK
10
209.223
20
-126.692
11
209.26
21
-126.837
0
LINE
8
BLACK
10
209.26
20
-126.837
11
209.26
21
-127.018
0
LINE
8
BLACK
10
209.26
20
-127.018
11
209.223
21
-127.163
0
LINE
8
BLACK
10
209.223
20
-127.163
11
209.187
21
-127.236
0
LINE
8
BLACK
10
209.187
20
-127.236
11
209.151
21
-127.272
0
LINE
8
BLACK
10
209.151
20
-127.272
11
209.078
21
-127.308
0
LINE
8
BLACK
10
209.078
20
-127.308
11
209.006
21
-127.308
0
LINE
8
BLACK
10
209.006
20
-127.308
11
208.933
21
-127.272
0
LINE
8
BLACK
10
208.933
20
-127.272
11
208.897
21
-127.236
0
LINE
8
BLACK
10
208.897
20
-127.236
11
208.861
21
-127.163
0
LINE
8
BLACK
10
208.861
20
-127.163
11
208.824
21
-127.018
0
LINE
8
BLACK
10
208.824
20
-127.018
11
208.824
21
-126.837
0
LINE
8
BLACK
10
208.824
20
-126.837
11
208.861
21
-126.692
0
LINE
8
BLACK
10
208.861
20
-126.692
11
208.897
21
-126.619
0
LINE
8
BLACK
10
208.897
20
-126.619
11
208.933
21
-126.583
0
LINE
8
BLACK
10
208.933
20
-126.583
11
209.006
21
-126.546
0
LINE
8
BLACK
10
209.949
20
-126.546
11
209.586
21
-126.546
0
LINE
8
BLACK
10
209.586
20
-126.546
11
209.55
21
-126.909
0
LINE
8
BLACK
10
209.55
20
-126.909
11
209.586
21
-126.873
0
LINE
8
BLACK
10
209.586
20
-126.873
11
209.659
21
-126.837
0
LINE
8
BLACK
10
209.659
20
-126.837
11
209.84
21
-126.837
0
LINE
8
BLACK
10
209.84
20
-126.837
11
209.913
21
-126.873
0
LINE
8
BLACK
10
209.913
20
-126.873
11
209.949
21
-126.909
0
LINE
8
BLACK
10
209.949
20
-126.909
11
209.985
21
-126.982
0
LINE
8
BLACK
10
209.985
20
-126.982
11
209.985
21
-127.163
0
LINE
8
BLACK
10
209.985
20
-127.163
11
209.949
21
-127.236
0
LINE
8
BLACK
10
209.949
20
-127.236
11
209.913
21
-127.272
0
LINE
8
BLACK
10
209.913
20
-127.272
11
209.84
21
-127.308
0
LINE
8
BLACK
10
209.84
20
-127.308
11
209.659
21
-127.308
0
LINE
8
BLACK
10
209.659
20
-127.308
11
209.586
21
-127.272
0
LINE
8
BLACK
10
209.586
20
-127.272
11
209.55
21
-127.236
0
LINE
8
BLACK
10
210.276
20
-126.619
11
210.312
21
-126.583
0
LINE
8
BLACK
10
210.312
20
-126.583
11
210.385
21
-126.546
0
LINE
8
BLACK
10
210.385
20
-126.546
11
210.566
21
-126.546
0
LINE
8
BLACK
10
210.566
20
-126.546
11
210.639
21
-126.583
0
LINE
8
BLACK
10
210.639
20
-126.583
11
210.675
21
-126.619
0
LINE
8
BLACK
10
210.675
20
-126.619
11
210.711
21
-126.692
0
LINE
8
BLACK
10
210.711
20
-126.692
11
210.711
21
-126.764
0
LINE
8
BLACK
10
210.711
20
-126.764
11
210.675
21
-126.873
0
LINE
8
BLACK
10
210.675
20
-126.873
11
210.239
21
-127.308
0
LINE
8
BLACK
10
210.239
20
-127.308
11
210.711
21
-127.308
0
LINE
8
BLACK
10
222.492
20
-120.212
11
222.462
21
-120.242
0
LINE
8
BLACK
10
222.462
20
-120.242
11
222.371
21
-120.272
0
LINE
8
BLACK
10
222.371
20
-120.272
11
222.31
21
-120.272
0
LINE
8
BLACK
10
222.31
20
-120.272
11
222.22
21
-120.242
0
LINE
8
BLACK
10
222.22
20
-120.242
11
222.159
21
-120.181
0
LINE
8
BLACK
10
222.159
20
-120.181
11
222.129
21
-120.121
0
LINE
8
BLACK
10
222.129
20
-120.121
11
222.099
21
-120
0
LINE
8
BLACK
10
222.099
20
-120
11
222.099
21
-119.909
0
LINE
8
BLACK
10
222.099
20
-119.909
11
222.129
21
-119.788
0
LINE
8
BLACK
10
222.129
20
-119.788
11
222.159
21
-119.728
0
LINE
8
BLACK
10
222.159
20
-119.728
11
222.22
21
-119.667
0
LINE
8
BLACK
10
222.22
20
-119.667
11
222.31
21
-119.637
0
LINE
8
BLACK
10
222.31
20
-119.637
11
222.371
21
-119.637
0
LINE
8
BLACK
10
222.371
20
-119.637
11
222.462
21
-119.667
0
LINE
8
BLACK
10
222.462
20
-119.667
11
222.492
21
-119.697
0
LINE
8
BLACK
10
223.127
20
-120.272
11
222.915
21
-119.97
0
LINE
8
BLACK
10
222.764
20
-120.272
11
222.764
21
-119.637
0
LINE
8
BLACK
10
222.764
20
-119.637
11
223.006
21
-119.637
0
LINE
8
BLACK
10
223.006
20
-119.637
11
223.066
21
-119.667
0
LINE
8
BLACK
10
223.066
20
-119.667
11
223.097
21
-119.697
0
LINE
8
BLACK
10
223.097
20
-119.697
11
223.127
21
-119.758
0
LINE
8
BLACK
10
223.127
20
-119.758
11
223.127
21
-119.849
0
LINE
8
BLACK
10
223.127
20
-119.849
11
223.097
21
-119.909
0
LINE
8
BLACK
10
223.097
20
-119.909
11
223.066
21
-119.939
0
LINE
8
BLACK
10
223.066
20
-119.939
11
223.006
21
-119.97
0
LINE
8
BLACK
10
223.006
20
-119.97
11
222.764
21
-119.97
0
LINE
8
BLACK
10
223.671
20
-119.849
11
223.671
21
-120.272
0
LINE
8
BLACK
10
223.52
20
-119.607
11
223.369
21
-120.06
0
LINE
8
BLACK
10
223.369
20
-120.06
11
223.762
21
-120.06
0
LINE
8
BLACK
10
224.125
20
-119.637
11
224.185
21
-119.637
0
LINE
8
BLACK
10
224.185
20
-119.637
11
224.246
21
-119.667
0
LINE
8
BLACK
10
224.246
20
-119.667
11
224.276
21
-119.697
0
LINE
8
BLACK
10
224.276
20
-119.697
11
224.306
21
-119.758
0
LINE
8
BLACK
10
224.306
20
-119.758
11
224.336
21
-119.879
0
LINE
8
BLACK
10
224.336
20
-119.879
11
224.336
21
-120.03
0
LINE
8
BLACK
10
224.336
20
-120.03
11
224.306
21
-120.151
0
LINE
8
BLACK
10
224.306
20
-120.151
11
224.276
21
-120.212
0
LINE
8
BLACK
10
224.276
20
-120.212
11
224.246
21
-120.242
0
LINE
8
BLACK
10
224.246
20
-120.242
11
224.185
21
-120.272
0
LINE
8
BLACK
10
224.185
20
-120.272
11
224.125
21
-120.272
0
LINE
8
BLACK
10
224.125
20
-120.272
11
224.064
21
-120.242
0
LINE
8
BLACK
10
224.064
20
-120.242
11
224.034
21
-120.212
0
LINE
8
BLACK
10
224.034
20
-120.212
11
224.004
21
-120.151
0
LINE
8
BLACK
10
224.004
20
-120.151
11
223.974
21
-120.03
0
LINE
8
BLACK
10
223.974
20
-120.03
11
223.974
21
-119.879
0
LINE
8
BLACK
10
223.974
20
-119.879
11
224.004
21
-119.758
0
LINE
8
BLACK
10
224.004
20
-119.758
11
224.034
21
-119.697
0
LINE
8
BLACK
10
224.034
20
-119.697
11
224.064
21
-119.667
0
LINE
8
BLACK
10
224.064
20
-119.667
11
224.125
21
-119.637
0
LINE
8
BLACK
10
224.73
20
-119.637
11
224.79
21
-119.637
0
LINE
8
BLACK
10
224.79
20
-119.637
11
224.85
21
-119.667
0
LINE
8
BLACK
10
224.85
20
-119.667
11
224.881
21
-119.697
0
LINE
8
BLACK
10
224.881
20
-119.697
11
224.911
21
-119.758
0
LINE
8
BLACK
10
224.911
20
-119.758
11
224.941
21
-119.879
0
LINE
8
BLACK
10
224.941
20
-119.879
11
224.941
21
-120.03
0
LINE
8
BLACK
10
224.941
20
-120.03
11
224.911
21
-120.151
0
LINE
8
BLACK
10
224.911
20
-120.151
11
224.881
21
-120.212
0
LINE
8
BLACK
10
224.881
20
-120.212
11
224.85
21
-120.242
0
LINE
8
BLACK
10
224.85
20
-120.242
11
224.79
21
-120.272
0
LINE
8
BLACK
10
224.79
20
-120.272
11
224.73
21
-120.272
0
LINE
8
BLACK
10
224.73
20
-120.272
11
224.669
21
-120.242
0
LINE
8
BLACK
10
224.669
20
-120.242
11
224.639
21
-120.212
0
LINE
8
BLACK
10
224.639
20
-120.212
11
224.609
21
-120.151
0
LINE
8
BLACK
10
224.609
20
-120.151
11
224.578
21
-120.03
0
LINE
8
BLACK
10
224.578
20
-120.03
11
224.578
21
-119.879
0
LINE
8
BLACK
10
224.578
20
-119.879
11
224.609
21
-119.758
0
LINE
8
BLACK
10
224.609
20
-119.758
11
224.639
21
-119.697
0
LINE
8
BLACK
10
224.639
20
-119.697
11
224.669
21
-119.667
0
LINE
8
BLACK
10
224.669
20
-119.667
11
224.73
21
-119.637
0
LINE
8
BLACK
10
222.159
20
-122.177
11
221.796
21
-122.177
0
LINE
8
BLACK
10
221.978
20
-122.177
11
221.978
21
-121.542
0
LINE
8
BLACK
10
221.978
20
-121.542
11
221.917
21
-121.633
0
LINE
8
BLACK
10
221.917
20
-121.633
11
221.857
21
-121.693
0
LINE
8
BLACK
10
221.857
20
-121.693
11
221.796
21
-121.723
0
LINE
8
BLACK
10
222.431
20
-122.177
11
222.431
21
-121.542
0
LINE
8
BLACK
10
222.431
20
-121.542
11
222.794
21
-122.177
0
LINE
8
BLACK
10
222.794
20
-122.177
11
222.794
21
-121.542
0
LINE
8
BLACK
10
223.369
20
-121.754
11
223.369
21
-122.177
0
LINE
8
BLACK
10
223.218
20
-121.512
11
223.066
21
-121.965
0
LINE
8
BLACK
10
223.066
20
-121.965
11
223.46
21
-121.965
0
LINE
8
BLACK
10
224.034
20
-122.177
11
223.671
21
-122.177
0
LINE
8
BLACK
10
223.853
20
-122.177
11
223.853
21
-121.542
0
LINE
8
BLACK
10
223.853
20
-121.542
11
223.792
21
-121.633
0
LINE
8
BLACK
10
223.792
20
-121.633
11
223.732
21
-121.693
0
LINE
8
BLACK
10
223.732
20
-121.693
11
223.671
21
-121.723
0
LINE
8
BLACK
10
224.578
20
-121.754
11
224.578
21
-122.177
0
LINE
8
BLACK
10
224.427
20
-121.512
11
224.276
21
-121.965
0
LINE
8
BLACK
10
224.276
20
-121.965
11
224.669
21
-121.965
0
LINE
8
BLACK
10
225.002
20
-121.814
11
224.941
21
-121.784
0
LINE
8
BLACK
10
224.941
20
-121.784
11
224.911
21
-121.754
0
LINE
8
BLACK
10
224.911
20
-121.754
11
224.881
21
-121.693
0
LINE
8
BLACK
10
224.881
20
-121.693
11
224.881
21
-121.663
0
LINE
8
BLACK
10
224.881
20
-121.663
11
224.911
21
-121.602
0
LINE
8
BLACK
10
224.911
20
-121.602
11
224.941
21
-121.572
0
LINE
8
BLACK
10
224.941
20
-121.572
11
225.002
21
-121.542
0
LINE
8
BLACK
10
225.002
20
-121.542
11
225.123
21
-121.542
0
LINE
8
BLACK
10
225.123
20
-121.542
11
225.183
21
-121.572
0
LINE
8
BLACK
10
225.183
20
-121.572
11
225.213
21
-121.602
0
LINE
8
BLACK
10
225.213
20
-121.602
11
225.244
21
-121.663
0
LINE
8
BLACK
10
225.244
20
-121.663
11
225.244
21
-121.693
0
LINE
8
BLACK
10
225.244
20
-121.693
11
225.213
21
-121.754
0
LINE
8
BLACK
10
225.213
20
-121.754
11
225.183
21
-121.784
0
LINE
8
BLACK
10
225.183
20
-121.784
11
225.123
21
-121.814
0
LINE
8
BLACK
10
225.123
20
-121.814
11
225.002
21
-121.814
0
LINE
8
BLACK
10
225.002
20
-121.814
11
224.941
21
-121.844
0
LINE
8
BLACK
10
224.941
20
-121.844
11
224.911
21
-121.875
0
LINE
8
BLACK
10
224.911
20
-121.875
11
224.881
21
-121.935
0
LINE
8
BLACK
10
224.881
20
-121.935
11
224.881
21
-122.056
0
LINE
8
BLACK
10
224.881
20
-122.056
11
224.911
21
-122.117
0
LINE
8
BLACK
10
224.911
20
-122.117
11
224.941
21
-122.147
0
LINE
8
BLACK
10
224.941
20
-122.147
11
225.002
21
-122.177
0
LINE
8
BLACK
10
225.002
20
-122.177
11
225.123
21
-122.177
0
LINE
8
BLACK
10
225.123
20
-122.177
11
225.183
21
-122.147
0
LINE
8
BLACK
10
225.183
20
-122.147
11
225.213
21
-122.117
0
LINE
8
BLACK
10
225.213
20
-122.117
11
225.244
21
-122.056
0
LINE
8
BLACK
10
225.244
20
-122.056
11
225.244
21
-121.935
0
LINE
8
BLACK
10
225.244
20
-121.935
11
225.213
21
-121.875
0
LINE
8
BLACK
10
225.213
20
-121.875
11
225.183
21
-121.844
0
LINE
8
BLACK
10
225.183
20
-121.844
11
225.123
21
-121.814
0
LINE
8
BLACK
10
216.732
20
-125.488
11
216.762
21
-125.518
0
LINE
8
BLACK
10
216.762
20
-125.518
11
216.792
21
-125.609
0
LINE
8
BLACK
10
216.792
20
-125.609
11
216.792
21
-125.67
0
LINE
8
BLACK
10
216.792
20
-125.67
11
216.762
21
-125.76
0
LINE
8
BLACK
10
216.762
20
-125.76
11
216.701
21
-125.821
0
LINE
8
BLACK
10
216.701
20
-125.821
11
216.641
21
-125.851
0
LINE
8
BLACK
10
216.641
20
-125.851
11
216.52
21
-125.881
0
LINE
8
BLACK
10
216.52
20
-125.881
11
216.429
21
-125.881
0
LINE
8
BLACK
10
216.429
20
-125.881
11
216.308
21
-125.851
0
LINE
8
BLACK
10
216.308
20
-125.851
11
216.248
21
-125.821
0
LINE
8
BLACK
10
216.248
20
-125.821
11
216.187
21
-125.76
0
LINE
8
BLACK
10
216.187
20
-125.76
11
216.157
21
-125.67
0
LINE
8
BLACK
10
216.157
20
-125.67
11
216.157
21
-125.609
0
LINE
8
BLACK
10
216.157
20
-125.609
11
216.187
21
-125.518
0
LINE
8
BLACK
10
216.187
20
-125.518
11
216.218
21
-125.488
0
LINE
8
BLACK
10
216.792
20
-124.853
11
216.49
21
-125.065
0
LINE
8
BLACK
10
216.792
20
-125.216
11
216.157
21
-125.216
0
LINE
8
BLACK
10
216.157
20
-125.216
11
216.157
21
-124.974
0
LINE
8
BLACK
10
216.157
20
-124.974
11
216.187
21
-124.914
0
LINE
8
BLACK
10
216.187
20
-124.914
11
216.218
21
-124.883
0
LINE
8
BLACK
10
216.218
20
-124.883
11
216.278
21
-124.853
0
LINE
8
BLACK
10
216.278
20
-124.853
11
216.369
21
-124.853
0
LINE
8
BLACK
10
216.369
20
-124.853
11
216.429
21
-124.883
0
LINE
8
BLACK
10
216.429
20
-124.883
11
216.459
21
-124.914
0
LINE
8
BLACK
10
216.459
20
-124.914
11
216.49
21
-124.974
0
LINE
8
BLACK
10
216.49
20
-124.974
11
216.49
21
-125.216
0
LINE
8
BLACK
10
216.369
20
-124.309
11
216.792
21
-124.309
0
LINE
8
BLACK
10
216.127
20
-124.46
11
216.58
21
-124.611
0
LINE
8
BLACK
10
216.58
20
-124.611
11
216.58
21
-124.218
0
LINE
8
BLACK
10
216.157
20
-123.855
11
216.157
21
-123.795
0
LINE
8
BLACK
10
216.157
20
-123.795
11
216.187
21
-123.734
0
LINE
8
BLACK
10
216.187
20
-123.734
11
216.218
21
-123.704
0
LINE
8
BLACK
10
216.218
20
-123.704
11
216.278
21
-123.674
0
LINE
8
BLACK
10
216.278
20
-123.674
11
216.399
21
-123.644
0
LINE
8
BLACK
10
216.399
20
-123.644
11
216.55
21
-123.644
0
LINE
8
BLACK
10
216.55
20
-123.644
11
216.671
21
-123.674
0
LINE
8
BLACK
10
216.671
20
-123.674
11
216.732
21
-123.704
0
LINE
8
BLACK
10
216.732
20
-123.704
11
216.762
21
-123.734
0
LINE
8
BLACK
10
216.762
20
-123.734
11
216.792
21
-123.795
0
LINE
8
BLACK
10
216.792
20
-123.795
11
216.792
21
-123.855
0
LINE
8
BLACK
10
216.792
20
-123.855
11
216.762
21
-123.916
0
LINE
8
BLACK
10
216.762
20
-123.916
11
216.732
21
-123.946
0
LINE
8
BLACK
10
216.732
20
-123.946
11
216.671
21
-123.976
0
LINE
8
BLACK
10
216.671
20
-123.976
11
216.55
21
-124.006
0
LINE
8
BLACK
10
216.55
20
-124.006
11
216.399
21
-124.006
0
LINE
8
BLACK
10
216.399
20
-124.006
11
216.278
21
-123.976
0
LINE
8
BLACK
10
216.278
20
-123.976
11
216.218
21
-123.946
0
LINE
8
BLACK
10
216.218
20
-123.946
11
216.187
21
-123.916
0
LINE
8
BLACK
10
216.187
20
-123.916
11
216.157
21
-123.855
0
LINE
8
BLACK
10
216.792
20
-123.039
11
216.792
21
-123.402
0
LINE
8
BLACK
10
216.792
20
-123.22
11
216.157
21
-123.22
0
LINE
8
BLACK
10
216.157
20
-123.22
11
216.248
21
-123.281
0
LINE
8
BLACK
10
216.248
20
-123.281
11
216.308
21
-123.341
0
LINE
8
BLACK
10
216.308
20
-123.341
11
216.338
21
-123.402
0
LINE
8
BLACK
10
222.159
20
-124.717
11
221.796
21
-124.717
0
LINE
8
BLACK
10
221.978
20
-124.717
11
221.978
21
-124.082
0
LINE
8
BLACK
10
221.978
20
-124.082
11
221.917
21
-124.173
0
LINE
8
BLACK
10
221.917
20
-124.173
11
221.857
21
-124.233
0
LINE
8
BLACK
10
221.857
20
-124.233
11
221.796
21
-124.263
0
LINE
8
BLACK
10
222.431
20
-124.717
11
222.431
21
-124.082
0
LINE
8
BLACK
10
222.431
20
-124.082
11
222.794
21
-124.717
0
LINE
8
BLACK
10
222.794
20
-124.717
11
222.794
21
-124.082
0
LINE
8
BLACK
10
223.369
20
-124.294
11
223.369
21
-124.717
0
LINE
8
BLACK
10
223.218
20
-124.052
11
223.066
21
-124.505
0
LINE
8
BLACK
10
223.066
20
-124.505
11
223.46
21
-124.505
0
LINE
8
BLACK
10
223.822
20
-124.082
11
223.883
21
-124.082
0
LINE
8
BLACK
10
223.883
20
-124.082
11
223.943
21
-124.112
0
LINE
8
BLACK
10
223.943
20
-124.112
11
223.974
21
-124.142
0
LINE
8
BLACK
10
223.974
20
-124.142
11
224.004
21
-124.203
0
LINE
8
BLACK
10
224.004
20
-124.203
11
224.034
21
-124.324
0
LINE
8
BLACK
10
224.034
20
-124.324
11
224.034
21
-124.475
0
LINE
8
BLACK
10
224.034
20
-124.475
11
224.004
21
-124.596
0
LINE
8
BLACK
10
224.004
20
-124.596
11
223.974
21
-124.657
0
LINE
8
BLACK
10
223.974
20
-124.657
11
223.943
21
-124.687
0
LINE
8
BLACK
10
223.943
20
-124.687
11
223.883
21
-124.717
0
LINE
8
BLACK
10
223.883
20
-124.717
11
223.822
21
-124.717
0
LINE
8
BLACK
10
223.822
20
-124.717
11
223.762
21
-124.687
0
LINE
8
BLACK
10
223.762
20
-124.687
11
223.732
21
-124.657
0
LINE
8
BLACK
10
223.732
20
-124.657
11
223.701
21
-124.596
0
LINE
8
BLACK
10
223.701
20
-124.596
11
223.671
21
-124.475
0
LINE
8
BLACK
10
223.671
20
-124.475
11
223.671
21
-124.324
0
LINE
8
BLACK
10
223.671
20
-124.324
11
223.701
21
-124.203
0
LINE
8
BLACK
10
223.701
20
-124.203
11
223.732
21
-124.142
0
LINE
8
BLACK
10
223.732
20
-124.142
11
223.762
21
-124.112
0
LINE
8
BLACK
10
223.762
20
-124.112
11
223.822
21
-124.082
0
LINE
8
BLACK
10
224.427
20
-124.082
11
224.488
21
-124.082
0
LINE
8
BLACK
10
224.488
20
-124.082
11
224.548
21
-124.112
0
LINE
8
BLACK
10
224.548
20
-124.112
11
224.578
21
-124.142
0
LINE
8
BLACK
10
224.578
20
-124.142
11
224.609
21
-124.203
0
LINE
8
BLACK
10
224.609
20
-124.203
11
224.639
21
-124.324
0
LINE
8
BLACK
10
224.639
20
-124.324
11
224.639
21
-124.475
0
LINE
8
BLACK
10
224.639
20
-124.475
11
224.609
21
-124.596
0
LINE
8
BLACK
10
224.609
20
-124.596
11
224.578
21
-124.657
0
LINE
8
BLACK
10
224.578
20
-124.657
11
224.548
21
-124.687
0
LINE
8
BLACK
10
224.548
20
-124.687
11
224.488
21
-124.717
0
LINE
8
BLACK
10
224.488
20
-124.717
11
224.427
21
-124.717
0
LINE
8
BLACK
10
224.427
20
-124.717
11
224.367
21
-124.687
0
LINE
8
BLACK
10
224.367
20
-124.687
11
224.336
21
-124.657
0
LINE
8
BLACK
10
224.336
20
-124.657
11
224.306
21
-124.596
0
LINE
8
BLACK
10
224.306
20
-124.596
11
224.276
21
-124.475
0
LINE
8
BLACK
10
224.276
20
-124.475
11
224.276
21
-124.324
0
LINE
8
BLACK
10
224.276
20
-124.324
11
224.306
21
-124.203
0
LINE
8
BLACK
10
224.306
20
-124.203
11
224.336
21
-124.142
0
LINE
8
BLACK
10
224.336
20
-124.142
11
224.367
21
-124.112
0
LINE
8
BLACK
10
224.367
20
-124.112
11
224.427
21
-124.082
0
LINE
8
BLACK
10
225.183
20
-124.294
11
225.183
21
-124.717
0
LINE
8
BLACK
10
225.032
20
-124.052
11
224.881
21
-124.505
0
LINE
8
BLACK
10
224.881
20
-124.505
11
225.274
21
-124.505
0
LINE
8
BLACK
10
219.492
20
-133.023
11
219.238
21
-132.661
0
LINE
8
BLACK
10
219.057
20
-133.023
11
219.057
21
-132.261
0
LINE
8
BLACK
10
219.057
20
-132.261
11
219.347
21
-132.261
0
LINE
8
BLACK
10
219.347
20
-132.261
11
219.42
21
-132.298
0
LINE
8
BLACK
10
219.42
20
-132.298
11
219.456
21
-132.334
0
LINE
8
BLACK
10
219.456
20
-132.334
11
219.492
21
-132.407
0
LINE
8
BLACK
10
219.492
20
-132.407
11
219.492
21
-132.515
0
LINE
8
BLACK
10
219.492
20
-132.515
11
219.456
21
-132.588
0
LINE
8
BLACK
10
219.456
20
-132.588
11
219.42
21
-132.624
0
LINE
8
BLACK
10
219.42
20
-132.624
11
219.347
21
-132.661
0
LINE
8
BLACK
10
219.347
20
-132.661
11
219.057
21
-132.661
0
LINE
8
BLACK
10
220.145
20
-132.515
11
220.145
21
-133.023
0
LINE
8
BLACK
10
219.964
20
-132.225
11
219.783
21
-132.769
0
LINE
8
BLACK
10
219.783
20
-132.769
11
220.254
21
-132.769
0
LINE
8
BLACK
10
220.944
20
-133.023
11
220.508
21
-133.023
0
LINE
8
BLACK
10
220.726
20
-133.023
11
220.726
21
-132.261
0
LINE
8
BLACK
10
220.726
20
-132.261
11
220.653
21
-132.37
0
LINE
8
BLACK
10
220.653
20
-132.37
11
220.581
21
-132.443
0
LINE
8
BLACK
10
220.581
20
-132.443
11
220.508
21
-132.479
0
LINE
8
BLACK
10
221.379
20
-132.588
11
221.307
21
-132.552
0
LINE
8
BLACK
10
221.307
20
-132.552
11
221.27
21
-132.515
0
LINE
8
BLACK
10
221.27
20
-132.515
11
221.234
21
-132.443
0
LINE
8
BLACK
10
221.234
20
-132.443
11
221.234
21
-132.407
0
LINE
8
BLACK
10
221.234
20
-132.407
11
221.27
21
-132.334
0
LINE
8
BLACK
10
221.27
20
-132.334
11
221.307
21
-132.298
0
LINE
8
BLACK
10
221.307
20
-132.298
11
221.379
21
-132.261
0
LINE
8
BLACK
10
221.379
20
-132.261
11
221.524
21
-132.261
0
LINE
8
BLACK
10
221.524
20
-132.261
11
221.597
21
-132.298
0
LINE
8
BLACK
10
221.597
20
-132.298
11
221.633
21
-132.334
0
LINE
8
BLACK
10
221.633
20
-132.334
11
221.669
21
-132.407
0
LINE
8
BLACK
10
221.669
20
-132.407
11
221.669
21
-132.443
0
LINE
8
BLACK
10
221.669
20
-132.443
11
221.633
21
-132.515
0
LINE
8
BLACK
10
221.633
20
-132.515
11
221.597
21
-132.552
0
LINE
8
BLACK
10
221.597
20
-132.552
11
221.524
21
-132.588
0
LINE
8
BLACK
10
221.524
20
-132.588
11
221.379
21
-132.588
0
LINE
8
BLACK
10
221.379
20
-132.588
11
221.307
21
-132.624
0
LINE
8
BLACK
10
221.307
20
-132.624
11
221.27
21
-132.661
0
LINE
8
BLACK
10
221.27
20
-132.661
11
221.234
21
-132.733
0
LINE
8
BLACK
10
221.234
20
-132.733
11
221.234
21
-132.878
0
LINE
8
BLACK
10
221.234
20
-132.878
11
221.27
21
-132.951
0
LINE
8
BLACK
10
221.27
20
-132.951
11
221.307
21
-132.987
0
LINE
8
BLACK
10
221.307
20
-132.987
11
221.379
21
-133.023
0
LINE
8
BLACK
10
221.379
20
-133.023
11
221.524
21
-133.023
0
LINE
8
BLACK
10
221.524
20
-133.023
11
221.597
21
-132.987
0
LINE
8
BLACK
10
221.597
20
-132.987
11
221.633
21
-132.951
0
LINE
8
BLACK
10
221.633
20
-132.951
11
221.669
21
-132.878
0
LINE
8
BLACK
10
221.669
20
-132.878
11
221.669
21
-132.733
0
LINE
8
BLACK
10
221.669
20
-132.733
11
221.633
21
-132.661
0
LINE
8
BLACK
10
221.633
20
-132.661
11
221.597
21
-132.624
0
LINE
8
BLACK
10
221.597
20
-132.624
11
221.524
21
-132.588
0
LINE
8
BLACK
10
223.193
20
-132.515
11
223.193
21
-133.023
0
LINE
8
BLACK
10
223.012
20
-132.225
11
222.831
21
-132.769
0
LINE
8
BLACK
10
222.831
20
-132.769
11
223.302
21
-132.769
0
LINE
8
BLACK
10
223.629
20
-133.023
11
223.774
21
-133.023
0
LINE
8
BLACK
10
223.774
20
-133.023
11
223.847
21
-132.987
0
LINE
8
BLACK
10
223.847
20
-132.987
11
223.883
21
-132.951
0
LINE
8
BLACK
10
223.883
20
-132.951
11
223.955
21
-132.842
0
LINE
8
BLACK
10
223.955
20
-132.842
11
223.992
21
-132.697
0
LINE
8
BLACK
10
223.992
20
-132.697
11
223.992
21
-132.407
0
LINE
8
BLACK
10
223.992
20
-132.407
11
223.955
21
-132.334
0
LINE
8
BLACK
10
223.955
20
-132.334
11
223.919
21
-132.298
0
LINE
8
BLACK
10
223.919
20
-132.298
11
223.847
21
-132.261
0
LINE
8
BLACK
10
223.847
20
-132.261
11
223.701
21
-132.261
0
LINE
8
BLACK
10
223.701
20
-132.261
11
223.629
21
-132.298
0
LINE
8
BLACK
10
223.629
20
-132.298
11
223.593
21
-132.334
0
LINE
8
BLACK
10
223.593
20
-132.334
11
223.556
21
-132.407
0
LINE
8
BLACK
10
223.556
20
-132.407
11
223.556
21
-132.588
0
LINE
8
BLACK
10
223.556
20
-132.588
11
223.593
21
-132.661
0
LINE
8
BLACK
10
223.593
20
-132.661
11
223.629
21
-132.697
0
LINE
8
BLACK
10
223.629
20
-132.697
11
223.701
21
-132.733
0
LINE
8
BLACK
10
223.701
20
-132.733
11
223.847
21
-132.733
0
LINE
8
BLACK
10
223.847
20
-132.733
11
223.919
21
-132.697
0
LINE
8
BLACK
10
223.919
20
-132.697
11
223.955
21
-132.661
0
LINE
8
BLACK
10
223.955
20
-132.661
11
223.992
21
-132.588
0
LINE
8
BLACK
10
224.355
20
-133.023
11
224.5
21
-133.023
0
LINE
8
BLACK
10
224.5
20
-133.023
11
224.572
21
-132.987
0
LINE
8
BLACK
10
224.572
20
-132.987
11
224.609
21
-132.951
0
LINE
8
BLACK
10
224.609
20
-132.951
11
224.681
21
-132.842
0
LINE
8
BLACK
10
224.681
20
-132.842
11
224.717
21
-132.697
0
LINE
8
BLACK
10
224.717
20
-132.697
11
224.717
21
-132.407
0
LINE
8
BLACK
10
224.717
20
-132.407
11
224.681
21
-132.334
0
LINE
8
BLACK
10
224.681
20
-132.334
11
224.645
21
-132.298
0
LINE
8
BLACK
10
224.645
20
-132.298
11
224.572
21
-132.261
0
LINE
8
BLACK
10
224.572
20
-132.261
11
224.427
21
-132.261
0
LINE
8
BLACK
10
224.427
20
-132.261
11
224.355
21
-132.298
0
LINE
8
BLACK
10
224.355
20
-132.298
11
224.318
21
-132.334
0
LINE
8
BLACK
10
224.318
20
-132.334
11
224.282
21
-132.407
0
LINE
8
BLACK
10
224.282
20
-132.407
11
224.282
21
-132.588
0
LINE
8
BLACK
10
224.282
20
-132.588
11
224.318
21
-132.661
0
LINE
8
BLACK
10
224.318
20
-132.661
11
224.355
21
-132.697
0
LINE
8
BLACK
10
224.355
20
-132.697
11
224.427
21
-132.733
0
LINE
8
BLACK
10
224.427
20
-132.733
11
224.572
21
-132.733
0
LINE
8
BLACK
10
224.572
20
-132.733
11
224.645
21
-132.697
0
LINE
8
BLACK
10
224.645
20
-132.697
11
224.681
21
-132.661
0
LINE
8
BLACK
10
224.681
20
-132.661
11
224.717
21
-132.588
0
LINE
8
BLACK
10
225.479
20
-133.023
11
225.225
21
-132.661
0
LINE
8
BLACK
10
225.044
20
-133.023
11
225.044
21
-132.261
0
LINE
8
BLACK
10
225.044
20
-132.261
11
225.334
21
-132.261
0
LINE
8
BLACK
10
225.334
20
-132.261
11
225.407
21
-132.298
0
LINE
8
BLACK
10
225.407
20
-132.298
11
225.443
21
-132.334
0
LINE
8
BLACK
10
225.443
20
-132.334
11
225.479
21
-132.407
0
LINE
8
BLACK
10
225.479
20
-132.407
11
225.479
21
-132.515
0
LINE
8
BLACK
10
225.479
20
-132.515
11
225.443
21
-132.588
0
LINE
8
BLACK
10
225.443
20
-132.588
11
225.407
21
-132.624
0
LINE
8
BLACK
10
225.407
20
-132.624
11
225.334
21
-132.661
0
LINE
8
BLACK
10
225.334
20
-132.661
11
225.044
21
-132.661
0
LINE
8
BLACK
10
219.492
20
-135.563
11
219.238
21
-135.201
0
LINE
8
BLACK
10
219.057
20
-135.563
11
219.057
21
-134.801
0
LINE
8
BLACK
10
219.057
20
-134.801
11
219.347
21
-134.801
0
LINE
8
BLACK
10
219.347
20
-134.801
11
219.42
21
-134.838
0
LINE
8
BLACK
10
219.42
20
-134.838
11
219.456
21
-134.874
0
LINE
8
BLACK
10
219.456
20
-134.874
11
219.492
21
-134.947
0
LINE
8
BLACK
10
219.492
20
-134.947
11
219.492
21
-135.055
0
LINE
8
BLACK
10
219.492
20
-135.055
11
219.456
21
-135.128
0
LINE
8
BLACK
10
219.456
20
-135.128
11
219.42
21
-135.164
0
LINE
8
BLACK
10
219.42
20
-135.164
11
219.347
21
-135.201
0
LINE
8
BLACK
10
219.347
20
-135.201
11
219.057
21
-135.201
0
LINE
8
BLACK
10
220.145
20
-135.055
11
220.145
21
-135.563
0
LINE
8
BLACK
10
219.964
20
-134.765
11
219.783
21
-135.309
0
LINE
8
BLACK
10
219.783
20
-135.309
11
220.254
21
-135.309
0
LINE
8
BLACK
10
220.944
20
-135.563
11
220.508
21
-135.563
0
LINE
8
BLACK
10
220.726
20
-135.563
11
220.726
21
-134.801
0
LINE
8
BLACK
10
220.726
20
-134.801
11
220.653
21
-134.91
0
LINE
8
BLACK
10
220.653
20
-134.91
11
220.581
21
-134.983
0
LINE
8
BLACK
10
220.581
20
-134.983
11
220.508
21
-135.019
0
LINE
8
BLACK
10
221.307
20
-135.563
11
221.452
21
-135.563
0
LINE
8
BLACK
10
221.452
20
-135.563
11
221.524
21
-135.527
0
LINE
8
BLACK
10
221.524
20
-135.527
11
221.561
21
-135.491
0
LINE
8
BLACK
10
221.561
20
-135.491
11
221.633
21
-135.382
0
LINE
8
BLACK
10
221.633
20
-135.382
11
221.669
21
-135.237
0
LINE
8
BLACK
10
221.669
20
-135.237
11
221.669
21
-134.947
0
LINE
8
BLACK
10
221.669
20
-134.947
11
221.633
21
-134.874
0
LINE
8
BLACK
10
221.633
20
-134.874
11
221.597
21
-134.838
0
LINE
8
BLACK
10
221.597
20
-134.838
11
221.524
21
-134.801
0
LINE
8
BLACK
10
221.524
20
-134.801
11
221.379
21
-134.801
0
LINE
8
BLACK
10
221.379
20
-134.801
11
221.307
21
-134.838
0
LINE
8
BLACK
10
221.307
20
-134.838
11
221.27
21
-134.874
0
LINE
8
BLACK
10
221.27
20
-134.874
11
221.234
21
-134.947
0
LINE
8
BLACK
10
221.234
20
-134.947
11
221.234
21
-135.128
0
LINE
8
BLACK
10
221.234
20
-135.128
11
221.27
21
-135.201
0
LINE
8
BLACK
10
221.27
20
-135.201
11
221.307
21
-135.237
0
LINE
8
BLACK
10
221.307
20
-135.237
11
221.379
21
-135.273
0
LINE
8
BLACK
10
221.379
20
-135.273
11
221.524
21
-135.273
0
LINE
8
BLACK
10
221.524
20
-135.273
11
221.597
21
-135.237
0
LINE
8
BLACK
10
221.597
20
-135.237
11
221.633
21
-135.201
0
LINE
8
BLACK
10
221.633
20
-135.201
11
221.669
21
-135.128
0
LINE
8
BLACK
10
222.722
20
-134.874
11
222.758
21
-134.838
0
LINE
8
BLACK
10
222.758
20
-134.838
11
222.831
21
-134.801
0
LINE
8
BLACK
10
222.831
20
-134.801
11
223.012
21
-134.801
0
LINE
8
BLACK
10
223.012
20
-134.801
11
223.085
21
-134.838
0
LINE
8
BLACK
10
223.085
20
-134.838
11
223.121
21
-134.874
0
LINE
8
BLACK
10
223.121
20
-134.874
11
223.157
21
-134.947
0
LINE
8
BLACK
10
223.157
20
-134.947
11
223.157
21
-135.019
0
LINE
8
BLACK
10
223.157
20
-135.019
11
223.121
21
-135.128
0
LINE
8
BLACK
10
223.121
20
-135.128
11
222.685
21
-135.563
0
LINE
8
BLACK
10
222.685
20
-135.563
11
223.157
21
-135.563
0
LINE
8
BLACK
10
223.484
20
-135.491
11
223.52
21
-135.527
0
LINE
8
BLACK
10
223.52
20
-135.527
11
223.484
21
-135.563
0
LINE
8
BLACK
10
223.484
20
-135.563
11
223.447
21
-135.527
0
LINE
8
BLACK
10
223.447
20
-135.527
11
223.484
21
-135.491
0
LINE
8
BLACK
10
223.484
20
-135.491
11
223.484
21
-135.563
0
LINE
8
BLACK
10
224.173
20
-134.801
11
224.028
21
-134.801
0
LINE
8
BLACK
10
224.028
20
-134.801
11
223.955
21
-134.838
0
LINE
8
BLACK
10
223.955
20
-134.838
11
223.919
21
-134.874
0
LINE
8
BLACK
10
223.919
20
-134.874
11
223.847
21
-134.983
0
LINE
8
BLACK
10
223.847
20
-134.983
11
223.81
21
-135.128
0
LINE
8
BLACK
10
223.81
20
-135.128
11
223.81
21
-135.418
0
LINE
8
BLACK
10
223.81
20
-135.418
11
223.847
21
-135.491
0
LINE
8
BLACK
10
223.847
20
-135.491
11
223.883
21
-135.527
0
LINE
8
BLACK
10
223.883
20
-135.527
11
223.955
21
-135.563
0
LINE
8
BLACK
10
223.955
20
-135.563
11
224.101
21
-135.563
0
LINE
8
BLACK
10
224.101
20
-135.563
11
224.173
21
-135.527
0
LINE
8
BLACK
10
224.173
20
-135.527
11
224.209
21
-135.491
0
LINE
8
BLACK
10
224.209
20
-135.491
11
224.246
21
-135.418
0
LINE
8
BLACK
10
224.246
20
-135.418
11
224.246
21
-135.237
0
LINE
8
BLACK
10
224.246
20
-135.237
11
224.209
21
-135.164
0
LINE
8
BLACK
10
224.209
20
-135.164
11
224.173
21
-135.128
0
LINE
8
BLACK
10
224.173
20
-135.128
11
224.101
21
-135.092
0
LINE
8
BLACK
10
224.101
20
-135.092
11
223.955
21
-135.092
0
LINE
8
BLACK
10
223.955
20
-135.092
11
223.883
21
-135.128
0
LINE
8
BLACK
10
223.883
20
-135.128
11
223.847
21
-135.164
0
LINE
8
BLACK
10
223.847
20
-135.164
11
223.81
21
-135.237
0
LINE
8
BLACK
10
224.5
20
-134.801
11
225.008
21
-134.801
0
LINE
8
BLACK
10
225.008
20
-134.801
11
224.681
21
-135.563
0
LINE
8
BLACK
10
225.298
20
-135.563
11
225.298
21
-134.801
0
LINE
8
BLACK
10
225.371
20
-135.273
11
225.588
21
-135.563
0
LINE
8
BLACK
10
225.588
20
-135.055
11
225.298
21
-135.346
0
LINE
8
BLACK
10
219.492
20
-139.301
11
219.456
21
-139.337
0
LINE
8
BLACK
10
219.456
20
-139.337
11
219.347
21
-139.373
0
LINE
8
BLACK
10
219.347
20
-139.373
11
219.275
21
-139.373
0
LINE
8
BLACK
10
219.275
20
-139.373
11
219.166
21
-139.337
0
LINE
8
BLACK
10
219.166
20
-139.337
11
219.093
21
-139.265
0
LINE
8
BLACK
10
219.093
20
-139.265
11
219.057
21
-139.192
0
LINE
8
BLACK
10
219.057
20
-139.192
11
219.021
21
-139.047
0
LINE
8
BLACK
10
219.021
20
-139.047
11
219.021
21
-138.938
0
LINE
8
BLACK
10
219.021
20
-138.938
11
219.057
21
-138.793
0
LINE
8
BLACK
10
219.057
20
-138.793
11
219.093
21
-138.72
0
LINE
8
BLACK
10
219.093
20
-138.72
11
219.166
21
-138.648
0
LINE
8
BLACK
10
219.166
20
-138.648
11
219.275
21
-138.611
0
LINE
8
BLACK
10
219.275
20
-138.611
11
219.347
21
-138.611
0
LINE
8
BLACK
10
219.347
20
-138.611
11
219.456
21
-138.648
0
LINE
8
BLACK
10
219.456
20
-138.648
11
219.492
21
-138.684
0
LINE
8
BLACK
10
220.145
20
-138.865
11
220.145
21
-139.373
0
LINE
8
BLACK
10
219.964
20
-138.575
11
219.783
21
-139.119
0
LINE
8
BLACK
10
219.783
20
-139.119
11
220.254
21
-139.119
0
LINE
8
BLACK
10
220.944
20
-139.373
11
220.508
21
-139.373
0
LINE
8
BLACK
10
220.726
20
-139.373
11
220.726
21
-138.611
0
LINE
8
BLACK
10
220.726
20
-138.611
11
220.653
21
-138.72
0
LINE
8
BLACK
10
220.653
20
-138.72
11
220.581
21
-138.793
0
LINE
8
BLACK
10
220.581
20
-138.793
11
220.508
21
-138.829
0
LINE
8
BLACK
10
221.597
20
-138.865
11
221.597
21
-139.373
0
LINE
8
BLACK
10
221.415
20
-138.575
11
221.234
21
-139.119
0
LINE
8
BLACK
10
221.234
20
-139.119
11
221.706
21
-139.119
0
LINE
8
BLACK
10
222.903
20
-138.611
11
222.976
21
-138.611
0
LINE
8
BLACK
10
222.976
20
-138.611
11
223.048
21
-138.648
0
LINE
8
BLACK
10
223.048
20
-138.648
11
223.085
21
-138.684
0
LINE
8
BLACK
10
223.085
20
-138.684
11
223.121
21
-138.757
0
LINE
8
BLACK
10
223.121
20
-138.757
11
223.157
21
-138.902
0
LINE
8
BLACK
10
223.157
20
-138.902
11
223.157
21
-139.083
0
LINE
8
BLACK
10
223.157
20
-139.083
11
223.121
21
-139.228
0
LINE
8
BLACK
10
223.121
20
-139.228
11
223.085
21
-139.301
0
LINE
8
BLACK
10
223.085
20
-139.301
11
223.048
21
-139.337
0
LINE
8
BLACK
10
223.048
20
-139.337
11
222.976
21
-139.373
0
LINE
8
BLACK
10
222.976
20
-139.373
11
222.903
21
-139.373
0
LINE
8
BLACK
10
222.903
20
-139.373
11
222.831
21
-139.337
0
LINE
8
BLACK
10
222.831
20
-139.337
11
222.794
21
-139.301
0
LINE
8
BLACK
10
222.794
20
-139.301
11
222.758
21
-139.228
0
LINE
8
BLACK
10
222.758
20
-139.228
11
222.722
21
-139.083
0
LINE
8
BLACK
10
222.722
20
-139.083
11
222.722
21
-138.902
0
LINE
8
BLACK
10
222.722
20
-138.902
11
222.758
21
-138.757
0
LINE
8
BLACK
10
222.758
20
-138.757
11
222.794
21
-138.684
0
LINE
8
BLACK
10
222.794
20
-138.684
11
222.831
21
-138.648
0
LINE
8
BLACK
10
222.831
20
-138.648
11
222.903
21
-138.611
0
LINE
8
BLACK
10
223.484
20
-139.301
11
223.52
21
-139.337
0
LINE
8
BLACK
10
223.52
20
-139.337
11
223.484
21
-139.373
0
LINE
8
BLACK
10
223.484
20
-139.373
11
223.447
21
-139.337
0
LINE
8
BLACK
10
223.447
20
-139.337
11
223.484
21
-139.301
0
LINE
8
BLACK
10
223.484
20
-139.301
11
223.484
21
-139.373
0
LINE
8
BLACK
10
224.246
20
-139.373
11
223.81
21
-139.373
0
LINE
8
BLACK
10
224.028
20
-139.373
11
224.028
21
-138.611
0
LINE
8
BLACK
10
224.028
20
-138.611
11
223.955
21
-138.72
0
LINE
8
BLACK
10
223.955
20
-138.72
11
223.883
21
-138.793
0
LINE
8
BLACK
10
223.883
20
-138.793
11
223.81
21
-138.829
0
LINE
8
BLACK
10
224.899
20
-138.865
11
224.899
21
-139.373
0
LINE
8
BLACK
10
224.572
20
-138.865
11
224.572
21
-139.265
0
LINE
8
BLACK
10
224.572
20
-139.265
11
224.609
21
-139.337
0
LINE
8
BLACK
10
224.609
20
-139.337
11
224.681
21
-139.373
0
LINE
8
BLACK
10
224.681
20
-139.373
11
224.79
21
-139.373
0
LINE
8
BLACK
10
224.79
20
-139.373
11
224.863
21
-139.337
0
LINE
8
BLACK
10
224.863
20
-139.337
11
224.899
21
-139.301
0
LINE
8
BLACK
10
225.516
20
-138.974
11
225.262
21
-138.974
0
LINE
8
BLACK
10
225.262
20
-139.373
11
225.262
21
-138.611
0
LINE
8
BLACK
10
225.262
20
-138.611
11
225.625
21
-138.611
0
LINE
8
BLACK
10
206.792
20
-121.593
11
206.538
21
-121.231
0
LINE
8
BLACK
10
206.357
20
-121.593
11
206.357
21
-120.831
0
LINE
8
BLACK
10
206.357
20
-120.831
11
206.647
21
-120.831
0
LINE
8
BLACK
10
206.647
20
-120.831
11
206.72
21
-120.868
0
LINE
8
BLACK
10
206.72
20
-120.868
11
206.756
21
-120.904
0
LINE
8
BLACK
10
206.756
20
-120.904
11
206.792
21
-120.977
0
LINE
8
BLACK
10
206.792
20
-120.977
11
206.792
21
-121.085
0
LINE
8
BLACK
10
206.792
20
-121.085
11
206.756
21
-121.158
0
LINE
8
BLACK
10
206.756
20
-121.158
11
206.72
21
-121.194
0
LINE
8
BLACK
10
206.72
20
-121.194
11
206.647
21
-121.231
0
LINE
8
BLACK
10
206.647
20
-121.231
11
206.357
21
-121.231
0
LINE
8
BLACK
10
207.445
20
-121.085
11
207.445
21
-121.593
0
LINE
8
BLACK
10
207.264
20
-120.795
11
207.083
21
-121.339
0
LINE
8
BLACK
10
207.083
20
-121.339
11
207.554
21
-121.339
0
LINE
8
BLACK
10
207.808
20
-120.904
11
207.845
21
-120.868
0
LINE
8
BLACK
10
207.845
20
-120.868
11
207.917
21
-120.831
0
LINE
8
BLACK
10
207.917
20
-120.831
11
208.099
21
-120.831
0
LINE
8
BLACK
10
208.099
20
-120.831
11
208.171
21
-120.868
0
LINE
8
BLACK
10
208.171
20
-120.868
11
208.207
21
-120.904
0
LINE
8
BLACK
10
208.207
20
-120.904
11
208.244
21
-120.977
0
LINE
8
BLACK
10
208.244
20
-120.977
11
208.244
21
-121.049
0
LINE
8
BLACK
10
208.244
20
-121.049
11
208.207
21
-121.158
0
LINE
8
BLACK
10
208.207
20
-121.158
11
207.772
21
-121.593
0
LINE
8
BLACK
10
207.772
20
-121.593
11
208.244
21
-121.593
0
LINE
8
BLACK
10
208.969
20
-121.593
11
208.534
21
-121.593
0
LINE
8
BLACK
10
208.752
20
-121.593
11
208.752
21
-120.831
0
LINE
8
BLACK
10
208.752
20
-120.831
11
208.679
21
-120.94
0
LINE
8
BLACK
10
208.679
20
-120.94
11
208.607
21
-121.013
0
LINE
8
BLACK
10
208.607
20
-121.013
11
208.534
21
-121.049
0
LINE
8
BLACK
10
210.639
20
-121.593
11
210.203
21
-121.593
0
LINE
8
BLACK
10
210.421
20
-121.593
11
210.421
21
-120.831
0
LINE
8
BLACK
10
210.421
20
-120.831
11
210.348
21
-120.94
0
LINE
8
BLACK
10
210.348
20
-120.94
11
210.276
21
-121.013
0
LINE
8
BLACK
10
210.276
20
-121.013
11
210.203
21
-121.049
0
LINE
8
BLACK
10
211.11
20
-120.831
11
211.183
21
-120.831
0
LINE
8
BLACK
10
211.183
20
-120.831
11
211.255
21
-120.868
0
LINE
8
BLACK
10
211.255
20
-120.868
11
211.292
21
-120.904
0
LINE
8
BLACK
10
211.292
20
-120.904
11
211.328
21
-120.977
0
LINE
8
BLACK
10
211.328
20
-120.977
11
211.364
21
-121.122
0
LINE
8
BLACK
10
211.364
20
-121.122
11
211.364
21
-121.303
0
LINE
8
BLACK
10
211.364
20
-121.303
11
211.328
21
-121.448
0
LINE
8
BLACK
10
211.328
20
-121.448
11
211.292
21
-121.521
0
LINE
8
BLACK
10
211.292
20
-121.521
11
211.255
21
-121.557
0
LINE
8
BLACK
10
211.255
20
-121.557
11
211.183
21
-121.593
0
LINE
8
BLACK
10
211.183
20
-121.593
11
211.11
21
-121.593
0
LINE
8
BLACK
10
211.11
20
-121.593
11
211.038
21
-121.557
0
LINE
8
BLACK
10
211.038
20
-121.557
11
211.001
21
-121.521
0
LINE
8
BLACK
10
211.001
20
-121.521
11
210.965
21
-121.448
0
LINE
8
BLACK
10
210.965
20
-121.448
11
210.929
21
-121.303
0
LINE
8
BLACK
10
210.929
20
-121.303
11
210.929
21
-121.122
0
LINE
8
BLACK
10
210.929
20
-121.122
11
210.965
21
-120.977
0
LINE
8
BLACK
10
210.965
20
-120.977
11
211.001
21
-120.904
0
LINE
8
BLACK
10
211.001
20
-120.904
11
211.038
21
-120.868
0
LINE
8
BLACK
10
211.038
20
-120.868
11
211.11
21
-120.831
0
LINE
8
BLACK
10
211.836
20
-120.831
11
211.909
21
-120.831
0
LINE
8
BLACK
10
211.909
20
-120.831
11
211.981
21
-120.868
0
LINE
8
BLACK
10
211.981
20
-120.868
11
212.017
21
-120.904
0
LINE
8
BLACK
10
212.017
20
-120.904
11
212.054
21
-120.977
0
LINE
8
BLACK
10
212.054
20
-120.977
11
212.09
21
-121.122
0
LINE
8
BLACK
10
212.09
20
-121.122
11
212.09
21
-121.303
0
LINE
8
BLACK
10
212.09
20
-121.303
11
212.054
21
-121.448
0
LINE
8
BLACK
10
212.054
20
-121.448
11
212.017
21
-121.521
0
LINE
8
BLACK
10
212.017
20
-121.521
11
211.981
21
-121.557
0
LINE
8
BLACK
10
211.981
20
-121.557
11
211.909
21
-121.593
0
LINE
8
BLACK
10
211.909
20
-121.593
11
211.836
21
-121.593
0
LINE
8
BLACK
10
211.836
20
-121.593
11
211.763
21
-121.557
0
LINE
8
BLACK
10
211.763
20
-121.557
11
211.727
21
-121.521
0
LINE
8
BLACK
10
211.727
20
-121.521
11
211.691
21
-121.448
0
LINE
8
BLACK
10
211.691
20
-121.448
11
211.655
21
-121.303
0
LINE
8
BLACK
10
211.655
20
-121.303
11
211.655
21
-121.122
0
LINE
8
BLACK
10
211.655
20
-121.122
11
211.691
21
-120.977
0
LINE
8
BLACK
10
211.691
20
-120.977
11
211.727
21
-120.904
0
LINE
8
BLACK
10
211.727
20
-120.904
11
211.763
21
-120.868
0
LINE
8
BLACK
10
211.763
20
-120.868
11
211.836
21
-120.831
0
LINE
8
BLACK
10
212.417
20
-121.593
11
212.417
21
-120.831
0
LINE
8
BLACK
10
212.489
20
-121.303
11
212.707
21
-121.593
0
LINE
8
BLACK
10
212.707
20
-121.085
11
212.417
21
-121.376
0
LINE
8
BLACK
10
198.356
20
-136.743
11
198.392
21
-136.779
0
LINE
8
BLACK
10
198.392
20
-136.779
11
198.428
21
-136.888
0
LINE
8
BLACK
10
198.428
20
-136.888
11
198.428
21
-136.96
0
LINE
8
BLACK
10
198.428
20
-136.96
11
198.392
21
-137.069
0
LINE
8
BLACK
10
198.392
20
-137.069
11
198.32
21
-137.142
0
LINE
8
BLACK
10
198.32
20
-137.142
11
198.247
21
-137.178
0
LINE
8
BLACK
10
198.247
20
-137.178
11
198.102
21
-137.214
0
LINE
8
BLACK
10
198.102
20
-137.214
11
197.993
21
-137.214
0
LINE
8
BLACK
10
197.993
20
-137.214
11
197.848
21
-137.178
0
LINE
8
BLACK
10
197.848
20
-137.178
11
197.775
21
-137.142
0
LINE
8
BLACK
10
197.775
20
-137.142
11
197.703
21
-137.069
0
LINE
8
BLACK
10
197.703
20
-137.069
11
197.666
21
-136.96
0
LINE
8
BLACK
10
197.666
20
-136.96
11
197.666
21
-136.888
0
LINE
8
BLACK
10
197.666
20
-136.888
11
197.703
21
-136.779
0
LINE
8
BLACK
10
197.703
20
-136.779
11
197.739
21
-136.743
0
LINE
8
BLACK
10
197.92
20
-136.09
11
198.428
21
-136.09
0
LINE
8
BLACK
10
197.63
20
-136.271
11
198.174
21
-136.452
0
LINE
8
BLACK
10
198.174
20
-136.452
11
198.174
21
-135.981
0
LINE
8
BLACK
10
198.428
20
-135.291
11
198.428
21
-135.727
0
LINE
8
BLACK
10
198.428
20
-135.509
11
197.666
21
-135.509
0
LINE
8
BLACK
10
197.666
20
-135.509
11
197.775
21
-135.582
0
LINE
8
BLACK
10
197.775
20
-135.582
11
197.848
21
-135.654
0
LINE
8
BLACK
10
197.848
20
-135.654
11
197.884
21
-135.727
0
LINE
8
BLACK
10
197.739
20
-135.001
11
197.703
21
-134.965
0
LINE
8
BLACK
10
197.703
20
-134.965
11
197.666
21
-134.892
0
LINE
8
BLACK
10
197.666
20
-134.892
11
197.666
21
-134.711
0
LINE
8
BLACK
10
197.666
20
-134.711
11
197.703
21
-134.638
0
LINE
8
BLACK
10
197.703
20
-134.638
11
197.739
21
-134.602
0
LINE
8
BLACK
10
197.739
20
-134.602
11
197.812
21
-134.566
0
LINE
8
BLACK
10
197.812
20
-134.566
11
197.884
21
-134.566
0
LINE
8
BLACK
10
197.884
20
-134.566
11
197.993
21
-134.602
0
LINE
8
BLACK
10
197.993
20
-134.602
11
198.428
21
-135.037
0
LINE
8
BLACK
10
198.428
20
-135.037
11
198.428
21
-134.566
0
LINE
8
BLACK
10
197.666
20
-133.332
11
197.666
21
-133.259
0
LINE
8
BLACK
10
197.666
20
-133.259
11
197.703
21
-133.187
0
LINE
8
BLACK
10
197.703
20
-133.187
11
197.739
21
-133.15
0
LINE
8
BLACK
10
197.739
20
-133.15
11
197.812
21
-133.114
0
LINE
8
BLACK
10
197.812
20
-133.114
11
197.957
21
-133.078
0
LINE
8
BLACK
10
197.957
20
-133.078
11
198.138
21
-133.078
0
LINE
8
BLACK
10
198.138
20
-133.078
11
198.283
21
-133.114
0
LINE
8
BLACK
10
198.283
20
-133.114
11
198.356
21
-133.15
0
LINE
8
BLACK
10
198.356
20
-133.15
11
198.392
21
-133.187
0
LINE
8
BLACK
10
198.392
20
-133.187
11
198.428
21
-133.259
0
LINE
8
BLACK
10
198.428
20
-133.259
11
198.428
21
-133.332
0
LINE
8
BLACK
10
198.428
20
-133.332
11
198.392
21
-133.404
0
LINE
8
BLACK
10
198.392
20
-133.404
11
198.356
21
-133.441
0
LINE
8
BLACK
10
198.356
20
-133.441
11
198.283
21
-133.477
0
LINE
8
BLACK
10
198.283
20
-133.477
11
198.138
21
-133.513
0
LINE
8
BLACK
10
198.138
20
-133.513
11
197.957
21
-133.513
0
LINE
8
BLACK
10
197.957
20
-133.513
11
197.812
21
-133.477
0
LINE
8
BLACK
10
197.812
20
-133.477
11
197.739
21
-133.441
0
LINE
8
BLACK
10
197.739
20
-133.441
11
197.703
21
-133.404
0
LINE
8
BLACK
10
197.703
20
-133.404
11
197.666
21
-133.332
0
LINE
8
BLACK
10
198.356
20
-132.751
11
198.392
21
-132.715
0
LINE
8
BLACK
10
198.392
20
-132.715
11
198.428
21
-132.751
0
LINE
8
BLACK
10
198.428
20
-132.751
11
198.392
21
-132.788
0
LINE
8
BLACK
10
198.392
20
-132.788
11
198.356
21
-132.751
0
LINE
8
BLACK
10
198.356
20
-132.751
11
198.428
21
-132.751
0
LINE
8
BLACK
10
198.428
20
-131.989
11
198.428
21
-132.425
0
LINE
8
BLACK
10
198.428
20
-132.207
11
197.666
21
-132.207
0
LINE
8
BLACK
10
197.666
20
-132.207
11
197.775
21
-132.28
0
LINE
8
BLACK
10
197.775
20
-132.28
11
197.848
21
-132.352
0
LINE
8
BLACK
10
197.848
20
-132.352
11
197.884
21
-132.425
0
LINE
8
BLACK
10
197.92
20
-131.336
11
198.428
21
-131.336
0
LINE
8
BLACK
10
197.92
20
-131.663
11
198.32
21
-131.663
0
LINE
8
BLACK
10
198.32
20
-131.663
11
198.392
21
-131.626
0
LINE
8
BLACK
10
198.392
20
-131.626
11
198.428
21
-131.554
0
LINE
8
BLACK
10
198.428
20
-131.554
11
198.428
21
-131.445
0
LINE
8
BLACK
10
198.428
20
-131.445
11
198.392
21
-131.372
0
LINE
8
BLACK
10
198.392
20
-131.372
11
198.356
21
-131.336
0
LINE
8
BLACK
10
198.029
20
-130.719
11
198.029
21
-130.973
0
LINE
8
BLACK
10
198.428
20
-130.973
11
197.666
21
-130.973
0
LINE
8
BLACK
10
197.666
20
-130.973
11
197.666
21
-130.61
0
LINE
8
BLACK
10
195.888
20
-136.743
11
195.526
21
-136.997
0
LINE
8
BLACK
10
195.888
20
-137.178
11
195.126
21
-137.178
0
LINE
8
BLACK
10
195.126
20
-137.178
11
195.126
21
-136.888
0
LINE
8
BLACK
10
195.126
20
-136.888
11
195.163
21
-136.815
0
LINE
8
BLACK
10
195.163
20
-136.815
11
195.199
21
-136.779
0
LINE
8
BLACK
10
195.199
20
-136.779
11
195.272
21
-136.743
0
LINE
8
BLACK
10
195.272
20
-136.743
11
195.38
21
-136.743
0
LINE
8
BLACK
10
195.38
20
-136.743
11
195.453
21
-136.779
0
LINE
8
BLACK
10
195.453
20
-136.779
11
195.489
21
-136.815
0
LINE
8
BLACK
10
195.489
20
-136.815
11
195.526
21
-136.888
0
LINE
8
BLACK
10
195.526
20
-136.888
11
195.526
21
-137.178
0
LINE
8
BLACK
10
195.38
20
-136.09
11
195.888
21
-136.09
0
LINE
8
BLACK
10
195.09
20
-136.271
11
195.634
21
-136.452
0
LINE
8
BLACK
10
195.634
20
-136.452
11
195.634
21
-135.981
0
LINE
8
BLACK
10
195.888
20
-135.291
11
195.888
21
-135.727
0
LINE
8
BLACK
10
195.888
20
-135.509
11
195.126
21
-135.509
0
LINE
8
BLACK
10
195.126
20
-135.509
11
195.235
21
-135.582
0
LINE
8
BLACK
10
195.235
20
-135.582
11
195.308
21
-135.654
0
LINE
8
BLACK
10
195.308
20
-135.654
11
195.344
21
-135.727
0
LINE
8
BLACK
10
195.126
20
-134.638
11
195.126
21
-134.783
0
LINE
8
BLACK
10
195.126
20
-134.783
11
195.163
21
-134.856
0
LINE
8
BLACK
10
195.163
20
-134.856
11
195.199
21
-134.892
0
LINE
8
BLACK
10
195.199
20
-134.892
11
195.308
21
-134.965
0
LINE
8
BLACK
10
195.308
20
-134.965
11
195.453
21
-135.001
0
LINE
8
BLACK
10
195.453
20
-135.001
11
195.743
21
-135.001
0
LINE
8
BLACK
10
195.743
20
-135.001
11
195.816
21
-134.965
0
LINE
8
BLACK
10
195.816
20
-134.965
11
195.852
21
-134.928
0
LINE
8
BLACK
10
195.852
20
-134.928
11
195.888
21
-134.856
0
LINE
8
BLACK
10
195.888
20
-134.856
11
195.888
21
-134.711
0
LINE
8
BLACK
10
195.888
20
-134.711
11
195.852
21
-134.638
0
LINE
8
BLACK
10
195.852
20
-134.638
11
195.816
21
-134.602
0
LINE
8
BLACK
10
195.816
20
-134.602
11
195.743
21
-134.566
0
LINE
8
BLACK
10
195.743
20
-134.566
11
195.562
21
-134.566
0
LINE
8
BLACK
10
195.562
20
-134.566
11
195.489
21
-134.602
0
LINE
8
BLACK
10
195.489
20
-134.602
11
195.453
21
-134.638
0
LINE
8
BLACK
10
195.453
20
-134.638
11
195.417
21
-134.711
0
LINE
8
BLACK
10
195.417
20
-134.711
11
195.417
21
-134.856
0
LINE
8
BLACK
10
195.417
20
-134.856
11
195.453
21
-134.928
0
LINE
8
BLACK
10
195.453
20
-134.928
11
195.489
21
-134.965
0
LINE
8
BLACK
10
195.489
20
-134.965
11
195.562
21
-135.001
0
LINE
8
BLACK
10
195.888
20
-132.534
11
195.888
21
-132.969
0
LINE
8
BLACK
10
195.888
20
-132.751
11
195.126
21
-132.751
0
LINE
8
BLACK
10
195.126
20
-132.751
11
195.235
21
-132.824
0
LINE
8
BLACK
10
195.235
20
-132.824
11
195.308
21
-132.896
0
LINE
8
BLACK
10
195.308
20
-132.896
11
195.344
21
-132.969
0
LINE
8
BLACK
10
195.126
20
-132.062
11
195.126
21
-131.989
0
LINE
8
BLACK
10
195.126
20
-131.989
11
195.163
21
-131.917
0
LINE
8
BLACK
10
195.163
20
-131.917
11
195.199
21
-131.88
0
LINE
8
BLACK
10
195.199
20
-131.88
11
195.272
21
-131.844
0
LINE
8
BLACK
10
195.272
20
-131.844
11
195.417
21
-131.808
0
LINE
8
BLACK
10
195.417
20
-131.808
11
195.598
21
-131.808
0
LINE
8
BLACK
10
195.598
20
-131.808
11
195.743
21
-131.844
0
LINE
8
BLACK
10
195.743
20
-131.844
11
195.816
21
-131.88
0
LINE
8
BLACK
10
195.816
20
-131.88
11
195.852
21
-131.917
0
LINE
8
BLACK
10
195.852
20
-131.917
11
195.888
21
-131.989
0
LINE
8
BLACK
10
195.888
20
-131.989
11
195.888
21
-132.062
0
LINE
8
BLACK
10
195.888
20
-132.062
11
195.852
21
-132.134
0
LINE
8
BLACK
10
195.852
20
-132.134
11
195.816
21
-132.171
0
LINE
8
BLACK
10
195.816
20
-132.171
11
195.743
21
-132.207
0
LINE
8
BLACK
10
195.743
20
-132.207
11
195.598
21
-132.243
0
LINE
8
BLACK
10
195.598
20
-132.243
11
195.417
21
-132.243
0
LINE
8
BLACK
10
195.417
20
-132.243
11
195.272
21
-132.207
0
LINE
8
BLACK
10
195.272
20
-132.207
11
195.199
21
-132.171
0
LINE
8
BLACK
10
195.199
20
-132.171
11
195.163
21
-132.134
0
LINE
8
BLACK
10
195.163
20
-132.134
11
195.126
21
-132.062
0
LINE
8
BLACK
10
195.888
20
-131.481
11
195.126
21
-131.481
0
LINE
8
BLACK
10
195.598
20
-131.409
11
195.888
21
-131.191
0
LINE
8
BLACK
10
195.38
20
-131.191
11
195.671
21
-131.481
0
LINE
8
BLACK
10
198.428
20
-154.523
11
198.066
21
-154.777
0
LINE
8
BLACK
10
198.428
20
-154.958
11
197.666
21
-154.958
0
LINE
8
BLACK
10
197.666
20
-154.958
11
197.666
21
-154.668
0
LINE
8
BLACK
10
197.666
20
-154.668
11
197.703
21
-154.595
0
LINE
8
BLACK
10
197.703
20
-154.595
11
197.739
21
-154.559
0
LINE
8
BLACK
10
197.739
20
-154.559
11
197.812
21
-154.523
0
LINE
8
BLACK
10
197.812
20
-154.523
11
197.92
21
-154.523
0
LINE
8
BLACK
10
197.92
20
-154.523
11
197.993
21
-154.559
0
LINE
8
BLACK
10
197.993
20
-154.559
11
198.029
21
-154.595
0
LINE
8
BLACK
10
198.029
20
-154.595
11
198.066
21
-154.668
0
LINE
8
BLACK
10
198.066
20
-154.668
11
198.066
21
-154.958
0
LINE
8
BLACK
10
197.92
20
-153.87
11
198.428
21
-153.87
0
LINE
8
BLACK
10
197.63
20
-154.051
11
198.174
21
-154.232
0
LINE
8
BLACK
10
198.174
20
-154.232
11
198.174
21
-153.761
0
LINE
8
BLACK
10
197.739
20
-153.507
11
197.703
21
-153.47
0
LINE
8
BLACK
10
197.703
20
-153.47
11
197.666
21
-153.398
0
LINE
8
BLACK
10
197.666
20
-153.398
11
197.666
21
-153.216
0
LINE
8
BLACK
10
197.666
20
-153.216
11
197.703
21
-153.144
0
LINE
8
BLACK
10
197.703
20
-153.144
11
197.739
21
-153.108
0
LINE
8
BLACK
10
197.739
20
-153.108
11
197.812
21
-153.071
0
LINE
8
BLACK
10
197.812
20
-153.071
11
197.884
21
-153.071
0
LINE
8
BLACK
10
197.884
20
-153.071
11
197.993
21
-153.108
0
LINE
8
BLACK
10
197.993
20
-153.108
11
198.428
21
-153.543
0
LINE
8
BLACK
10
198.428
20
-153.543
11
198.428
21
-153.071
0
LINE
8
BLACK
10
197.666
20
-152.6
11
197.666
21
-152.527
0
LINE
8
BLACK
10
197.666
20
-152.527
11
197.703
21
-152.454
0
LINE
8
BLACK
10
197.703
20
-152.454
11
197.739
21
-152.418
0
LINE
8
BLACK
10
197.739
20
-152.418
11
197.812
21
-152.382
0
LINE
8
BLACK
10
197.812
20
-152.382
11
197.957
21
-152.346
0
LINE
8
BLACK
10
197.957
20
-152.346
11
198.138
21
-152.346
0
LINE
8
BLACK
10
198.138
20
-152.346
11
198.283
21
-152.382
0
LINE
8
BLACK
10
198.283
20
-152.382
11
198.356
21
-152.418
0
LINE
8
BLACK
10
198.356
20
-152.418
11
198.392
21
-152.454
0
LINE
8
BLACK
10
198.392
20
-152.454
11
198.428
21
-152.527
0
LINE
8
BLACK
10
198.428
20
-152.527
11
198.428
21
-152.6
0
LINE
8
BLACK
10
198.428
20
-152.6
11
198.392
21
-152.672
0
LINE
8
BLACK
10
198.392
20
-152.672
11
198.356
21
-152.708
0
LINE
8
BLACK
10
198.356
20
-152.708
11
198.283
21
-152.745
0
LINE
8
BLACK
10
198.283
20
-152.745
11
198.138
21
-152.781
0
LINE
8
BLACK
10
198.138
20
-152.781
11
197.957
21
-152.781
0
LINE
8
BLACK
10
197.957
20
-152.781
11
197.812
21
-152.745
0
LINE
8
BLACK
10
197.812
20
-152.745
11
197.739
21
-152.708
0
LINE
8
BLACK
10
197.739
20
-152.708
11
197.703
21
-152.672
0
LINE
8
BLACK
10
197.703
20
-152.672
11
197.666
21
-152.6
0
LINE
8
BLACK
10
198.428
20
-150.078
11
198.428
21
-150.513
0
LINE
8
BLACK
10
198.428
20
-150.295
11
197.666
21
-150.295
0
LINE
8
BLACK
10
197.666
20
-150.295
11
197.775
21
-150.368
0
LINE
8
BLACK
10
197.775
20
-150.368
11
197.848
21
-150.441
0
LINE
8
BLACK
10
197.848
20
-150.441
11
197.884
21
-150.513
0
LINE
8
BLACK
10
198.428
20
-149.751
11
197.666
21
-149.751
0
LINE
8
BLACK
10
197.666
20
-149.751
11
198.211
21
-149.497
0
LINE
8
BLACK
10
198.211
20
-149.497
11
197.666
21
-149.243
0
LINE
8
BLACK
10
197.666
20
-149.243
11
198.428
21
-149.243
0
LINE
8
BLACK
10
195.816
20
-154.523
11
195.852
21
-154.559
0
LINE
8
BLACK
10
195.852
20
-154.559
11
195.888
21
-154.668
0
LINE
8
BLACK
10
195.888
20
-154.668
11
195.888
21
-154.74
0
LINE
8
BLACK
10
195.888
20
-154.74
11
195.852
21
-154.849
0
LINE
8
BLACK
10
195.852
20
-154.849
11
195.78
21
-154.922
0
LINE
8
BLACK
10
195.78
20
-154.922
11
195.707
21
-154.958
0
LINE
8
BLACK
10
195.707
20
-154.958
11
195.562
21
-154.994
0
LINE
8
BLACK
10
195.562
20
-154.994
11
195.453
21
-154.994
0
LINE
8
BLACK
10
195.453
20
-154.994
11
195.308
21
-154.958
0
LINE
8
BLACK
10
195.308
20
-154.958
11
195.235
21
-154.922
0
LINE
8
BLACK
10
195.235
20
-154.922
11
195.163
21
-154.849
0
LINE
8
BLACK
10
195.163
20
-154.849
11
195.126
21
-154.74
0
LINE
8
BLACK
10
195.126
20
-154.74
11
195.126
21
-154.668
0
LINE
8
BLACK
10
195.126
20
-154.668
11
195.163
21
-154.559
0
LINE
8
BLACK
10
195.163
20
-154.559
11
195.199
21
-154.523
0
LINE
8
BLACK
10
195.38
20
-153.87
11
195.888
21
-153.87
0
LINE
8
BLACK
10
195.09
20
-154.051
11
195.634
21
-154.232
0
LINE
8
BLACK
10
195.634
20
-154.232
11
195.634
21
-153.761
0
LINE
8
BLACK
10
195.888
20
-153.071
11
195.888
21
-153.507
0
LINE
8
BLACK
10
195.888
20
-153.289
11
195.126
21
-153.289
0
LINE
8
BLACK
10
195.126
20
-153.289
11
195.235
21
-153.362
0
LINE
8
BLACK
10
195.235
20
-153.362
11
195.308
21
-153.434
0
LINE
8
BLACK
10
195.308
20
-153.434
11
195.344
21
-153.507
0
LINE
8
BLACK
10
195.888
20
-152.346
11
195.888
21
-152.781
0
LINE
8
BLACK
10
195.888
20
-152.563
11
195.126
21
-152.563
0
LINE
8
BLACK
10
195.126
20
-152.563
11
195.235
21
-152.636
0
LINE
8
BLACK
10
195.235
20
-152.636
11
195.308
21
-152.708
0
LINE
8
BLACK
10
195.308
20
-152.708
11
195.344
21
-152.781
0
LINE
8
BLACK
10
195.199
20
-151.112
11
195.163
21
-151.076
0
LINE
8
BLACK
10
195.163
20
-151.076
11
195.126
21
-151.003
0
LINE
8
BLACK
10
195.126
20
-151.003
11
195.126
21
-150.822
0
LINE
8
BLACK
10
195.126
20
-150.822
11
195.163
21
-150.749
0
LINE
8
BLACK
10
195.163
20
-150.749
11
195.199
21
-150.713
0
LINE
8
BLACK
10
195.199
20
-150.713
11
195.272
21
-150.676
0
LINE
8
BLACK
10
195.272
20
-150.676
11
195.344
21
-150.676
0
LINE
8
BLACK
10
195.344
20
-150.676
11
195.453
21
-150.713
0
LINE
8
BLACK
10
195.453
20
-150.713
11
195.888
21
-151.148
0
LINE
8
BLACK
10
195.888
20
-151.148
11
195.888
21
-150.676
0
LINE
8
BLACK
10
195.199
20
-150.386
11
195.163
21
-150.35
0
LINE
8
BLACK
10
195.163
20
-150.35
11
195.126
21
-150.277
0
LINE
8
BLACK
10
195.126
20
-150.277
11
195.126
21
-150.096
0
LINE
8
BLACK
10
195.126
20
-150.096
11
195.163
21
-150.023
0
LINE
8
BLACK
10
195.163
20
-150.023
11
195.199
21
-149.987
0
LINE
8
BLACK
10
195.199
20
-149.987
11
195.272
21
-149.951
0
LINE
8
BLACK
10
195.272
20
-149.951
11
195.344
21
-149.951
0
LINE
8
BLACK
10
195.344
20
-149.951
11
195.453
21
-149.987
0
LINE
8
BLACK
10
195.453
20
-149.987
11
195.888
21
-150.422
0
LINE
8
BLACK
10
195.888
20
-150.422
11
195.888
21
-149.951
0
LINE
8
BLACK
10
195.38
20
-149.624
11
195.888
21
-149.624
0
LINE
8
BLACK
10
195.453
20
-149.624
11
195.417
21
-149.588
0
LINE
8
BLACK
10
195.417
20
-149.588
11
195.38
21
-149.515
0
LINE
8
BLACK
10
195.38
20
-149.515
11
195.38
21
-149.406
0
LINE
8
BLACK
10
195.38
20
-149.406
11
195.417
21
-149.334
0
LINE
8
BLACK
10
195.417
20
-149.334
11
195.489
21
-149.298
0
LINE
8
BLACK
10
195.489
20
-149.298
11
195.888
21
-149.298
0
LINE
8
BLACK
10
195.489
20
-148.681
11
195.489
21
-148.935
0
LINE
8
BLACK
10
195.888
20
-148.935
11
195.126
21
-148.935
0
LINE
8
BLACK
10
195.126
20
-148.935
11
195.126
21
-148.572
0
LINE
8
BLACK
10
193.276
20
-154.523
11
193.312
21
-154.559
0
LINE
8
BLACK
10
193.312
20
-154.559
11
193.348
21
-154.668
0
LINE
8
BLACK
10
193.348
20
-154.668
11
193.348
21
-154.74
0
LINE
8
BLACK
10
193.348
20
-154.74
11
193.312
21
-154.849
0
LINE
8
BLACK
10
193.312
20
-154.849
11
193.24
21
-154.922
0
LINE
8
BLACK
10
193.24
20
-154.922
11
193.167
21
-154.958
0
LINE
8
BLACK
10
193.167
20
-154.958
11
193.022
21
-154.994
0
LINE
8
BLACK
10
193.022
20
-154.994
11
192.913
21
-154.994
0
LINE
8
BLACK
10
192.913
20
-154.994
11
192.768
21
-154.958
0
LINE
8
BLACK
10
192.768
20
-154.958
11
192.695
21
-154.922
0
LINE
8
BLACK
10
192.695
20
-154.922
11
192.623
21
-154.849
0
LINE
8
BLACK
10
192.623
20
-154.849
11
192.586
21
-154.74
0
LINE
8
BLACK
10
192.586
20
-154.74
11
192.586
21
-154.668
0
LINE
8
BLACK
10
192.586
20
-154.668
11
192.623
21
-154.559
0
LINE
8
BLACK
10
192.623
20
-154.559
11
192.659
21
-154.523
0
LINE
8
BLACK
10
192.84
20
-153.87
11
193.348
21
-153.87
0
LINE
8
BLACK
10
192.55
20
-154.051
11
193.094
21
-154.232
0
LINE
8
BLACK
10
193.094
20
-154.232
11
193.094
21
-153.761
0
LINE
8
BLACK
10
193.348
20
-153.071
11
193.348
21
-153.507
0
LINE
8
BLACK
10
193.348
20
-153.289
11
192.586
21
-153.289
0
LINE
8
BLACK
10
192.586
20
-153.289
11
192.695
21
-153.362
0
LINE
8
BLACK
10
192.695
20
-153.362
11
192.768
21
-153.434
0
LINE
8
BLACK
10
192.768
20
-153.434
11
192.804
21
-153.507
0
LINE
8
BLACK
10
192.586
20
-152.817
11
192.586
21
-152.346
0
LINE
8
BLACK
10
192.586
20
-152.346
11
192.877
21
-152.6
0
LINE
8
BLACK
10
192.877
20
-152.6
11
192.877
21
-152.491
0
LINE
8
BLACK
10
192.877
20
-152.491
11
192.913
21
-152.418
0
LINE
8
BLACK
10
192.913
20
-152.418
11
192.949
21
-152.382
0
LINE
8
BLACK
10
192.949
20
-152.382
11
193.022
21
-152.346
0
LINE
8
BLACK
10
193.022
20
-152.346
11
193.203
21
-152.346
0
LINE
8
BLACK
10
193.203
20
-152.346
11
193.276
21
-152.382
0
LINE
8
BLACK
10
193.276
20
-152.382
11
193.312
21
-152.418
0
LINE
8
BLACK
10
193.312
20
-152.418
11
193.348
21
-152.491
0
LINE
8
BLACK
10
193.348
20
-152.491
11
193.348
21
-152.708
0
LINE
8
BLACK
10
193.348
20
-152.708
11
193.312
21
-152.781
0
LINE
8
BLACK
10
193.312
20
-152.781
11
193.276
21
-152.817
0
LINE
8
BLACK
10
193.348
20
-150.676
11
193.348
21
-151.112
0
LINE
8
BLACK
10
193.348
20
-150.894
11
192.586
21
-150.894
0
LINE
8
BLACK
10
192.586
20
-150.894
11
192.695
21
-150.967
0
LINE
8
BLACK
10
192.695
20
-150.967
11
192.768
21
-151.039
0
LINE
8
BLACK
10
192.768
20
-151.039
11
192.804
21
-151.112
0
LINE
8
BLACK
10
192.586
20
-150.205
11
192.586
21
-150.132
0
LINE
8
BLACK
10
192.586
20
-150.132
11
192.623
21
-150.06
0
LINE
8
BLACK
10
192.623
20
-150.06
11
192.659
21
-150.023
0
LINE
8
BLACK
10
192.659
20
-150.023
11
192.732
21
-149.987
0
LINE
8
BLACK
10
192.732
20
-149.987
11
192.877
21
-149.951
0
LINE
8
BLACK
10
192.877
20
-149.951
11
193.058
21
-149.951
0
LINE
8
BLACK
10
193.058
20
-149.951
11
193.203
21
-149.987
0
LINE
8
BLACK
10
193.203
20
-149.987
11
193.276
21
-150.023
0
LINE
8
BLACK
10
193.276
20
-150.023
11
193.312
21
-150.06
0
LINE
8
BLACK
10
193.312
20
-150.06
11
193.348
21
-150.132
0
LINE
8
BLACK
10
193.348
20
-150.132
11
193.348
21
-150.205
0
LINE
8
BLACK
10
193.348
20
-150.205
11
193.312
21
-150.277
0
LINE
8
BLACK
10
193.312
20
-150.277
11
193.276
21
-150.314
0
LINE
8
BLACK
10
193.276
20
-150.314
11
193.203
21
-150.35
0
LINE
8
BLACK
10
193.203
20
-150.35
11
193.058
21
-150.386
0
LINE
8
BLACK
10
193.058
20
-150.386
11
192.877
21
-150.386
0
LINE
8
BLACK
10
192.877
20
-150.386
11
192.732
21
-150.35
0
LINE
8
BLACK
10
192.732
20
-150.35
11
192.659
21
-150.314
0
LINE
8
BLACK
10
192.659
20
-150.314
11
192.623
21
-150.277
0
LINE
8
BLACK
10
192.623
20
-150.277
11
192.586
21
-150.205
0
LINE
8
BLACK
10
192.84
20
-149.624
11
193.348
21
-149.624
0
LINE
8
BLACK
10
192.913
20
-149.624
11
192.877
21
-149.588
0
LINE
8
BLACK
10
192.877
20
-149.588
11
192.84
21
-149.515
0
LINE
8
BLACK
10
192.84
20
-149.515
11
192.84
21
-149.406
0
LINE
8
BLACK
10
192.84
20
-149.406
11
192.877
21
-149.334
0
LINE
8
BLACK
10
192.877
20
-149.334
11
192.949
21
-149.298
0
LINE
8
BLACK
10
192.949
20
-149.298
11
193.348
21
-149.298
0
LINE
8
BLACK
10
192.949
20
-148.681
11
192.949
21
-148.935
0
LINE
8
BLACK
10
193.348
20
-148.935
11
192.586
21
-148.935
0
LINE
8
BLACK
10
192.586
20
-148.935
11
192.586
21
-148.572
0
LINE
8
BLACK
10
190.808
20
-154.523
11
190.446
21
-154.777
0
LINE
8
BLACK
10
190.808
20
-154.958
11
190.046
21
-154.958
0
LINE
8
BLACK
10
190.046
20
-154.958
11
190.046
21
-154.668
0
LINE
8
BLACK
10
190.046
20
-154.668
11
190.083
21
-154.595
0
LINE
8
BLACK
10
190.083
20
-154.595
11
190.119
21
-154.559
0
LINE
8
BLACK
10
190.119
20
-154.559
11
190.192
21
-154.523
0
LINE
8
BLACK
10
190.192
20
-154.523
11
190.3
21
-154.523
0
LINE
8
BLACK
10
190.3
20
-154.523
11
190.373
21
-154.559
0
LINE
8
BLACK
10
190.373
20
-154.559
11
190.409
21
-154.595
0
LINE
8
BLACK
10
190.409
20
-154.595
11
190.446
21
-154.668
0
LINE
8
BLACK
10
190.446
20
-154.668
11
190.446
21
-154.958
0
LINE
8
BLACK
10
190.3
20
-153.87
11
190.808
21
-153.87
0
LINE
8
BLACK
10
190.01
20
-154.051
11
190.554
21
-154.232
0
LINE
8
BLACK
10
190.554
20
-154.232
11
190.554
21
-153.761
0
LINE
8
BLACK
10
190.808
20
-153.071
11
190.808
21
-153.507
0
LINE
8
BLACK
10
190.808
20
-153.289
11
190.046
21
-153.289
0
LINE
8
BLACK
10
190.046
20
-153.289
11
190.155
21
-153.362
0
LINE
8
BLACK
10
190.155
20
-153.362
11
190.228
21
-153.434
0
LINE
8
BLACK
10
190.228
20
-153.434
11
190.264
21
-153.507
0
LINE
8
BLACK
10
190.046
20
-152.817
11
190.046
21
-152.309
0
LINE
8
BLACK
10
190.046
20
-152.309
11
190.808
21
-152.636
0
LINE
8
BLACK
10
190.119
20
-151.112
11
190.083
21
-151.076
0
LINE
8
BLACK
10
190.083
20
-151.076
11
190.046
21
-151.003
0
LINE
8
BLACK
10
190.046
20
-151.003
11
190.046
21
-150.822
0
LINE
8
BLACK
10
190.046
20
-150.822
11
190.083
21
-150.749
0
LINE
8
BLACK
10
190.083
20
-150.749
11
190.119
21
-150.713
0
LINE
8
BLACK
10
190.119
20
-150.713
11
190.192
21
-150.676
0
LINE
8
BLACK
10
190.192
20
-150.676
11
190.264
21
-150.676
0
LINE
8
BLACK
10
190.264
20
-150.676
11
190.373
21
-150.713
0
LINE
8
BLACK
10
190.373
20
-150.713
11
190.808
21
-151.148
0
LINE
8
BLACK
10
190.808
20
-151.148
11
190.808
21
-150.676
0
LINE
8
BLACK
10
190.046
20
-150.205
11
190.046
21
-150.132
0
LINE
8
BLACK
10
190.046
20
-150.132
11
190.083
21
-150.06
0
LINE
8
BLACK
10
190.083
20
-150.06
11
190.119
21
-150.023
0
LINE
8
BLACK
10
190.119
20
-150.023
11
190.192
21
-149.987
0
LINE
8
BLACK
10
190.192
20
-149.987
11
190.337
21
-149.951
0
LINE
8
BLACK
10
190.337
20
-149.951
11
190.518
21
-149.951
0
LINE
8
BLACK
10
190.518
20
-149.951
11
190.663
21
-149.987
0
LINE
8
BLACK
10
190.663
20
-149.987
11
190.736
21
-150.023
0
LINE
8
BLACK
10
190.736
20
-150.023
11
190.772
21
-150.06
0
LINE
8
BLACK
10
190.772
20
-150.06
11
190.808
21
-150.132
0
LINE
8
BLACK
10
190.808
20
-150.132
11
190.808
21
-150.205
0
LINE
8
BLACK
10
190.808
20
-150.205
11
190.772
21
-150.277
0
LINE
8
BLACK
10
190.772
20
-150.277
11
190.736
21
-150.314
0
LINE
8
BLACK
10
190.736
20
-150.314
11
190.663
21
-150.35
0
LINE
8
BLACK
10
190.663
20
-150.35
11
190.518
21
-150.386
0
LINE
8
BLACK
10
190.518
20
-150.386
11
190.337
21
-150.386
0
LINE
8
BLACK
10
190.337
20
-150.386
11
190.192
21
-150.35
0
LINE
8
BLACK
10
190.192
20
-150.35
11
190.119
21
-150.314
0
LINE
8
BLACK
10
190.119
20
-150.314
11
190.083
21
-150.277
0
LINE
8
BLACK
10
190.083
20
-150.277
11
190.046
21
-150.205
0
LINE
8
BLACK
10
190.046
20
-149.479
11
190.046
21
-149.406
0
LINE
8
BLACK
10
190.046
20
-149.406
11
190.083
21
-149.334
0
LINE
8
BLACK
10
190.083
20
-149.334
11
190.119
21
-149.298
0
LINE
8
BLACK
10
190.119
20
-149.298
11
190.192
21
-149.261
0
LINE
8
BLACK
10
190.192
20
-149.261
11
190.337
21
-149.225
0
LINE
8
BLACK
10
190.337
20
-149.225
11
190.518
21
-149.225
0
LINE
8
BLACK
10
190.518
20
-149.225
11
190.663
21
-149.261
0
LINE
8
BLACK
10
190.663
20
-149.261
11
190.736
21
-149.298
0
LINE
8
BLACK
10
190.736
20
-149.298
11
190.772
21
-149.334
0
LINE
8
BLACK
10
190.772
20
-149.334
11
190.808
21
-149.406
0
LINE
8
BLACK
10
190.808
20
-149.406
11
190.808
21
-149.479
0
LINE
8
BLACK
10
190.808
20
-149.479
11
190.772
21
-149.552
0
LINE
8
BLACK
10
190.772
20
-149.552
11
190.736
21
-149.588
0
LINE
8
BLACK
10
190.736
20
-149.588
11
190.663
21
-149.624
0
LINE
8
BLACK
10
190.663
20
-149.624
11
190.518
21
-149.66
0
LINE
8
BLACK
10
190.518
20
-149.66
11
190.337
21
-149.66
0
LINE
8
BLACK
10
190.337
20
-149.66
11
190.192
21
-149.624
0
LINE
8
BLACK
10
190.192
20
-149.624
11
190.119
21
-149.588
0
LINE
8
BLACK
10
190.119
20
-149.588
11
190.083
21
-149.552
0
LINE
8
BLACK
10
190.083
20
-149.552
11
190.046
21
-149.479
0
LINE
8
BLACK
10
190.808
20
-148.898
11
190.046
21
-148.898
0
LINE
8
BLACK
10
190.518
20
-148.826
11
190.808
21
-148.608
0
LINE
8
BLACK
10
190.3
20
-148.608
11
190.591
21
-148.898
0
LINE
8
BLACK
10
199.807
20
-140.897
11
199.553
21
-140.535
0
LINE
8
BLACK
10
199.372
20
-140.897
11
199.372
21
-140.135
0
LINE
8
BLACK
10
199.372
20
-140.135
11
199.662
21
-140.135
0
LINE
8
BLACK
10
199.662
20
-140.135
11
199.735
21
-140.172
0
LINE
8
BLACK
10
199.735
20
-140.172
11
199.771
21
-140.208
0
LINE
8
BLACK
10
199.771
20
-140.208
11
199.807
21
-140.281
0
LINE
8
BLACK
10
199.807
20
-140.281
11
199.807
21
-140.389
0
LINE
8
BLACK
10
199.807
20
-140.389
11
199.771
21
-140.462
0
LINE
8
BLACK
10
199.771
20
-140.462
11
199.735
21
-140.498
0
LINE
8
BLACK
10
199.735
20
-140.498
11
199.662
21
-140.535
0
LINE
8
BLACK
10
199.662
20
-140.535
11
199.372
21
-140.535
0
LINE
8
BLACK
10
200.46
20
-140.389
11
200.46
21
-140.897
0
LINE
8
BLACK
10
200.279
20
-140.099
11
200.098
21
-140.643
0
LINE
8
BLACK
10
200.098
20
-140.643
11
200.569
21
-140.643
0
LINE
8
BLACK
10
201.259
20
-140.897
11
200.823
21
-140.897
0
LINE
8
BLACK
10
201.041
20
-140.897
11
201.041
21
-140.135
0
LINE
8
BLACK
10
201.041
20
-140.135
11
200.968
21
-140.244
0
LINE
8
BLACK
10
200.968
20
-140.244
11
200.896
21
-140.317
0
LINE
8
BLACK
10
200.896
20
-140.317
11
200.823
21
-140.353
0
LINE
8
BLACK
10
201.513
20
-140.135
11
201.984
21
-140.135
0
LINE
8
BLACK
10
201.984
20
-140.135
11
201.73
21
-140.426
0
LINE
8
BLACK
10
201.73
20
-140.426
11
201.839
21
-140.426
0
LINE
8
BLACK
10
201.839
20
-140.426
11
201.912
21
-140.462
0
LINE
8
BLACK
10
201.912
20
-140.462
11
201.948
21
-140.498
0
LINE
8
BLACK
10
201.948
20
-140.498
11
201.984
21
-140.571
0
LINE
8
BLACK
10
201.984
20
-140.571
11
201.984
21
-140.752
0
LINE
8
BLACK
10
201.984
20
-140.752
11
201.948
21
-140.825
0
LINE
8
BLACK
10
201.948
20
-140.825
11
201.912
21
-140.861
0
LINE
8
BLACK
10
201.912
20
-140.861
11
201.839
21
-140.897
0
LINE
8
BLACK
10
201.839
20
-140.897
11
201.622
21
-140.897
0
LINE
8
BLACK
10
201.622
20
-140.897
11
201.549
21
-140.861
0
LINE
8
BLACK
10
201.549
20
-140.861
11
201.513
21
-140.825
0
LINE
8
BLACK
10
212.798
20
-140.135
11
213.306
21
-140.135
0
LINE
8
BLACK
10
213.306
20
-140.135
11
212.979
21
-140.897
0
LINE
8
BLACK
10
213.922
20
-140.389
11
213.922
21
-140.897
0
LINE
8
BLACK
10
213.741
20
-140.099
11
213.56
21
-140.643
0
LINE
8
BLACK
10
213.56
20
-140.643
11
214.031
21
-140.643
0
LINE
8
BLACK
10
214.322
20
-140.825
11
214.358
21
-140.861
0
LINE
8
BLACK
10
214.358
20
-140.861
11
214.322
21
-140.897
0
LINE
8
BLACK
10
214.322
20
-140.897
11
214.285
21
-140.861
0
LINE
8
BLACK
10
214.285
20
-140.861
11
214.322
21
-140.825
0
LINE
8
BLACK
10
214.322
20
-140.825
11
214.322
21
-140.897
0
LINE
8
BLACK
10
214.648
20
-140.208
11
214.684
21
-140.172
0
LINE
8
BLACK
10
214.684
20
-140.172
11
214.757
21
-140.135
0
LINE
8
BLACK
10
214.757
20
-140.135
11
214.938
21
-140.135
0
LINE
8
BLACK
10
214.938
20
-140.135
11
215.011
21
-140.172
0
LINE
8
BLACK
10
215.011
20
-140.172
11
215.047
21
-140.208
0
LINE
8
BLACK
10
215.047
20
-140.208
11
215.084
21
-140.281
0
LINE
8
BLACK
10
215.084
20
-140.281
11
215.084
21
-140.353
0
LINE
8
BLACK
10
215.084
20
-140.353
11
215.047
21
-140.462
0
LINE
8
BLACK
10
215.047
20
-140.462
11
214.612
21
-140.897
0
LINE
8
BLACK
10
214.612
20
-140.897
11
215.084
21
-140.897
0
LINE
8
BLACK
10
215.773
20
-140.135
11
215.41
21
-140.135
0
LINE
8
BLACK
10
215.41
20
-140.135
11
215.374
21
-140.498
0
LINE
8
BLACK
10
215.374
20
-140.498
11
215.41
21
-140.462
0
LINE
8
BLACK
10
215.41
20
-140.462
11
215.483
21
-140.426
0
LINE
8
BLACK
10
215.483
20
-140.426
11
215.664
21
-140.426
0
LINE
8
BLACK
10
215.664
20
-140.426
11
215.737
21
-140.462
0
LINE
8
BLACK
10
215.737
20
-140.462
11
215.773
21
-140.498
0
LINE
8
BLACK
10
215.773
20
-140.498
11
215.809
21
-140.571
0
LINE
8
BLACK
10
215.809
20
-140.571
11
215.809
21
-140.752
0
LINE
8
BLACK
10
215.809
20
-140.752
11
215.773
21
-140.825
0
LINE
8
BLACK
10
215.773
20
-140.825
11
215.737
21
-140.861
0
LINE
8
BLACK
10
215.737
20
-140.861
11
215.664
21
-140.897
0
LINE
8
BLACK
10
215.664
20
-140.897
11
215.483
21
-140.897
0
LINE
8
BLACK
10
215.483
20
-140.897
11
215.41
21
-140.861
0
LINE
8
BLACK
10
215.41
20
-140.861
11
215.374
21
-140.825
0
LINE
8
BLACK
10
216.136
20
-140.897
11
216.136
21
-140.135
0
LINE
8
BLACK
10
216.208
20
-140.607
11
216.426
21
-140.897
0
LINE
8
BLACK
10
216.426
20
-140.389
11
216.136
21
-140.68
0
LINE
8
BLACK
10
199.807
20
-145.723
11
199.553
21
-145.361
0
LINE
8
BLACK
10
199.372
20
-145.723
11
199.372
21
-144.961
0
LINE
8
BLACK
10
199.372
20
-144.961
11
199.662
21
-144.961
0
LINE
8
BLACK
10
199.662
20
-144.961
11
199.735
21
-144.998
0
LINE
8
BLACK
10
199.735
20
-144.998
11
199.771
21
-145.034
0
LINE
8
BLACK
10
199.771
20
-145.034
11
199.807
21
-145.107
0
LINE
8
BLACK
10
199.807
20
-145.107
11
199.807
21
-145.215
0
LINE
8
BLACK
10
199.807
20
-145.215
11
199.771
21
-145.288
0
LINE
8
BLACK
10
199.771
20
-145.288
11
199.735
21
-145.324
0
LINE
8
BLACK
10
199.735
20
-145.324
11
199.662
21
-145.361
0
LINE
8
BLACK
10
199.662
20
-145.361
11
199.372
21
-145.361
0
LINE
8
BLACK
10
200.46
20
-145.215
11
200.46
21
-145.723
0
LINE
8
BLACK
10
200.279
20
-144.925
11
200.098
21
-145.469
0
LINE
8
BLACK
10
200.098
20
-145.469
11
200.569
21
-145.469
0
LINE
8
BLACK
10
201.259
20
-145.723
11
200.823
21
-145.723
0
LINE
8
BLACK
10
201.041
20
-145.723
11
201.041
21
-144.961
0
LINE
8
BLACK
10
201.041
20
-144.961
11
200.968
21
-145.07
0
LINE
8
BLACK
10
200.968
20
-145.07
11
200.896
21
-145.143
0
LINE
8
BLACK
10
200.896
20
-145.143
11
200.823
21
-145.179
0
LINE
8
BLACK
10
201.948
20
-144.961
11
201.585
21
-144.961
0
LINE
8
BLACK
10
201.585
20
-144.961
11
201.549
21
-145.324
0
LINE
8
BLACK
10
201.549
20
-145.324
11
201.585
21
-145.288
0
LINE
8
BLACK
10
201.585
20
-145.288
11
201.658
21
-145.252
0
LINE
8
BLACK
10
201.658
20
-145.252
11
201.839
21
-145.252
0
LINE
8
BLACK
10
201.839
20
-145.252
11
201.912
21
-145.288
0
LINE
8
BLACK
10
201.912
20
-145.288
11
201.948
21
-145.324
0
LINE
8
BLACK
10
201.948
20
-145.324
11
201.984
21
-145.397
0
LINE
8
BLACK
10
201.984
20
-145.397
11
201.984
21
-145.578
0
LINE
8
BLACK
10
201.984
20
-145.578
11
201.948
21
-145.651
0
LINE
8
BLACK
10
201.948
20
-145.651
11
201.912
21
-145.687
0
LINE
8
BLACK
10
201.912
20
-145.687
11
201.839
21
-145.723
0
LINE
8
BLACK
10
201.839
20
-145.723
11
201.658
21
-145.723
0
LINE
8
BLACK
10
201.658
20
-145.723
11
201.585
21
-145.687
0
LINE
8
BLACK
10
201.585
20
-145.687
11
201.549
21
-145.651
0
LINE
8
BLACK
10
212.798
20
-144.961
11
213.306
21
-144.961
0
LINE
8
BLACK
10
213.306
20
-144.961
11
212.979
21
-145.723
0
LINE
8
BLACK
10
213.922
20
-145.215
11
213.922
21
-145.723
0
LINE
8
BLACK
10
213.741
20
-144.925
11
213.56
21
-145.469
0
LINE
8
BLACK
10
213.56
20
-145.469
11
214.031
21
-145.469
0
LINE
8
BLACK
10
214.322
20
-145.651
11
214.358
21
-145.687
0
LINE
8
BLACK
10
214.358
20
-145.687
11
214.322
21
-145.723
0
LINE
8
BLACK
10
214.322
20
-145.723
11
214.285
21
-145.687
0
LINE
8
BLACK
10
214.285
20
-145.687
11
214.322
21
-145.651
0
LINE
8
BLACK
10
214.322
20
-145.651
11
214.322
21
-145.723
0
LINE
8
BLACK
10
214.648
20
-145.034
11
214.684
21
-144.998
0
LINE
8
BLACK
10
214.684
20
-144.998
11
214.757
21
-144.961
0
LINE
8
BLACK
10
214.757
20
-144.961
11
214.938
21
-144.961
0
LINE
8
BLACK
10
214.938
20
-144.961
11
215.011
21
-144.998
0
LINE
8
BLACK
10
215.011
20
-144.998
11
215.047
21
-145.034
0
LINE
8
BLACK
10
215.047
20
-145.034
11
215.084
21
-145.107
0
LINE
8
BLACK
10
215.084
20
-145.107
11
215.084
21
-145.179
0
LINE
8
BLACK
10
215.084
20
-145.179
11
215.047
21
-145.288
0
LINE
8
BLACK
10
215.047
20
-145.288
11
214.612
21
-145.723
0
LINE
8
BLACK
10
214.612
20
-145.723
11
215.084
21
-145.723
0
LINE
8
BLACK
10
215.773
20
-144.961
11
215.41
21
-144.961
0
LINE
8
BLACK
10
215.41
20
-144.961
11
215.374
21
-145.324
0
LINE
8
BLACK
10
215.374
20
-145.324
11
215.41
21
-145.288
0
LINE
8
BLACK
10
215.41
20
-145.288
11
215.483
21
-145.252
0
LINE
8
BLACK
10
215.483
20
-145.252
11
215.664
21
-145.252
0
LINE
8
BLACK
10
215.664
20
-145.252
11
215.737
21
-145.288
0
LINE
8
BLACK
10
215.737
20
-145.288
11
215.773
21
-145.324
0
LINE
8
BLACK
10
215.773
20
-145.324
11
215.809
21
-145.397
0
LINE
8
BLACK
10
215.809
20
-145.397
11
215.809
21
-145.578
0
LINE
8
BLACK
10
215.809
20
-145.578
11
215.773
21
-145.651
0
LINE
8
BLACK
10
215.773
20
-145.651
11
215.737
21
-145.687
0
LINE
8
BLACK
10
215.737
20
-145.687
11
215.664
21
-145.723
0
LINE
8
BLACK
10
215.664
20
-145.723
11
215.483
21
-145.723
0
LINE
8
BLACK
10
215.483
20
-145.723
11
215.41
21
-145.687
0
LINE
8
BLACK
10
215.41
20
-145.687
11
215.374
21
-145.651
0
LINE
8
BLACK
10
216.136
20
-145.723
11
216.136
21
-144.961
0
LINE
8
BLACK
10
216.208
20
-145.433
11
216.426
21
-145.723
0
LINE
8
BLACK
10
216.426
20
-145.215
11
216.136
21
-145.506
  0
ENDSEC
  0
EOF
