  0
SECTION
  2
HEADER
  9
$ANGBASE
  50
0.0
  9
$ANGDIR
  70
  1
  9
$MEASUREMENT
  70
0
  0
ENDSEC
  0
SECTION
  2
TABLES
  0
TABLE
  2
LTYPE
  70
1
  0
LTYPE
  2
CONTINUOUS
  70
0
  3
Solid line
  72
65
  73
0
  40
0.0
  0
ENDTAB
  0
TABLE
  2
STYLE
  70
4
  0
STYLE
  2
KICAD
  70
0
  40
0
  41
1
  42
1
  50
0
  71
0
  3
isocp.shx
  0
STYLE
  2
KICADB
  70
0
  40
0
  41
1
  42
1
  50
0
  71
0
  3
isocp.shx
  0
STYLE
  2
KICADI
  70
0
  40
0
  41
1
  42
1
  50
15
  71
0
  3
isocp.shx
  0
STYLE
  2
KICADBI
  70
0
  40
0
  41
1
  42
1
  50
15
  71
0
  3
isocp.shx
  0
ENDTAB
  0
TABLE
  2
LAYER
  70
24
  0
LAYER
  2
BLACK
  70
0
  62
250
  6
CONTINUOUS
  0
LAYER
  2
BLUE
  70
0
  62
5
  6
CONTINUOUS
  0
LAYER
  2
GREEN
  70
0
  62
3
  6
CONTINUOUS
  0
LAYER
  2
CYAN
  70
0
  62
4
  6
CONTINUOUS
  0
LAYER
  2
RED
  70
0
  62
1
  6
CONTINUOUS
  0
LAYER
  2
MAGENTA
  70
0
  62
6
  6
CONTINUOUS
  0
LAYER
  2
BROWN
  70
0
  62
54
  6
CONTINUOUS
  0
LAYER
  2
LIGHTGRAY
  70
0
  62
9
  6
CONTINUOUS
  0
LAYER
  2
DARKGRAY
  70
0
  62
8
  6
CONTINUOUS
  0
LAYER
  2
LIGHTBLUE
  70
0
  62
171
  6
CONTINUOUS
  0
LAYER
  2
LIGHTGREEN
  70
0
  62
91
  6
CONTINUOUS
  0
LAYER
  2
LIGHTCYAN
  70
0
  62
131
  6
CONTINUOUS
  0
LAYER
  2
LIGHTRED
  70
0
  62
11
  6
CONTINUOUS
  0
LAYER
  2
LIGHTMAGENTA
  70
0
  62
221
  6
CONTINUOUS
  0
LAYER
  2
YELLOW
  70
0
  62
2
  6
CONTINUOUS
  0
LAYER
  2
WHITE
  70
0
  62
7
  6
CONTINUOUS
  0
LAYER
  2
DARKDARKGRAY
  70
0
  62
251
  6
CONTINUOUS
  0
LAYER
  2
DARKBLUE
  70
0
  62
178
  6
CONTINUOUS
  0
LAYER
  2
DARKGREEN
  70
0
  62
98
  6
CONTINUOUS
  0
LAYER
  2
DARKCYAN
  70
0
  62
138
  6
CONTINUOUS
  0
LAYER
  2
DARKRED
  70
0
  62
18
  6
CONTINUOUS
  0
LAYER
  2
DARKMAGENTA
  70
0
  62
228
  6
CONTINUOUS
  0
LAYER
  2
DARKBROWN
  70
0
  62
58
  6
CONTINUOUS
  0
LAYER
  2
LIGHTYELLOW
  70
0
  62
51
  6
CONTINUOUS
  0
ENDTAB
  0
ENDSEC
  0
SECTION
  2
ENTITIES
0
CIRCLE
8
BLACK
10
222.359
20
-148.699
40
0.635
0
CIRCLE
8
BLACK
10
225.951
20
-148.699
40
0.635
0
CIRCLE
8
BLACK
10
226.669
20
-150.495
40
0.635
0
CIRCLE
8
BLACK
10
224.155
20
-147.981
40
0.635
0
CIRCLE
8
BLACK
10
225.951
20
-152.291
40
0.635
0
CIRCLE
8
BLACK
10
224.155
20
-153.009
40
0.635
0
CIRCLE
8
BLACK
10
222.359
20
-152.291
40
0.635
0
CIRCLE
8
BLACK
10
221.641
20
-150.495
40
0.635
0
LINE
8
BLACK
10
220.104
20
-129.781
11
221.856
21
-129.781
0
LINE
8
BLACK
10
221.856
20
-129.781
11
221.856
21
-128.029
0
LINE
8
BLACK
10
221.856
20
-128.029
11
220.104
21
-128.029
0
LINE
8
BLACK
10
220.104
20
-128.029
11
220.104
21
-129.781
0
ARC
8
BLACK
10
223.52
20
-128.905
40
0.8763
50
270
51
450
0
ARC
8
BLACK
10
223.52
20
-128.905
40
0.8763
50
90
51
270
0
ARC
8
BLACK
10
226.06
20
-128.905
40
0.8763
50
270
51
450
0
ARC
8
BLACK
10
226.06
20
-128.905
40
0.8763
50
90
51
270
0
CIRCLE
8
BLACK
10
191.135
20
-130.81
40
0.7493
0
CIRCLE
8
BLACK
10
191.135
20
-135.89
40
0.7493
0
CIRCLE
8
BLACK
10
191.135
20
-132.08
40
0.7493
0
CIRCLE
8
BLACK
10
186.69
20
-130.81
40
0.7493
0
CIRCLE
8
BLACK
10
186.69
20
-135.89
40
0.7493
0
CIRCLE
8
BLACK
10
186.69
20
-132.08
40
0.7493
0
CIRCLE
8
BLACK
10
186.69
20
-154.94
40
0.7493
0
CIRCLE
8
BLACK
10
186.69
20
-149.86
40
0.7493
0
CIRCLE
8
BLACK
10
186.69
20
-153.67
40
0.7493
0
LINE
8
BLACK
10
202.451
20
-138.189
11
202.451
21
-139.687
0
LINE
8
BLACK
10
202.451
20
-139.687
11
203.949
21
-139.687
0
LINE
8
BLACK
10
203.949
20
-139.687
11
203.949
21
-138.189
0
LINE
8
BLACK
10
203.949
20
-138.189
11
202.451
21
-138.189
0
ARC
8
BLACK
10
205.74
20
-138.938
40
0.7493
50
180
51
360
0
ARC
8
BLACK
10
205.74
20
-138.938
40
0.7493
50
0
51
180
0
ARC
8
BLACK
10
208.28
20
-138.938
40
0.7493
50
180
51
360
0
ARC
8
BLACK
10
208.28
20
-138.938
40
0.7493
50
0
51
180
0
ARC
8
BLACK
10
210.82
20
-138.938
40
0.7493
50
180
51
360
0
ARC
8
BLACK
10
210.82
20
-138.938
40
0.7493
50
0
51
180
0
ARC
8
BLACK
10
210.82
20
-131.318
40
0.7493
50
180
51
360
0
ARC
8
BLACK
10
210.82
20
-131.318
40
0.7493
50
0
51
180
0
ARC
8
BLACK
10
208.28
20
-131.318
40
0.7493
50
180
51
360
0
ARC
8
BLACK
10
208.28
20
-131.318
40
0.7493
50
0
51
180
0
ARC
8
BLACK
10
203.2
20
-131.318
40
0.7493
50
180
51
360
0
ARC
8
BLACK
10
203.2
20
-131.318
40
0.7493
50
0
51
180
0
ARC
8
BLACK
10
205.74
20
-131.318
40
0.7493
50
180
51
360
0
ARC
8
BLACK
10
205.74
20
-131.318
40
0.7493
50
0
51
180
0
LINE
8
BLACK
10
201.168
20
-154.178
11
201.168
21
-155.702
0
LINE
8
BLACK
10
201.168
20
-155.702
11
202.692
21
-155.702
0
LINE
8
BLACK
10
202.692
20
-155.702
11
202.692
21
-154.178
0
LINE
8
BLACK
10
202.692
20
-154.178
11
201.168
21
-154.178
0
CIRCLE
8
BLACK
10
204.47
20
-154.94
40
0.762
0
CIRCLE
8
BLACK
10
207.01
20
-154.94
40
0.762
0
CIRCLE
8
BLACK
10
209.55
20
-154.94
40
0.762
0
CIRCLE
8
BLACK
10
212.09
20
-154.94
40
0.762
0
LINE
8
BLACK
10
212.852
20
-125.857
11
212.852
21
-124.333
0
LINE
8
BLACK
10
212.852
20
-124.333
11
211.328
21
-124.333
0
LINE
8
BLACK
10
211.328
20
-124.333
11
211.328
21
-125.857
0
LINE
8
BLACK
10
211.328
20
-125.857
11
212.852
21
-125.857
0
CIRCLE
8
BLACK
10
209.55
20
-125.095
40
0.762
0
CIRCLE
8
BLACK
10
207.01
20
-125.095
40
0.762
0
CIRCLE
8
BLACK
10
204.47
20
-125.095
40
0.762
0
CIRCLE
8
BLACK
10
201.93
20
-125.095
40
0.762
0
LINE
8
BLACK
10
219.189
20
-122.669
11
219.189
21
-121.171
0
LINE
8
BLACK
10
219.189
20
-121.171
11
217.691
21
-121.171
0
LINE
8
BLACK
10
217.691
20
-121.171
11
217.691
21
-122.669
0
LINE
8
BLACK
10
217.691
20
-122.669
11
219.189
21
-122.669
0
ARC
8
BLACK
10
228.6
20
-121.92
40
0.7493
50
360
51
540
0
ARC
8
BLACK
10
228.6
20
-121.92
40
0.7493
50
180
51
360
0
LINE
8
BLACK
10
219.316
20
-125.336
11
219.316
21
-123.584
0
LINE
8
BLACK
10
219.316
20
-123.584
11
217.564
21
-123.584
0
LINE
8
BLACK
10
217.564
20
-123.584
11
217.564
21
-125.336
0
LINE
8
BLACK
10
217.564
20
-125.336
11
219.316
21
-125.336
0
ARC
8
BLACK
10
228.6
20
-124.46
40
0.8763
50
360
51
540
0
ARC
8
BLACK
10
228.6
20
-124.46
40
0.8763
50
180
51
360
0
ARC
8
BLACK
10
215.9
20
-132.715
40
0.7493
50
180
51
360
0
ARC
8
BLACK
10
215.9
20
-132.715
40
0.7493
50
0
51
180
0
ARC
8
BLACK
10
228.6
20
-132.715
40
0.7493
50
180
51
360
0
ARC
8
BLACK
10
228.6
20
-132.715
40
0.7493
50
0
51
180
0
ARC
8
BLACK
10
215.9
20
-135.255
40
0.7493
50
180
51
360
0
ARC
8
BLACK
10
215.9
20
-135.255
40
0.7493
50
0
51
180
0
ARC
8
BLACK
10
228.6
20
-135.255
40
0.7493
50
180
51
360
0
ARC
8
BLACK
10
228.6
20
-135.255
40
0.7493
50
0
51
180
0
CIRCLE
8
BLACK
10
228.6
20
-139.065
40
0.7493
0
CIRCLE
8
BLACK
10
215.9
20
-139.065
40
0.7493
0
ARC
8
BLACK
10
215.9
20
-121.285
40
0.7493
50
360
51
540
0
ARC
8
BLACK
10
215.9
20
-121.285
40
0.7493
50
180
51
360
0
ARC
8
BLACK
10
203.2
20
-121.285
40
0.7493
50
360
51
540
0
ARC
8
BLACK
10
203.2
20
-121.285
40
0.7493
50
180
51
360
0
CIRCLE
8
BLACK
10
198.12
20
-127.635
40
0.7493
0
CIRCLE
8
BLACK
10
198.12
20
-140.335
40
0.7493
0
ARC
8
BLACK
10
195.58
20
-140.335
40
0.7493
50
270
51
450
0
ARC
8
BLACK
10
195.58
20
-140.335
40
0.7493
50
90
51
270
0
ARC
8
BLACK
10
195.58
20
-127.635
40
0.7493
50
270
51
450
0
ARC
8
BLACK
10
195.58
20
-127.635
40
0.7493
50
90
51
270
0
ARC
8
BLACK
10
198.12
20
-145.415
40
0.7493
50
450
51
630
0
ARC
8
BLACK
10
198.12
20
-145.415
40
0.7493
50
270
51
450
0
ARC
8
BLACK
10
198.12
20
-158.115
40
0.7493
50
450
51
630
0
ARC
8
BLACK
10
198.12
20
-158.115
40
0.7493
50
270
51
450
0
CIRCLE
8
BLACK
10
195.58
20
-145.415
40
0.7493
0
CIRCLE
8
BLACK
10
195.58
20
-158.115
40
0.7493
0
CIRCLE
8
BLACK
10
193.04
20
-145.415
40
0.7493
0
CIRCLE
8
BLACK
10
193.04
20
-158.115
40
0.7493
0
ARC
8
BLACK
10
190.5
20
-158.115
40
0.7493
50
270
51
450
0
ARC
8
BLACK
10
190.5
20
-158.115
40
0.7493
50
90
51
270
0
ARC
8
BLACK
10
190.5
20
-145.415
40
0.7493
50
270
51
450
0
ARC
8
BLACK
10
190.5
20
-145.415
40
0.7493
50
90
51
270
0
CIRCLE
8
BLACK
10
191.135
20
-141.605
40
0.7493
0
CIRCLE
8
BLACK
10
186.055
20
-141.605
40
0.7493
0
CIRCLE
8
BLACK
10
188.595
20
-141.605
40
0.7493
0
CIRCLE
8
BLACK
10
187.96
20
-122.555
40
1.905
0
CIRCLE
8
BLACK
10
218.44
20
-143.51
40
1.905
0
CIRCLE
8
BLACK
10
228.473
20
-157.48
40
1.905
0
CIRCLE
8
BLACK
10
210.185
20
-142.494
40
0.7493
0
CIRCLE
8
BLACK
10
205.105
20
-142.494
40
0.7493
0
CIRCLE
8
BLACK
10
208.915
20
-142.494
40
0.7493
0
CIRCLE
8
BLACK
10
200.66
20
-142.494
40
0.7493
0
CIRCLE
8
BLACK
10
213.36
20
-142.494
40
0.7493
0
CIRCLE
8
BLACK
10
210.185
20
-147.32
40
0.7493
0
CIRCLE
8
BLACK
10
205.105
20
-147.32
40
0.7493
0
CIRCLE
8
BLACK
10
208.915
20
-147.32
40
0.7493
0
CIRCLE
8
BLACK
10
200.66
20
-147.32
40
0.7493
0
CIRCLE
8
BLACK
10
213.36
20
-147.32
40
0.7493
0
CIRCLE
8
BLACK
10
214.63
20
-144.145
40
0.4445
0
CIRCLE
8
BLACK
10
191.77
20
-153.67
40
0.4445
0
CIRCLE
8
BLACK
10
219.075
20
-130.81
40
0.4445
0
CIRCLE
8
BLACK
10
226.06
20
-135.255
40
0.4445
0
CIRCLE
8
BLACK
10
212.09
20
-135.89
40
0.4445
0
CIRCLE
8
BLACK
10
205.74
20
-135.89
40
0.4445
0
CIRCLE
8
BLACK
10
199.39
20
-148.59
40
0.4445
0
CIRCLE
8
BLACK
10
219.075
20
-137.16
40
0.4445
0
CIRCLE
8
BLACK
10
216.535
20
-150.495
40
0.4445
0
CIRCLE
8
BLACK
10
219.075
20
-132.715
40
0.4445
0
LINE
8
BLACK
10
203.327
20
-146.685
11
203.327
21
-145.415
0
LINE
8
BLACK
10
203.073
20
-146.685
11
203.073
21
-145.415
0
ARC
8
BLACK
10
203.2
20
-145.415
40
0.127
50
360
51
540
0
ARC
8
BLACK
10
203.2
20
-146.685
40
0.127
50
180
51
360
0
LINE
8
BLACK
10
203.327
20
-145.415
11
203.327
21
-140.335
0
LINE
8
BLACK
10
203.073
20
-145.415
11
203.073
21
-140.335
0
ARC
8
BLACK
10
203.2
20
-140.335
40
0.127
50
360
51
540
0
ARC
8
BLACK
10
203.2
20
-145.415
40
0.127
50
180
51
360
0
LINE
8
BLACK
10
204.597
20
-125.095
11
204.597
21
-121.285
0
LINE
8
BLACK
10
204.343
20
-125.095
11
204.343
21
-121.285
0
ARC
8
BLACK
10
204.47
20
-121.285
40
0.127
50
360
51
540
0
ARC
8
BLACK
10
204.47
20
-125.095
40
0.127
50
180
51
360
0
LINE
8
BLACK
10
203.2
20
-121.412
11
204.47
21
-121.412
0
LINE
8
BLACK
10
203.2
20
-121.158
11
204.47
21
-121.158
0
ARC
8
BLACK
10
204.47
20
-121.285
40
0.127
50
270
51
450
0
ARC
8
BLACK
10
203.2
20
-121.285
40
0.127
50
90
51
270
0
LINE
8
BLACK
10
199.39
20
-121.412
11
203.2
21
-121.412
0
LINE
8
BLACK
10
199.39
20
-121.158
11
203.2
21
-121.158
0
ARC
8
BLACK
10
203.2
20
-121.285
40
0.127
50
270
51
450
0
ARC
8
BLACK
10
199.39
20
-121.285
40
0.127
50
90
51
270
0
LINE
8
BLACK
10
196.76
20
-141.515
11
192.95
21
-145.325
0
LINE
8
BLACK
10
196.94
20
-141.695
11
193.13
21
-145.505
0
ARC
8
BLACK
10
193.04
20
-145.415
40
0.127
50
135
51
315
0
ARC
8
BLACK
10
196.85
20
-141.605
40
0.127
50
-45
51
135
0
LINE
8
BLACK
10
203.327
20
-132.715
11
203.327
21
-131.318
0
LINE
8
BLACK
10
203.073
20
-132.715
11
203.073
21
-131.318
0
ARC
8
BLACK
10
203.2
20
-131.318
40
0.127
50
360
51
540
0
ARC
8
BLACK
10
203.2
20
-132.715
40
0.127
50
180
51
360
0
LINE
8
BLACK
10
200.025
20
-132.842
11
203.2
21
-132.842
0
LINE
8
BLACK
10
200.025
20
-132.588
11
203.2
21
-132.588
0
ARC
8
BLACK
10
203.2
20
-132.715
40
0.127
50
270
51
450
0
ARC
8
BLACK
10
200.025
20
-132.715
40
0.127
50
90
51
270
0
LINE
8
BLACK
10
199.39
20
-132.842
11
200.025
21
-132.842
0
LINE
8
BLACK
10
199.39
20
-132.588
11
200.025
21
-132.588
0
ARC
8
BLACK
10
200.025
20
-132.715
40
0.127
50
270
51
450
0
ARC
8
BLACK
10
199.39
20
-132.715
40
0.127
50
90
51
270
0
LINE
8
BLACK
10
196.977
20
-141.605
11
196.977
21
-132.715
0
LINE
8
BLACK
10
196.723
20
-141.605
11
196.723
21
-132.715
0
ARC
8
BLACK
10
196.85
20
-132.715
40
0.127
50
360
51
540
0
ARC
8
BLACK
10
196.85
20
-141.605
40
0.127
50
180
51
360
0
LINE
8
BLACK
10
198.755
20
-132.842
11
199.39
21
-132.842
0
LINE
8
BLACK
10
198.755
20
-132.588
11
199.39
21
-132.588
0
ARC
8
BLACK
10
199.39
20
-132.715
40
0.127
50
270
51
450
0
ARC
8
BLACK
10
198.755
20
-132.715
40
0.127
50
90
51
270
0
LINE
8
BLACK
10
196.85
20
-132.842
11
198.755
21
-132.842
0
LINE
8
BLACK
10
196.85
20
-132.588
11
198.755
21
-132.588
0
ARC
8
BLACK
10
198.755
20
-132.715
40
0.127
50
270
51
450
0
ARC
8
BLACK
10
196.85
20
-132.715
40
0.127
50
90
51
270
0
LINE
8
BLACK
10
199.517
20
-132.715
11
199.517
21
-121.285
0
LINE
8
BLACK
10
199.263
20
-132.715
11
199.263
21
-121.285
0
ARC
8
BLACK
10
199.39
20
-121.285
40
0.127
50
360
51
540
0
ARC
8
BLACK
10
199.39
20
-132.715
40
0.127
50
180
51
360
0
LINE
8
BLACK
10
209.677
20
-154.94
11
209.677
21
-154.305
0
LINE
8
BLACK
10
209.423
20
-154.94
11
209.423
21
-154.305
0
ARC
8
BLACK
10
209.55
20
-154.305
40
0.127
50
360
51
540
0
ARC
8
BLACK
10
209.55
20
-154.94
40
0.127
50
180
51
360
0
LINE
8
BLACK
10
224.282
20
-147.981
11
224.282
21
-147.193
0
LINE
8
BLACK
10
224.028
20
-147.981
11
224.028
21
-147.193
0
ARC
8
BLACK
10
224.155
20
-147.193
40
0.127
50
360
51
540
0
ARC
8
BLACK
10
224.155
20
-147.981
40
0.127
50
180
51
360
0
LINE
8
BLACK
10
223.647
20
-146.812
11
224.155
21
-146.812
0
LINE
8
BLACK
10
223.647
20
-146.558
11
224.155
21
-146.558
0
ARC
8
BLACK
10
224.155
20
-146.685
40
0.127
50
270
51
450
0
ARC
8
BLACK
10
223.647
20
-146.685
40
0.127
50
90
51
270
0
LINE
8
BLACK
10
224.282
20
-147.193
11
224.282
21
-146.685
0
LINE
8
BLACK
10
224.028
20
-147.193
11
224.028
21
-146.685
0
ARC
8
BLACK
10
224.155
20
-146.685
40
0.127
50
360
51
540
0
ARC
8
BLACK
10
224.155
20
-147.193
40
0.127
50
180
51
360
0
LINE
8
BLACK
10
220.98
20
-146.812
11
223.647
21
-146.812
0
LINE
8
BLACK
10
220.98
20
-146.558
11
223.647
21
-146.558
0
ARC
8
BLACK
10
223.647
20
-146.685
40
0.127
50
270
51
450
0
ARC
8
BLACK
10
220.98
20
-146.685
40
0.127
50
90
51
270
0
LINE
8
BLACK
10
219.165
20
-148.68
11
221.07
21
-146.775
0
LINE
8
BLACK
10
218.985
20
-148.5
11
220.89
21
-146.595
0
ARC
8
BLACK
10
220.98
20
-146.685
40
0.127
50
315
51
495
0
ARC
8
BLACK
10
219.075
20
-148.59
40
0.127
50
135
51
315
0
LINE
8
BLACK
10
219.202
20
-153.035
11
219.202
21
-148.59
0
LINE
8
BLACK
10
218.948
20
-153.035
11
218.948
21
-148.59
0
ARC
8
BLACK
10
219.075
20
-148.59
40
0.127
50
360
51
540
0
ARC
8
BLACK
10
219.075
20
-153.035
40
0.127
50
180
51
360
0
LINE
8
BLACK
10
219.202
20
-153.67
11
219.202
21
-153.035
0
LINE
8
BLACK
10
218.948
20
-153.67
11
218.948
21
-153.035
0
ARC
8
BLACK
10
219.075
20
-153.035
40
0.127
50
360
51
540
0
ARC
8
BLACK
10
219.075
20
-153.67
40
0.127
50
180
51
360
0
LINE
8
BLACK
10
210.185
20
-153.797
11
219.075
21
-153.797
0
LINE
8
BLACK
10
210.185
20
-153.543
11
219.075
21
-153.543
0
ARC
8
BLACK
10
219.075
20
-153.67
40
0.127
50
270
51
450
0
ARC
8
BLACK
10
210.185
20
-153.67
40
0.127
50
90
51
270
0
LINE
8
BLACK
10
209.64
20
-154.395
11
210.275
21
-153.76
0
LINE
8
BLACK
10
209.46
20
-154.215
11
210.095
21
-153.58
0
ARC
8
BLACK
10
210.185
20
-153.67
40
0.127
50
315
51
495
0
ARC
8
BLACK
10
209.55
20
-154.305
40
0.127
50
135
51
315
0
LINE
8
BLACK
10
215.81
20
-121.375
11
216.445
21
-122.01
0
LINE
8
BLACK
10
215.99
20
-121.195
11
216.625
21
-121.83
0
ARC
8
BLACK
10
216.535
20
-121.92
40
0.127
50
225
51
405
0
ARC
8
BLACK
10
215.9
20
-121.285
40
0.127
50
45
51
225
0
LINE
8
BLACK
10
216.535
20
-122.047
11
218.44
21
-122.047
0
LINE
8
BLACK
10
216.535
20
-121.793
11
218.44
21
-121.793
0
ARC
8
BLACK
10
218.44
20
-121.92
40
0.127
50
270
51
450
0
ARC
8
BLACK
10
216.535
20
-121.92
40
0.127
50
90
51
270
0
LINE
8
BLACK
10
218.44
20
-122.047
11
219.71
21
-122.047
0
LINE
8
BLACK
10
218.44
20
-121.793
11
219.71
21
-121.793
0
ARC
8
BLACK
10
219.71
20
-121.92
40
0.127
50
270
51
450
0
ARC
8
BLACK
10
218.44
20
-121.92
40
0.127
50
90
51
270
0
LINE
8
BLACK
10
219.71
20
-122.047
11
220.98
21
-122.047
0
LINE
8
BLACK
10
219.71
20
-121.793
11
220.98
21
-121.793
0
ARC
8
BLACK
10
220.98
20
-121.92
40
0.127
50
270
51
450
0
ARC
8
BLACK
10
219.71
20
-121.92
40
0.127
50
90
51
270
0
LINE
8
BLACK
10
214.757
20
-144.145
11
214.757
21
-139.065
0
LINE
8
BLACK
10
214.503
20
-144.145
11
214.503
21
-139.065
0
ARC
8
BLACK
10
214.63
20
-139.065
40
0.127
50
360
51
540
0
ARC
8
BLACK
10
214.63
20
-144.145
40
0.127
50
180
51
360
0
ARC
8
BLACK
10
214.63
20
-139.065
40
0.127
50
180
51
360
0
ARC
8
BLACK
10
214.63
20
-139.065
40
0.127
50
0
51
180
0
LINE
8
BLACK
10
214.757
20
-139.065
11
214.757
21
-137.16
0
LINE
8
BLACK
10
214.503
20
-139.065
11
214.503
21
-137.16
0
ARC
8
BLACK
10
214.63
20
-137.16
40
0.127
50
360
51
540
0
ARC
8
BLACK
10
214.63
20
-139.065
40
0.127
50
180
51
360
0
LINE
8
BLACK
10
214.63
20
-137.287
11
217.805
21
-137.287
0
LINE
8
BLACK
10
214.63
20
-137.033
11
217.805
21
-137.033
0
ARC
8
BLACK
10
217.805
20
-137.16
40
0.127
50
270
51
450
0
ARC
8
BLACK
10
214.63
20
-137.16
40
0.127
50
90
51
270
0
LINE
8
BLACK
10
217.932
20
-137.16
11
217.932
21
-128.905
0
LINE
8
BLACK
10
217.678
20
-137.16
11
217.678
21
-128.905
0
ARC
8
BLACK
10
217.805
20
-128.905
40
0.127
50
360
51
540
0
ARC
8
BLACK
10
217.805
20
-137.16
40
0.127
50
180
51
360
0
LINE
8
BLACK
10
220.89
20
-125.64
11
217.715
21
-128.815
0
LINE
8
BLACK
10
221.07
20
-125.82
11
217.895
21
-128.995
0
ARC
8
BLACK
10
217.805
20
-128.905
40
0.127
50
135
51
315
0
ARC
8
BLACK
10
220.98
20
-125.73
40
0.127
50
-45
51
135
0
LINE
8
BLACK
10
221.107
20
-125.73
11
221.107
21
-121.92
0
LINE
8
BLACK
10
220.853
20
-125.73
11
220.853
21
-121.92
0
ARC
8
BLACK
10
220.98
20
-121.92
40
0.127
50
360
51
540
0
ARC
8
BLACK
10
220.98
20
-125.73
40
0.127
50
180
51
360
0
LINE
8
BLACK
10
215.9
20
-135.382
11
217.17
21
-135.382
0
LINE
8
BLACK
10
215.9
20
-135.128
11
217.17
21
-135.128
0
ARC
8
BLACK
10
217.17
20
-135.255
40
0.127
50
270
51
450
0
ARC
8
BLACK
10
215.9
20
-135.255
40
0.127
50
90
51
270
0
LINE
8
BLACK
10
209.677
20
-125.73
11
209.677
21
-125.095
0
LINE
8
BLACK
10
209.423
20
-125.73
11
209.423
21
-125.095
0
ARC
8
BLACK
10
209.55
20
-125.095
40
0.127
50
360
51
540
0
ARC
8
BLACK
10
209.55
20
-125.73
40
0.127
50
180
51
360
0
LINE
8
BLACK
10
210.275
20
-126.275
11
209.64
21
-125.64
0
LINE
8
BLACK
10
210.095
20
-126.455
11
209.46
21
-125.82
0
ARC
8
BLACK
10
209.55
20
-125.73
40
0.127
50
405
51
585
0
ARC
8
BLACK
10
210.185
20
-126.365
40
0.127
50
225
51
405
0
LINE
8
BLACK
10
210.185
20
-126.492
11
217.17
21
-126.492
0
LINE
8
BLACK
10
210.185
20
-126.238
11
217.17
21
-126.238
0
ARC
8
BLACK
10
217.17
20
-126.365
40
0.127
50
270
51
450
0
ARC
8
BLACK
10
210.185
20
-126.365
40
0.127
50
90
51
270
0
LINE
8
BLACK
10
217.297
20
-135.255
11
217.297
21
-126.365
0
LINE
8
BLACK
10
217.043
20
-135.255
11
217.043
21
-126.365
0
ARC
8
BLACK
10
217.17
20
-126.365
40
0.127
50
360
51
540
0
ARC
8
BLACK
10
217.17
20
-135.255
40
0.127
50
180
51
360
0
LINE
8
BLACK
10
216.535
20
-124.587
11
218.44
21
-124.587
0
LINE
8
BLACK
10
216.535
20
-124.333
11
218.44
21
-124.333
0
ARC
8
BLACK
10
218.44
20
-124.46
40
0.127
50
270
51
450
0
ARC
8
BLACK
10
216.535
20
-124.46
40
0.127
50
90
51
270
0
LINE
8
BLACK
10
207.137
20
-125.095
11
207.137
21
-122.555
0
LINE
8
BLACK
10
206.883
20
-125.095
11
206.883
21
-122.555
0
ARC
8
BLACK
10
207.01
20
-122.555
40
0.127
50
360
51
540
0
ARC
8
BLACK
10
207.01
20
-125.095
40
0.127
50
180
51
360
0
LINE
8
BLACK
10
207.01
20
-122.682
11
213.995
21
-122.682
0
LINE
8
BLACK
10
207.01
20
-122.428
11
213.995
21
-122.428
0
ARC
8
BLACK
10
213.995
20
-122.555
40
0.127
50
270
51
450
0
ARC
8
BLACK
10
207.01
20
-122.555
40
0.127
50
90
51
270
0
LINE
8
BLACK
10
216.611
20
-124.359
11
214.072
21
-122.453
0
LINE
8
BLACK
10
216.458
20
-124.562
11
213.919
21
-122.656
0
ARC
8
BLACK
10
213.996
20
-122.554
40
0.127
50
413.1
51
593.1
0
ARC
8
BLACK
10
216.534
20
-124.461
40
0.127
50
233.1
51
413.1
0
LINE
8
BLACK
10
188.505
20
-141.695
11
190.41
21
-143.6
0
LINE
8
BLACK
10
188.685
20
-141.515
11
190.59
21
-143.42
0
ARC
8
BLACK
10
190.5
20
-143.51
40
0.127
50
225
51
405
0
ARC
8
BLACK
10
188.595
20
-141.605
40
0.127
50
45
51
225
0
LINE
8
BLACK
10
191.897
20
-153.67
11
191.897
21
-144.145
0
LINE
8
BLACK
10
191.643
20
-153.67
11
191.643
21
-144.145
0
ARC
8
BLACK
10
191.77
20
-144.145
40
0.127
50
360
51
540
0
ARC
8
BLACK
10
191.77
20
-153.67
40
0.127
50
180
51
360
0
LINE
8
BLACK
10
191.897
20
-144.145
11
191.897
21
-143.51
0
LINE
8
BLACK
10
191.643
20
-144.145
11
191.643
21
-143.51
0
ARC
8
BLACK
10
191.77
20
-143.51
40
0.127
50
360
51
540
0
ARC
8
BLACK
10
191.77
20
-144.145
40
0.127
50
180
51
360
0
LINE
8
BLACK
10
190.5
20
-143.637
11
191.77
21
-143.637
0
LINE
8
BLACK
10
190.5
20
-143.383
11
191.77
21
-143.383
0
ARC
8
BLACK
10
191.77
20
-143.51
40
0.127
50
270
51
450
0
ARC
8
BLACK
10
190.5
20
-143.51
40
0.127
50
90
51
270
0
LINE
8
BLACK
10
189.865
20
-140.462
11
190.5
21
-140.462
0
LINE
8
BLACK
10
189.865
20
-140.208
11
190.5
21
-140.208
0
ARC
8
BLACK
10
190.5
20
-140.335
40
0.127
50
270
51
450
0
ARC
8
BLACK
10
189.865
20
-140.335
40
0.127
50
90
51
270
0
LINE
8
BLACK
10
190.5
20
-140.462
11
195.58
21
-140.462
0
LINE
8
BLACK
10
190.5
20
-140.208
11
195.58
21
-140.208
0
ARC
8
BLACK
10
195.58
20
-140.335
40
0.127
50
270
51
450
0
ARC
8
BLACK
10
190.5
20
-140.335
40
0.127
50
90
51
270
0
LINE
8
BLACK
10
189.775
20
-140.245
11
188.505
21
-141.515
0
LINE
8
BLACK
10
189.955
20
-140.425
11
188.685
21
-141.695
0
ARC
8
BLACK
10
188.595
20
-141.605
40
0.127
50
135
51
315
0
ARC
8
BLACK
10
189.865
20
-140.335
40
0.127
50
-45
51
135
0
LINE
8
BLACK
10
188.722
20
-141.605
11
188.722
21
-130.81
0
LINE
8
BLACK
10
188.468
20
-141.605
11
188.468
21
-130.81
0
ARC
8
BLACK
10
188.595
20
-130.81
40
0.127
50
360
51
540
0
ARC
8
BLACK
10
188.595
20
-141.605
40
0.127
50
180
51
360
0
LINE
8
BLACK
10
191.262
20
-132.08
11
191.262
21
-130.81
0
LINE
8
BLACK
10
191.008
20
-132.08
11
191.008
21
-130.81
0
ARC
8
BLACK
10
191.135
20
-130.81
40
0.127
50
360
51
540
0
ARC
8
BLACK
10
191.135
20
-132.08
40
0.127
50
180
51
360
0
LINE
8
BLACK
10
186.817
20
-132.08
11
186.817
21
-130.81
0
LINE
8
BLACK
10
186.563
20
-132.08
11
186.563
21
-130.81
0
ARC
8
BLACK
10
186.69
20
-130.81
40
0.127
50
360
51
540
0
ARC
8
BLACK
10
186.69
20
-132.08
40
0.127
50
180
51
360
0
LINE
8
BLACK
10
186.69
20
-130.937
11
188.595
21
-130.937
0
LINE
8
BLACK
10
186.69
20
-130.683
11
188.595
21
-130.683
0
ARC
8
BLACK
10
188.595
20
-130.81
40
0.127
50
270
51
450
0
ARC
8
BLACK
10
186.69
20
-130.81
40
0.127
50
90
51
270
0
LINE
8
BLACK
10
188.595
20
-130.937
11
189.23
21
-130.937
0
LINE
8
BLACK
10
188.595
20
-130.683
11
189.23
21
-130.683
0
ARC
8
BLACK
10
189.23
20
-130.81
40
0.127
50
270
51
450
0
ARC
8
BLACK
10
188.595
20
-130.81
40
0.127
50
90
51
270
0
LINE
8
BLACK
10
189.23
20
-130.937
11
191.135
21
-130.937
0
LINE
8
BLACK
10
189.23
20
-130.683
11
191.135
21
-130.683
0
ARC
8
BLACK
10
191.135
20
-130.81
40
0.127
50
270
51
450
0
ARC
8
BLACK
10
189.23
20
-130.81
40
0.127
50
90
51
270
0
LINE
8
BLACK
10
199.48
20
-159.475
11
202.02
21
-156.935
0
LINE
8
BLACK
10
199.3
20
-159.295
11
201.84
21
-156.755
0
ARC
8
BLACK
10
201.93
20
-156.845
40
0.127
50
315
51
495
0
ARC
8
BLACK
10
199.39
20
-159.385
40
0.127
50
135
51
315
0
LINE
8
BLACK
10
201.93
20
-156.972
11
202.565
21
-156.972
0
LINE
8
BLACK
10
201.93
20
-156.718
11
202.565
21
-156.718
0
ARC
8
BLACK
10
202.565
20
-156.845
40
0.127
50
270
51
450
0
ARC
8
BLACK
10
201.93
20
-156.845
40
0.127
50
90
51
270
0
LINE
8
BLACK
10
186.182
20
-141.605
11
186.182
21
-136.525
0
LINE
8
BLACK
10
185.928
20
-141.605
11
185.928
21
-136.525
0
ARC
8
BLACK
10
186.055
20
-136.525
40
0.127
50
360
51
540
0
ARC
8
BLACK
10
186.055
20
-141.605
40
0.127
50
180
51
360
0
LINE
8
BLACK
10
186.145
20
-136.615
11
186.78
21
-135.98
0
LINE
8
BLACK
10
185.965
20
-136.435
11
186.6
21
-135.8
0
ARC
8
BLACK
10
186.69
20
-135.89
40
0.127
50
315
51
495
0
ARC
8
BLACK
10
186.055
20
-136.525
40
0.127
50
135
51
315
0
LINE
8
BLACK
10
186.78
20
-143.42
11
186.145
21
-142.785
0
LINE
8
BLACK
10
186.6
20
-143.6
11
185.965
21
-142.965
0
ARC
8
BLACK
10
186.055
20
-142.875
40
0.127
50
405
51
585
0
ARC
8
BLACK
10
186.69
20
-143.51
40
0.127
50
225
51
405
0
LINE
8
BLACK
10
186.78
20
-153.76
11
188.685
21
-151.855
0
LINE
8
BLACK
10
186.6
20
-153.58
11
188.505
21
-151.675
0
ARC
8
BLACK
10
188.595
20
-151.765
40
0.127
50
315
51
495
0
ARC
8
BLACK
10
186.69
20
-153.67
40
0.127
50
135
51
315
0
LINE
8
BLACK
10
188.685
20
-145.325
11
186.78
21
-143.42
0
LINE
8
BLACK
10
188.505
20
-145.505
11
186.6
21
-143.6
0
ARC
8
BLACK
10
186.69
20
-143.51
40
0.127
50
405
51
585
0
ARC
8
BLACK
10
188.595
20
-145.415
40
0.127
50
225
51
405
0
LINE
8
BLACK
10
188.722
20
-151.765
11
188.722
21
-145.415
0
LINE
8
BLACK
10
188.468
20
-151.765
11
188.468
21
-145.415
0
ARC
8
BLACK
10
188.595
20
-145.415
40
0.127
50
360
51
540
0
ARC
8
BLACK
10
188.595
20
-151.765
40
0.127
50
180
51
360
0
LINE
8
BLACK
10
186.182
20
-142.875
11
186.182
21
-141.605
0
LINE
8
BLACK
10
185.928
20
-142.875
11
185.928
21
-141.605
0
ARC
8
BLACK
10
186.055
20
-141.605
40
0.127
50
360
51
540
0
ARC
8
BLACK
10
186.055
20
-142.875
40
0.127
50
180
51
360
0
LINE
8
BLACK
10
206.92
20
-154.85
11
206.285
21
-155.485
0
LINE
8
BLACK
10
207.1
20
-155.03
11
206.465
21
-155.665
0
ARC
8
BLACK
10
206.375
20
-155.575
40
0.127
50
135
51
315
0
ARC
8
BLACK
10
207.01
20
-154.94
40
0.127
50
-45
51
135
0
LINE
8
BLACK
10
202.565
20
-156.972
11
205.867
21
-156.972
0
LINE
8
BLACK
10
202.565
20
-156.718
11
205.867
21
-156.718
0
ARC
8
BLACK
10
205.867
20
-156.845
40
0.127
50
270
51
450
0
ARC
8
BLACK
10
202.565
20
-156.845
40
0.127
50
90
51
270
0
LINE
8
BLACK
10
206.285
20
-156.247
11
205.777
21
-156.755
0
LINE
8
BLACK
10
206.465
20
-156.427
11
205.957
21
-156.935
0
ARC
8
BLACK
10
205.867
20
-156.845
40
0.127
50
135
51
315
0
ARC
8
BLACK
10
206.375
20
-156.337
40
0.127
50
-45
51
135
0
LINE
8
BLACK
10
206.502
20
-156.337
11
206.502
21
-155.575
0
LINE
8
BLACK
10
206.248
20
-156.337
11
206.248
21
-155.575
0
ARC
8
BLACK
10
206.375
20
-155.575
40
0.127
50
360
51
540
0
ARC
8
BLACK
10
206.375
20
-156.337
40
0.127
50
180
51
360
0
LINE
8
BLACK
10
195.707
20
-159.385
11
195.707
21
-158.877
0
LINE
8
BLACK
10
195.453
20
-159.385
11
195.453
21
-158.877
0
ARC
8
BLACK
10
195.58
20
-158.877
40
0.127
50
360
51
540
0
ARC
8
BLACK
10
195.58
20
-159.385
40
0.127
50
180
51
360
0
LINE
8
BLACK
10
195.58
20
-159.512
11
196.088
21
-159.512
0
LINE
8
BLACK
10
195.58
20
-159.258
11
196.088
21
-159.258
0
ARC
8
BLACK
10
196.088
20
-159.385
40
0.127
50
270
51
450
0
ARC
8
BLACK
10
195.58
20
-159.385
40
0.127
50
90
51
270
0
LINE
8
BLACK
10
195.707
20
-158.877
11
195.707
21
-158.115
0
LINE
8
BLACK
10
195.453
20
-158.877
11
195.453
21
-158.115
0
ARC
8
BLACK
10
195.58
20
-158.115
40
0.127
50
360
51
540
0
ARC
8
BLACK
10
195.58
20
-158.877
40
0.127
50
180
51
360
0
LINE
8
BLACK
10
196.088
20
-159.512
11
199.39
21
-159.512
0
LINE
8
BLACK
10
196.088
20
-159.258
11
199.39
21
-159.258
0
ARC
8
BLACK
10
199.39
20
-159.385
40
0.127
50
270
51
450
0
ARC
8
BLACK
10
196.088
20
-159.385
40
0.127
50
90
51
270
0
LINE
8
BLACK
10
225.97
20
-128.815
11
224.065
21
-130.72
0
LINE
8
BLACK
10
226.15
20
-128.995
11
224.245
21
-130.9
0
ARC
8
BLACK
10
224.155
20
-130.81
40
0.127
50
135
51
315
0
ARC
8
BLACK
10
226.06
20
-128.905
40
0.127
50
-45
51
135
0
LINE
8
BLACK
10
219.075
20
-130.937
11
224.155
21
-130.937
0
LINE
8
BLACK
10
219.075
20
-130.683
11
224.155
21
-130.683
0
ARC
8
BLACK
10
224.155
20
-130.81
40
0.127
50
270
51
450
0
ARC
8
BLACK
10
219.075
20
-130.81
40
0.127
50
90
51
270
0
LINE
8
BLACK
10
226.669
20
-150.622
11
228.6
21
-150.622
0
LINE
8
BLACK
10
226.669
20
-150.368
11
228.6
21
-150.368
0
ARC
8
BLACK
10
228.6
20
-150.495
40
0.127
50
270
51
450
0
ARC
8
BLACK
10
226.669
20
-150.495
40
0.127
50
90
51
270
0
LINE
8
BLACK
10
228.727
20
-153.035
11
228.727
21
-150.495
0
LINE
8
BLACK
10
228.473
20
-153.035
11
228.473
21
-150.495
0
ARC
8
BLACK
10
228.6
20
-150.495
40
0.127
50
360
51
540
0
ARC
8
BLACK
10
228.6
20
-153.035
40
0.127
50
180
51
360
0
LINE
8
BLACK
10
202.565
20
-157.607
11
224.155
21
-157.607
0
LINE
8
BLACK
10
202.565
20
-157.353
11
224.155
21
-157.353
0
ARC
8
BLACK
10
224.155
20
-157.48
40
0.127
50
270
51
450
0
ARC
8
BLACK
10
202.565
20
-157.48
40
0.127
50
90
51
270
0
LINE
8
BLACK
10
224.245
20
-157.57
11
228.69
21
-153.125
0
LINE
8
BLACK
10
224.065
20
-157.39
11
228.51
21
-152.945
0
ARC
8
BLACK
10
228.6
20
-153.035
40
0.127
50
315
51
495
0
ARC
8
BLACK
10
224.155
20
-157.48
40
0.127
50
135
51
315
0
ARC
8
BLACK
10
226.669
20
-150.495
40
0.127
50
180
51
360
0
ARC
8
BLACK
10
226.669
20
-150.495
40
0.127
50
0
51
180
0
LINE
8
BLACK
10
200.115
20
-160.11
11
202.655
21
-157.57
0
LINE
8
BLACK
10
199.935
20
-159.93
11
202.475
21
-157.39
0
ARC
8
BLACK
10
202.565
20
-157.48
40
0.127
50
315
51
495
0
ARC
8
BLACK
10
200.025
20
-160.02
40
0.127
50
135
51
315
0
ARC
8
BLACK
10
202.565
20
-157.48
40
0.127
50
180
51
360
0
ARC
8
BLACK
10
202.565
20
-157.48
40
0.127
50
0
51
180
0
LINE
8
BLACK
10
190.627
20
-160.02
11
190.627
21
-158.115
0
LINE
8
BLACK
10
190.373
20
-160.02
11
190.373
21
-158.115
0
ARC
8
BLACK
10
190.5
20
-158.115
40
0.127
50
360
51
540
0
ARC
8
BLACK
10
190.5
20
-160.02
40
0.127
50
180
51
360
0
LINE
8
BLACK
10
226.669
20
-150.622
11
228.6
21
-150.622
0
LINE
8
BLACK
10
226.669
20
-150.368
11
228.6
21
-150.368
0
ARC
8
BLACK
10
228.6
20
-150.495
40
0.127
50
270
51
450
0
ARC
8
BLACK
10
226.669
20
-150.495
40
0.127
50
90
51
270
0
LINE
8
BLACK
10
228.727
20
-150.495
11
228.727
21
-143.51
0
LINE
8
BLACK
10
228.473
20
-150.495
11
228.473
21
-143.51
0
ARC
8
BLACK
10
228.6
20
-143.51
40
0.127
50
360
51
540
0
ARC
8
BLACK
10
228.6
20
-150.495
40
0.127
50
180
51
360
0
LINE
8
BLACK
10
225.97
20
-141.06
11
228.51
21
-143.6
0
LINE
8
BLACK
10
226.15
20
-140.88
11
228.69
21
-143.42
0
ARC
8
BLACK
10
228.6
20
-143.51
40
0.127
50
225
51
405
0
ARC
8
BLACK
10
226.06
20
-140.97
40
0.127
50
45
51
225
0
LINE
8
BLACK
10
226.187
20
-140.97
11
226.187
21
-135.255
0
LINE
8
BLACK
10
225.933
20
-140.97
11
225.933
21
-135.255
0
ARC
8
BLACK
10
226.06
20
-135.255
40
0.127
50
360
51
540
0
ARC
8
BLACK
10
226.06
20
-140.97
40
0.127
50
180
51
360
0
LINE
8
BLACK
10
190.5
20
-160.147
11
200.025
21
-160.147
0
LINE
8
BLACK
10
190.5
20
-159.893
11
200.025
21
-159.893
0
ARC
8
BLACK
10
200.025
20
-160.02
40
0.127
50
270
51
450
0
ARC
8
BLACK
10
190.5
20
-160.02
40
0.127
50
90
51
270
0
LINE
8
BLACK
10
198.21
20
-152.49
11
203.29
21
-147.41
0
LINE
8
BLACK
10
198.03
20
-152.31
11
203.11
21
-147.23
0
ARC
8
BLACK
10
203.2
20
-147.32
40
0.127
50
315
51
495
0
ARC
8
BLACK
10
198.12
20
-152.4
40
0.127
50
135
51
315
0
LINE
8
BLACK
10
203.327
20
-147.32
11
203.327
21
-138.938
0
LINE
8
BLACK
10
203.073
20
-147.32
11
203.073
21
-138.938
0
ARC
8
BLACK
10
203.2
20
-138.938
40
0.127
50
360
51
540
0
ARC
8
BLACK
10
203.2
20
-147.32
40
0.127
50
180
51
360
0
LINE
8
BLACK
10
215.265
20
-132.842
11
215.9
21
-132.842
0
LINE
8
BLACK
10
215.265
20
-132.588
11
215.9
21
-132.588
0
ARC
8
BLACK
10
215.9
20
-132.715
40
0.127
50
270
51
450
0
ARC
8
BLACK
10
215.265
20
-132.715
40
0.127
50
90
51
270
0
LINE
8
BLACK
10
212.18
20
-135.98
11
215.355
21
-132.805
0
LINE
8
BLACK
10
212
20
-135.8
11
215.175
21
-132.625
0
ARC
8
BLACK
10
215.265
20
-132.715
40
0.127
50
315
51
495
0
ARC
8
BLACK
10
212.09
20
-135.89
40
0.127
50
135
51
315
0
LINE
8
BLACK
10
198.247
20
-158.115
11
198.247
21
-152.4
0
LINE
8
BLACK
10
197.993
20
-158.115
11
197.993
21
-152.4
0
ARC
8
BLACK
10
198.12
20
-152.4
40
0.127
50
360
51
540
0
ARC
8
BLACK
10
198.12
20
-158.115
40
0.127
50
180
51
360
0
LINE
8
BLACK
10
205.867
20
-138.938
11
205.867
21
-135.89
0
LINE
8
BLACK
10
205.613
20
-138.938
11
205.613
21
-135.89
0
ARC
8
BLACK
10
205.74
20
-135.89
40
0.127
50
360
51
540
0
ARC
8
BLACK
10
205.74
20
-138.938
40
0.127
50
180
51
360
0
LINE
8
BLACK
10
198.247
20
-145.415
11
198.247
21
-140.335
0
LINE
8
BLACK
10
197.993
20
-145.415
11
197.993
21
-140.335
0
ARC
8
BLACK
10
198.12
20
-140.335
40
0.127
50
360
51
540
0
ARC
8
BLACK
10
198.12
20
-145.415
40
0.127
50
180
51
360
0
LINE
8
BLACK
10
226.076
20
-148.717
11
226.186
21
-147.974
0
LINE
8
BLACK
10
225.825
20
-148.68
11
225.935
21
-147.937
0
ARC
8
BLACK
10
226.06
20
-147.955
40
0.127
50
351.6
51
531.6
0
ARC
8
BLACK
10
225.951
20
-148.699
40
0.127
50
171.6
51
351.6
0
LINE
8
BLACK
10
228.51
20
-130.085
11
224.065
21
-134.53
0
LINE
8
BLACK
10
228.69
20
-130.265
11
224.245
21
-134.71
0
ARC
8
BLACK
10
224.155
20
-134.62
40
0.127
50
135
51
315
0
ARC
8
BLACK
10
228.6
20
-130.175
40
0.127
50
-45
51
135
0
LINE
8
BLACK
10
224.282
20
-140.97
11
224.282
21
-134.62
0
LINE
8
BLACK
10
224.028
20
-140.97
11
224.028
21
-134.62
0
ARC
8
BLACK
10
224.155
20
-134.62
40
0.127
50
360
51
540
0
ARC
8
BLACK
10
224.155
20
-140.97
40
0.127
50
180
51
360
0
LINE
8
BLACK
10
224.065
20
-141.06
11
225.335
21
-142.33
0
LINE
8
BLACK
10
224.245
20
-140.88
11
225.515
21
-142.15
0
ARC
8
BLACK
10
225.425
20
-142.24
40
0.127
50
225
51
405
0
ARC
8
BLACK
10
224.155
20
-140.97
40
0.127
50
45
51
225
0
LINE
8
BLACK
10
228.727
20
-130.175
11
228.727
21
-124.46
0
LINE
8
BLACK
10
228.473
20
-130.175
11
228.473
21
-124.46
0
ARC
8
BLACK
10
228.6
20
-124.46
40
0.127
50
360
51
540
0
ARC
8
BLACK
10
228.6
20
-130.175
40
0.127
50
180
51
360
0
LINE
8
BLACK
10
226.187
20
-147.955
11
226.187
21
-142.875
0
LINE
8
BLACK
10
225.933
20
-147.955
11
225.933
21
-142.875
0
ARC
8
BLACK
10
226.06
20
-142.875
40
0.127
50
360
51
540
0
ARC
8
BLACK
10
226.06
20
-147.955
40
0.127
50
180
51
360
0
LINE
8
BLACK
10
225.335
20
-142.33
11
225.97
21
-142.965
0
LINE
8
BLACK
10
225.515
20
-142.15
11
226.15
21
-142.785
0
ARC
8
BLACK
10
226.06
20
-142.875
40
0.127
50
225
51
405
0
ARC
8
BLACK
10
225.425
20
-142.24
40
0.127
50
45
51
225
0
LINE
8
BLACK
10
208.407
20
-132.715
11
208.407
21
-131.318
0
LINE
8
BLACK
10
208.153
20
-132.715
11
208.153
21
-131.318
0
ARC
8
BLACK
10
208.28
20
-131.318
40
0.127
50
360
51
540
0
ARC
8
BLACK
10
208.28
20
-132.715
40
0.127
50
180
51
360
0
LINE
8
BLACK
10
207.1
20
-134.71
11
208.37
21
-133.44
0
LINE
8
BLACK
10
206.92
20
-134.53
11
208.19
21
-133.26
0
ARC
8
BLACK
10
208.28
20
-133.35
40
0.127
50
315
51
495
0
ARC
8
BLACK
10
207.01
20
-134.62
40
0.127
50
135
51
315
0
LINE
8
BLACK
10
208.407
20
-133.35
11
208.407
21
-132.715
0
LINE
8
BLACK
10
208.153
20
-133.35
11
208.153
21
-132.715
0
ARC
8
BLACK
10
208.28
20
-132.715
40
0.127
50
360
51
540
0
ARC
8
BLACK
10
208.28
20
-133.35
40
0.127
50
180
51
360
0
LINE
8
BLACK
10
199.39
20
-134.747
11
207.01
21
-134.747
0
LINE
8
BLACK
10
199.39
20
-134.493
11
207.01
21
-134.493
0
ARC
8
BLACK
10
207.01
20
-134.62
40
0.127
50
270
51
450
0
ARC
8
BLACK
10
199.39
20
-134.62
40
0.127
50
90
51
270
0
LINE
8
BLACK
10
199.517
20
-148.59
11
199.517
21
-134.62
0
LINE
8
BLACK
10
199.263
20
-148.59
11
199.263
21
-134.62
0
ARC
8
BLACK
10
199.39
20
-134.62
40
0.127
50
360
51
540
0
ARC
8
BLACK
10
199.39
20
-148.59
40
0.127
50
180
51
360
0
LINE
8
BLACK
10
216.662
20
-150.495
11
216.662
21
-149.86
0
LINE
8
BLACK
10
216.408
20
-150.495
11
216.408
21
-149.86
0
ARC
8
BLACK
10
216.535
20
-149.86
40
0.127
50
360
51
540
0
ARC
8
BLACK
10
216.535
20
-150.495
40
0.127
50
180
51
360
0
LINE
8
BLACK
10
221.742
20
-144.78
11
221.742
21
-139.7
0
LINE
8
BLACK
10
221.488
20
-144.78
11
221.488
21
-139.7
0
ARC
8
BLACK
10
221.615
20
-139.7
40
0.127
50
360
51
540
0
ARC
8
BLACK
10
221.615
20
-144.78
40
0.127
50
180
51
360
0
LINE
8
BLACK
10
218.985
20
-137.25
11
221.525
21
-139.79
0
LINE
8
BLACK
10
219.165
20
-137.07
11
221.705
21
-139.61
0
ARC
8
BLACK
10
221.615
20
-139.7
40
0.127
50
225
51
405
0
ARC
8
BLACK
10
219.075
20
-137.16
40
0.127
50
45
51
225
0
LINE
8
BLACK
10
216.625
20
-149.95
11
221.705
21
-144.87
0
LINE
8
BLACK
10
216.445
20
-149.77
11
221.525
21
-144.69
0
ARC
8
BLACK
10
221.615
20
-144.78
40
0.127
50
315
51
495
0
ARC
8
BLACK
10
216.535
20
-149.86
40
0.127
50
135
51
315
0
LINE
8
BLACK
10
210.947
20
-133.35
11
210.947
21
-131.318
0
LINE
8
BLACK
10
210.693
20
-133.35
11
210.693
21
-131.318
0
ARC
8
BLACK
10
210.82
20
-131.318
40
0.127
50
360
51
540
0
ARC
8
BLACK
10
210.82
20
-133.35
40
0.127
50
180
51
360
0
LINE
8
BLACK
10
208.28
20
-147.447
11
208.915
21
-147.447
0
LINE
8
BLACK
10
208.28
20
-147.193
11
208.915
21
-147.193
0
ARC
8
BLACK
10
208.915
20
-147.32
40
0.127
50
270
51
450
0
ARC
8
BLACK
10
208.28
20
-147.32
40
0.127
50
90
51
270
0
LINE
8
BLACK
10
206.92
20
-146.14
11
208.19
21
-147.41
0
LINE
8
BLACK
10
207.1
20
-145.96
11
208.37
21
-147.23
0
ARC
8
BLACK
10
208.28
20
-147.32
40
0.127
50
225
51
405
0
ARC
8
BLACK
10
207.01
20
-146.05
40
0.127
50
45
51
225
0
LINE
8
BLACK
10
207.137
20
-146.05
11
207.137
21
-137.16
0
LINE
8
BLACK
10
206.883
20
-146.05
11
206.883
21
-137.16
0
ARC
8
BLACK
10
207.01
20
-137.16
40
0.127
50
360
51
540
0
ARC
8
BLACK
10
207.01
20
-146.05
40
0.127
50
180
51
360
0
LINE
8
BLACK
10
210.73
20
-133.26
11
206.92
21
-137.07
0
LINE
8
BLACK
10
210.91
20
-133.44
11
207.1
21
-137.25
0
ARC
8
BLACK
10
207.01
20
-137.16
40
0.127
50
135
51
315
0
ARC
8
BLACK
10
210.82
20
-133.35
40
0.127
50
-45
51
135
0
LINE
8
BLACK
10
208.915
20
-147.447
11
210.185
21
-147.447
0
LINE
8
BLACK
10
208.915
20
-147.193
11
210.185
21
-147.193
0
ARC
8
BLACK
10
210.185
20
-147.32
40
0.127
50
270
51
450
0
ARC
8
BLACK
10
208.915
20
-147.32
40
0.127
50
90
51
270
0
LINE
8
BLACK
10
210.185
20
-147.447
11
213.36
21
-147.447
0
LINE
8
BLACK
10
210.185
20
-147.193
11
213.36
21
-147.193
0
ARC
8
BLACK
10
213.36
20
-147.32
40
0.127
50
270
51
450
0
ARC
8
BLACK
10
210.185
20
-147.32
40
0.127
50
90
51
270
0
LINE
8
BLACK
10
226.06
20
-122.047
11
228.6
21
-122.047
0
LINE
8
BLACK
10
226.06
20
-121.793
11
228.6
21
-121.793
0
ARC
8
BLACK
10
228.6
20
-121.92
40
0.127
50
270
51
450
0
ARC
8
BLACK
10
226.06
20
-121.92
40
0.127
50
90
51
270
0
LINE
8
BLACK
10
226.187
20
-125.73
11
226.187
21
-121.92
0
LINE
8
BLACK
10
225.933
20
-125.73
11
225.933
21
-121.92
0
ARC
8
BLACK
10
226.06
20
-121.92
40
0.127
50
360
51
540
0
ARC
8
BLACK
10
226.06
20
-125.73
40
0.127
50
180
51
360
0
LINE
8
BLACK
10
228.055
20
-127.545
11
226.15
21
-125.64
0
LINE
8
BLACK
10
227.875
20
-127.725
11
225.97
21
-125.82
0
ARC
8
BLACK
10
226.06
20
-125.73
40
0.127
50
405
51
585
0
ARC
8
BLACK
10
227.965
20
-127.635
40
0.127
50
225
51
405
0
LINE
8
BLACK
10
228.092
20
-129.54
11
228.092
21
-127.635
0
LINE
8
BLACK
10
227.838
20
-129.54
11
227.838
21
-127.635
0
ARC
8
BLACK
10
227.965
20
-127.635
40
0.127
50
360
51
540
0
ARC
8
BLACK
10
227.965
20
-129.54
40
0.127
50
180
51
360
0
LINE
8
BLACK
10
224.88
20
-132.805
11
228.055
21
-129.63
0
LINE
8
BLACK
10
224.7
20
-132.625
11
227.875
21
-129.45
0
ARC
8
BLACK
10
227.965
20
-129.54
40
0.127
50
315
51
495
0
ARC
8
BLACK
10
224.79
20
-132.715
40
0.127
50
135
51
315
0
LINE
8
BLACK
10
219.075
20
-132.842
11
224.79
21
-132.842
0
LINE
8
BLACK
10
219.075
20
-132.588
11
224.79
21
-132.588
0
ARC
8
BLACK
10
224.79
20
-132.715
40
0.127
50
270
51
450
0
ARC
8
BLACK
10
219.075
20
-132.715
40
0.127
50
90
51
270
  0
ENDSEC
  0
EOF
